<svg width="20" height="20" viewBox="0 0 20 20" fill="none" xmlns="http://www.w3.org/2000/svg">
<path d="M13.4358 9.14067C13.3162 9.08922 13.2214 8.99318 13.1715 8.87295C13.1217 8.75272 13.1207 8.61778 13.1687 8.49681C13.2168 8.37584 13.3101 8.27838 13.4289 8.22513C13.5476 8.17189 13.6825 8.16706 13.8048 8.21167C14.2114 8.37296 14.5779 8.62122 14.8784 8.93907C15.179 9.25692 15.4064 9.63666 15.5448 10.0517L16.8788 14.0517C17.0292 14.5028 17.0702 14.9832 16.9985 15.4534C16.9267 15.9235 16.7442 16.3698 16.466 16.7555C16.1879 17.1412 15.822 17.4553 15.3986 17.6718C14.9751 17.8883 14.5063 18.001 14.0308 18.0007H5.97076C5.49537 18.0007 5.02679 17.8877 4.60362 17.6711C4.18046 17.4545 3.81484 17.1404 3.5369 16.7547C3.25895 16.369 3.07663 15.9228 3.00498 15.4529C2.93332 14.9829 2.97438 14.5026 3.12476 14.0517L4.45776 10.0517C4.59851 9.62922 4.83154 9.24339 5.13994 8.92219C5.44834 8.601 5.82437 8.35248 6.24076 8.19467C6.30215 8.17136 6.36754 8.16037 6.43318 8.16233C6.49882 8.16429 6.56343 8.17916 6.62332 8.20609C6.68321 8.23302 6.73722 8.27148 6.78225 8.31928C6.82728 8.36708 6.86245 8.42328 6.88576 8.48467C6.90907 8.54606 6.92006 8.61145 6.9181 8.67709C6.91614 8.74273 6.90127 8.80734 6.87434 8.86723C6.84741 8.92713 6.80895 8.98113 6.76115 9.02616C6.71335 9.07119 6.65715 9.10636 6.59576 9.12967C6.31782 9.23481 6.0668 9.40057 5.86095 9.6149C5.65511 9.82922 5.49961 10.0867 5.40576 10.3687L4.07276 14.3687C3.97262 14.6693 3.94536 14.9895 3.99322 15.3028C4.04109 15.616 4.16272 15.9134 4.34807 16.1705C4.53343 16.4275 4.77722 16.6368 5.05935 16.7812C5.34147 16.9255 5.65386 17.0007 5.97076 17.0007H14.0328C14.3497 17.0006 14.6621 16.9253 14.9442 16.7808C15.2263 16.6364 15.47 16.4269 15.6553 16.1698C15.8405 15.9126 15.9621 15.6151 16.0098 15.3018C16.0575 14.9885 16.0301 14.6683 15.9298 14.3677L14.5978 10.3677C14.5055 10.0911 14.3538 9.83809 14.1534 9.62631C13.953 9.41453 13.7088 9.24912 13.4378 9.14167" fill="#CFDCEB"/>
<path fill-rule="evenodd" clip-rule="evenodd" d="M10 8.5C10.5304 8.5 11.0391 8.28929 11.4142 7.91421C11.7893 7.53914 12 7.03043 12 6.5C12 5.96957 11.7893 5.46086 11.4142 5.08579C11.0391 4.71071 10.5304 4.5 10 4.5C9.46957 4.5 8.96086 4.71071 8.58579 5.08579C8.21071 5.46086 8 5.96957 8 6.5C8 7.03043 8.21071 7.53914 8.58579 7.91421C8.96086 8.28929 9.46957 8.5 10 8.5ZM10 5.5C10.2652 5.5 10.5196 5.60536 10.7071 5.79289C10.8946 5.98043 11 6.23478 11 6.5C11 6.76522 10.8946 7.01957 10.7071 7.20711C10.5196 7.39464 10.2652 7.5 10 7.5C9.73478 7.5 9.48043 7.39464 9.29289 7.20711C9.10536 7.01957 9 6.76522 9 6.5C9 6.23478 9.10536 5.98043 9.29289 5.79289C9.48043 5.60536 9.73478 5.5 10 5.5Z" fill="#2E80EC"/>
<path fill-rule="evenodd" clip-rule="evenodd" d="M5.5 6.286C5.5 8.959 8.153 13.5 10 13.5C11.848 13.5 14.5 8.959 14.5 6.286C14.5 3.65 12.493 1.5 10 1.5C7.507 1.5 5.5 3.65 5.5 6.286ZM13.5 6.286C13.5 8.479 11.152 12.5 10 12.5C8.849 12.5 6.5 8.48 6.5 6.286C6.5 4.187 8.075 2.5 10 2.5C11.925 2.5 13.5 4.187 13.5 6.286Z" fill="#2E80EC"/>
</svg>
