<svg width="390" height="490" viewBox="0 0 390 490" fill="none" xmlns="http://www.w3.org/2000/svg">
<g clip-path="url(#clip0_394_3698)">
<rect width="390" height="490" fill="white"/>
<path d="M120.9 209.4V455.8C120.9 460 117.2 463.3 113.1 463.3H108.7C107.8 463.3 106.8 463.1 106.1 462.9C103.2 461.9 101 459.1 101 455.8V209.4C101 207.1 102.1 205 103.7 203.6C105 202.5 106.8 201.7 108.7 201.7H113.1C117.3 201.7 120.9 205.2 120.9 209.4Z" fill="#AACCB1"/>
<g style="mix-blend-mode:multiply" opacity="0.4">
<path d="M110.9 333C103 350.3 103 452.9 106.1 462.9C103.2 461.9 101 459.1 101 455.8V209.4C101 207.1 102.1 205.1 103.7 203.7C104.2 204.9 104.7 206.3 105.3 207.7C105.3 207.7 120 226.9 112.1 254.2C104.3 281.5 120.6 311.6 110.9 332.9V333Z" fill="#D8E8DD"/>
</g>
<path d="M183.1 54.5004L44.6 45.9004L36.9 45.4004C29.8 45.0004 24 50.0004 24 56.5004V246C24 252.6 29.8 257.7 37 257.5L183.2 251.9C189.3 251.7 193.8 246.6 193.8 240.5V66.2003C193.8 60.1003 189.2 54.9004 183 54.5004H183.1Z" fill="url(#paint0_linear_394_3698)"/>
<path d="M199.7 66.5001V240.4C199.7 246.5 194.8 251.6 188.7 251.8L43.1004 257.4C36.0004 257.7 29.9004 252.6 29.9004 246V56.9001C29.9004 50.3001 35.8004 45.3001 42.9004 45.8001L188.6 54.8001C194.7 55.2001 199.7 60.4001 199.7 66.4001V66.5001Z" fill="url(#paint1_linear_394_3698)"/>
<path d="M179.1 68.2004L54.4002 61.4004C53.5002 61.4004 52.4002 61.4004 51.5002 61.5004C46.3002 62.4004 42.2002 66.5004 42.2002 71.8004V232.6C42.2002 238.7 47.7002 243.5 54.2002 243.3L179 239.3C184.8 239.1 189.7 234.3 189.7 228.7V79.1004C189.7 73.4004 184.8 68.5004 179.1 68.2004ZM187.9 228.7C187.9 233.4 183.8 237.4 179 237.5L54.1002 241.4C48.7002 241.6 43.9002 237.6 43.9002 232.5V71.9004C43.9002 67.6004 47.3002 64.2004 51.6002 63.4004C52.4002 63.3004 53.3002 63.2004 54.2002 63.2004L179 69.9004C183.8 70.2004 187.9 74.2004 187.9 78.9004V228.6V228.7Z" fill="white"/>
<path d="M152.701 103.6C144.901 97.3004 133.201 93.8004 116.701 93.1004C100.201 92.4004 88.5008 92.9004 79.8008 94.0004V208.1H106.701V167C109.901 167.4 112.601 167.6 116.101 167.6C125.501 167.7 134.201 166.6 141.501 163.9C146.401 162.1 150.801 159.6 154.401 156.4C161.201 150.2 165.001 141 165.001 130C165.001 119 160.101 109.6 152.701 103.6ZM115.901 147.8C112.001 147.8 109.801 147.5 106.701 146.9V113.2C109.101 112.8 112.601 112.4 118.001 112.6C131.301 113.1 138.901 119.5 138.901 129.9C138.901 140.3 135.701 142 130.201 144.9C126.501 146.9 121.601 147.9 115.901 147.8Z" fill="white"/>
<path style="mix-blend-mode:multiply" opacity="0.3" d="M199.7 226.2V240.4C199.7 246.5 194.8 251.6 188.7 251.8L43.1004 257.4C36.0004 257.7 29.9004 252.6 29.9004 246V56.9001C29.9004 50.3001 35.8004 45.3001 42.9004 45.8001L50.7004 46.3001C50.6004 51.1001 50.7004 56.3001 51.5004 61.6001C51.5004 62.2001 51.7004 62.8001 51.8004 63.5001C54.4004 79.1001 62.0004 95.1001 80.6004 103.3C82.6004 104.2 84.6004 105 86.4004 105.9C94.1004 109.3 100.8 112.4 106.5 115.5C113.6 119.4 119.3 123.5 123.8 128.9C127.1 132.8 129.8 137.3 132.1 142.9C136.3 153.4 138.9 167.7 140.6 188.5C140.9 192.1 141.5 195.3 142.5 198.1C143.8 202.2 145.8 205.6 148.2 208.5C148.6 209 149.1 209.5 149.5 210C150.4 210.9 151.3 211.8 152.4 212.6C161.4 220 174.4 222.7 187.5 224.6C188.1 224.6 188.7 224.8 189.3 224.8C192.8 225.3 196.3 225.7 199.8 226.2H199.7Z" fill="url(#paint2_linear_394_3698)"/>
<path d="M424.33 464.87C544.794 464.87 642.45 463.751 642.45 462.37C642.45 460.989 544.794 459.87 424.33 459.87C303.866 459.87 206.21 460.989 206.21 462.37C206.21 463.751 303.866 464.87 424.33 464.87Z" fill="#191919"/>
<mask id="mask0_394_3698" style="mask-type:luminance" maskUnits="userSpaceOnUse" x="206" y="459" width="437" height="6">
<path d="M424.33 464.87C544.794 464.87 642.45 463.751 642.45 462.37C642.45 460.989 544.794 459.87 424.33 459.87C303.866 459.87 206.21 460.989 206.21 462.37C206.21 463.751 303.866 464.87 424.33 464.87Z" fill="white"/>
</mask>
<g mask="url(#mask0_394_3698)">
<path d="M424.33 463.87C544.794 463.87 642.45 462.751 642.45 461.37C642.45 459.989 544.794 458.87 424.33 458.87C303.866 458.87 206.21 459.989 206.21 461.37C206.21 462.751 303.866 463.87 424.33 463.87Z" fill="#525355"/>
<path d="M432.25 460.33C552.714 460.33 650.37 460.034 650.37 459.67C650.37 459.305 552.714 459.01 432.25 459.01C311.786 459.01 214.13 459.305 214.13 459.67C214.13 460.034 311.786 460.33 432.25 460.33Z" fill="#141414"/>
</g>
<path d="M632.42 434.73C628 434.93 623.59 435.13 619.17 435.33C618.53 433.03 619.62 430.87 619.73 428.62C620.37 415.73 617.95 403.76 608.56 394.23C600.83 386.38 589.31 386.4 581.11 393.72C573.52 400.5 570.04 409.18 568.87 419.06C567.77 428.34 569.09 437.18 573.43 445.47C576.74 451.79 581.44 456.76 588.21 459.51C589.97 460.22 594.2 460.37 593.27 461.45C588.36 461.75 579.2 461.62 574.29 461.45C572.02 461.37 569.86 460.54 567.88 459.34C560.18 455.22 555.82 448.42 552.86 440.53C550.96 435.45 552.33 435.95 546.23 435.85C543.05 435.8 539.85 436.23 536.68 435.55C534.64 434.55 532.61 434.71 530.59 435.65C529.58 435.94 528.57 435.9 527.55 435.72C525.31 435.24 523.06 435.31 520.81 435.66C517.4 436.08 513.97 435.86 510.55 435.83C508.78 435.81 508.05 436.47 507.57 438.16C505.55 445.33 502.25 451.75 496.08 456.34C494.73 457.35 493.31 458.21 491.79 458.94C484.88 462.93 477.4 461.55 470.04 461.23C469.07 460.19 469.77 459.59 470.65 459.15C471.76 458.6 472.99 458.48 474.22 458.47C476.51 458.45 478.81 458.31 481.08 458.49C485.86 458.88 489.81 457.03 493.41 454.19C494.44 453.38 495.66 452.9 496.62 452.01C498.8 450 500.76 447.99 501.7 444.9C502.35 442.73 503.45 440.57 504.38 438.42C505.38 436.11 504.93 435.54 502.53 435.29C499.89 435.02 497.56 435.22 495.61 437.29C494.75 438.21 493.71 437.82 493.08 436.88C492.25 435.63 491.11 435.29 489.73 435.41C487.95 435.57 486.26 434.91 484.53 434.81C481.47 434.62 478.19 435.2 475.65 436.31C473.11 437.42 471.94 437.26 469.44 436.27C466.3 435.02 462.44 434.85 458.87 435.48C457.27 435.76 455.69 436 454.11 435.79C451.03 435.37 448.06 434.24 444.85 434.79C445.44 435.71 445.67 436.97 445.66 438.27C445.64 443.87 448.64 447.86 452.66 451.28C453.12 451.67 453.73 451.92 454.11 452.39C456.88 455.82 460.92 457.04 464.77 458.6C465.86 459.04 466.96 459.47 466.61 461.01C464.4 462.14 462.4 461 460.36 460.41C459.13 460.06 458.08 459.31 456.99 458.66C448.71 454.52 444.23 447.38 441.44 438.93C440.45 435.93 440.49 435.91 437.3 435.9C427.69 435.9 418.09 435.9 408.48 435.89C407.35 435.89 406.18 436.08 405.15 435.37C404.86 432.51 405.4 429.78 406.33 427.09C407.69 426.25 408.25 427.24 408.73 428.22C409.04 428.85 408.89 429.55 408.77 430.23C408.34 432.68 408.58 432.89 411.08 432.81C412.4 432.76 413 432.35 412.89 430.91C412.65 427.88 411.55 425 411.35 421.96C411.3 421.16 410.63 420.88 409.95 420.67C408.86 420.33 407.73 420.19 406.63 419.92C405.6 419.34 405.61 418.3 405.5 417.32C404.85 411.87 403.27 406.71 400.48 401.99C396.27 394.88 390.73 389.53 382.03 388.48C375.41 387.68 369.91 390.01 365.16 394.41C358.46 400.61 355.28 408.55 354.08 417.41C353.96 418.27 354.22 419.3 353.17 419.82C352.31 419.82 351.4 419.31 351.44 418.62C351.61 416.14 350.61 413.45 352.34 411.22C353.11 410.24 353.2 409.33 352.79 408.08C352.26 408.12 352.03 408.77 351.58 408.85C350.18 409.11 349.42 409.39 350.39 411.13C351.17 412.53 350 413.8 348.87 414.6C345.85 416.76 344.68 419.72 344.86 423.29C344.97 425.57 343.42 427.1 342.51 428.9C341.84 430.23 341.4 431.38 342.42 432.7C342.74 433.12 343.05 433.76 342.84 434.2C341.86 436.37 342.86 438.51 342.79 440.65C342.75 441.97 342.95 442.41 344.4 442.22C348.56 441.67 349.32 442.22 350.36 446.16C350.6 447.07 351.07 447.44 351.95 447.47C352.33 447.48 352.72 447.55 353.09 447.47C354.13 447.27 355.81 448.11 356.04 446.68C356.24 445.45 355.31 444.06 354.11 443.25C351.04 441.15 350.4 439.78 351.26 436.23C351.66 434.58 352.01 432.99 351.67 431.27C351.45 430.14 351.79 429.14 353.03 428.69C354.13 429.01 353.92 429.97 354.02 430.76C355.07 439.49 358.28 447.24 364.57 453.52C368.38 457.32 372.8 460.01 378.37 460.34C379.77 460.42 379.78 460.52 379.65 461.71C376.7 462.27 373.72 462.14 370.79 461.86C368.43 461.63 366.09 461.48 363.75 461.61C359.9 461.81 356.36 460.92 352.99 459.15C345.08 454.64 340.34 447.73 337.78 439.14C336.81 435.89 336.75 435.9 333.35 435.9C322.01 435.9 310.67 435.94 299.32 435.86C297.26 435.85 295.98 436.37 295.6 438.56C295.44 439.5 295.14 440.52 294 440.87C292.33 439.51 291.79 437.47 292.91 435.91C294.22 434.09 295.79 432.69 298.37 432.74C304.09 432.85 309.81 432.78 315.53 432.77C316.14 432.77 316.76 432.83 317.36 432.75C318.11 432.66 319.37 433.08 319.36 431.89C319.35 430.68 318.12 430.75 317.22 430.8C314.8 430.93 312.49 430.23 310.3 429.49C307.56 428.56 306.04 426.04 304.93 423.53C303.4 420.05 300.93 418.08 297.19 417.59C296.21 417.46 295.24 417.2 294.33 416.79C293.42 416.38 292.47 415.93 292.85 414.61C296.55 413.17 299.72 414.44 302.55 416.74C305.29 418.97 307.43 421.77 309.26 424.79C310.49 426.81 312.21 427.64 314.55 427.78C320.18 428.12 325.73 429.29 331.4 429.17C331.94 429.16 332.46 429.3 332.89 429.67C333.32 431.36 332.09 431.52 330.95 431.71C329.55 431.94 328.12 431.53 326.75 431.77C326.57 432.64 327.16 432.66 327.54 432.69C329.95 432.88 332.37 432.79 334.78 432.76C336.8 432.73 336.02 430.85 336.66 429.89C339.59 428.87 340.57 426.44 341.33 423.71C342.87 418.15 344.89 412.73 346.85 407.3C347.08 406.78 347.32 406.27 347.48 405.72C349.33 400.51 350.99 395.21 354.13 390.57C354.64 389.82 355.12 389.05 355.76 388.39C356.73 387.46 357.69 386.53 358.39 385.35C365.58 377.05 374.86 374.63 385.39 375.75C386.22 375.84 387.05 376 387.88 376.09C399.53 377.28 405.97 384.81 410.47 394.68C410.76 395.31 410.81 396 410.85 396.69C412 400.31 413.35 403.93 413.8 407.66C414.26 411.42 415.01 415.18 415.02 419C415.02 422.28 414.93 425.54 415.38 428.82C415.65 430.8 416.5 431.49 418.33 431.33C418.48 431.32 418.64 431.33 418.79 431.33C441.23 431.29 463.66 432.12 486.09 431.78C489.15 431.73 492.16 432.42 495.23 432.25C503.99 431.77 512.75 432.23 521.5 432.26C527.68 432.28 533.85 432.1 540.03 431.79C545.07 431.54 550.09 432.06 555.12 432.23C558.68 432.35 558.68 432.29 558.98 428.72C559.96 424.58 560.57 420.37 561.39 416.2C563.07 408.52 564.99 400.92 568.67 393.89C572.62 386.36 577.84 379.97 586.28 377.57C594.68 375.18 603.34 374.49 611.47 378.79C618.17 382.34 622.18 388.35 625.11 395.16C627.51 400.74 628.91 406.57 629.34 412.63C629.41 413.55 629.62 414.44 629.78 415.34C629.99 420.65 630.19 425.95 628.65 431.13C628.16 432.78 628.38 433.78 630.42 433.72C631.16 433.7 632.17 433.55 632.41 434.72L632.42 434.73Z" fill="black"/>
<path d="M292.98 414.66C293.08 415.94 294.09 416.2 295.05 416.44C296.52 416.81 298.01 417.08 299.49 417.41C302.8 418.16 304.19 420.8 305.68 423.48C307.28 426.34 308.72 429.35 312.91 429.46C314.7 429.51 316.44 430.39 318.44 430.01C319.61 429.79 320.42 430.97 320.44 432.27C320.46 433.76 319.29 433.41 318.45 433.41C311.9 433.43 305.34 433.42 298.79 433.42C293.66 433.42 291.76 436.4 293.99 440.94C294.56 441.79 294.05 442.55 293.74 443.3C290.79 450.66 285.87 456.18 278.58 459.48C275.68 460.99 272.62 461.64 269.34 461.57C264.78 461.47 260.21 461.7 255.65 461.55C252.83 461.46 250.03 461.04 248.03 458.67C239.25 453.72 234.01 446.04 231.83 436.44C231 432.79 229.29 431.65 225.97 431.07C221.24 430.25 216.61 428.92 211.93 427.8C213.38 426.98 213.68 425.86 213.16 424.26C212.81 423.19 212.98 421.99 213.06 420.85C213.33 416.91 215.8 414.39 219.75 414C220.36 413.94 220.97 413.94 221.58 413.94C242.25 413.94 262.91 413.92 283.58 413.94C284.54 414.04 285.5 414.01 286.47 413.98C287.02 413.92 287.57 413.99 288.12 413.98C289.76 414.08 291.49 413.49 292.98 414.65V414.66Z" fill="black"/>
<path d="M489.03 296.95C495.98 298.91 502.21 302.41 508.37 306.02C520.78 313.29 533 320.88 544.69 329.27C543.55 330.66 542.09 331.73 541.24 333.44C540.52 334.89 539.54 333.72 538.85 333.14C535.69 330.49 532.5 327.9 529.21 325.41C520.78 319.04 511.54 313.99 502.47 308.66C490.35 301.53 477.15 298.37 463.25 297.46C456.71 297.03 450.18 296.68 443.62 296.57C439.28 296.49 434.94 295.98 430.6 296.19C420.02 296.7 409.42 296.51 398.86 297.45C395.9 297.71 392.95 297.99 389.99 298.32C379.36 299.48 371.4 305.17 364.82 313.12C361.85 316.71 359.45 320.74 357.92 325.18C356.38 329.64 357.81 331.88 362.52 332.41C367.82 333.01 373.14 333.36 378.45 333.85C379.53 333.95 380.6 334 381.3 335C383.01 338.6 384.38 342.34 385.56 346.14C385.77 346.82 386.15 347.63 385.06 348.01C378.72 348.11 372.42 347.44 366.1 347.24C360.46 347.06 354.83 346.8 349.19 346.64C347.28 346.59 345.37 346.74 343.47 346.51C342.95 346.45 342.47 346.26 342.04 345.95C338.46 341.4 333.82 337.9 329.75 333.82C327.82 331.89 326.52 329.65 325.67 327.1C326.15 325.43 327.4 324.25 328.41 322.94C333.62 316.28 338.44 309.33 343.39 302.49C344.33 301.19 344.9 299.85 344.22 298.24C344.01 297.74 343.94 297.2 344.41 296.76C351.64 290.84 360.4 290.1 369.19 289.34C375.36 288.8 381.55 288.66 387.71 288.95C398.75 289.47 409.81 289.61 420.85 290.14C427.55 290.46 434.25 290.8 440.95 291.22C446.5 291.57 452.07 291.82 457.6 292.42C460.19 292.7 462.78 292.49 465.37 292.76C472.93 293.55 480.45 294.5 487.72 296.86C488.15 297 488.56 297.26 489.02 296.96L489.03 296.95Z" fill="#3A91F0"/>
<path d="M356.26 388.6C352.71 393.07 350.59 398.24 348.86 403.6C348.6 404.39 348.26 405.16 347.96 405.93C346.66 407.38 341.4 408.13 339.92 407.06C339.22 406.56 339.12 405.79 339.06 405.03C338.93 403.42 339.03 401.83 339.31 400.24C339.65 398.37 338.91 397.15 337.18 396.45C333.2 394.83 329.07 393.78 324.87 392.99C323.48 392.73 322.12 393.02 320.85 393.61C314.1 396.77 306.84 397.04 299.6 397.44C287.79 398.09 275.95 397.53 264.16 398.02C251.8 398.53 239.45 398.37 227.1 398.29C219.36 398.24 211.53 398.19 204.01 395.72C200.27 394.49 199.93 393.83 201.33 390.11C201.41 389.89 201.42 389.67 201.43 389.44C202.14 388.36 202.85 387.28 203.56 386.21C204.31 384.14 205.91 383.48 207.97 383.43C209.03 383.4 210.11 383.1 211.16 383.24C215.88 383.87 220.6 383.24 225.31 383.24C257.91 383.18 290.51 383.21 323.1 383.21C323.94 383.21 324.78 383.25 325.61 383.39C332.23 384.49 338.88 385.06 345.59 384.35C346.36 384.27 347.11 384.31 347.83 384.6C350.09 385.5 352.45 386.1 354.76 386.86C355.57 387.13 356.71 387.2 356.25 388.59L356.26 388.6Z" fill="#0C72ED"/>
<path d="M325.91 327.1C328.82 333.77 335.08 337.45 339.76 342.53C340.58 343.42 341.54 344.19 341.95 345.39C341.62 345.77 341.18 345.88 340.72 345.86C332.51 345.46 324.29 345.98 316.1 345.59C312.74 345.43 309.48 345.6 306.19 346.09C279.4 346.36 252.62 346.14 225.83 346.21C223.92 346.21 222.02 346.19 220.11 346.32C216.18 344.91 212.19 345.51 208.21 345.96C207.52 346.04 206.83 346.03 206.3 345.47C206.77 342.49 208.54 340.2 210.39 337.99C212.93 334.96 215.32 331.8 218.35 329.21C218.81 329.05 219.29 329.1 219.67 329.35C222.32 331.09 225.29 331.02 228.28 331.02C256.89 331 285.51 330.97 314.12 331.05C317.79 331.05 321.08 330.48 323.86 327.95C324.41 327.45 325.06 326.98 325.91 327.11V327.1Z" fill="#0D73ED"/>
<path d="M325.97 383.95C292.33 383.95 258.69 383.95 225.04 383.97C222.58 383.97 220.12 384.3 217.66 384.37C216.3 384.41 214.94 384.5 213.57 384.14C210.84 383.42 208.14 384.39 205.42 384.44C204.32 384.46 204.66 386.11 203.57 386.22C204.16 384.84 204.12 383.46 203.88 381.99C203.14 377.48 202.56 372.95 202.6 368.36C204.75 367.27 206.92 367.42 209.1 368.25C209.19 369.59 208.07 369.29 207.36 369.47C206.52 369.69 205.57 369.39 204.73 369.94C205.21 370.75 205.88 370.46 206.42 370.45C237.29 370.3 268.16 370.26 299.02 370.51C307.55 370.58 316.06 369.96 324.58 370.4C326.2 370.48 327.58 370.08 328.67 368.84C330.15 369.16 329.82 370.29 329.41 371.06C327.29 375.11 326.75 379.55 325.98 383.95H325.97Z" fill="#0961CB"/>
<path d="M381.02 335.39C380.74 334.6 380.12 334.51 379.38 334.45C373.76 334.02 368.15 333.55 362.53 333.09C357.48 332.67 355.34 329.84 357.28 325.2C363.37 310.65 373.19 300.3 389.59 297.79C399.94 296.21 410.4 296.29 420.82 295.86C433.87 295.33 446.9 295.86 459.92 296.56C473.53 297.29 486.9 299.42 499.06 306.13C514.31 314.54 526.55 321.43 540.56 333.84C541.42 331.83 542.15 329.68 544.68 329.29C548.01 329.8 551.4 329.96 554.65 330.98C555.94 331.58 556.72 332.71 557.5 333.81C557.89 334.36 558.53 335.07 557.34 335.53C554.46 333.53 551.23 332.51 547.77 332.1C545.01 331.78 544.01 332.31 543.26 335.04C542.67 337.17 542.26 339.34 542.34 341.58C542.43 344.07 542.66 344.26 545.12 344.42C549.3 344.68 553.48 345 557.68 344.88C558.37 344.86 559.06 344.91 559.64 345.38C559.89 345.76 559.88 346.14 559.64 346.52C559.3 346.8 558.91 346.94 558.48 346.99C555.79 347.09 553.11 347.01 550.42 347.05C545.13 347.13 539.87 346.69 534.62 346.15C533.8 346.06 532.96 346.12 532.13 346.18C526.17 346.25 520.26 345.47 514.33 345.1C508.7 344.75 503.08 344.36 497.45 343.91C489.17 343.25 480.88 342.77 472.59 342.23C468.71 341.97 464.83 341.66 460.95 341.53C460.24 341.53 459.57 341.25 458.87 341.21C448.31 340.73 437.78 339.67 427.23 338.97C413.18 338.04 399.22 336.08 385.14 335.6C384.45 335.58 383.78 335.46 383.11 335.34C382.41 335.15 381.74 335.98 381.02 335.41V335.39Z" fill="#020102"/>
<path d="M325.91 327.1C322.38 330.92 318.01 331.82 312.9 331.79C284.29 331.61 255.68 331.67 227.07 331.75C223.83 331.75 220.87 331.37 218.34 329.21C220.78 325.91 223.8 323.13 226.6 320.16C234.07 312.21 242.05 304.76 249.86 297.15C251.04 296 252.41 295.98 253.84 295.84C258.44 295.13 263.07 294.89 267.73 294.76C289.24 294.18 310.76 294.38 332.28 294.33C334.89 294.33 337.47 294.61 340.02 295.04C341.65 295.32 343.38 295.6 344.28 297.32C345.87 299.12 345.21 300.78 344.04 302.47C338.23 310.85 332.18 319.06 325.91 327.09V327.1Z" fill="#010001"/>
<path d="M344.28 297.33C340.93 295.3 337.15 295.17 333.44 295.16C315.97 295.1 298.5 295.12 281.03 295.24C271.96 295.3 262.89 295.63 253.83 295.84C260.41 293.18 267.32 291.74 274.25 290.5C290.47 287.6 306.91 288.18 323.27 287.6C347.84 286.72 372.39 287.68 396.95 287.88C408.38 287.97 419.83 288.26 431.24 289.09C447.64 290.29 464.06 291.3 480.24 294.55C483.22 295.15 486.14 295.94 489.01 296.95C488.69 297.43 488.26 297.35 487.8 297.2C478.38 294.21 468.7 293.36 458.87 293.13C451.23 292.96 443.6 292.02 435.96 291.46C433.31 291.27 430.64 291.12 428.01 291.06C421.39 290.91 414.78 290.59 408.16 290.39C397.14 290.06 386.11 289.22 375.1 289.68C367.48 289.99 359.8 290.37 352.44 292.84C350.16 293.61 348.24 294.95 346.43 296.43C345.74 297 345.05 297.19 344.27 297.32L344.28 297.33Z" fill="#0D74EE"/>
<path d="M201.43 389.45C201.93 391.02 199.65 393.02 201.4 393.99C203.73 395.28 206.47 395.91 209.19 396.31C222.96 398.36 236.83 397.69 250.66 397.61C263.38 397.54 276.1 397.4 288.81 397.11C296.3 396.94 303.85 397 311.29 395.8C314.66 395.26 317.97 394.33 321.04 392.78C322.43 392.07 323.89 391.95 325.27 392.27C329.4 393.23 333.56 394.13 337.49 395.8C340.08 396.9 340.71 397.85 340.04 400.52C339.64 402.12 339.82 403.7 339.73 405.28C339.68 406.12 339.83 406.9 340.91 406.8C343.27 406.57 345.8 407.6 347.98 405.93C347.83 406.41 347.68 406.89 347.54 407.38C345.06 408.56 342.4 408.19 339.87 407.96C333.08 407.33 326.29 407.74 319.5 407.59C315.15 407.5 310.8 407.75 306.45 407.45C304.75 407.24 303.49 406.21 302.39 405.06C299.52 402.04 296.13 401.03 291.93 401.06C267.74 401.23 243.54 401.21 219.35 401.07C215.73 401.05 213.12 401.96 211.51 405.28C211.11 406.09 210.58 406.87 209.68 407.26C207.21 407.58 204.73 408.1 202.35 406.87C201.27 402.24 200.48 397.57 200.34 392.8C200.3 391.54 200.62 390.42 201.46 389.45H201.43Z" fill="#0A5DC3"/>
<path d="M202.32 406.87C204.76 406.91 207.21 406.94 209.65 406.98C232.27 407.11 254.88 407 277.5 407.04C278.87 407.04 280.24 406.98 281.6 407.17C283.63 408.01 285.89 407.92 287.93 408.74C288.87 409.12 289.86 409.55 288.83 410.83C288.47 411.28 288.44 411.81 288.72 412.32C289.29 413.38 288.64 414.01 287.94 414.64C287.48 414.64 287.01 414.64 286.55 414.64C285.64 414.02 284.73 414.03 283.82 414.64C263.23 414.64 242.64 414.76 222.05 414.6C213.71 414.54 213.17 419.6 213.91 424.95C214.04 425.92 214.07 427.11 215.3 427.68C214.09 428.39 212.98 426.83 211.93 427.8C209.14 426.8 208.03 424.33 206.94 421.93C204.76 417.12 203 412.15 202.31 406.87H202.32Z" fill="#161616"/>
<path d="M203.71 354.63C204.26 351.99 204.79 349.35 205.96 346.9C206.41 346.44 206.99 346.31 207.59 346.17C210.05 345.57 212.58 345.6 215.07 345.38C217.83 345.13 219.9 346.58 221.05 349.14C222.67 352.78 222.32 356.59 221.92 360.39C221.87 360.84 221.56 361.22 221.2 361.52C219.51 360.28 217.67 360.72 215.86 361.08C212.81 361.7 209.7 361.81 206.61 362.1C203.52 362.39 203 361.67 203.35 358.64C203.5 357.31 203.99 356 203.71 354.63Z" fill="#2780EC"/>
<path d="M203.71 354.63C204.85 356.25 203.54 357.83 203.6 359.44C203.66 360.98 204.04 361.68 205.66 361.51C210.56 361 215.51 360.87 220.28 359.44C220.89 360 220.29 360.97 220.98 361.51C221.54 363.97 219.66 366.99 216.68 367.35C211.95 367.92 207.16 368.04 202.4 367.26C202.19 362.98 202.76 358.79 203.69 354.63H203.71Z" fill="#1779DB"/>
<path d="M202.42 367.26C206.5 367.17 210.59 367.08 214.67 366.99C218.27 366.91 220.25 365.2 220.99 361.5C221.89 357.76 221.94 353.98 220.84 350.31C219.8 346.85 217.45 345.61 213.84 346.06C211.22 346.39 208.59 346.62 205.96 346.89C205.94 346.39 205.9 345.87 206.3 345.47C208.87 345.25 211.45 345.09 214.01 344.78C216.06 344.53 217.93 344.84 219.67 345.95C221.94 346.85 222.47 348.94 223 350.97C223.59 353.24 223.59 355.58 223.52 357.91C223.39 359.19 223.18 360.47 222.97 361.74C222.19 366.3 219.08 368.98 214.47 368.99C212.69 368.99 210.83 369.49 209.14 368.45C206.96 368.42 204.78 368.39 202.6 368.36C202.28 368.03 202.34 367.65 202.42 367.26Z" fill="#000F26"/>
<path d="M390.32 458.55C387.02 460.06 383.82 461.92 379.96 461.33C378.44 460.44 376.71 461.12 375.09 460.59C365.48 457.48 359.84 450.48 356.1 441.55C354.39 437.47 353.75 433.13 353.01 428.82C351.85 425.78 351.85 422.74 353.01 419.7C353.83 416.18 354.06 412.54 355.28 409.09C358.44 400.15 363.37 392.64 372.59 389.07C380.45 386.03 387.72 387.77 394.02 393.16C401.58 399.63 405.04 408.22 406.16 417.92C406.23 418.51 406.43 419.09 406.58 419.68C407.72 422.11 407.65 424.56 406.65 427.01C406.17 429.78 406.08 432.61 405.24 435.31C405.87 436.3 405.34 437.26 405.05 438.15C402.78 445.24 399.25 451.56 393.63 456.58C392.64 457.46 391.57 458.14 390.32 458.54V458.55Z" fill="#363738"/>
<path d="M325.97 383.95C325.83 383.6 325.54 383.24 325.57 382.91C325.95 379.13 326.71 375.39 328.29 371.94C328.77 370.88 329.25 369.98 329.17 368.82C328.72 368.41 328.52 367.9 328.56 367.29C330.88 365.5 333.65 364.38 335.84 362.36C339.07 359.38 341.67 355.98 343.38 351.91C344.24 349.85 343.36 347.93 342.97 345.97C354.42 345.84 365.84 346.46 377.26 347.27C379.96 347.46 382.72 346.8 385.37 347.77C386 348.08 386.15 348.69 386.22 349.29C386.8 354.33 388.14 359.27 388.15 364.38C387.28 365.7 386 365.24 384.85 365.04C378.43 363.91 372.18 364.13 366.02 366.6C360.57 368.79 356.2 372.31 352.39 376.65C351.09 378.13 349.75 379.6 348.78 381.35C347.7 383.29 347.77 383.59 349.82 384.26C352.68 385.2 355.52 386.2 358.61 385.85C358.11 387.01 357.17 387.8 356.25 388.61C354.93 386.77 352.65 387.12 350.87 386.34C348.49 385.3 346 384.95 343.23 385.22C337.74 385.75 332.21 385.09 326.73 384.37C326.46 384.33 326.21 384.1 325.96 383.96L325.97 383.95Z" fill="#0A5ABF"/>
<path d="M287.95 414.63C288.09 413.74 288.96 413 287.73 411.94C286.9 411.22 288.42 410.56 288.88 409.9C287.08 408.14 284.34 409.28 282.45 407.79C283.22 406.98 284.25 407.08 285.22 407.08C292.02 407.13 298.83 406.89 305.63 407.21C305.87 407.22 306.07 407.11 306.28 407.02C319.19 406.84 332.1 406.79 345.01 407.35C345.84 407.39 346.68 407.37 347.52 407.38C345.15 413.65 343.04 420.02 341.12 426.44C340.49 428.54 339.35 429.91 336.97 429.78C335.6 430.68 334.22 430.68 332.85 429.78C326.22 430.15 319.74 428.64 313.16 428.34C311.21 428.25 309.92 427.01 308.86 425.36C307.48 423.22 306 421.15 304.31 419.2C301.25 415.66 297.55 414.22 293 414.65C291.32 414.64 289.64 414.63 287.97 414.62L287.95 414.63Z" fill="#1E1E1E"/>
<path d="M414.35 410.99C413.55 406.62 412.91 402.2 411.2 398.05C410.94 397.43 410.84 396.73 410.28 396.27C407.28 387.46 399.91 377.57 387.48 376.59C382.67 376.21 377.91 375.89 373.17 376.89C367.28 378.14 362.69 381.59 358.61 385.84C357.26 386.91 355.87 386.71 354.32 386.2C352.17 385.49 349.91 385.13 347.86 384.11C347.32 383.84 346.46 383.75 347.12 382.68C351.28 375.97 356.58 370.31 363.67 366.84C370.37 363.57 377.62 362.89 385 364.44C385.88 364.63 386.81 364.63 387.71 364.72C388.52 365.09 388.72 365.84 388.78 366.6C389.14 371.08 391.87 373.65 395.68 375.48C399.03 377.09 402.4 378.66 405.11 381.36C410.78 387.02 413.62 394.05 415.25 401.68C415.91 404.79 416.92 407.85 416.92 411.08C416.01 412.16 415.19 411.16 414.33 410.97L414.35 410.99Z" fill="#0D73ED"/>
<path d="M353.01 419.7C353.01 422.74 353.01 425.78 353.01 428.82C352.29 429.76 351.88 430.68 352.39 431.96C352.81 433.02 352.61 434.22 352.13 435.3C351.52 436.67 351.58 438.13 351.64 439.57C351.68 440.69 352.02 441.95 353.17 442.12C355.56 442.48 355.84 444.53 356.76 446.06C357.48 447.26 357.22 448.13 355.58 448.07C354.97 448.05 354.36 448.04 353.75 448.07C351.48 448.21 349.41 448.49 349.64 444.93C349.77 442.94 347.26 442.05 344.51 442.72C341.88 443.36 342 443.27 342.21 440.62C342.38 438.42 341.03 436.15 342.4 433.95C342.45 433.87 342.37 433.63 342.27 433.53C339.43 430.61 342.21 428.54 343.42 426.3C343.94 425.33 344.36 424.42 344.3 423.3C344.11 419.54 345.19 416.44 348.49 414.18C349.72 413.34 351.51 411.96 349.02 410.31C348.52 409.98 348.68 409.53 348.9 409.1C349.16 408.59 349.51 408.16 350.15 408.42C351.3 408.88 351.87 408.42 352.14 407.31C352.23 406.92 352.5 406.57 352.91 406.6C353.4 406.63 353.42 407.08 353.43 407.46C353.46 409.06 354.75 410.95 352.28 411.95C351.79 412.15 351.53 412.74 351.89 413.32C352.58 414.43 352.25 415.64 351.89 416.62C351.32 418.13 351.97 418.91 353 419.68L353.01 419.7Z" fill="black"/>
<path d="M362.21 392.72C362.85 390.15 363.38 388.05 363.88 385.93C364.17 384.72 364.59 383.78 366.12 383.92C367.46 384.04 369.11 383.79 369.78 385.08C370.44 386.35 369.84 387.69 368.64 388.7C367.7 389.49 366.24 389.87 366.21 391.49C366.21 391.9 365.82 391.91 365.52 391.8C364.39 391.41 363.49 392.08 362.2 392.7L362.21 392.72Z" fill="black"/>
<path d="M332.84 429.78C334.21 429.78 335.59 429.78 336.96 429.78C336.96 430.24 336.91 430.7 336.96 431.14C337.21 432.92 336.52 433.57 334.69 433.45C332.27 433.3 329.84 433.4 327.41 433.42C326.28 433.42 325.35 433.14 325.58 431.77C325.81 430.45 326.77 430.98 327.69 430.95C329.44 430.89 331.63 432.33 332.83 429.78H332.84Z" fill="black"/>
<path d="M392.27 381.2C388.16 381.2 384.36 381.2 380.56 381.2C379.67 381.2 379.11 380.97 379.1 379.94C379.1 379.05 379.34 378.61 380.3 378.38C381.74 378.03 382.95 378.51 384.24 378.94C386.14 379.57 387.91 380.81 390.12 379.96C390.81 379.69 391.56 380.16 392.27 381.21V381.2Z" fill="black"/>
<path d="M361.42 392.89C360.63 394.29 359.98 395.75 359.01 396.96C358.68 397.37 357.81 396.59 357.87 396C358.02 394.42 359.1 393.29 360.25 392.33C360.64 392 361.27 392.25 361.42 392.89Z" fill="black"/>
<path d="M283.83 414.63C284.74 413.34 285.65 413.34 286.56 414.63C285.65 414.63 284.74 414.63 283.83 414.63Z" fill="#1E1E1E"/>
<path d="M555.41 411.81C554.9 413.71 554.5 415.64 553.87 417.49C552.15 422.53 549.88 424.15 544.54 424.17C537.52 424.19 530.51 424.01 523.49 423.96C497.54 423.76 471.58 423.83 445.63 423.74C439 423.72 432.36 423.52 425.73 423.36C421.36 423.25 418.21 420.33 417.61 415.86C417.41 414.34 417.08 412.87 416.59 411.42C415.53 405.37 414.43 399.31 412.22 393.55C409.26 385.83 404.38 379.82 396.57 376.58C391.6 374.52 388.26 371.3 388.01 365.61C388 365.32 387.82 365.03 387.72 364.75C386.93 359.09 386.14 353.44 385.36 347.78C384.46 343.46 382.42 339.54 381.02 335.41C381.69 335.47 381.8 334.68 382.34 334.55C384.66 338.8 386.07 343.4 387.47 348C388.37 354.22 389.27 360.44 390.01 366.68C390.41 370.21 392.5 372.39 395.57 373.94C398.89 375.61 402.35 376.99 405.18 379.6C410.9 384.88 414 391.53 415.88 398.9C416.94 403.04 417.75 407.23 418.58 411.41C418.92 412.82 419.07 414.27 419.41 415.68C420.4 419.84 422.56 421.64 426.83 421.73C430.8 421.82 434.77 421.75 438.74 421.75C445.53 421.75 452.33 421.77 459.12 421.75C461.77 421.74 462.08 421.48 462.63 418.86C463.01 417.07 463.5 415.3 463.71 413.47C463.74 413.2 463.79 412.94 463.85 412.68C464.42 410.17 464.04 407.63 464.1 405.1C464.06 404.69 464.12 404.28 464.1 403.86C464.88 397.12 464.62 390.34 464.86 383.58C465.24 373 464.1 362.47 462.33 352.02C462.17 349.06 460.86 346.45 459.86 343.73C459.48 342.71 458.63 341.73 459.22 340.5C459.69 340.64 460.16 340.78 460.62 340.92C462.62 343.43 463.3 346.51 464.28 349.45C464.54 350.24 464.65 351.08 464.87 351.9C467.52 364.33 468.16 376.92 467.67 389.56C467.48 394.33 467.09 399.11 466.73 403.88C466.71 404.16 466.66 404.44 466.6 404.72C466.21 405.83 466.28 406.98 466.32 408.12C466.43 411.79 466.15 415.41 465.24 419C464.65 421.35 464.96 421.65 467.39 421.72C493.29 422.4 519.19 422.16 545.09 422.17C549.55 422.17 551.05 420.73 552.66 415.21C554.51 407.35 555.79 399.39 556.58 391.35C557.5 382.04 558.21 372.71 557.99 363.34C557.94 361.35 557.59 359.41 557.27 357.46C556.75 354.45 555.48 351.69 554.41 348.86C553.68 346.92 551.76 347.81 550.53 347.07C550.32 346.9 550.26 346.69 550.34 346.44C553.15 346.44 555.95 346.45 558.76 346.46C557.8 347.28 556.54 346.53 555.34 347.17C556.61 350.4 557.89 353.65 559.16 356.9C559.76 362.04 559.55 367.2 559.57 372.36C559.61 381.41 558.57 390.37 557.35 399.31C557.26 399.98 557.28 400.67 557.25 401.36C556.62 404.85 556 408.34 555.37 411.83L555.41 411.81Z" fill="#001431"/>
<path d="M342.96 345.97C344.96 348.03 344.74 350.4 343.67 352.7C340.53 359.46 335.64 364.5 328.69 367.43C327.71 368.48 326.38 368.54 325.1 368.56C319.32 368.64 313.53 368.67 307.75 368.56C303.78 368.48 301.66 366.73 300.29 362.71C300.12 359.24 299.75 355.73 300.64 352.32C301.45 349.21 302.92 346.54 306.3 345.51C309.34 344.67 312.43 344.77 315.55 344.86C321.32 345.02 327.1 344.95 332.87 344.98C335.9 345 338.94 344.88 341.94 345.41C342.28 345.6 342.62 345.79 342.95 345.98L342.96 345.97Z" fill="#000F26"/>
<path d="M306.31 345.51C302.29 348.08 300.68 351.86 300.74 356.5C300.77 358.47 300.75 360.44 300.76 362.42C299.3 362.02 299.69 360.75 299.62 359.78C299.39 356.82 299.39 356.75 296.38 356.75C273.34 356.74 250.3 356.75 227.26 356.71C225.67 356.71 224.32 357.23 222.94 357.83C222.78 355.65 222.93 353.47 222.47 351.3C222.04 349.22 220.95 347.56 219.65 345.97C220.32 345.55 221.06 345.48 221.84 345.48C249.99 345.5 278.14 345.51 306.29 345.52L306.31 345.51Z" fill="#0857B7"/>
<path d="M222.94 357.82C223.35 356.43 224.14 355.95 225.7 355.96C249.78 356.03 273.86 356.03 297.94 355.96C299.91 355.96 300.42 356.59 300.33 358.44C300.26 359.75 299.85 361.18 300.75 362.42C302.64 366.91 304.16 367.92 309.08 367.93C313.35 367.93 317.62 367.9 321.88 367.95C324.17 367.98 326.44 367.84 328.69 367.44C329.23 367.77 329.16 368.31 329.16 368.83C328.56 370.84 327.19 371.27 325.2 371.19C321.09 371.03 316.97 371.14 312.85 371.14C278.42 371.14 244 371.14 209.57 371.14C208.14 371.14 206.69 370.95 205.26 371.41C204.17 371.76 203.47 371.06 203.27 370.07C203.01 368.76 204.02 368.89 204.87 368.81C206.28 368.68 207.76 369.22 209.12 368.45C211.09 368.43 213.07 368.42 215.04 368.37C218.83 368.28 222.09 365.38 222.39 361.6C222.49 360.31 222.79 359.08 222.93 357.81L222.94 357.82Z" fill="#0D71EC"/>
<path d="M459.23 340.51C460.39 344.18 462.6 347.51 462.83 351.48C462.34 351.94 461.74 351.98 461.12 351.94C452 351.45 442.89 350.83 433.77 350.45C426.85 350.16 419.95 349.55 413.02 349.37C405.03 349.17 397.07 348.42 389.07 348.44C388.31 348.44 387.54 348.35 386.95 347.76C385.63 343.27 383.38 339.11 382.34 334.52C390.08 335.11 397.83 335.55 405.54 336.33C414.77 337.26 424.02 337.99 433.27 338.67C441.92 339.31 450.57 339.89 459.22 340.49L459.23 340.51Z" fill="#3A90F0"/>
<path d="M445.08 301.04C432.1 301.04 419.13 301.06 406.15 301.06C403.87 301.06 401.76 301.52 400.05 303.16C399.03 304.14 398.83 305.17 400.1 306.02C406.49 310.32 412.91 314.57 419.32 318.84C419.8 319.16 420.28 319.27 420.79 318.89C422.12 317.91 423.67 318 425.19 318C429.62 318 434.04 318.01 438.47 318C441.84 317.99 444.53 319.26 446.42 322.1C445.3 323.09 443.85 323.06 442.54 323.12C436.63 323.38 430.74 323.9 424.83 324.2C421.58 324.36 418.33 324.62 415.09 324.83C411.65 325.31 408.18 325.5 404.75 326.03C404.51 326.08 404.27 326.09 404.04 326.06C398.85 322.7 393.42 319.72 388.32 316.21C389.18 311.27 390.09 306.33 390.85 301.38C391.05 300.04 391.55 299.73 392.84 299.56C399.12 298.72 405.44 298.59 411.76 298.28C420.37 297.85 428.98 297.69 437.6 297.9C439.2 297.94 440.79 298.21 442.38 298.22C444.36 298.22 445.11 299.24 445.09 301.07L445.08 301.04Z" fill="#80827B"/>
<path d="M383.72 312.95C382.77 319.53 380.93 325.89 379.07 332.32C377.46 331.72 378.93 329.34 376.85 329.44C376.48 329.6 376.32 329.46 376.28 329.08C375.87 325.54 373.15 322.94 369.5 322.75C367.31 322.64 365.1 322.55 362.93 323.05C362.21 323.21 361.45 323.45 360.72 322.99C361.57 320.1 363.32 317.7 365.11 315.36C367.28 312.53 369.55 309.76 372.58 307.77C373.73 307.54 374.62 308.22 375.53 308.7C378.25 310.14 381.14 311.25 383.72 312.95Z" fill="#E8D6A4"/>
<path d="M360.73 322.99C366.99 321.43 372.65 321.4 375.53 325.2C376.46 326.43 377.73 327.62 376.86 329.44C372.47 330.57 368.04 331.45 363.48 331.27C362.59 331.23 361.69 330.95 360.85 330.63C358.69 329.8 358.12 328.52 359 326.35C359.47 325.19 359.67 323.86 360.73 322.99Z" fill="#908E8A"/>
<path d="M403.86 325.73C404 325.73 404.14 325.73 404.28 325.74C408.18 326.68 409.42 330.37 407.07 334.02C405.17 335.1 403.24 334.16 401.33 334.07C398.31 333.92 395.29 333.68 392.28 333.47C390.81 333.37 389.68 332.99 389.54 331.14C389.44 329.8 388.27 328.97 387.39 328.04C387.8 326.94 388.76 326.62 389.75 326.56C393.24 326.34 396.66 325.67 400.11 325.18C401.4 325 402.69 325.02 403.86 325.72V325.73Z" fill="#D3B870"/>
<path d="M403.86 325.73C398.92 325.52 394.17 327.24 389.25 327.25C388.63 327.25 388.01 327.77 387.39 328.05C385.96 328.34 386.18 327.49 386.35 326.6C387.02 323.13 387.67 319.66 388.33 316.19C393.85 318.81 399.06 321.95 403.87 325.73H403.86Z" fill="#E6D5A6"/>
<path d="M383.72 312.95C381.93 313.07 380.67 311.84 379.2 311.15C376.96 310.09 374.78 308.9 372.58 307.77C375.98 304.29 380.26 302.46 384.82 301.14C385.79 300.86 386.16 301.27 385.96 302.14C385.16 305.73 384.98 309.46 383.72 312.95Z" fill="#817E7A"/>
<path d="M265.49 327.59C256.34 327.59 247.19 327.59 238.04 327.59C237.73 326.66 238.43 326.16 238.95 325.66C244.99 319.84 250.52 313.51 257.1 308.23C261.23 304.92 265.96 303.6 270.97 302.78C271.72 302.66 272.48 302.58 273.22 302.38C280.37 302.1 287.51 302.25 294.66 302.26C296.73 302.26 297.31 302.98 296.43 304.54C293.5 309.77 290.71 315.09 287.02 319.87C286.81 320.03 286.58 320.15 286.33 320.24C282.98 320.94 279.57 320.87 276.17 320.96C274 321.02 271.78 321.04 269.79 322.14C269.42 322.4 269.02 322.61 268.64 322.86C267.57 323.66 266.59 324.53 266.29 325.92C266.09 326.51 266.01 327.15 265.5 327.59H265.49Z" fill="#E2CB8D"/>
<path d="M335.58 303.34C333.53 307.66 330.26 311.11 327.43 314.88C326.44 316.2 325.28 317.39 324.19 318.64C323.81 317.8 323.44 317.21 322.23 317.33C313.84 318.1 305.52 319.48 297.11 320.01C295.82 320.09 295.54 320.52 296.11 321.72C296.54 322.63 297.38 323.8 295.67 324.44C295.53 324.43 295.4 324.39 295.28 324.33C294.6 322.56 292.32 321.27 293.63 318.88C296.32 313.93 299.32 309.16 302.18 304.31C303.04 302.84 304.18 302.18 305.89 302.18C314.34 302.21 322.78 302.16 331.23 302.22C332.74 302.23 334.29 302.31 335.57 303.33L335.58 303.34Z" fill="#E2CC8F"/>
<path d="M272.95 302.94C271.92 303.56 270.72 303.41 269.62 303.53C262.65 304.32 257.44 308.27 252.55 312.83C247.49 317.54 242.87 322.67 238.04 327.59C235.22 327.59 232.4 327.62 229.57 327.61C228.97 327.61 228.35 327.56 227.76 327.43C224.26 326.66 223.92 325.68 226.31 323.07C232.79 315.97 239.52 309.11 246.58 302.59C247.28 301.94 247.9 301.06 249.05 301.11C249.87 301.4 250.71 301.25 251.54 301.26C263.87 301.27 276.19 301.26 288.51 301.27C289.11 302.65 287.96 302.35 287.36 302.37C285.1 302.44 282.84 302.37 280.58 302.41C278.03 302.44 275.45 302.2 272.95 302.94Z" fill="#6E7072"/>
<path d="M295.68 324.44C296.85 323.16 295.86 322.18 295.12 321.29C293.89 319.82 294.68 319.4 296.05 319.37C304.21 319.22 312.21 317.32 320.36 317.01C321.77 316.96 323.16 316.35 324.63 316.72C324.75 317.42 323.93 317.91 324.21 318.63C321.45 322.12 318.89 325.83 314.51 327.54C309.69 327.12 304.87 327.43 300.05 327.37C298.87 327.36 297.83 327.25 297.11 326.2C296.64 325.61 296.16 325.02 295.69 324.43L295.68 324.44Z" fill="#D5BA71"/>
<path d="M272.95 302.94C272.61 302.88 272.27 302.83 271.43 302.69C276.77 301.72 281.64 301.98 286.49 301.93C287.29 301.93 288.17 302.22 288.86 301.51C290.49 300.86 292.24 301.66 293.87 301.05C306.18 301.03 318.49 301.02 330.8 300.98C331.88 300.98 332.92 301.13 333.94 301.43C334.89 301.71 335.56 302.25 335.57 303.34C325.45 302.33 315.3 303.01 305.16 302.74C303.9 302.71 303.48 303.42 302.96 304.31C299.95 309.34 296.9 314.34 293.86 319.36C291.51 320.82 289.08 320.99 286.56 319.83C289.91 314.32 293.26 308.82 296.86 302.9C288.61 302.87 280.78 302.61 272.94 302.95L272.95 302.94Z" fill="#65645C"/>
<path d="M286.58 319.82C289.02 319.8 291.46 319.73 293.88 319.35C293.77 320.29 293.65 321.16 294.59 321.89C295.32 322.46 295.43 323.41 295.29 324.33C296.15 326.51 295.297 327.603 292.73 327.61C283.65 327.61 274.57 327.6 265.49 327.59C265.65 326.96 265.35 326.23 265.92 325.7C265.97 325.75 266.02 325.82 266.08 325.86C266.13 325.9 266.2 325.92 266.26 325.94C266.08 324.32 267.73 323.76 268.23 322.54C268.49 322.35 268.75 322.15 269.02 321.96C273 320.65 277.15 321.01 281.24 320.74C283.07 320.62 284.9 320.64 286.6 319.82H286.58Z" fill="#292827"/>
<path d="M293.88 301.05C292.28 301.93 290.53 301.22 288.87 301.51C276.4 301.51 263.93 301.51 251.46 301.48C250.65 301.48 249.78 301.76 249.05 301.12C249.65 301.04 250.26 300.89 250.86 300.9C265.2 300.94 279.54 301 293.88 301.06V301.05Z" fill="#8E9093"/>
<path d="M297.1 326.22C298.7 327.26 300.49 327.17 302.3 327.16C305.65 327.12 309 327.14 312.35 327.17C313.08 327.17 313.89 326.9 314.51 327.56C309.16 327.6 303.81 327.63 298.46 327.7C297.36 327.71 297.38 326.87 297.11 326.22H297.1Z" fill="#F3DEA3"/>
<path d="M306.28 407.02C306.37 408.52 305.21 407.71 304.74 407.72C297.31 407.79 289.88 407.78 282.45 407.79C259.03 407.79 235.61 407.79 212.19 407.74C211.34 407.74 210.13 408.42 209.65 406.98C214.5 399.19 213.38 400.38 221.99 400.37C245.56 400.33 269.12 400.43 292.68 400.26C296.6 400.23 299.62 401.38 302.24 404.09C303.41 405.3 304.65 406.43 306.27 407.03L306.28 407.02Z" fill="#010000"/>
<path d="M211.88 358.82C209.01 358.89 207.49 357.65 207.45 355.2C207.4 352.4 209.54 350.58 212.98 350.5C216.3 350.43 218.15 351.95 218.19 354.82C218.23 357.41 216.18 358.71 211.88 358.81V358.82Z" fill="#8EC3F4"/>
<path d="M360.75 424.3C361.04 415.95 363.17 408.55 369.23 402.83C376.78 395.7 385.68 396.9 391.74 404.84C400.04 415.71 399.86 432.34 391.81 443.29C384.78 452.84 371.51 451.7 365.31 441.04C362.25 435.78 361.04 430.05 360.75 424.31V424.3Z" fill="#020202"/>
<path d="M386.96 347.77C397.85 347.68 408.7 348.49 419.57 349.07C426.79 349.45 434.01 349.67 441.23 350.07C448.44 350.47 455.64 351.01 462.84 351.49C464 357.06 464.7 362.71 465.18 368.37C466.07 378.85 465.34 389.34 465.16 399.83C465.14 401.27 464.88 402.7 464.74 404.13C463.84 404.92 462.73 404.75 461.68 404.75C454.51 404.77 447.34 404.79 440.17 404.75C434.21 404.71 428.47 405.59 423.16 408.48C421.65 409.3 420.89 408.78 420.56 407.23C420.02 404.68 419.95 402.08 419.76 399.51C419.34 393.89 418.03 388.54 415.64 383.44C413.25 378.36 409.42 374.67 404.71 371.77C401.11 369.55 397.19 368.07 393.23 366.69C391.99 366.26 390.71 365.93 389.62 367.08C389.02 363.13 388.39 359.18 387.84 355.23C387.49 352.76 387.26 350.27 386.98 347.79L386.96 347.77Z" fill="#0959BB"/>
<path d="M389.6 367.06C389.48 365.83 389.88 365.34 391.24 365.59C395.63 366.41 399.6 368.31 403.52 370.3C407.48 372.31 410.8 375.16 413.51 378.7C416.66 382.82 418.23 387.6 419.44 392.56C420.61 397.37 420.36 402.34 421.18 407.19C421.4 408.47 421.5 408.75 422.78 407.99C427.23 405.32 432.19 404.23 437.3 404.15C446.44 404.01 455.59 404.12 464.73 404.12C464.73 404.42 464.73 404.73 464.73 405.03C464.19 407.62 464.87 410.26 464.36 412.85C464.38 413 464.35 413.13 464.27 413.26C462.85 414.37 461.21 414.04 459.65 413.87C454.5 413.3 449.32 413.27 444.17 413.18C436.64 413.04 429.15 412.26 421.62 412.09C420.33 412.06 419.04 411.84 417.92 411.07C416.63 404.69 415.55 398.26 413.1 392.19C410.09 384.72 405.29 378.9 397.72 375.58C395.04 374.4 392.19 373.32 390.62 370.5C390.02 369.42 389.53 368.33 389.59 367.07L389.6 367.06Z" fill="#0E73EC"/>
<path d="M302.26 362.37C301.29 358.07 301.52 353.88 303.57 349.92C305.41 346.36 308.81 346.08 312.24 346.12C318.95 346.19 325.66 346.35 332.38 346.48C333.29 347.74 333.37 349.26 333.73 350.7C333.79 351.63 334.25 352.44 334.47 353.33C335.53 357.5 333.92 360.14 329.72 361.07C328.75 361.28 327.76 361.29 326.77 361.27C320.62 361.14 314.47 361.6 308.32 360.87C306.17 360.61 303.95 360.55 302.27 362.39L302.26 362.37Z" fill="#2A84EE"/>
<path d="M302.26 362.37C302.48 360.4 303.59 359.92 305.48 360.09C312.75 360.76 320.05 360.57 327.34 360.58C333.4 360.58 335.51 357.52 333.33 351.95C333.15 351.49 332.63 351.06 333.19 350.52C336.18 352.32 339.29 351.81 342.42 351.01C342.42 351.24 342.51 351.5 342.42 351.68C339.36 357.9 335.26 363.11 328.64 365.87C327.35 366.41 326.01 366.53 324.62 366.53C319.07 366.51 313.52 366.53 307.98 366.52C304.9 366.52 303.39 365.39 302.26 362.36V362.37Z" fill="#1675D4"/>
<path d="M342.42 351.02C339.29 353.12 335.28 352.9 333.19 350.53C332.65 349.23 332.41 347.88 332.38 346.48C335 346.35 337.63 346.1 340.21 346.76C342.86 347.44 343.28 348.31 342.42 351.02Z" fill="#8DC3F2"/>
<path d="M286.58 319.83C286.08 320.7 285.25 321.07 284.32 321.13C279.22 321.43 274.11 321.69 269.01 321.97C270.87 320.26 273.26 320.59 275.47 320.41C279.17 320.11 282.88 320.02 286.58 319.84V319.83Z" fill="#5B584D"/>
<path d="M268.22 322.54C268.14 324.22 265.95 324.89 266.14 326.75C266.06 326.4 265.99 326.04 265.91 325.69C266.06 324.18 266.92 323.2 268.22 322.53V322.54Z" fill="#010001"/>
<path d="M361.66 422.42C361.71 416.6 363.57 410.18 368.37 404.84C375.03 397.44 384.75 397.88 390.56 405.91C395.23 412.36 396.55 419.69 395.78 427.5C395.3 432.39 393.88 436.92 391.09 441.03C384.52 450.69 372.6 450.58 366.31 440.72C362.99 435.52 361.66 429.77 361.65 422.41L361.66 422.42Z" fill="#F1F5FA"/>
<path d="M317.35 349.67C317.81 349.67 318.27 349.62 318.72 349.67C320.52 349.92 322.78 349.5 323.2 352.14C323.65 354.98 321.8 358.19 319.32 358.56C316.62 358.96 313.85 359.05 311.18 358.2C310.47 357.97 309.72 357.63 309.18 357.14C307.89 355.97 307.03 354.54 307.59 352.69C308.12 350.93 309.51 350.2 311.21 350.03C313.25 349.83 315.31 349.74 317.35 349.6C317.35 349.62 317.35 349.64 317.35 349.65V349.67Z" fill="#8FC1F4"/>
<path d="M376.89 408.11C376.85 406.97 377.01 405.78 376.72 404.72C376.1 402.5 377.47 402.31 378.94 402.43C380.19 402.53 381.51 402.55 382.65 403.26C382.88 405.43 381.97 407.41 381.54 409.46C381.18 411.17 380.77 412.88 380.26 414.55C379.84 415.94 380.5 416.71 381.54 417.37C382.63 418.06 383.24 417.24 383.87 416.61C385.55 414.95 387.21 413.27 388.88 411.61C389.32 411.17 389.6 410.37 390.49 410.61C391.89 413.16 392.87 415.84 393.28 418.73C392.3 420.03 390.73 419.97 389.37 420.35C387.26 420.93 385.22 421.86 382.96 421.79C382.01 421.45 381.71 420.52 381.17 419.8C379.26 417.23 376.33 417.4 374.7 420.16C372.24 424.33 374.05 428.66 379.03 430.5C379.15 430.63 379.19 430.76 379.14 430.88C379.09 431 379.04 431.06 379 431.06C378.13 433.49 379.52 435.69 379.73 438.01C379.9 439.88 380.44 441.72 380.85 443.57C381.13 444.82 380.82 445.49 379.4 445.32C378.65 445.23 377.87 445.29 377.13 445.15C376.22 444.97 375.58 444.71 375.78 443.37C376.32 439.76 376.54 436.1 377 432.48C377.12 431.51 377.07 431 375.97 431.08C373.91 429.79 372.53 430.36 371.7 432.6C371.5 433.14 371.07 433.62 370.49 433.88C369.5 435.45 368.5 437.01 367.49 438.61C367.32 438.4 367.21 438.29 367.13 438.16C365.07 434.56 365.773 431.71 369.24 429.61C369.5 429.45 369.75 429.27 370.01 429.12C371.28 428.42 372.58 427.74 371.37 425.96C371.26 425.79 371.24 425.5 371.28 425.29C372.12 421.28 369.43 420.15 366.4 419.48C364.19 418.99 363.68 417.97 364.58 415.92C365.36 414.14 365.91 412.26 366.99 410.45C367.57 411.08 368.12 411.69 368.67 412.29C370.47 413.18 371.25 415.03 372.54 416.39C373.02 416.9 373.35 418 374.26 417.35C375.19 416.68 377.04 416.53 376.83 415.1C376.47 412.73 377.34 410.42 376.88 408.09L376.89 408.11Z" fill="#010101"/>
<path d="M376.89 408.11C377.64 410.61 377.18 413.22 377.6 415.76C377.8 416.96 376.36 416.58 375.89 417.1C373.75 419.48 372.68 417.85 371.52 416.09C370.65 414.78 369.64 413.56 368.69 412.31C368.98 412.09 369.06 411.72 368.81 411.53C366.68 409.92 367.99 408.68 369.19 407.36C371.01 405.35 373.05 403.72 375.72 403.03C376.58 405.36 376.32 407.74 376.63 410.08L376.9 408.12L376.89 408.11Z" fill="#C0C3C7"/>
<path d="M390.5 410.62C388.11 413.07 385.73 415.53 383.32 417.94C382.95 418.31 382.37 419.28 381.92 418.57C381.22 417.47 379.03 417.5 379.46 415.79C380.51 411.61 381.1 407.31 382.66 403.26C384.07 403.26 385 404.21 386.01 404.99C386.71 406.13 387.6 407.08 388.79 407.73C389.54 408.59 390.32 409.43 390.51 410.62H390.5Z" fill="#B3B6BA"/>
<path d="M379 431.07C379.04 430.95 379.07 430.83 379.09 430.71C379.3 429.09 380.77 429.15 381.82 428.67C382.77 428.79 383.22 429.57 383.66 430.24C385.61 433.14 387.79 435.89 389.61 438.88C387.65 440.55 385.26 441.53 383.08 442.85C382.02 443.5 381.53 443.23 381.29 441.79C380.69 438.19 379.78 434.65 379 431.08V431.07Z" fill="#D3D6DB"/>
<path d="M363.51 424.3C363.51 418.96 363.48 419.05 368.15 420.74C369.81 421.34 370.74 422.04 370.46 423.94C370.36 424.65 370.67 425.42 370.79 426.16C370.93 427.02 370.95 427.81 370.04 428.34C368.53 429.21 367.06 430.14 365.56 431.01C364.7 431.51 364.14 431.33 364.02 430.23C363.8 428.13 363.27 426.05 363.51 424.29V424.3Z" fill="#CBCDC4"/>
<path d="M370.49 433.9C371.39 432.26 372.29 430.62 373.22 428.92C374.18 429.68 375.07 430.39 375.97 431.1C376.67 433.06 375.97 435.04 375.78 436.94C375.59 438.93 375.73 441.05 374.7 443.17C374.64 441.24 373.61 440.42 371.98 439.92C368.72 438.92 368.74 438.79 370.15 435.72C370.4 435.17 371.16 434.65 370.49 433.9Z" fill="#DFE1D7"/>
<path d="M389.62 438.87C388.85 439.13 388.79 438.41 388.51 438.03C386.29 434.96 384.09 431.88 381.88 428.8C381.68 427.39 382.44 427.04 383.64 427.29C384.76 427.52 385.76 428.11 386.85 428.44C388.22 429.22 389.92 429.35 391.04 430.61C392.48 430.99 392.77 431.7 392.2 433.18C391.44 435.13 390.52 436.99 389.62 438.87Z" fill="#020202"/>
<path d="M382.77 421.51C386.28 420.59 389.78 419.66 393.29 418.74C394.28 420.83 393.65 423.03 393.77 425.18C393.29 425.6 392.71 425.86 392.1 425.8C389.16 425.49 386.18 425.65 383.27 425.01C382.04 423.99 381.84 422.83 382.77 421.5V421.51Z" fill="#B1B4B8"/>
<path d="M383.24 424.71C386.77 424.44 390.25 425.23 393.77 425.18C393.9 426.09 393.42 426.92 393.36 427.78C393.26 429.33 392.89 430.54 391.03 430.6C389.51 430.26 388.06 429.74 386.73 428.93C386.09 428 384.98 427.94 384.07 427.63C382.23 426.99 382.01 426.11 383.23 424.7L383.24 424.71Z" fill="#E7E5DE"/>
<path d="M388.78 407.73C387.27 407.4 386.36 406.48 386 404.99C386.93 405.9 387.85 406.82 388.78 407.73Z" fill="#76777A"/>
<path d="M383.24 424.71C382.25 428.1 385.57 427.27 386.87 428.42C386.92 428.46 386.99 428.55 386.97 428.58C386.91 428.71 386.82 428.82 386.74 428.94C385.76 428.91 384.92 428.44 384.12 427.97C382.97 427.29 382.28 427.57 381.89 428.8C381.19 429.77 379.76 429.68 379.11 430.71C375.83 430.63 374.08 429.17 373.28 425.85C372.5 422.6 373.87 418.95 376.34 417.7C378.38 416.68 380.59 417.46 381.88 419.7C382.21 420.28 382.48 420.9 382.78 421.5C382.81 422.58 382.66 423.69 383.24 424.7V424.71Z" fill="#FEFEFE"/>
</g>
<defs>
<linearGradient id="paint0_linear_394_3698" x1="24" y1="151.5" x2="193.8" y2="151.5" gradientUnits="userSpaceOnUse">
<stop stop-color="#448C78"/>
<stop offset="1" stop-color="#3E776B"/>
</linearGradient>
<linearGradient id="paint1_linear_394_3698" x1="29.9004" y1="151.6" x2="199.7" y2="151.6" gradientUnits="userSpaceOnUse">
<stop stop-color="#80BBF9"/>
<stop offset="1" stop-color="#42D7BE"/>
</linearGradient>
<linearGradient id="paint2_linear_394_3698" x1="29.9004" y1="151.6" x2="199.7" y2="151.6" gradientUnits="userSpaceOnUse">
<stop stop-color="#80BBF9"/>
<stop offset="1" stop-color="#42D7BE"/>
</linearGradient>
<clipPath id="clip0_394_3698">
<rect width="390" height="490" fill="white"/>
</clipPath>
</defs>
</svg>
