<svg width="86" height="63" viewBox="0 0 86 63" fill="none" xmlns="http://www.w3.org/2000/svg">
<path d="M84.0392 31.3791C82.0392 30.8791 79.7992 31.3791 79.8792 32.8391C79.9592 34.2991 79.3792 33.6591 78.7592 33.3991C78.1392 33.1391 76.7392 29.0591 76.1392 27.6191C75.5392 26.1791 74.8992 25.3591 74.3192 25.0991C73.7392 24.8391 71.0792 24.4391 68.5592 24.0591C66.0392 23.6791 60.9392 23.6191 60.9392 23.6191C60.9392 23.6191 55.8392 23.6791 53.3192 24.0591C50.9592 24.4191 48.4792 24.7991 47.6992 25.0391H49.4392C50.3592 25.0391 51.6992 25.2991 52.9192 26.0391C54.6992 25.8591 57.5192 25.6791 59.2992 25.5991C60.3992 25.5391 61.4792 25.5391 62.5792 25.5991C64.9192 25.7191 69.0392 25.9791 70.2392 26.2191C71.9592 26.5791 72.6992 26.2991 73.3392 27.7591C73.9792 29.2191 75.8592 32.7191 75.8592 32.7191C75.8592 32.7191 76.6592 34.0991 75.6592 34.0991C74.6592 34.0991 60.9392 34.1191 60.9392 34.1191H60.6192C61.5592 34.3791 62.2992 34.8391 62.8392 35.5191C63.3792 36.1991 63.8992 37.3791 63.4592 39.1591C63.3992 39.3991 63.3192 39.6391 63.2192 39.8591H72.5392C72.8192 39.8591 73.0592 40.0991 73.0592 40.3791C73.0592 40.6591 72.8192 40.8991 72.5392 40.8991H62.6192C62.2992 41.3191 61.8992 41.6391 61.4192 41.8791H71.5592C71.8392 41.8791 72.0592 42.1191 72.0592 42.3791V42.4191C72.0592 42.6991 71.8192 42.9191 71.5592 42.9191H60.6392C60.7192 43.2591 60.7792 43.5791 60.8192 43.8991H70.5192C70.7792 43.8991 70.9992 44.1191 70.9992 44.3791V44.4791C70.9992 44.7391 70.7792 44.9591 70.5192 44.9591H60.8592V47.1391H65.2992C66.0992 47.1391 66.7392 47.7791 66.7392 48.5791V50.4991C66.7392 51.2991 66.0992 51.9591 65.2992 51.9591H61.5192C61.5792 52.2591 61.5992 52.5791 61.5992 52.9191H65.7392C66.6392 52.9191 67.3792 52.1791 67.3792 51.2791H72.8392C73.7992 51.2791 73.7392 51.3791 73.7392 54.1991C73.7392 57.0191 74.7392 56.6791 74.7792 56.6791H80.6992C81.7192 56.6791 82.0992 53.9791 82.0992 53.5591C82.0992 53.1391 81.8992 51.9591 82.8392 51.1191C83.5392 50.4991 83.9392 49.2391 84.0992 48.6191C84.1592 48.3991 84.1792 48.1591 84.1792 47.9391V40.2991C84.1792 38.1991 81.0792 34.8191 80.8192 34.5591C80.9192 34.6391 81.3992 34.9591 83.0992 34.9791C85.0392 34.9991 86.0592 31.8591 84.0592 31.3591L84.0392 31.3791ZM78.0992 48.7391C77.4392 49.6391 76.2992 49.3191 75.7592 48.7391C75.2192 48.1591 74.8592 47.1991 75.8392 46.4191C76.2792 46.0791 76.7192 46.0791 77.0992 46.1791C77.6592 46.3391 78.0592 46.7991 78.2392 47.3591C78.3792 47.7791 78.4192 48.2991 78.0992 48.7591V48.7391ZM80.8792 42.9391C79.6792 44.4391 77.4592 44.3991 76.8592 43.7991C76.3792 43.3191 75.5192 42.5191 75.8192 41.0791C75.9992 40.2391 76.5192 39.4991 77.2392 39.0191C77.8192 38.6391 78.6392 38.3191 79.6192 38.5391C81.5792 38.9991 82.0792 41.4391 80.8792 42.9391Z" fill="#5C5C5C"/>
<path d="M58.4398 36.1793C57.5398 36.1993 57.4798 38.2993 56.8998 38.7593C56.3198 39.2193 55.8598 38.2593 55.8598 38.2593C55.8598 38.2593 54.4598 33.4193 53.5598 30.3593C52.6598 27.3393 49.5598 27.3193 49.4598 27.3193H28.8798C28.7798 27.3193 25.6798 27.3393 24.7798 30.3593C23.8598 33.4193 22.4798 38.2593 22.4798 38.2593C22.4798 38.2593 21.9998 39.1993 21.4398 38.7593C20.8598 38.2993 20.7998 36.2193 19.8998 36.1793C18.9998 36.1393 16.4198 36.1193 17.0598 38.6593C17.4998 40.3393 18.6798 40.1793 19.8198 40.1793C20.9598 40.1793 22.1398 39.8193 21.3998 40.5593C20.6598 41.2993 19.7398 43.2793 19.7398 44.3793V50.5793C19.7398 50.5793 19.9598 51.3393 19.5598 51.7593C19.1598 52.1593 19.0198 51.9193 19.0198 53.1593V55.7393C19.0198 55.7393 19.1398 56.0193 19.6998 56.5793C20.2398 57.1193 20.2798 56.7193 20.2798 57.5393C20.2798 58.3593 19.9398 61.9593 21.0598 61.9593H26.3398C26.3398 61.9593 27.4398 61.4793 27.4398 60.0993C27.4398 58.7193 27.4398 56.8593 27.4398 56.8593H32.0598C32.0598 56.8593 32.6798 56.7593 32.9198 57.1993C33.1598 57.6393 33.2798 57.8593 33.9798 57.8593H44.3998C45.0998 57.8593 45.2198 57.6393 45.4598 57.1993C45.6998 56.7593 46.3198 56.8593 46.3198 56.8593H50.9398C50.9398 56.8593 50.9398 58.7193 50.9398 60.0993C50.9398 61.4793 52.0398 61.9593 52.0398 61.9593H57.3198C58.4598 61.9593 58.0998 58.3393 58.0998 57.5393C58.0998 56.7393 58.1398 57.1393 58.6798 56.5793C59.2198 56.0393 59.3598 55.7393 59.3598 55.7393V53.1593C59.3598 53.0793 59.3598 53.0193 59.3598 52.9393C59.3598 51.9393 59.1998 52.1193 58.8198 51.7393C58.4198 51.3393 58.6398 50.5593 58.6398 50.5593V44.3593C58.6398 43.2593 57.7198 41.2793 56.9798 40.5393C56.2398 39.7993 57.4198 40.1593 58.5598 40.1593C59.6998 40.1593 60.8798 40.2993 61.3198 38.6393C61.9598 36.0993 59.3798 36.1393 58.4798 36.1593L58.4398 36.1793ZM24.9198 37.3193C24.9198 37.3193 26.0998 32.7393 26.6798 30.7993C27.2598 28.8793 29.2398 29.0993 29.2398 29.0993H49.0398C49.0398 29.0993 51.0198 28.8793 51.5998 30.7993C52.1798 32.7393 53.3598 37.3193 53.3598 37.3193C53.3598 37.3193 53.8198 38.7793 52.7798 38.7793H25.4998C24.4598 38.7793 24.9198 37.3193 24.9198 37.3193ZM28.6398 48.1593C28.6398 48.7593 28.1598 49.2593 27.5598 49.2593H22.4998C21.8998 49.2593 21.4198 48.7593 21.4198 48.1593V45.4793C21.4198 44.8793 21.8998 44.3993 22.4998 44.3993H27.5598C28.1598 44.3993 28.6398 44.8793 28.6398 45.4793V48.1593ZM44.4798 56.0793C44.4798 56.3793 44.2998 56.6193 44.0198 56.7193C43.9398 56.7593 43.8598 56.7593 43.7798 56.7593H34.4798C34.0998 56.7593 33.7998 56.4393 33.7998 56.0793V54.3393C33.7998 53.9593 34.0998 53.6593 34.4798 53.6593H43.7798C44.1598 53.6593 44.4598 53.9793 44.4598 54.3393V56.0793H44.4798ZM48.1398 49.7593C48.1398 50.0193 47.9198 50.2393 47.6598 50.2393H30.6198C30.3598 50.2393 30.1398 50.0193 30.1398 49.7593V49.6993C30.1398 49.4393 30.3598 49.2193 30.6198 49.2193H47.6598C47.9198 49.2193 48.1398 49.4393 48.1398 49.6993V49.7593ZM48.1398 47.8593C48.1398 48.1193 47.9198 48.3393 47.6598 48.3393H30.6198C30.3598 48.3393 30.1398 48.1193 30.1398 47.8593V47.7993C30.1398 47.5393 30.3598 47.3193 30.6198 47.3193H47.6598C47.9198 47.3193 48.1398 47.5393 48.1398 47.7993V47.8593ZM48.1398 45.9393C48.1398 46.1993 47.9198 46.4193 47.6598 46.4193H30.6198C30.3598 46.4193 30.1398 46.1993 30.1398 45.9393V45.8793C30.1398 45.6193 30.3598 45.3993 30.6198 45.3993H47.6598C47.9198 45.3993 48.1398 45.6193 48.1398 45.8793V45.9393ZM56.8998 45.4793V48.1593C56.8998 48.7593 56.3998 49.2593 55.7998 49.2593H50.7398C50.1398 49.2593 49.6398 48.7593 49.6398 48.1593V45.4793C49.6398 44.8793 50.1398 44.3993 50.7398 44.3993H55.7998C56.3998 44.3993 56.8998 44.8793 56.8998 45.4793Z" fill="#5C5C5C"/>
<path d="M12.6795 9.0793C12.6795 9.8593 12.1795 10.3593 11.4395 10.3593H9.51953V7.7793H11.4395C12.1795 7.7793 12.6795 8.2993 12.6795 9.0593V9.0793Z" fill="#5C5C5C"/>
<path d="M16.0406 3.33984H5.22062C4.08062 3.33984 3.14062 4.25984 3.14062 5.41984V16.2398C3.14062 17.3798 4.08062 18.3198 5.22062 18.3198H16.0406C17.1806 18.3198 18.1206 17.3998 18.1206 16.2398V5.41984C18.1206 4.27984 17.2006 3.33984 16.0406 3.33984ZM12.0206 12.3598H9.54062V15.8598H7.10062V5.77984H12.0206C14.0606 5.77984 15.1206 7.33984 15.1206 9.05985C15.1206 10.7798 14.0606 12.3398 12.0206 12.3398V12.3598Z" fill="#5C5C5C"/>
<path d="M12.6795 9.0793C12.6795 9.8593 12.1795 10.3593 11.4395 10.3593H9.51953V7.7793H11.4395C12.1795 7.7793 12.6795 8.2993 12.6795 9.0593V9.0793Z" fill="white"/>
<path d="M16.0406 3.33984H5.22062C4.08062 3.33984 3.14062 4.25984 3.14062 5.41984V16.2398C3.14062 17.3798 4.08062 18.3198 5.22062 18.3198H16.0406C17.1806 18.3198 18.1206 17.3998 18.1206 16.2398V5.41984C18.1206 4.27984 17.2006 3.33984 16.0406 3.33984ZM12.0206 12.3598H9.54062V15.8598H7.10062V5.77984H12.0206C14.0606 5.77984 15.1206 7.33984 15.1206 9.05985C15.1206 10.7798 14.0606 12.3398 12.0206 12.3398V12.3598Z" fill="white"/>
<path d="M12.6795 9.0793C12.6795 9.8593 12.1795 10.3593 11.4395 10.3593H9.51953V7.7793H11.4395C12.1795 7.7793 12.6795 8.2993 12.6795 9.0593V9.0793Z" fill="#5C5C5C"/>
<path d="M16.0406 3.33984H5.22062C4.08062 3.33984 3.14062 4.25984 3.14062 5.41984V16.2398C3.14062 17.3798 4.08062 18.3198 5.22062 18.3198H16.0406C17.1806 18.3198 18.1206 17.3998 18.1206 16.2398V5.41984C18.1206 4.27984 17.2006 3.33984 16.0406 3.33984ZM12.0206 12.3598H9.54062V15.8598H7.10062V5.77984H12.0206C14.0606 5.77984 15.1206 7.33984 15.1206 9.05985C15.1206 10.7798 14.0606 12.3398 12.0206 12.3398V12.3598Z" fill="#5C5C5C"/>
<path d="M18.2191 0.319336H3.03914C1.43914 0.319336 0.119141 1.61934 0.119141 3.23934V18.4193C0.119141 20.0193 1.41914 21.3393 3.03914 21.3393H8.87914V52.0793C7.89914 52.1393 7.11914 52.9593 7.11914 53.9393V62.1193H14.1391V53.9393C14.1391 52.9393 13.3591 52.1393 12.3791 52.0793V21.3393H18.2191C19.8191 21.3393 21.1391 20.0393 21.1391 18.4193V3.23934C21.1391 1.63934 19.8391 0.319336 18.2191 0.319336ZM19.5191 17.2593C19.5191 18.6193 18.4191 19.7193 17.0591 19.7193H4.21914C2.85914 19.7193 1.75914 18.6193 1.75914 17.2593V4.41934C1.75914 3.05934 2.85914 1.95934 4.21914 1.95934H17.0591C18.4191 1.95934 19.5191 3.05934 19.5191 4.41934V17.2593Z" fill="#5C5C5C"/>
</svg>
