<svg width="390" height="346" viewBox="0 0 390 346" fill="none" xmlns="http://www.w3.org/2000/svg">
<g clip-path="url(#clip0_394_4392)">
<rect width="390" height="346" fill="white"/>
<path d="M100.13 133.935V320.878C100.13 324.065 97.3232 326.568 94.2125 326.568H90.8742C90.1914 326.568 89.4327 326.417 88.9016 326.265C86.7014 325.506 85.0322 323.382 85.0322 320.878V133.935C85.0322 132.19 85.8668 130.596 87.0807 129.534C88.067 128.7 89.4327 128.093 90.8742 128.093H94.2125C97.399 128.093 100.13 130.748 100.13 133.935Z" fill="#AACCB1"/>
<g style="mix-blend-mode:multiply" opacity="0.4">
<path d="M92.5433 227.71C86.5496 240.836 86.5496 318.678 88.9016 326.265C86.7014 325.506 85.0322 323.382 85.0322 320.878V133.935C85.0322 132.19 85.8668 130.673 87.0807 129.61C87.4601 130.521 87.8394 131.583 88.2946 132.645C88.2946 132.645 99.4475 147.212 93.4538 167.925C87.5359 188.637 99.9027 211.474 92.5433 227.634V227.71Z" fill="#D8E8DD"/>
</g>
<path d="M134.396 53.2651L54.4589 48.3015L50.0147 48.0129C45.9169 47.7821 42.5693 50.6679 42.5693 54.4195V163.792C42.5693 167.601 45.9169 170.545 50.0725 170.429L134.454 167.197C137.974 167.082 140.572 164.138 140.572 160.617V60.0179C140.572 56.4972 137.917 53.496 134.338 53.2651H134.396Z" fill="url(#paint0_linear_394_4392)"/>
<path d="M143.977 60.1908V160.559C143.977 164.08 141.149 167.024 137.628 167.139L53.5932 170.371C49.4953 170.544 45.9746 167.601 45.9746 163.792V54.65C45.9746 50.8408 49.3799 47.9549 53.4777 48.2435L137.57 53.438C141.091 53.6689 143.977 56.6701 143.977 60.1331V60.1908Z" fill="url(#paint1_linear_394_4392)"/>
<path d="M132.088 61.1728L60.1156 57.248C59.5962 57.248 58.9613 57.248 58.4418 57.3058C55.4406 57.8252 53.0742 60.1916 53.0742 63.2505V156.058C53.0742 159.579 56.2486 162.349 60.0002 162.234L132.03 159.925C135.378 159.81 138.206 157.04 138.206 153.807V67.4638C138.206 64.174 135.378 61.3459 132.088 61.1728ZM137.167 153.807C137.167 156.52 134.801 158.829 132.03 158.887L59.9425 161.137C56.8258 161.253 54.0554 158.944 54.0554 156.001V63.3083C54.0554 60.8265 56.0178 58.8641 58.4996 58.4024C58.9613 58.3447 59.4807 58.2869 60.0002 58.2869L132.03 62.1539C134.801 62.3271 137.167 64.6357 137.167 67.3484V153.75V153.807Z" fill="white"/>
<path d="M116.851 81.6041C112.349 77.968 105.596 75.9479 96.0727 75.5439C86.5495 75.1399 79.7967 75.4284 74.7754 76.0633V141.918H90.3011V118.196C92.148 118.427 93.7063 118.543 95.7264 118.543C101.152 118.6 106.173 117.965 110.386 116.407C113.214 115.368 115.754 113.925 117.832 112.078C121.756 108.5 123.95 103.19 123.95 96.8412C123.95 90.4924 121.122 85.0671 116.851 81.6041ZM95.611 107.115C93.36 107.115 92.0903 106.942 90.3011 106.595V87.1449C91.6863 86.914 93.7063 86.6831 96.823 86.7986C104.499 87.0871 108.886 90.781 108.886 96.7835C108.886 102.786 107.039 103.767 103.864 105.441C101.729 106.595 98.9008 107.172 95.611 107.115Z" fill="white"/>
<path style="mix-blend-mode:multiply" opacity="0.3" d="M143.977 152.364V160.559C143.977 164.08 141.149 167.024 137.628 167.139L53.5932 170.371C49.4953 170.544 45.9746 167.601 45.9746 163.792V54.65C45.9746 50.8408 49.3799 47.9549 53.4777 48.2435L57.9796 48.5321C57.9219 51.3025 57.9796 54.3037 58.4413 57.3627C58.4413 57.709 58.5568 58.0553 58.6145 58.4593C60.1151 67.4631 64.5016 76.6977 75.2368 81.4304C76.3911 81.9499 77.5454 82.4116 78.5843 82.931C83.0285 84.8934 86.8955 86.6826 90.1853 88.4718C94.2832 90.7227 97.573 93.0891 100.17 96.2058C102.075 98.4567 103.633 101.054 104.961 104.286C107.385 110.346 108.885 118.6 109.867 130.605C110.04 132.683 110.386 134.529 110.963 136.145C111.714 138.512 112.868 140.474 114.253 142.148C114.484 142.437 114.772 142.725 115.003 143.014C115.523 143.533 116.042 144.053 116.677 144.514C121.872 148.785 129.375 150.344 136.936 151.44C137.282 151.44 137.628 151.556 137.974 151.556C139.995 151.844 142.015 152.075 144.035 152.364H143.977Z" fill="url(#paint2_linear_394_4392)"/>
<path d="M202.645 328.349C289.421 328.349 359.767 327.543 359.767 326.548C359.767 325.553 289.421 324.747 202.645 324.747C115.868 324.747 45.5225 325.553 45.5225 326.548C45.5225 327.543 115.868 328.349 202.645 328.349Z" fill="#191919"/>
<mask id="mask0_394_4392" style="mask-type:luminance" maskUnits="userSpaceOnUse" x="45" y="324" width="315" height="5">
<path d="M202.645 328.349C289.421 328.349 359.767 327.543 359.767 326.548C359.767 325.553 289.421 324.747 202.645 324.747C115.868 324.747 45.5225 325.553 45.5225 326.548C45.5225 327.543 115.868 328.349 202.645 328.349Z" fill="white"/>
</mask>
<g mask="url(#mask0_394_4392)">
<path d="M202.645 327.628C289.421 327.628 359.767 326.822 359.767 325.827C359.767 324.833 289.421 324.026 202.645 324.026C115.868 324.026 45.5225 324.833 45.5225 325.827C45.5225 326.822 115.868 327.628 202.645 327.628Z" fill="#525355"/>
<path d="M208.349 325.079C295.125 325.079 365.471 324.866 365.471 324.603C365.471 324.341 295.125 324.128 208.349 324.128C121.573 324.128 51.2266 324.341 51.2266 324.603C51.2266 324.866 121.573 325.079 208.349 325.079Z" fill="#141414"/>
</g>
<path d="M350.164 301.214C347.823 303.317 345.028 304.174 341.938 304.239C340.951 304.009 341.333 303.267 341.369 302.676C341.815 295.148 340.612 287.967 336.499 281.527C333.337 276.578 329.036 273.178 322.841 272.998C319.29 272.897 316.265 274.402 313.693 276.621C307.772 281.743 304.912 288.42 304.422 296.157C304.083 301.488 304.681 306.703 306.835 311.637C309.464 317.659 313.095 322.745 319.715 324.906C320.018 325.007 320.342 325.129 320.486 325.576C319.549 326.469 318.332 325.951 317.259 326.145C315.177 326.167 313.095 326.095 311.02 326.174C308.773 326.26 306.669 325.871 304.689 324.812C298.58 321.909 294.993 316.889 292.918 310.65C291.722 307.049 292.486 307.322 288.495 307.322C280.197 307.322 271.891 307.351 263.593 307.294C262.08 307.279 261.324 307.733 260.891 309.238C259.595 313.741 257.434 317.782 253.991 321.059C252.499 322.478 250.799 323.566 248.977 324.488C246.42 325.85 243.718 326.592 240.787 326.476C238.489 326.383 236.184 326.368 233.893 326.476C230.608 326.628 227.611 325.785 224.788 324.2C219.198 321.081 215.56 316.384 213.637 310.319C212.527 306.833 212.931 307.394 209.639 307.286C208.068 307.236 206.455 307.646 204.935 306.948C204.423 306.083 204.906 305.233 205 304.383C205.9 296.258 205.021 288.478 200.483 281.433C199.014 279.15 197.126 277.248 194.944 275.62C189.368 271.471 180.955 272.119 175.718 277.205C170.704 282.067 168.384 288.154 167.484 294.94C166.85 299.759 167.254 304.477 168.665 309.109C170.452 314.98 173.729 319.799 178.88 323.249C179.989 323.991 181.199 324.503 182.453 324.92C182.755 325.021 183.173 325.129 183.159 325.511C183.144 326.001 182.655 325.994 182.302 326.102C178.844 326.239 175.393 326.195 171.936 326.138C169.847 326.102 168.039 325.122 166.245 324.142C160.612 320.714 157.104 315.714 155.375 309.397C154.828 307.38 154.777 307.344 152.659 307.344C137.763 307.344 122.866 307.358 107.969 307.308C106.449 307.308 105.685 307.769 105.268 309.26C103.978 313.813 101.99 317.991 98.3956 321.261C96.746 322.759 94.9955 324.042 92.9353 324.884C91.2065 325.958 89.2399 326.376 87.295 326.397C82.9873 326.455 78.658 326.829 74.372 326.102C73.0033 325.871 71.4978 325.806 70.655 324.373C63.7253 321.261 60.1451 315.491 58.193 308.497C57.84 307.236 57.4366 306.703 56.0608 306.84C54.2095 307.02 52.3438 306.883 50.5645 306.22C49.6425 305.874 48.7276 305.521 48.209 304.592C48.8501 304.261 48.8717 304.225 49.448 304.563C50.5645 305.205 51.7315 305.622 53.3379 305.68C52.2069 303.231 52.3222 300.731 52.3582 298.239C52.423 293.881 55.5421 290.733 59.9146 290.538C76.2233 289.811 92.5391 290.401 108.848 290.229C112.716 290.185 115.641 292.094 118.14 294.832C118.587 295.314 118.983 295.847 119.415 296.344C121.036 298.21 122.376 300.285 123.831 302.28C125.092 304.002 126.691 304.801 128.881 304.78C137.928 304.707 146.969 304.758 156.016 304.751C158.717 304.751 159.301 304.275 160.043 301.646C160.461 300.162 160.562 298.621 160.965 297.137C161.498 293.16 162.37 289.249 163.609 285.438C165.33 280.151 167.29 274.943 170.971 270.649C176.863 263.785 184.427 261.479 193.179 263.05C196.745 263.684 199.583 265.809 201.931 268.568C206.231 273.617 208.256 279.668 209.696 285.986C210.438 289.551 210.568 293.175 210.719 296.798C210.69 298.837 210.971 300.854 211.087 302.878C211.144 303.901 211.598 304.376 212.614 304.376C213.161 304.376 213.716 304.391 214.263 304.391C240.419 304.391 266.575 304.391 292.731 304.391C293.336 304.391 293.941 304.383 294.546 304.369C295.922 304.34 296.801 303.67 297.24 302.359C297.838 300.587 298.328 298.786 298.847 296.993C299.769 294.291 300.338 291.475 301.31 288.781C302.888 283.558 304.703 278.436 307.786 273.862C311.424 268.474 316.351 264.98 322.942 264.959C332.227 264.937 340.245 268.51 344.632 279.567C345.467 281.671 346.036 283.846 346.332 286.094C347.427 291.496 346.995 296.87 345.849 302.431C347.002 302.316 347.83 301.725 348.709 301.243C349.148 301.005 349.653 300.349 350.135 301.221L350.164 301.214Z" fill="black"/>
<path d="M119.178 296.647C117.932 295.516 116.866 294.219 115.576 293.103C113.711 291.489 111.586 290.747 109.281 290.74C93.9083 290.675 78.5289 290.625 63.1567 290.79C60.7723 290.819 58.1215 290.445 55.9244 292.26C54.0371 293.823 52.7981 295.581 52.8557 298.109C52.9206 300.818 52.4884 303.605 54.2532 306.148C52.2722 306.386 50.5506 305.954 48.9947 304.837C48.7714 304.679 48.6201 304.203 48.2167 304.6C46.9417 302.345 46.704 299.788 46.1133 297.331C48.829 295.206 49.0019 291.864 50.1256 288.975C51.7392 284.826 53.8642 281.051 57.8117 278.631C59.0867 277.903 60.4698 277.651 61.9249 277.651C77.3403 277.651 92.7557 277.659 108.171 277.651C111.038 277.651 113.487 278.811 115.886 280.18C120.806 283.673 125.431 287.499 129.342 292.145C131.013 294.133 132.966 295.804 135.559 296.539C135.905 296.64 136.517 296.633 136.337 297.331C134.961 298.095 133.52 298.469 131.935 298.224C130.689 298.03 129.414 298.052 128.168 298.138C125.049 298.361 122.074 297.807 119.185 296.654L119.178 296.647Z" fill="#181818"/>
<path d="M116.167 280.843C112.572 278.538 108.639 277.99 104.403 278.033C90.7959 278.177 77.1958 278.105 63.5884 278.055C61.4706 278.055 59.4392 278.213 57.5447 279.208C54.0294 280.043 50.5717 279.849 47.2221 278.487C45.4861 277.781 43.9517 276.823 44.3551 274.525C44.5352 273.942 44.5136 273.294 44.9458 272.796C45.3204 272.271 45.8246 272.335 46.4081 272.35C48.987 272.393 51.5658 272.552 54.1374 272.249C55.4053 272.098 56.601 271.752 57.6743 271.039C58.0345 270.729 58.4667 270.599 58.9205 270.527C59.9506 270.29 60.2964 269.569 60.3252 268.59C60.4189 265.254 60.0659 262.034 58.229 259.117C57.415 257.82 57.696 257.367 59.1943 257.295C60.2748 257.244 61.2545 257.54 62.1405 258.159C63.6604 259.722 64.0926 261.811 64.813 263.749C65.7566 266.285 65.9079 266.472 68.5804 266.472C80.8767 266.472 93.1802 266.45 105.477 266.493C107.465 266.493 109.071 265.91 110.541 264.563C112.802 262.481 115.129 260.471 117.895 259.052C119.783 257.965 121.944 258.469 123.939 258.008C124.609 257.849 124.969 258.224 124.796 258.959C124.465 259.787 123.709 260.154 123.024 260.608C121.151 261.862 119.336 263.144 117.917 264.952C116.901 266.249 116.426 267.74 115.828 269.216C115.799 269.44 115.806 269.159 115.778 269.375C115.403 272.602 115.54 272.768 118.731 272.768C125.697 272.768 132.67 272.724 139.635 272.789C143.749 272.825 147.718 272.292 151.478 270.571C152.242 270.383 153.106 269.288 153.661 269.987C154.251 270.736 153.2 271.521 152.667 272.17C150.469 274.842 147.379 276.074 144.21 276.982C137.928 278.775 131.546 280.058 124.984 280.339C122.635 280.439 120.316 281.037 117.946 280.98C117.348 280.965 116.743 281.08 116.159 280.857L116.167 280.843Z" fill="#0D71EC"/>
<path d="M317.512 325.72H320.465C310.935 322.442 306.814 315.087 304.733 306.321C303.191 299.809 303.407 293.232 305.972 286.929C308.421 280.9 312.001 275.828 318.39 273.408C323.807 271.362 328.605 272.896 332.733 276.462C337.761 280.799 340.217 286.612 341.29 293.073C341.881 296.596 342.277 300.118 341.658 303.684C341.629 303.843 341.838 304.051 341.939 304.232C341.11 307.387 340.433 310.599 338.971 313.553C336.716 318.091 333.921 322.154 329.124 324.387C328.072 325.72 326.602 326.296 324.996 326.411C322.929 326.562 320.847 326.483 318.779 326.433C318.268 326.418 317.634 326.476 317.512 325.712V325.72Z" fill="#363738"/>
<path d="M164.48 204.846C172.469 202.591 180.602 201.208 188.879 200.553C210.431 198.845 232.013 198.183 253.623 198.665C267.577 198.975 281.537 199.378 295.468 200.286C306.093 200.978 316.466 202.771 326.27 207.144C326.674 207.324 327.156 207.417 327.373 207.806C329.944 212.402 333.87 215.925 337.04 220.045C341.189 225.441 345.46 230.742 349.725 236.058C351.425 238.183 353.759 239.804 354.746 242.491C354.061 243.183 353.211 242.981 352.412 242.858C351.483 242.722 350.553 242.707 349.624 242.642C348.111 242.527 346.966 243.111 346.022 244.227C344.099 244.659 342.168 244.465 340.238 244.314C339.957 244.292 339.734 244.134 339.575 243.903C339.532 243.24 340.115 243.147 340.504 242.895C343.652 240.834 344.632 237.521 343.011 234.135C341.347 230.663 338.603 227.983 336.19 225.073C332.473 220.585 328.287 216.515 324.527 212.064C323.648 211.026 323.065 209.975 323.814 208.635C324.354 207.67 323.583 207.504 322.986 207.273C320.198 206.207 317.28 205.602 314.377 205.011C307.642 203.636 300.849 202.75 293.977 202.339C288.769 202.029 283.554 201.907 278.346 201.647C273.836 201.424 269.32 201.258 264.839 201.475C260.308 201.698 255.741 201.539 251.239 202.627C245.491 204.017 240.902 207.403 236.241 210.695C233.194 212.856 230.191 215.096 227.266 217.423C221.979 221.637 216.756 225.93 211.973 230.728C210.338 232.363 208.602 233.89 206.765 235.28C206.131 235.756 205.23 236.433 205.101 234.798C206.239 232.73 208.083 231.29 209.776 229.748C213.551 226.305 217.203 222.732 221.035 219.354C225.775 215.176 230.659 211.17 235.312 206.884C236.443 205.84 237.733 204.983 239.267 204.572C238.525 204.767 237.769 204.723 237.019 204.723C230.536 204.723 224.046 204.767 217.563 204.716C206.959 204.63 196.356 205.026 185.752 205.163C179.442 205.242 173.117 205.264 166.807 205.372C166.015 205.386 165.136 205.588 164.488 204.853L164.48 204.846Z" fill="#0D74ED"/>
<path d="M339.597 243.823C341.203 243.671 342.795 244.421 344.423 243.888C344.906 243.729 345.403 243.888 345.842 244.161C346.274 244.442 346.245 244.903 346.303 245.328C347.088 250.817 350.164 254.988 354.054 258.669C354.846 259.418 355.79 260.002 356.417 260.931C356.431 262.343 356.453 263.755 356.46 265.167C356.46 266.78 356.258 268.43 357.209 269.892C356.381 270.159 356.121 269.489 355.92 268.977C355.516 267.962 354.818 267.897 353.924 268.12C352.109 268.574 350.359 269.186 348.659 269.971C345.972 271.21 345.64 271.066 344.128 268.487C340.865 262.948 336.053 259.476 329.822 258.05C327.704 257.567 325.514 257.25 323.295 257.603C322.157 257.783 321.545 258.179 321.523 259.469C321.502 260.664 321.336 260.693 320.5 260.275C320.169 257.048 320.457 253.814 320.327 250.587C320.27 249.168 320.428 247.749 320.097 246.337C319.953 245.71 319.967 245.019 320.392 244.442C320.796 244.104 321.285 244.003 321.782 244.017C324.477 244.104 327.149 243.484 329.843 243.657C332.379 243.823 334.878 243.203 337.414 243.326C338.17 243.362 338.97 243.225 339.604 243.83L339.597 243.823Z" fill="#0A5ABE"/>
<path d="M53.1725 254.06C57.1705 250.278 61.8743 247.642 66.8807 245.445C75.0999 241.836 83.8233 240.237 92.6043 238.868C98.079 238.011 103.59 237.377 109.107 236.837C110.238 236.729 110.952 236.39 111.427 235.079C112.666 231.708 115.576 230.447 118.911 230.044C120.323 229.871 121.721 229.504 123.169 229.626C123.586 230.433 122.873 230.692 122.434 231.038C120.669 232.435 118.825 233.725 117.075 235.144C116.671 235.475 116.059 235.634 116.023 236.289C116.671 236.592 117.334 236.441 117.982 236.441C135.76 236.433 153.531 236.354 171.309 236.397C172.282 236.397 173.298 236.217 174.198 236.786C174.393 237.78 173.55 237.665 173.081 237.68C171.108 237.744 169.163 238.22 167.175 238.076C164.978 237.997 162.795 238.321 160.619 238.458C153.668 238.911 146.71 239.236 139.765 239.747C130.351 240.438 120.957 241.317 111.578 242.434C103.352 243.406 95.1039 244.22 86.9352 245.625C79.6381 246.878 72.3482 248.247 65.4328 251.078C62.6811 252.209 59.9942 253.441 57.3866 254.86C56.8103 255.177 56.2556 255.544 55.6073 255.703C55.348 255.753 55.0815 255.753 54.8221 255.703C54.0946 255.335 52.9997 255.328 53.1725 254.053V254.06Z" fill="#3A91EF"/>
<path d="M320.846 260.68C320.947 260.435 321.113 260.197 321.134 259.945C321.365 257.272 321.358 257.157 323.951 257.085C329.858 256.912 335.124 258.627 339.683 262.502C342.053 264.519 343.883 266.911 345.352 269.598C345.842 270.484 346.289 270.534 347.175 270.138C349.466 269.122 351.749 268.078 354.242 267.595C355.286 267.393 356.006 267.415 356.223 268.69C356.309 269.194 356.561 269.756 357.209 269.9C357.361 270.239 357.512 270.577 357.663 270.916C357.598 271.182 357.562 271.463 357.613 271.73C357.901 273.264 357.037 273.776 355.718 273.934C354.184 274.121 352.75 274.604 351.396 275.375C350.352 275.965 349.898 276.729 350.186 277.925C350.705 280.05 350.611 282.268 351.108 284.408C351.461 285.921 350.986 286.461 349.48 286.511C348.45 286.547 347.405 286.641 346.375 286.403C346.203 286.324 346.044 286.223 345.9 286.108C344.618 278.047 341.261 271.125 333.553 267.624C323.951 263.266 313.989 264.742 307.743 274.762C305.157 278.912 303.493 283.399 302.038 288.01C301.959 288.262 301.822 288.499 301.707 288.744C300.388 289.904 300.079 288.802 299.704 287.851C300.302 285.035 301.743 282.542 302.845 279.927C303.824 277.601 305.164 275.447 306.353 273.221C308.197 269.778 311.294 267.876 314.622 266.219C316.193 265.434 317.706 264.562 319.038 263.381C319.895 262.625 319.917 261.357 320.854 260.694L320.846 260.68Z" fill="#0E72EC"/>
<path d="M174.305 236.909H114.87C114.855 236.275 115.23 236.145 115.547 235.965C119.465 235.533 123.398 235.85 127.324 235.763C128.527 235.735 129.723 235.785 130.912 235.547C131.207 235.504 131.502 235.454 131.805 235.468C133.995 235.382 136.192 235.713 138.367 235.238C139.599 235.007 140.838 235.144 142.077 235.137C147.84 235.137 153.603 235.137 159.365 235.137C164.12 235.079 168.881 235.288 173.628 235.021C174.925 234.64 176.51 235.23 177.533 233.89C178.779 235.252 180.421 234.755 181.948 234.827C182.654 234.813 183.36 234.813 184.059 234.813C189.872 234.993 195.671 234.236 201.491 234.496C202.55 234.539 203.393 234.099 204.128 233.357C205.251 232.226 206.404 231.124 207.499 229.979C210.798 226.529 214.371 223.352 217.8 220.038C219.032 219.109 220.271 218.18 221.394 217.114C224.377 214.549 227.373 211.999 230.687 209.139C226.098 208.779 221.935 208.498 217.771 208.138C213.564 208.008 209.393 207.259 205.172 207.36C200.461 207.475 195.772 206.82 191.053 207.058C188.388 206.661 185.701 206.863 183.022 206.741C176.459 206.431 169.897 206.416 163.334 206.402C162.65 206.402 161.735 206.647 161.433 205.602C162.391 205.141 163.399 204.897 164.458 204.853C171.107 204.99 177.756 204.933 184.405 204.724C189.901 204.551 195.404 204.724 200.901 204.508C213.377 204.025 225.868 204.443 238.344 204.169C239.129 204.155 239.922 204.09 240.657 204.054C233.129 208.297 227.33 214.679 220.84 220.189C215.394 224.807 210.251 229.77 205.302 234.928C204.567 236.347 203.271 236.757 201.808 236.866C200.418 236.599 199.064 237.154 197.673 237.067C191.421 237.031 185.168 237.11 178.916 237.125C178.037 237.125 177.165 237.226 176.294 237.327C175.588 237.406 174.86 237.507 174.284 236.916L174.305 236.909Z" fill="#050101"/>
<path d="M131.114 235.885C130.422 236.346 129.63 236.188 128.88 236.202C124.623 236.274 120.366 236.296 116.109 236.354C115.785 236.354 115.583 236.31 115.547 235.965C117.513 234.041 119.869 232.608 121.98 230.857C122.412 230.497 123.103 230.353 123.161 229.625C125.862 228.048 128.247 226.024 130.797 224.23C136.358 220.326 142.056 216.63 147.847 213.079C149.31 213.101 150.743 213.418 152.205 213.533C152.803 213.576 153.43 213.879 153.524 214.57C153.61 215.219 152.991 215.449 152.537 215.73C151.752 216.205 150.851 216.522 150.332 217.358C147.97 219.224 145.326 220.686 142.877 222.444C140.298 224.302 137.741 226.189 135.191 228.091C133.541 229.323 132.626 230.864 132.158 232.802C131.906 233.854 131.841 234.985 131.106 235.885H131.114Z" fill="#67696B"/>
<path d="M150.218 217.12C150.629 216.299 150.672 216.285 152.235 215.42C152.624 215.204 153.388 215.161 153.236 214.549C153.1 214.008 152.408 213.835 151.861 213.835C150.47 213.843 149.102 213.785 147.855 213.079C151.781 210.817 155.7 208.548 159.64 206.315C160.202 205.998 160.843 205.832 161.448 205.595C161.881 206.121 162.479 205.868 162.983 205.854C171.555 205.674 180.12 206.243 188.692 206.272C189.506 206.272 190.32 206.466 191.134 206.567C194.246 207.468 197.451 206.971 200.606 207.165C204.158 207.388 207.738 207.129 211.304 207.388C211.606 207.41 211.959 207.273 212.269 207.727C211.772 208.454 210.972 208.325 210.266 208.325C205.267 208.346 200.268 208.325 195.269 208.339C194.556 208.339 193.842 208.289 193.136 208.426C192.942 208.469 192.747 208.476 192.546 208.476C190.975 208.318 189.398 208.217 187.828 208.534C184.982 208.743 182.13 208.887 179.291 208.944C169.696 209.124 160.742 211.444 152.48 216.371C151.796 216.782 151.14 217.38 150.218 217.12Z" fill="#5D5E60"/>
<path d="M44.3552 274.518C44.5569 277.147 46.617 277.781 48.6124 278.501C51.5298 279.56 54.5625 278.984 57.5447 279.207C52.7328 282.758 50.5934 287.88 49.2175 293.441C48.7781 295.22 47.9137 296.639 46.12 297.338C44.8882 291.366 44.2831 285.323 43.959 279.25C43.8725 277.658 43.8869 276.066 44.3624 274.525L44.3552 274.518Z" fill="#0959BA"/>
<path d="M345.893 286.107C345.994 286.107 346.102 286.115 346.202 286.107C347.917 286.309 349.617 286.259 351.346 286.043C353.132 285.819 354.998 285.459 356.741 286.396C356.078 291.179 354.746 295.717 351.771 299.628C351.317 300.226 350.892 300.875 350.164 301.206C349.84 300.853 349.595 301.076 349.336 301.3C348.155 302.33 346.757 302.877 345.201 303.129C346.57 297.467 347.067 291.82 345.9 286.1L345.893 286.107Z" fill="#232324"/>
<path d="M355.423 244.111C358.203 249.334 358.844 254.7 356.546 260.269C355.135 259.923 354.205 258.813 353.298 257.87C350.38 254.83 348.01 251.408 346.8 247.295C346.627 246.712 346.469 246.135 346.469 245.523C346.469 244.63 346.454 243.693 347.42 243.24C348.392 242.779 349.401 242.476 350.308 243.405C350.964 244.911 351.05 246.596 351.698 248.102C352.051 248.923 352.318 250.133 353.478 249.888C354.501 249.679 354.565 248.534 354.71 247.598C354.904 246.33 354.328 245.127 354.4 243.873C354.846 243.484 355.156 243.722 355.43 244.104L355.423 244.111Z" fill="#1A79DB"/>
<path d="M356.741 286.404C353.802 286.404 350.856 286.418 347.917 286.404C347.341 286.404 346.707 286.613 346.21 286.123C347.363 286.108 348.508 286.044 349.66 286.101C350.77 286.152 351.072 285.59 350.755 284.689C349.934 282.291 350.294 279.712 349.567 277.291C349.336 276.528 349.581 275.865 350.424 275.39C352.052 274.475 353.673 273.546 355.596 273.553C357.469 273.553 357.433 272.162 357.663 270.931C358.175 276.146 357.447 281.282 356.741 286.418V286.404Z" fill="#0959BD"/>
<path d="M54.5344 271.268C51.6602 272.096 48.75 271.614 45.8542 271.463C45.4724 271.441 45.0114 271.239 45.105 270.605C45.9334 264.706 48.0729 259.411 52.2293 255.039C52.8128 254.657 53.3026 255.089 53.8284 255.226C54.2823 255.637 55.1179 255.55 55.2763 256.342C55.0386 257.221 54.2823 257.394 53.5547 257.653C51.2712 258.467 49.8954 260.146 49.247 262.415C48.6636 264.454 49.3695 265.52 51.4297 265.909C51.6962 265.959 51.9627 266.017 52.1861 266.182C51.4009 268.603 53.1153 269.871 54.5416 271.268H54.5344Z" fill="#DBDFE4"/>
<path d="M54.5344 271.267C53.9293 270.9 53.2737 270.583 52.7191 270.151C51.3144 269.049 51.1847 267.867 52.2076 266.297C53.7204 264.935 55.6437 264.791 57.5238 264.503C57.8552 264.503 58.2081 264.568 58.5035 264.438C59.4327 264.035 59.8577 264.51 60.045 265.31C60.3548 266.607 60.4556 267.968 60.0738 269.214C59.5552 270.893 57.9488 271.015 56.4937 271.239C55.8454 271.253 55.1899 271.26 54.5416 271.275L54.5344 271.267Z" fill="#C6C9CD"/>
<path d="M350.092 243.515C349.055 243.061 347.902 243.097 347.196 243.86C346.469 244.646 346.779 245.827 347.088 246.828C348.536 251.539 351.18 255.472 354.868 258.714C355.444 259.218 355.985 259.758 356.539 260.277C356.496 260.5 356.453 260.724 356.402 260.947C352.412 258.519 349.725 254.939 347.578 250.898C346.462 248.802 345.806 246.576 345.835 244.177C346.368 242.787 347.441 242.175 348.868 242.218C350.82 242.276 352.772 242.405 354.731 242.506C355.005 243.025 355.509 243.45 355.423 244.127C355.149 244.084 354.875 244.04 354.602 243.997C353.053 244.293 351.54 244.235 350.092 243.529V243.515Z" fill="#000D21"/>
<path d="M56.4847 271.232C56.7153 271.103 56.9314 270.937 57.1763 270.851C58.9291 270.202 59.7983 269.019 59.7839 267.299C59.7743 265.739 58.9964 264.946 57.45 264.922C57.7093 263.345 58.9051 263.554 60.0072 263.561C60.706 265.275 60.6556 267.09 60.5763 268.884C60.5331 269.828 59.9496 270.498 59.0348 270.822L58.1559 271.204C57.6013 271.333 57.1403 271.974 56.4775 271.506C56.4775 271.42 56.4775 271.333 56.4847 271.24V271.232Z" fill="#DBDFE4"/>
<path d="M56.4785 271.499C57.0404 271.398 57.5951 271.297 58.1569 271.196C56.7379 272.219 55.0811 272.421 53.4171 272.579C50.6005 272.839 47.7623 272.356 44.953 272.788C44.8881 272.097 45.1115 271.809 45.8822 271.924C49.4407 272.486 52.9776 272.342 56.4857 271.492L56.4785 271.499Z" fill="#102C50"/>
<path d="M53.6762 255.415C53.1863 255.292 52.7037 255.163 52.2139 255.04C52.5308 254.716 52.8478 254.392 53.1719 254.061C53.2512 254.882 54.13 254.882 54.5262 255.372C54.2524 255.616 53.9643 255.523 53.6762 255.415Z" fill="#0D71EC"/>
<path d="M116.167 280.842C118.17 280.136 120.287 280.381 122.333 280.215C129.846 279.618 137.295 278.602 144.505 276.426C148.122 275.331 151.651 273.79 153.639 269.972C152.962 270.318 152.4 270.606 151.839 270.894C151.731 270.764 151.68 270.613 151.687 270.448C151.759 270.109 151.961 269.842 152.235 269.662C155.851 267.3 157.472 263.676 158.545 259.7C158.754 258.684 158.783 257.46 160.396 258.461C160.735 258.67 161.239 258.339 161.643 258.166C173.312 253.296 185.644 251.272 198.078 249.63C203.79 248.88 209.538 248.563 215.272 248.016C215.813 247.966 216.367 247.85 216.886 248.138C217.433 248.729 217.318 249.471 217.318 250.17C217.325 259.657 217.462 269.144 217.26 278.631C217.167 282.931 217.059 287.268 216.396 291.547C216.122 293.311 216.663 294.997 216.886 296.711C214.674 297.396 212.47 297.533 210.288 296.611C210.1 292.98 209.848 289.357 209.257 285.762C211.166 285.611 213.068 285.575 215.265 286.043C213.284 281.051 212.326 276.03 210.107 271.42C208.739 268.567 207.111 265.888 205.087 263.511C201.917 259.786 197.883 257.28 192.942 256.891C184.903 256.257 177.541 258.339 171.201 263.41C165.619 267.869 162.046 273.74 160.065 280.561C158.703 285.258 157.464 289.991 156.759 294.846C156.636 295.71 156.326 296.495 157.709 296.51C158.084 296.51 158.812 296.711 158.3 297.468C157.27 298.015 156.146 297.914 155.08 297.806C149.678 297.252 144.253 297.633 138.844 297.504C137.986 297.482 137.079 297.662 136.322 297.043C133.182 296.625 130.97 294.673 129.061 292.411C125.301 287.945 120.835 284.293 116.174 280.849L116.167 280.842Z" fill="#0A5CC0"/>
<path d="M193.785 324.027C190.766 325.684 187.518 326.231 184.118 326.008C183.585 325.972 183.008 326.145 182.547 325.72C182.598 325.705 182.655 325.691 182.706 325.669C182.85 325.612 183.03 325.453 182.799 325.403C179.421 324.682 176.9 322.622 174.587 320.223C170.525 316.024 168.342 310.952 167.319 305.247C166.239 299.225 166.721 293.347 168.717 287.62C170.791 281.649 174.047 276.469 180.084 273.804C185.652 271.341 191.004 271.989 195.852 275.771C201.492 280.165 204.179 286.223 205.31 293.073C206.074 297.691 205.987 302.316 205 306.904C205.433 307.488 205.123 308.086 204.964 308.633C203.329 314.252 200.426 319.064 195.953 322.896C195.305 323.451 194.541 323.703 193.792 324.02L193.785 324.027Z" fill="#373839"/>
<path d="M210.287 296.604C212.462 296.604 214.638 296.604 216.813 296.604C219.803 297.468 222.9 297.281 225.947 297.389C230.716 297.562 235.506 297.576 240.275 297.411C257.016 296.834 273.764 297.295 290.512 297.158C291.989 297.144 293.278 296.546 294.661 296.222C296.246 296.28 297.896 295.675 299.394 296.669C299.048 298.837 298.256 300.883 297.636 302.979C297.168 304.564 295.943 304.924 294.416 304.924C282.048 304.895 269.68 304.917 257.311 304.917C242.357 304.917 227.41 304.888 212.455 304.945C210.921 304.945 210.489 304.513 210.532 303.015C210.597 300.883 210.1 298.765 210.28 296.618L210.287 296.604Z" fill="#292A2C"/>
<path d="M158.45 297C157.686 296.373 156.462 297.439 156.044 296.647C155.749 296.092 156.325 295.098 156.455 294.291C157.319 288.723 158.659 283.284 160.517 277.961C162.34 272.753 165.265 268.294 169.284 264.505C173.858 260.19 179.326 257.77 185.441 256.725C188.589 256.185 191.781 256.034 194.914 256.754C200.036 257.935 203.926 260.917 206.958 265.196C210.077 269.59 212.037 274.453 213.557 279.567C214.219 281.793 214.702 284.113 216.121 286.303C214.133 286.562 212.26 285.733 210.409 286.122C209.883 286.23 209.587 286.036 209.256 285.755C208.233 281.599 207.037 277.485 204.97 273.711C202.341 268.906 198.905 264.822 193.336 263.46C187.912 262.142 182.675 263.151 177.705 265.657C172.735 268.164 169.68 272.385 167.354 277.219C164.501 283.126 162.556 289.328 161.692 295.847C161.641 296.229 161.519 296.596 161.432 296.971C160.445 297.59 159.451 297.691 158.45 296.992V297Z" fill="#0D73ED"/>
<path d="M158.45 297C159.445 296.993 160.439 296.985 161.433 296.978C161.058 299.067 160.82 301.185 160.086 303.202C159.596 304.549 158.717 305.241 157.255 305.241C147.379 305.226 137.496 305.233 127.62 305.241C125.833 305.241 124.652 304.167 123.672 302.899C122.109 300.868 120.661 298.75 119.17 296.661C120.2 296.042 121.151 296.748 121.965 297.072C123.463 297.663 124.962 297.591 126.481 297.655C128.606 297.749 130.731 297.533 132.878 297.864C133.951 298.03 135.162 297.346 136.307 297.043C142.718 297.057 149.129 296.899 155.54 297.238C156.506 297.288 157.507 297.475 158.443 297.007L158.45 297Z" fill="#1F1E1E"/>
<path d="M299.394 296.661C297.823 296.654 296.253 296.639 294.683 296.632C295.043 295.357 296.397 294.867 296.945 293.693C297.658 292.144 298.364 290.596 299.005 289.018C299.206 288.521 299.163 287.75 300.013 287.743C300.229 288.658 300.625 289.263 301.692 288.737C300.921 291.381 300.157 294.017 299.386 296.661H299.394Z" fill="#0B5BBC"/>
<path d="M118.184 259.339C115.432 260.866 113.077 262.926 110.764 265.015C109.259 266.377 107.645 267.025 105.585 267.018C93.0797 266.96 80.5673 266.989 68.0549 266.989C65.6057 266.989 65.0942 266.521 64.3811 264.137C63.776 262.105 63.2141 260.031 61.8167 258.338C61.5069 257.862 60.7289 257.581 61.0315 256.847C61.3484 256.069 62.112 255.997 62.8324 255.953C63.3798 255.917 63.9345 255.932 64.4819 255.932C81.4605 255.932 98.4391 255.946 115.418 255.91C117.291 255.91 119.12 256.357 120.993 256.306C121.411 256.292 121.951 256.321 122.088 256.839C122.247 257.437 121.75 257.754 121.325 257.963C120.294 258.46 119.113 258.626 118.177 259.353L118.184 259.339Z" fill="#201D1D"/>
<path d="M158.876 259.989C157.723 264.261 155.879 268.064 151.852 270.391C150.621 271.471 149.057 271.817 147.545 272.163C145.578 272.617 143.576 272.897 141.544 272.89C136.228 272.869 130.919 272.84 125.603 272.905C123.255 272.934 120.906 272.934 118.558 272.89C115.864 272.847 115.331 272.307 115.396 269.562C115.396 269.289 115.381 269.015 115.54 268.77C116.62 264.707 119.624 262.294 122.923 260.126C123.456 259.773 123.968 259.391 124.494 259.016C127.454 257.086 130.797 256.193 134.204 255.487C140.06 254.248 145.96 253.52 151.96 254.032C153.055 254.385 154.23 254.305 155.339 254.68C158.386 255.71 159.099 256.733 158.883 259.989H158.876Z" fill="#DDE0E5"/>
<path d="M134.01 255.946C130.711 256.587 127.649 257.949 124.487 259.015C124.559 258.72 124.674 258.107 124.336 258.266C122.369 259.217 120.071 258.107 118.177 259.339C119.178 258.194 120.777 257.992 122.11 256.803C120.237 256.681 118.594 256.479 116.945 256.472C98.9362 256.451 80.9275 256.458 62.9188 256.465C61.0171 256.465 60.9523 256.602 61.8095 258.323C60.7578 257.872 59.4443 257.69 57.8692 257.776C59.4539 259.836 60.1887 262.091 60.5921 264.504C60.8514 266.089 60.801 267.666 60.7145 269.229C60.6713 270.072 60.1815 270.922 59.0289 270.814C60.1095 270.007 60.5777 268.949 60.4408 267.594C60.3039 266.269 60.2895 264.922 59.7781 263.654C59.4467 263.402 59.3675 263.02 59.2811 262.653C58.6616 260.052 56.9687 258.172 55.1175 256.393C54.6348 256.069 54.1522 255.737 53.6768 255.413C53.9577 255.399 54.2386 255.384 54.5268 255.37C54.7357 255.377 54.9518 255.392 55.1607 255.399C57.826 255.039 60.484 255.528 63.1421 255.528C80.0126 255.528 96.8832 255.528 113.754 255.528C119.077 255.528 124.386 256.069 129.717 255.773C130.495 255.73 131.229 255.536 131.986 255.428C132.706 255.32 133.534 255.003 134.003 255.946H134.01Z" fill="#0860C9"/>
<path d="M115.532 268.77C115.532 269.259 115.532 269.756 115.553 270.246C115.618 271.723 116.288 272.515 117.88 272.595C123.902 272.876 129.924 272.623 135.954 272.623C139.836 272.623 143.726 272.71 147.566 271.925C149.078 271.615 150.454 270.981 151.859 270.39C151.859 270.556 151.852 270.729 151.845 270.895C148.43 272.573 144.785 273.207 141.025 273.228C133.512 273.279 125.998 273.286 118.478 273.293C115.15 273.293 114.343 272.033 115.539 268.77H115.532Z" fill="#162234"/>
<path d="M309.558 298.62C309.515 293.074 311.1 288.082 314.896 284.019C320.248 278.285 327.632 278.984 332.069 285.517C335.592 290.704 336.499 296.459 335.743 302.597C335.152 307.445 333.38 311.63 329.735 315.015C325.961 318.523 319.773 318.617 315.991 315.087C311.201 310.621 309.667 304.902 309.558 298.62Z" fill="#030303"/>
<path d="M158.877 259.988C158.913 256.825 157.378 255.277 153.69 254.765C153.157 254.693 152.588 254.801 152.105 254.463C153.308 254.059 153.669 252.748 154.778 252.129C158.156 250.256 161.873 249.557 165.547 248.671C174.825 246.438 184.146 244.385 193.374 241.965C195.874 241.309 198.229 240.25 200.405 238.824C201.24 238.276 202.011 237.678 202.047 236.555C203.221 236.18 204.367 235.741 205.31 234.912C205.44 235.899 205.901 235.431 206.283 235.114C207.666 233.954 209.128 232.867 210.41 231.599C217.78 224.28 225.804 217.775 234.196 211.667C237.344 209.376 240.506 207.136 243.827 205.104C247.645 202.77 251.91 201.596 256.282 201.344C262.138 201.006 268.017 200.732 273.895 200.948C279.866 201.164 285.845 201.287 291.802 201.647C299.546 202.115 307.268 202.951 314.853 204.615C318.246 205.357 321.661 206.098 324.924 207.474C325.046 207.899 324.657 208.115 324.42 208.389C323.562 209.39 323.606 210.385 324.456 211.35C326.192 213.324 327.892 215.333 329.707 217.235C334.13 221.881 338.33 226.715 342.234 231.808C345.122 235.568 344.849 239.703 341.701 242.613C341.067 243.204 340.217 243.297 339.583 243.823C333.244 244.046 326.905 244.277 320.566 244.5C318.859 242.188 317.483 239.681 316.186 237.131C315.963 236.699 315.804 236.216 316.222 235.77C318.599 235.323 321.005 235.258 323.411 235.157C325.061 235.085 326.703 235.143 328.338 234.811C331.342 234.206 332.264 232.233 330.622 229.625C329.152 227.291 327.337 225.224 325.558 223.12C321.711 218.582 317.648 214.26 312.692 210.896C309.364 208.634 305.489 207.935 301.613 207.409C295.08 206.531 288.532 205.789 281.934 205.666C281.278 205.652 280.601 205.688 280.082 205.148C279.283 204.823 278.447 205.032 277.64 205.032C269.515 205.047 261.389 204.96 253.264 205.076C252.126 205.839 250.743 205.731 249.489 206.113C245.369 207.373 242.07 209.974 238.943 212.69C230.739 219.807 222.743 227.154 215.042 234.819C214.221 235.633 213.45 236.497 212.838 237.47C211.901 238.953 212.326 239.991 213.998 240.409C214.516 240.538 215.114 240.473 215.46 241.021C215.979 242.685 216.483 244.356 216.8 246.071C216.929 246.769 217.102 247.468 216.613 248.109C215.46 248.693 214.185 248.664 212.968 248.736C201.874 249.355 190.882 250.767 180.019 253.065C173.435 254.455 166.952 256.235 160.786 259.008C160.022 259.354 159.388 259.57 159.367 258.252C158.985 258.857 159.41 259.548 158.877 259.966V259.988Z" fill="#3B91F0"/>
<path d="M216.618 248.132C216.575 245.639 215.545 243.363 215.105 240.957C215.271 240.568 215.523 240.374 215.955 240.546C216.085 240.683 216.186 240.835 216.251 241.007C217.05 243.572 217.728 246.165 218.008 248.852C218.088 260.061 218.037 271.269 218.037 282.478C218.037 283.364 217.872 284.228 217.684 285.085C217.879 287.837 217.288 290.56 217.396 293.305C217.475 295.336 218.095 296.085 220.047 296.085C236.248 296.1 252.455 296.251 268.656 296.013C269.059 295.977 269.456 296.092 269.852 296.143C276.868 296.2 283.884 296.107 290.893 296.186C293.681 296.215 295.446 294.904 296.562 292.505C297.304 290.913 297.859 289.249 298.572 287.643C300.186 283.493 302.037 279.46 304.004 275.469C306.251 270.916 309.334 267.314 314.132 265.355C314.989 265.002 315.81 264.541 316.617 264.066C318.317 263.057 319.513 261.725 319.577 259.621C319.808 257.338 319.801 255.033 319.577 252.778C319.311 250.055 319.419 247.346 319.268 244.638C318.533 242.34 316.876 240.518 315.94 238.328C315.666 237.694 315.19 237.11 315.363 236.347C315.543 236.023 315.774 235.799 316.185 235.972C316.941 238.277 318.418 240.201 319.556 242.304C319.945 243.024 320.456 243.68 320.579 244.523C320.888 249.911 320.78 255.306 320.845 260.695C320.463 263.043 318.958 264.606 316.919 265.406C310.307 268.006 306.208 272.912 303.586 279.301C302.426 282.132 300.964 284.833 300.013 287.758C299.264 289.494 298.507 291.223 297.765 292.959C297.103 294.5 296.087 295.732 294.682 296.654C292.795 297.504 290.814 297.684 288.761 297.677C275.514 297.641 262.267 297.511 249.027 297.713C241.78 297.821 234.54 297.987 227.294 297.951C224.448 297.936 221.603 297.764 218.75 297.656C217.944 297.627 217.252 297.36 216.813 296.625C215.603 295.228 215.761 293.528 215.927 291.914C216.676 284.588 216.878 277.241 216.849 269.886C216.82 263.18 216.827 256.473 216.805 249.767C216.805 249.227 216.935 248.665 216.618 248.16V248.132Z" fill="#000B1C"/>
<path d="M202.053 236.555C202.759 236.936 202.86 237.275 202.197 237.909C199.611 240.372 196.413 241.669 193.063 242.497C182.525 245.112 171.964 247.598 161.404 250.112C158.89 250.709 156.513 251.624 154.258 252.892C153.473 253.339 153.394 254.743 152.104 254.462C145.989 253.965 139.988 254.823 134.009 255.946C133.635 255.622 133.152 255.651 132.749 255.745C129.053 256.609 125.286 256.472 121.555 256.343C101.623 255.665 81.6905 256.242 61.7585 256.054C59.7488 256.033 57.7606 255.327 55.7364 255.91C55.6068 255.946 55.3546 255.579 55.1602 255.399C57.4076 254.275 59.6191 253.079 61.9098 252.042C68.3209 249.146 75.0417 247.338 81.9571 246.063C86.9491 245.141 91.9555 244.32 96.9835 243.621C101.306 243.016 105.664 242.663 110 242.181C114.07 241.727 118.155 241.345 122.21 240.769C125.408 240.315 128.628 240.192 131.841 239.904C137.719 239.378 143.619 239.011 149.504 238.586C151.247 238.456 152.998 238.485 154.755 238.312C158.84 237.916 162.946 237.822 167.044 237.606C166.202 238.975 164.833 239.501 163.378 239.76C158.062 240.689 152.904 242.253 147.739 243.773C141.198 245.696 134.672 247.684 128.895 251.48C128.664 251.631 128.398 251.711 128.131 251.776C127.922 251.848 128.239 252.049 128.117 251.869C128.102 251.848 128.139 251.812 128.239 251.776C133.152 250.198 138.094 248.685 142.985 247.064C149.209 245.004 155.548 243.448 161.908 241.95C168.694 240.358 175.573 239.162 182.373 237.642C186.969 236.612 191.536 236.857 196.132 236.735C196.773 236.72 197.443 236.922 198.063 236.576C199.395 236.576 200.728 235.978 202.068 236.547L202.053 236.555Z" fill="#0D71EC"/>
<path d="M198.049 236.584C197.617 237.088 197.026 236.893 196.5 236.901C194.851 236.922 193.201 236.98 191.559 236.901C188.685 236.749 185.954 237.354 183.167 238.01C178.297 239.162 173.32 239.876 168.421 240.906C164.575 241.712 160.778 242.743 156.946 243.614C151.853 244.774 146.94 246.51 141.941 247.965C137.396 249.283 132.987 251.034 128.363 252.078C127.786 252.208 127.419 252.863 126.288 252.575C128.355 251.329 130.084 250.184 131.907 249.211C137.468 246.243 143.497 244.529 149.526 242.822C153.294 241.756 157.025 240.567 160.872 239.825C163.055 239.407 165.187 238.925 167.031 237.614C169.466 237.491 171.908 237.441 174.299 236.908C182.209 236.44 190.125 236.555 198.042 236.591L198.049 236.584Z" fill="#095EC9"/>
<path d="M150.218 217.12C152.444 215.938 154.67 214.764 156.888 213.576C163.321 210.132 170.316 208.98 177.476 208.576C180.926 208.382 184.377 208.31 187.834 208.188C188.331 208.98 187.82 209.664 187.553 210.349C186.214 213.813 184.751 217.221 183.491 220.714C183.26 221.183 183.03 221.651 182.489 221.845C181.085 221.435 179.702 221.586 178.261 221.795C166.015 223.596 154.821 228.336 143.929 233.947C143.303 234.271 142.611 234.531 142.208 235.172C142.143 235.309 142.056 235.438 141.948 235.546C140.752 235.59 139.557 235.626 138.361 235.669C136.142 235.95 133.895 235.539 131.676 235.885C131.489 235.885 131.302 235.885 131.114 235.892C131.597 232.132 132.85 228.977 136.265 226.686C140.94 223.545 145.42 220.109 150.218 217.127V217.12Z" fill="#E9D49E"/>
<path d="M192.487 208.303C192.581 208.246 192.675 208.188 192.768 208.131C198.697 207.929 204.625 208.131 210.547 208.03C213.104 207.987 215.654 207.641 218.211 207.835C222.576 208.116 226.942 208.39 231.314 208.671C231.372 208.808 231.429 208.937 231.487 209.074C228.166 211.884 224.853 214.686 221.532 217.495C219.637 217.754 217.743 217.992 215.819 217.935C211.67 217.805 207.521 218.057 203.379 218.28C201.715 218.367 200.325 219.037 199.129 220.16C198.704 220.557 198.257 220.902 197.645 220.953C195.182 220.823 192.718 220.953 190.254 220.874C188.907 220.83 188.065 221.313 187.712 222.653C187.503 223.445 187.164 224.209 186.782 224.929C186.581 225.304 186.437 225.938 185.738 225.57C185.327 223.892 186.494 222.595 186.84 221.104C188.245 217.445 189.75 213.829 191.313 210.234C191.609 209.55 191.796 208.772 192.473 208.311L192.487 208.303Z" fill="#E8D49E"/>
<path d="M197.768 220.873C198.077 220.592 198.394 220.303 198.704 220.023C201.218 219.929 203.71 219.533 206.224 219.576C209.617 219.641 212.996 219.381 216.388 219.266C217.073 219.245 218.103 218.985 218.211 220.231C213.457 224.856 208.71 229.488 203.955 234.105C203.444 234.602 202.868 235.042 202.082 235.006C196.104 234.718 190.132 235.344 184.16 235.207C184.484 233.327 186.732 231.548 189.188 231.246C189.945 231.152 190.708 231.116 191.472 231.015C193.517 230.741 194.72 229.646 195.153 227.615C195.513 225.901 195.988 224.215 196.608 222.573C196.86 221.917 197.018 221.19 197.768 220.865V220.873Z" fill="#5F6163"/>
<path d="M197.768 220.873C196.896 222.876 196.255 224.958 195.729 227.075C194.843 230.641 193.871 231.441 190.183 231.606C187.51 231.729 185.493 232.881 184.161 235.208C183.397 235.23 182.633 235.244 181.87 235.266C181.524 234.805 181.69 234.322 181.87 233.868C182.886 231.297 183.887 228.711 184.96 226.161C185.119 225.779 185.263 225.311 185.825 225.325C186.847 224.554 187.049 223.33 187.352 222.242C187.741 220.83 188.454 220.311 189.916 220.391C192.041 220.506 194.181 220.405 196.313 220.412C196.831 220.412 197.437 220.225 197.761 220.873H197.768Z" fill="#D3B86F"/>
<path d="M185.825 225.332C184.413 228.61 182.979 231.88 181.87 235.273C181.063 235.273 180.249 235.23 179.449 235.294C178.427 235.374 177.605 235.287 177.677 233.962C177.209 233.177 177.807 232.543 177.98 231.851C179.241 228.818 180.631 225.843 181.726 222.739C181.877 222.321 182.064 221.925 182.497 221.723C182.72 221.384 182.936 221.046 183.159 220.7C184.996 219.922 186.314 220.052 187.301 221.104C186.811 222.515 186.314 223.927 185.825 225.332Z" fill="#1E1E1F"/>
<path d="M218.21 220.239C216.957 219.18 215.473 219.742 214.155 219.857C212.736 219.98 211.317 220.117 209.898 220.073C206.714 219.973 203.551 220.304 200.375 220.398C199.806 220.412 199.143 220.635 198.696 220.023C199.885 218.345 201.65 217.84 203.559 217.776C208.32 217.61 213.082 217.48 217.843 217.387C219.068 217.365 220.328 216.76 221.538 217.495C220.429 218.409 219.32 219.324 218.21 220.239Z" fill="#8A8B85"/>
<path d="M218.218 207.835C212.592 208.454 206.952 208.029 201.319 208.123C198.473 208.173 195.621 208.123 192.775 208.123C193.294 207.647 193.928 207.849 194.504 207.849C199.72 207.835 204.935 207.849 210.15 207.849C210.734 207.849 211.317 207.849 211.893 207.539C206.527 207.539 201.153 207.518 195.786 207.554C194.151 207.561 192.538 207.626 191.147 206.567C198.351 206.516 205.54 206.826 212.722 207.273C214.537 207.388 216.439 207.237 218.225 207.835H218.218Z" fill="#808285"/>
<path d="M178.297 232.046C178.088 232.68 177.886 233.321 177.677 233.955C177.152 236.109 175.495 235.302 174.148 235.295C170.503 235.583 166.851 235.338 163.198 235.424C161.952 235.453 160.692 235.302 159.453 235.532C153.618 235.532 147.783 235.532 141.948 235.539C141.948 235.453 141.948 235.359 141.948 235.273C142.589 234.221 143.655 234.423 144.614 234.423C154.108 234.401 163.602 234.416 173.089 234.409C173.636 234.409 174.184 234.387 174.731 234.409C175.783 234.452 176.518 234.056 176.892 233.025C177.08 232.514 177.324 232.003 177.843 231.722C178.146 231.556 178.369 231.614 178.29 232.039L178.297 232.046Z" fill="#DAC385"/>
<path d="M159.452 235.532C159.755 235.223 160.151 235.266 160.533 235.266C165.071 235.273 169.609 235.287 174.147 235.295C170.949 235.727 167.729 235.482 164.523 235.561C162.838 235.604 161.145 235.547 159.452 235.532Z" fill="#D4B96F"/>
<path d="M131.683 235.878C133.901 235.453 136.134 235.575 138.367 235.662C136.149 236.022 133.916 235.971 131.683 235.878Z" fill="#67696B"/>
<path d="M187.3 221.096C185.989 220.26 184.52 221.038 183.158 220.692C184.087 217.213 185.73 214 186.976 210.636C187.279 209.822 187.545 209.001 187.826 208.187C189.389 207.755 190.952 207.575 192.487 208.31C191.132 211.623 189.785 214.944 188.431 218.258C188.049 219.201 187.675 220.152 187.293 221.103L187.3 221.096Z" fill="#797874"/>
<path d="M350.093 243.514C351.635 243.283 353.119 243.622 354.603 243.975C355.157 245.668 355.503 247.375 354.819 249.111C354.552 249.795 354.178 250.473 353.378 250.552C352.55 250.631 352.146 249.947 351.786 249.32C350.763 247.519 350.561 245.473 350.086 243.507L350.093 243.514Z" fill="#90C2F4"/>
<path d="M55.1242 256.4C57.9479 258.007 59.367 260.514 59.7848 263.662C59.0645 264.187 57.8615 263.82 57.4509 264.922C55.6212 265.066 53.95 265.815 52.2067 266.298C48.7995 266.255 47.5173 263.863 49.3398 260.838C50.4275 259.044 51.7529 257.402 54.0076 257.114C54.6055 257.034 54.5839 256.357 55.117 256.4H55.1242Z" fill="#FEFEFE"/>
<path d="M172.621 299.089C172.556 292.757 174.213 287.592 178.449 283.407C183.232 278.681 190.673 279.243 194.678 284.689C198.366 289.71 199.757 295.321 199.115 301.545C198.64 306.148 197.387 310.405 194.203 313.798C188.764 319.597 181.265 318.985 176.619 312.537C174.516 309.613 172.398 304.714 172.614 299.096L172.621 299.089Z" fill="#030303"/>
<path d="M136.358 264.973C138.786 264.656 141.206 264.303 143.641 264.036C146.616 263.712 149.504 264.375 152.378 264.994C153.538 265.246 153.661 266.053 152.955 266.968C151.608 268.697 149.706 269.619 147.689 270.116C142.171 271.485 136.516 271.24 130.891 271.233C130.062 271.233 129.515 270.714 129.241 270.066C128.924 269.309 129.421 268.711 130.048 268.286C130.718 267.833 131.402 267.4 132.079 266.961C133.275 265.787 134.874 265.499 136.365 264.973H136.358Z" fill="#C6C9CD"/>
<path d="M136.358 264.972C135.155 266.118 133.527 266.348 132.072 266.961C129.997 266.802 127.894 267.249 125.855 266.615C125.286 266.435 124.703 266.247 124.184 265.952C122.7 265.109 122.592 264.195 123.687 262.919C125.754 260.528 128.312 258.95 131.38 258.201C133.426 257.704 135.213 258.331 136.704 259.642C138.123 260.895 137.914 262.862 136.351 264.965L136.358 264.972Z" fill="#FEFEFE"/>
<path d="M335.066 298.57C335.095 303.418 334.144 307.444 331.76 311.075C326.97 318.365 318.383 318.408 313.542 311.161C308.694 303.893 308.781 293.203 313.881 286.158C316.114 283.068 318.988 280.907 323.101 281.13C326.408 281.31 328.857 283.003 330.831 285.503C333.986 289.493 335.102 294.132 335.074 298.57H335.066Z" fill="#F2F6FB"/>
<path d="M215.956 240.596C215.675 240.718 215.394 240.834 215.106 240.956C214.781 240.92 214.457 240.87 214.126 240.841C212.015 240.646 211.252 239.191 212.375 237.397C212.836 236.656 213.398 235.957 214.018 235.344C222.432 226.981 231.047 218.834 240.152 211.227C243.876 208.115 247.932 205.508 252.945 204.946C253.27 204.643 253.666 204.751 254.04 204.751C262.36 204.751 270.673 204.751 278.993 204.751C279.361 204.751 279.764 204.636 280.081 204.96C283.027 205.169 285.981 205.313 288.92 205.609C294.149 206.12 299.386 206.516 304.573 207.445C309.543 208.339 313.714 210.572 317.388 213.986C322.272 218.524 326.68 223.459 330.635 228.811C330.923 229.207 331.175 229.639 331.377 230.079C332.623 232.787 331.47 234.883 328.488 235.258C324.404 235.769 320.283 235.705 316.177 235.964C315.954 236.072 315.724 236.173 315.5 236.281C315.248 236.403 314.982 236.475 314.708 236.461C310.48 236.216 306.266 236.677 302.051 236.843C295.151 237.117 288.242 237.203 281.356 237.707C278.402 237.923 275.427 237.599 272.481 238.039C272.171 238.039 271.862 238.039 271.552 238.053C264.341 238.579 257.102 238.723 249.898 239.364C248.148 239.515 246.304 239.04 244.654 239.53C239.626 241.021 234.44 240.502 229.34 241.05C225.392 241.114 221.452 241.071 217.504 241.006C216.957 240.999 216.395 241.021 215.956 240.603V240.596Z" fill="#020101"/>
<path d="M280.09 204.954C271.042 204.954 262.002 204.954 252.955 204.947C252.832 204.183 253.444 204.594 253.639 204.594C262.377 204.572 271.107 204.579 279.845 204.579C279.845 204.759 280.969 204.183 280.097 204.954H280.09Z" fill="#6398D6"/>
<path d="M217.325 285.099C217.793 272.889 217.455 260.672 217.577 248.462C218.11 247.907 218.816 247.72 219.522 247.72C221.928 247.698 224.327 247.475 226.726 247.381C226.906 247.396 227.079 247.432 227.244 247.497C229.096 249.002 230.918 250.558 232.906 251.898C233.266 252.143 233.555 252.481 233.944 252.697C234.462 252.986 235.002 253.396 235.615 253.029C236.234 252.654 236.141 252.013 236.054 251.408C235.932 250.486 235.766 249.578 235.377 248.721C235.089 248.094 234.923 247.439 235.824 247.1C238.885 246.236 242.055 246.481 245.145 246.402C253.465 246.193 261.778 245.544 270.112 245.638C270.977 245.645 271.877 245.523 272.669 246.041C273.512 248.109 273.094 250.263 272.979 252.373C272.914 253.519 272.778 254.664 272.77 255.809C272.77 261.075 272.1 266.305 271.834 271.556C271.726 273.631 271.819 275.727 271.178 277.744C270.119 278.601 268.816 278.608 267.584 278.616C260.719 278.652 253.861 278.954 247.025 279.394C237.646 279.999 228.31 281.144 219.594 285.077C219.04 285.329 218.471 285.531 217.844 285.408C217.642 285.358 217.476 285.257 217.34 285.099H217.325Z" fill="#0A58BB"/>
<path d="M319.542 244.198C319.614 244.342 319.751 244.479 319.751 244.623C319.844 249.514 320.269 254.391 320.096 259.282C320.089 259.542 319.938 259.794 319.851 260.046C318.814 258.094 318.598 257.957 316.516 259.059C308.513 263.309 301.864 268.913 298.371 277.593C297.982 278.551 297.341 278.962 296.325 278.825C288.999 277.846 281.63 278.458 274.275 278.285C273.339 278.263 272.525 278.335 272.201 279.445C272.078 279.863 271.732 280.079 271.379 279.553C271.005 277.19 271.696 274.885 271.747 272.544C271.869 266.86 272.532 261.206 272.698 255.515C272.791 252.309 272.777 249.082 273.166 245.884C273.908 245.279 274.815 245.307 275.68 245.336C281.443 245.502 287.184 245.048 292.939 244.919C300.28 244.753 307.613 244.321 314.953 244.292C316.48 244.292 318 243.86 319.535 244.205L319.542 244.198Z" fill="#0A58BB"/>
<path d="M217.325 285.1C217.411 285.107 217.49 285.121 217.577 285.143C218.268 286.353 219.371 286.569 220.66 286.562C226.538 286.533 232.416 286.533 238.294 286.555C248.127 286.591 257.952 286.526 267.778 286.555C268.75 286.555 269.773 286.411 270.623 287.109C270.861 287.354 271.048 287.664 271.005 287.981C270.58 290.805 270.256 293.657 268.916 296.251C268.448 296.776 267.814 296.661 267.223 296.661C251.635 296.676 236.054 296.69 220.465 296.683C217.49 296.683 216.835 296.049 216.9 293.124C216.965 290.445 217.181 287.772 217.325 285.1Z" fill="#095ABB"/>
<path d="M271.704 279.834C271.747 277.925 272.893 277.767 274.499 277.803C279.498 277.904 284.497 277.853 289.504 277.832C291.809 277.824 294.085 278.069 296.347 278.429C297.067 278.545 297.637 278.487 297.932 277.687C301.375 268.453 308.463 262.755 316.855 258.397C319.333 257.107 319.694 257.395 319.852 260.053C320.075 261.926 318.887 263.028 317.561 263.929C316.394 264.721 315.112 265.398 313.816 265.967C309.76 267.74 306.958 270.707 304.926 274.59C302.744 278.768 300.849 283.068 299.063 287.419C298.595 288.082 297.925 288.205 297.175 288.147C289.583 287.571 281.976 287.556 274.362 287.585C273.346 287.585 272.244 287.758 271.466 286.8C271.142 284.466 270.746 282.125 271.704 279.827V279.834Z" fill="#0D73EE"/>
<path d="M319.543 244.198C318.052 244.868 316.438 244.732 314.882 244.782C308.536 244.991 302.175 244.969 295.829 245.243C288.345 245.567 280.86 245.819 273.376 245.877C272.684 245.387 272.915 244.602 272.771 243.939C272.411 242.246 272.367 240.51 272 238.818C271.906 238.378 271.979 237.96 272.288 237.6C276.084 236.959 279.938 237.197 283.756 237.017C293.711 236.548 303.681 236.267 313.643 235.922C314.284 235.9 314.969 235.727 315.509 236.275C316.143 238.378 317.404 240.15 318.491 242.016C318.895 242.715 319.385 243.377 319.536 244.198H319.543Z" fill="#3B91F0"/>
<path d="M271.683 286.727C272.259 287.159 272.929 287.066 273.577 287.066C276.696 287.066 279.815 287.029 282.934 287.08C287.192 287.152 291.449 287.282 295.706 287.404C296.823 287.433 297.939 288.096 299.056 287.404C298.436 289.385 297.694 291.323 296.772 293.181C295.62 295.501 293.797 296.682 291.139 296.661C283.957 296.603 276.783 296.624 269.601 296.617C268.96 295.443 269.803 294.435 269.954 293.347C270.213 291.474 270.84 289.68 271.049 287.807C271.099 287.375 271.265 286.965 271.675 286.72L271.683 286.727Z" fill="#0959BB"/>
<path d="M227.453 247.822C227.338 247.822 227.223 247.807 227.107 247.807C225.242 246.662 223.563 245.286 221.986 243.78C220.523 242.383 219.155 240.849 216.814 241.252C216.497 241.31 216.172 241.144 215.928 240.899C215.92 240.798 215.928 240.697 215.949 240.604C220.437 240.596 224.925 240.589 229.412 240.582C231.473 242.433 232.928 244.789 234.628 246.935C234.923 247.31 234.707 247.641 234.26 247.8C232.611 248.023 230.94 248.081 229.29 248.275C228.634 248.355 228.008 248.189 227.446 247.822H227.453Z" fill="#2561A6"/>
<path d="M215.935 240.892C218.578 240.294 220.502 241.483 222.158 243.37C223.628 245.048 225.789 245.956 227.114 247.8C223.938 248.023 220.761 248.239 217.584 248.463C217.037 245.942 216.489 243.413 215.942 240.892H215.935Z" fill="#3D92EF"/>
<path d="M271.683 286.728C270.992 290.027 270.3 293.326 269.609 296.633C269.378 296.503 269.148 296.381 268.917 296.251C269.443 293.831 269.976 291.41 270.48 288.99C270.588 288.471 270.588 287.924 270.639 287.391C270.314 284.509 270.487 281.621 270.552 278.732C270.559 278.401 270.718 278.105 270.941 277.846C271.525 269.98 272.101 262.121 272.367 254.24C272.461 251.561 272.713 248.888 272.576 246.201C271.777 243.644 271.625 240.979 271.301 238.349C271.265 238.083 271.438 237.831 271.626 237.622C271.849 237.622 272.072 237.615 272.295 237.607C272.656 240.366 273.016 243.118 273.383 245.877C273.246 250.206 273.189 254.536 272.951 258.865C272.612 265.038 272.13 271.204 271.726 277.378C271.676 278.192 271.712 279.02 271.712 279.841C271.712 282.139 271.698 284.437 271.69 286.742L271.683 286.728Z" fill="#001635"/>
<path d="M178.296 232.045C177.439 232.16 177.403 232.945 177.28 233.5C177.007 234.703 176.337 234.962 175.177 234.955C164.847 234.912 154.518 234.933 144.195 234.941C143.431 234.941 142.646 234.832 141.955 235.279C141.847 235.257 141.681 235.265 141.645 235.2C141.371 234.732 141.839 234.703 142.07 234.559C144.714 232.873 147.566 231.584 150.397 230.28C156.347 227.528 162.398 225.014 168.759 223.35C172.713 222.313 176.719 221.542 180.781 221.088C181.459 221.009 182.092 221.074 182.503 221.729C181.307 225.259 179.831 228.666 178.303 232.059L178.296 232.045Z" fill="#D4B96F"/>
<path d="M197.998 295.005C198.906 300.862 198.041 306.387 194.692 311.357C190.074 318.201 182.006 318.359 177.029 311.775C171.691 304.723 171.633 292.909 176.899 285.958C181.797 279.489 189.08 279.352 194.18 285.684C196.125 288.097 197.343 290.856 197.753 293.954C197.926 294.357 197.984 294.789 197.357 294.544C197.026 294.415 196.968 293.925 197.018 293.73C197.451 294.933 197.4 296.381 197.537 297.808C197.667 299.219 197.537 300.631 197.415 301.424C197.551 300.293 197.681 298.55 197.451 296.777C197.379 296.194 196.982 295.322 198.005 295.005H197.998Z" fill="#F2F6FB"/>
<path d="M197.997 295.003C197.392 296.43 197.832 297.921 197.738 299.376C197.659 300.672 197.846 301.991 197.082 303.215C197.666 299.621 197.277 296.077 196.845 292.489C197.039 293.08 197.14 293.728 197.457 294.247C197.63 294.528 197.637 294.052 197.745 293.944C198.019 294.247 198.091 294.607 197.997 294.996V295.003Z" fill="#E0E3E8"/>
<path d="M331.349 289.428C332.134 291.1 332.804 292.814 333.085 294.651C333.366 295.544 332.667 295.688 332.105 295.825C330.031 296.344 328.007 297.035 325.918 297.46C325.032 297.417 324.844 296.618 324.441 296.07C322.863 293.902 320.738 294.01 319.492 296.329C318.188 298.764 318.93 301.703 321.25 303.259C321.639 303.59 322.453 303.396 322.431 304.217C322.424 306.702 323.324 309.036 323.627 311.471C323.663 311.745 323.814 312.033 323.757 312.271C323.591 312.933 324.592 313.733 323.757 314.194C322.77 314.741 321.624 314.533 320.558 314.158C319.939 313.942 320.364 313.524 320.393 313.207C320.63 310.585 320.904 307.963 321.135 305.341C321.178 304.873 321.524 304.16 320.537 304.203C319.752 304.318 319.226 303.201 318.491 303.626C317.85 304.001 317.663 304.873 317.237 305.492C316.964 305.896 316.726 306.335 316.258 306.551C315.653 307.524 315.055 308.496 314.363 309.613C313.283 308.345 312.879 306.854 312.397 305.406C312.195 304.793 312.822 304.721 313.153 304.52C314.407 303.749 315.667 302.978 316.964 302.279C317.626 301.919 317.799 301.588 317.389 300.904C317.144 300.5 316.921 299.931 317 299.499C317.518 296.87 315.739 296.344 313.83 295.904C313.513 295.832 313.211 295.724 312.901 295.638C312.714 295.451 312.397 295.573 312.224 295.357C311.302 294.831 311.9 294.046 312.051 293.506C312.447 292.101 313.052 290.761 313.571 289.4C314.392 288.91 314.76 289.601 315.163 290.07C316.063 291.107 316.863 292.223 317.72 293.297C318.066 293.729 318.361 294.615 319.053 294.212C319.874 293.729 321.048 293.534 321.091 292.13C321.171 289.702 320.688 287.318 320.71 284.905C320.71 284.422 320.558 283.918 320.846 283.457C322.525 282.722 324.095 283.356 325.68 283.817C324.945 286.144 324.491 288.55 323.821 290.898C323.67 291.424 323.569 291.964 323.483 292.504C323.346 293.398 323.973 293.772 324.571 294.161C325.212 294.579 325.586 294.096 325.968 293.714C327.243 292.439 328.489 291.128 329.952 290.055C330.369 289.745 330.686 289.191 331.349 289.421V289.428Z" fill="#010101"/>
<path d="M320.846 283.457C321.429 286.59 321.386 289.774 321.638 292.937C321.674 293.405 321.509 293.599 321.04 293.715C320.125 293.945 319.376 294.5 318.75 295.299C317.381 293.542 316.099 291.849 314.752 290.214C314.464 289.868 314.37 289.061 313.57 289.407C314.953 287.159 316.43 285.013 318.959 283.867C319.571 283.594 320.161 283.349 320.846 283.457Z" fill="#C6C4BE"/>
<path d="M321.106 303.59C318.779 302.661 318.47 300.68 318.506 298.54C318.542 296.603 319.276 295.061 321.128 294.225C322.518 293.599 323.555 294.269 324.412 295.27C324.924 295.868 325.291 296.595 325.716 297.265C326.826 297.777 325.875 298.792 326.264 299.484C325.651 300.586 326.934 301.062 327.078 301.919C327.078 302.012 327.078 302.113 327.078 302.207C326.854 302.409 326.588 302.365 326.329 302.315C325.493 302.156 325.392 302.502 325.716 303.179C325.896 303.554 326.127 303.95 325.68 304.318C324.283 303.266 322.59 304.029 321.099 303.59H321.106Z" fill="#FEFEFE"/>
<path d="M331.349 289.429C329.253 290.935 327.575 292.887 325.723 294.659C325.197 295.163 325.024 295.069 324.362 294.695C322.799 293.794 322.835 292.779 323.31 291.288C323.944 289.321 324.319 287.268 324.794 285.251C324.931 284.675 325.068 284.113 325.673 283.832C326.508 284.012 327.15 284.509 327.762 285.071C328.345 286.029 329.13 286.793 330.074 287.398C330.658 287.981 331.133 288.63 331.342 289.436L331.349 289.429Z" fill="#B3B6BA"/>
<path d="M321.105 303.592C321.595 303.57 322.186 303.714 322.568 303.498C323.936 302.691 324.887 303.311 325.802 304.24C326.45 304.334 326.875 304.759 327.207 305.263C328.215 306.804 329.411 308.216 330.362 309.801C329.267 311.343 327.855 312.502 326.112 313.244C325.219 313.626 324.592 313.662 324.369 312.423C323.908 309.909 323.331 307.417 322.784 304.917C322.726 304.665 322.553 304.449 322.438 304.211C322.186 303.592 321.372 304.175 321.113 303.584L321.105 303.592Z" fill="#D6D9DE"/>
<path d="M312.216 295.371C312.526 295.27 312.728 295.421 312.894 295.652C313.405 296.646 314.507 296.466 315.328 296.84C316.178 297.222 316.719 297.669 316.546 298.67C316.524 298.778 316.575 298.9 316.546 298.994C316.171 299.974 317.475 301.097 316.74 301.746C315.573 302.769 314.046 303.403 312.663 304.173C312.411 304.317 312.044 304.555 311.914 304C311.273 301.378 310.862 298.735 311.568 296.062C311.64 295.796 312 295.601 312.224 295.371H312.216Z" fill="#C2C5C9"/>
<path d="M316.258 306.559C316.971 305.255 317.677 303.944 318.447 302.532C319.175 303.116 319.852 303.656 320.536 304.203C320.933 305.061 320.551 305.918 320.472 306.761C320.277 308.943 319.989 311.119 319.564 313.373C319.622 311.457 318.642 310.91 316.935 310.751C314.702 310.542 314.687 310.276 315.782 308.302C316.063 307.798 316.726 307.308 316.258 306.566V306.559Z" fill="#D7DADF"/>
<path d="M330.361 309.8C329.36 309.432 329.022 308.445 328.474 307.682C327.624 306.501 326.81 305.29 325.802 304.239C325.802 304.131 325.823 304.015 325.787 303.922C325.55 303.237 324.375 302.747 325.125 301.883C325.766 301.141 326.378 302.301 327.077 302.207C328.409 303.007 329.893 303.461 331.356 303.936C332.587 304.339 332.796 304.945 332.213 306.039C331.557 307.271 330.974 308.546 330.361 309.8Z" fill="#020202"/>
<path d="M326.069 299.65C325.363 298.944 326.004 298.044 325.723 297.273C327.797 296.272 330.088 296.005 332.271 295.364C332.689 295.241 333.164 295.292 333.085 294.644C333.783 296.459 333.776 298.353 333.675 300.255C331.111 300.406 328.568 300.298 326.069 299.643V299.65Z" fill="#B0B2B6"/>
<path d="M326.069 299.651C328.626 299.571 331.183 299.514 333.675 300.263C333.913 301.07 333.178 301.819 333.841 302.662V295.667C334.705 298.015 334.597 300.371 334.317 302.726C334.208 303.656 333.013 304.117 331.997 303.72C330.369 303.094 328.842 302.201 327.084 301.92C326.616 301.221 324.657 301.185 326.069 299.651Z" fill="#E0E3E8"/>
<path d="M330.075 287.383C328.814 287.174 328.403 285.957 327.561 285.258C327.553 285.251 327.589 285.165 327.618 285.129C327.654 285.093 327.712 285.078 327.762 285.057C328.641 285.719 329.397 286.519 330.075 287.383Z" fill="#6A6C6E"/>
<path d="M298.35 210.212C301.181 214.369 303.926 218.583 306.288 223.027C305.676 223.668 304.869 223.524 304.12 223.531C301.541 223.553 298.962 223.567 296.391 223.531C294.691 223.51 293.135 223.906 291.737 224.886C291.406 225.123 291.046 225.275 290.635 225.296C285.542 225.383 280.442 225.563 275.349 225.599C273.347 225.613 273.138 226.017 273.412 228.034C273.657 229.873 274.708 230.795 276.567 230.8C278.375 230.8 280.19 230.742 281.998 230.843C282.582 230.872 283.489 230.641 283.41 231.772C281.4 232.536 279.311 232.068 277.258 232.132C276.041 232.168 274.737 232.464 273.599 231.686C272.828 231.65 272.778 231.03 272.72 230.512C271.964 223.704 270.926 216.947 269.651 210.219C269.615 210.01 269.673 209.78 269.68 209.564C270.235 209.225 270.854 209.326 271.452 209.326C275.954 209.326 280.471 209.189 284.966 209.369C288.805 209.528 292.645 209.686 296.492 209.665C297.169 209.665 297.803 209.78 298.35 210.212Z" fill="#E9D49E"/>
<path d="M271.617 237.613C271.948 239.875 272.294 242.13 272.589 244.399C272.669 244.989 272.582 245.594 272.568 246.192C265.89 246.041 259.22 246.372 252.557 246.747C249.171 246.942 245.778 246.819 242.385 247.071C240.044 247.251 237.689 247.23 235.34 247.467C235.11 247.662 234.915 247.626 234.735 247.395C232.833 245.22 230.924 243.044 229.419 240.559C231.097 240.185 232.819 240.156 234.505 240.257C237.602 240.451 240.52 239.515 243.523 239.155C248.58 238.557 253.702 238.477 258.795 238.211C263.066 237.988 267.345 237.8 271.617 237.599V237.613Z" fill="#3B91F0"/>
<path d="M263.738 225.679C263.053 225.636 262.419 225.852 261.785 226.075C261.62 226.176 261.44 226.205 261.252 226.169C257.038 223.136 252.104 223.892 247.386 223.532C246.845 223.489 246.298 223.633 245.751 223.532C244.886 222.898 245.304 222.055 245.635 221.486C247.386 218.526 246.42 216.134 244.339 213.815C243.69 213.087 242.775 212.381 242.927 211.171C246.413 208.477 250.231 206.604 254.74 206.539C257.701 206.496 260.662 206.611 263.615 206.489C265.121 206.424 265.582 206.95 265.402 208.347C265.337 208.83 265.409 209.334 265.416 209.824C264.415 210.674 263.212 210.285 262.11 210.285C260.784 210.285 260.129 210.775 259.848 212.093C259.423 214.117 259.754 216.019 260.503 217.87C261.324 219.902 262.412 221.81 263.464 223.727C263.802 224.339 264.256 224.958 263.73 225.693L263.738 225.679Z" fill="#807F78"/>
<path d="M290.793 225.044C291.002 224.922 291.218 224.806 291.427 224.684C295.468 224.295 299.516 224.583 303.558 224.525C304.905 224.504 306.309 224.223 307.57 225.008C309.5 227.925 311.121 231.016 312.879 234.257C302.088 234.913 291.506 235.575 280.895 235.655C280.579 235.777 280.211 235.864 279.973 235.604C279.707 235.316 279.937 234.985 280.125 234.725C280.521 234.171 281.104 233.861 281.681 233.558C283.554 232.572 285.52 231.995 287.573 232.132C287.393 231.974 286.745 232.341 286.752 231.65C288.567 231.189 289.086 229.849 289.302 228.163C289.446 227.018 289.525 225.721 290.786 225.051L290.793 225.044Z" fill="#52534F"/>
<path d="M242.933 211.163C244.086 212.769 245.174 214.426 246.398 215.975C247.306 217.12 247.349 218.215 246.802 219.498C246.261 220.758 245.736 222.026 245.52 223.395C245.354 223.956 244.842 224.05 244.381 224.216C242.163 225.037 240.953 226.615 240.715 228.97C240.657 229.546 240.758 230.209 240.045 230.512C236.58 229.834 233.079 229.734 229.564 229.791C227.64 229.827 225.724 229.827 223.837 230.303C223.333 230.432 222.764 230.663 222.303 230.151C222.576 229.482 222.951 228.898 223.484 228.401C229.369 222.876 235.074 217.149 241.428 212.15C241.896 211.783 242.422 211.487 242.926 211.163H242.933Z" fill="#E4D5AD"/>
<path d="M267.31 236.217C259.076 237.016 250.814 237.362 242.552 237.643C241.838 235.986 242.213 234.142 241.637 232.457C241.766 231.787 242.285 231.463 242.84 231.218C247.911 229.021 253.141 227.313 258.529 226.11C258.954 226.017 259.393 225.981 259.825 226.089C261.151 226.406 261.641 227.378 261.806 228.603C261.871 229.093 261.871 229.582 261.871 230.08C261.893 231.866 261.475 232.507 264.205 232.536C266.438 232.558 267.476 233.926 267.303 236.21L267.31 236.217Z" fill="#5B5C57"/>
<path d="M323.872 222.696C325.68 224.807 327.567 226.853 329.087 229.201C329.591 229.979 330.081 230.757 330.067 231.758C330.045 233.163 329.382 233.977 327.985 233.926C324.419 233.782 320.882 234.258 317.331 234.308C316.222 234.323 315.617 233.89 315.12 233.012C313.175 229.604 311.201 226.204 309.234 222.804C309.645 222.235 310.272 222.25 310.862 222.25C314.623 222.214 318.383 222.221 322.143 222.278C322.77 222.286 323.303 222.559 323.872 222.711V222.696Z" fill="#282829"/>
<path d="M323.871 222.697C320.796 223.028 317.72 222.697 314.637 222.783C312.836 222.833 311.028 222.797 309.227 222.797C306.612 218.605 303.99 214.405 301.375 210.213C301.771 209.759 302.326 209.665 302.859 209.709C304.789 209.86 306.742 209.882 308.614 210.479C312.908 211.438 315.804 214.477 318.793 217.344C320.565 219.044 322.186 220.903 323.871 222.689V222.697Z" fill="#7C7B76"/>
<path d="M222.31 230.158C227.374 228.861 232.496 229.07 237.618 229.647C238.533 229.747 239.419 230.086 240.312 230.309C241.191 230.605 241.608 231.231 241.63 232.139C241.882 232.96 241.63 233.4 240.787 233.753C238.043 234.905 235.118 235.092 232.23 235.337C230.313 235.503 228.404 235.834 226.496 235.906C224.126 235.993 221.741 235.863 220.171 233.616C220.322 232.11 221.547 231.275 222.31 230.151V230.158Z" fill="#1F81F9"/>
<path d="M263.737 225.677C263.384 223.681 262.023 222.176 261.158 220.433C259.797 217.688 258.745 214.944 259.408 211.796C259.674 210.521 260.121 209.707 261.655 209.844C262.901 209.959 264.169 209.829 265.423 209.808C266.114 212.905 266.251 216.089 266.691 219.223C266.914 220.793 266.986 222.385 267.238 223.955C267.425 225.122 267.375 225.886 265.877 225.698C265.178 225.612 264.45 225.677 263.737 225.677Z" fill="#E8D49F"/>
<path d="M298.35 210.212C289.216 210.09 280.082 209.967 270.948 209.83C270.523 209.83 270.105 209.658 269.687 209.564C268.434 206.517 268.434 206.531 271.618 206.531C279.743 206.531 287.847 206.819 295.922 207.857C297.421 208.051 297.774 209.197 298.357 210.212H298.35Z" fill="#827F7B"/>
<path d="M220.171 233.624C220.387 233.638 220.697 233.566 220.805 233.688C223.081 236.13 225.962 235.497 228.743 235.237C231.603 234.971 234.455 234.596 237.315 234.286C238.633 234.142 239.807 233.537 241.046 233.148C242.091 232.824 240.974 232.262 241.277 231.895C241.615 231.794 241.788 231.981 241.904 232.262C242.739 233.984 242.674 235.813 242.552 237.658C240.679 238.104 238.777 238.284 236.868 238.255C231.898 238.191 226.92 238.061 221.95 237.975C219.832 237.939 219.133 237.067 219.652 234.978C219.767 234.524 219.703 233.969 220.164 233.638L220.171 233.624Z" fill="#0759C0"/>
<path d="M267.31 236.217C266.15 233.062 266.15 233.019 262.815 232.983C261.756 232.968 261.317 232.659 261.41 231.571C261.482 230.699 261.446 229.82 261.41 228.949C261.353 227.818 261.079 226.795 259.797 226.428C260.157 225.722 260.748 225.772 261.374 225.967C261.519 226.003 261.655 226.046 261.799 226.082C262.909 226.593 264.047 226.384 265.156 226.147C266.511 225.859 267.447 225.859 267.483 227.703C267.533 230.051 267.843 232.385 268.009 234.726C268.052 235.324 268.081 235.972 267.317 236.217H267.31Z" fill="#303435"/>
<path d="M286.802 231.708C287.127 232.162 287.746 231.816 288.135 232.176C285.549 232.63 282.985 233.033 280.802 234.589C280.514 234.798 280.125 235.021 280.154 235.446C280.154 235.533 280.636 235.59 280.888 235.655C278.749 236.167 276.581 235.929 274.427 235.792C273.627 235.742 273.058 235.274 273.296 234.387C273.534 233.494 272.532 232.479 273.591 231.693C276.89 231.657 280.182 231.621 283.482 231.585C284.613 230.966 285.722 230.879 286.795 231.708H286.802Z" fill="#212421"/>
<path d="M307.57 225.008C302.773 225.008 297.975 225.001 293.178 225.008C292.573 225.008 291.982 224.994 291.435 224.691C292.385 223.546 293.696 223.128 295.094 223.099C298.825 223.027 302.564 223.049 306.295 223.034C306.879 223.596 307.282 224.266 307.578 225.008H307.57Z" fill="#8A8984"/>
<path d="M308.623 210.485C306.195 210.745 303.811 209.988 301.383 210.219C301.203 209.729 300.569 209.246 300.864 208.771C301.21 208.216 301.837 208.706 302.341 208.8C303.933 209.088 305.532 209.319 307.11 209.664C307.657 209.78 308.32 209.859 308.623 210.493V210.485Z" fill="#383936"/>
<path d="M270.933 277.846C270.933 280.504 270.948 283.169 270.955 285.827C270.955 286.367 270.984 286.915 270.631 287.39C270.141 287.095 269.601 287.073 269.046 287.073C262.462 287.081 255.878 287.088 249.287 287.081C239.375 287.081 229.47 287.066 219.558 287.081C218.197 287.081 217.239 286.814 217.577 285.143C220.041 284.61 222.288 283.443 224.658 282.636C228.296 281.39 232.042 280.756 235.802 280.136C243.755 278.833 251.787 278.746 259.811 278.393C263.514 278.227 267.252 278.523 270.933 277.853V277.846Z" fill="#0D73ED"/>
<path d="M258.4 249.154C258.753 248.347 259.257 247.836 260.244 247.814C262.765 247.771 265.279 247.641 267.8 247.569C268.751 247.541 269.752 247.605 270.148 248.664C270.501 249.608 270.516 250.588 269.687 251.38C269.536 251.546 269.363 251.704 269.147 251.733C265.949 252.144 262.736 252.129 259.552 251.755C258.169 251.589 258.133 250.321 258.4 249.161V249.154Z" fill="#FCF2F3"/>
<path d="M234.736 247.41C234.938 247.432 235.139 247.453 235.341 247.482C235.802 248.808 236.393 250.075 236.558 251.509C236.652 252.294 236.544 252.935 236.025 253.454C235.435 254.037 234.729 253.728 234.232 253.339C231.934 251.545 229.225 250.263 227.453 247.821C229.881 247.684 232.308 247.547 234.736 247.41Z" fill="#033D8A"/>
<path d="M258.399 249.154C258.543 251.279 258.774 251.495 260.834 251.466C263.787 251.43 266.734 251.408 269.687 251.372C269.298 253.022 267.85 252.928 266.683 253.022C264.846 253.173 262.988 253.094 261.137 253.072C258.752 253.044 257.708 251.524 258.399 249.146V249.154Z" fill="#04346D"/>
<path d="M306.281 246.834C306.872 245.825 307.816 245.523 308.903 245.516C310.762 245.508 312.613 245.494 314.472 245.508C315.264 245.508 316.193 245.249 316.618 246.236C317.058 247.244 317.058 248.238 316.244 249.103C315.862 249.751 315.199 249.902 314.544 249.924C312.512 249.989 310.481 250.068 308.457 249.888C306.642 249.722 306.015 248.771 306.281 246.841V246.834Z" fill="#F6F2FD"/>
<path d="M306.28 246.834C306.396 248.988 306.799 249.435 308.931 249.363C311.366 249.284 313.83 249.759 316.243 249.096C315.767 250.141 314.867 250.724 313.498 250.753C311.964 250.789 310.43 250.775 308.895 250.767C306.54 250.76 305.459 249.132 306.28 246.827V246.834Z" fill="#06336D"/>
<path d="M184.224 286.367C184.224 286.309 184.231 286.259 184.231 286.201C184.159 283.824 185.329 282.914 187.739 283.471C187.999 283.529 188.244 283.666 188.496 283.766C188.906 284.3 188.582 284.818 188.445 285.33C187.855 287.556 187.372 289.803 186.738 292.014C186.493 292.872 186.587 293.462 187.415 293.945C188.251 294.435 188.769 294.017 189.266 293.47C190.412 292.202 191.816 291.236 193.041 290.055C193.423 289.688 193.776 289.205 194.431 289.378C195.397 291.222 196.002 293.189 196.34 295.242C194.77 296.228 192.897 296.178 191.211 296.762C190.592 296.97 189.936 297.086 189.295 297.208C188.352 297.345 187.97 296.654 187.516 296.027C185.924 293.83 183.785 293.995 182.502 296.394C181.17 298.894 182.07 301.97 184.527 303.288C184.887 303.547 185.557 303.497 185.47 304.21C185.441 306.695 186.371 309.022 186.68 311.449C186.716 311.716 186.875 312.004 186.817 312.249C186.652 312.955 187.775 313.841 186.774 314.302C185.83 314.734 184.721 314.46 183.713 314.122C183.1 313.92 183.468 313.488 183.496 313.164C183.72 310.484 183.972 307.812 184.195 305.139C184.246 304.52 181.94 302.611 181.371 302.776C181.285 302.805 181.263 303.065 181.213 303.223C180.939 304.268 180.536 305.24 179.614 305.903C178.893 307.106 178.166 308.309 177.395 309.605C176.444 308.316 176.019 306.868 175.457 305.478C175.212 304.865 175.501 304.729 175.918 304.491C176.819 303.979 177.69 303.418 178.576 302.877C180.882 301.379 179.347 299.247 179.419 297.395C179.441 296.826 178.62 296.762 178.137 296.538C177.071 296.048 175.745 296.113 174.946 295.054C174.715 292.836 175.918 291.02 176.617 289.068C177.438 288.65 177.82 289.292 178.231 289.767C179.203 290.891 180.053 292.101 180.975 293.261C181.335 293.714 181.717 294.392 182.43 293.988C183.194 293.549 184.548 293.376 184.332 292.231C183.957 290.257 184.555 288.312 184.231 286.374L184.224 286.367Z" fill="#010101"/>
<path d="M184.225 286.368C184.744 288.457 184.499 290.611 184.838 292.714C184.967 293.528 184.355 293.622 183.829 293.672C182.958 293.759 182.533 295.178 181.603 294.601C180.905 294.162 180.472 293.29 179.925 292.606C179.111 291.576 178.311 290.531 177.483 289.523C177.274 289.271 177.144 288.745 176.611 289.062C178.081 287.081 179.428 284.992 181.841 283.947C183.433 283.256 183.7 283.335 183.851 285.086C183.937 286.058 183.865 287.038 184.067 288.025C184.117 287.47 184.175 286.922 184.225 286.368Z" fill="#C7C3BE"/>
<path d="M194.432 289.37C192.538 291.085 190.643 292.806 188.742 294.521C188.454 294.78 188.086 295.378 187.719 294.73C187.294 293.98 185.781 294.168 186.084 292.929C186.84 289.86 187.69 286.813 188.504 283.759C191.378 284.681 193.15 286.763 194.432 289.363V289.37Z" fill="#B2BAB6"/>
<path d="M185.464 304.203C185.298 303.692 184.636 304.074 184.427 303.627C185.543 303.073 186.689 302.619 187.928 302.417C189.88 304.239 191.486 306.307 192.394 308.857C192.019 309.656 193.309 310.478 192.113 311.414C190.874 312.379 189.469 312.358 188.137 312.696C187.366 312.891 187.301 312.034 187.178 311.45C186.725 309.267 186.285 307.078 185.824 304.895C185.774 304.65 185.587 304.427 185.464 304.196V304.203Z" fill="#D1D4D9"/>
<path d="M174.933 295.047C175.344 295.177 175.79 295.241 176.165 295.443C177.404 296.12 179.5 295.76 179.896 297.186C180.249 298.454 180.256 299.916 180.523 301.307C180.717 302.315 179.306 302.416 178.564 302.87C177.411 302.538 176.691 303.439 175.833 303.878C175.3 304.152 175.048 304.166 174.911 303.554C174.263 300.716 173.694 297.878 174.933 295.047Z" fill="#C5C8CC"/>
<path d="M179.607 305.889C180.075 304.959 180.472 303.987 181.206 303.209C181.934 303.641 182.654 304.081 183.389 304.491C183.807 304.722 183.814 305.017 183.756 305.449C183.425 307.906 183.13 310.362 182.712 312.905C182.373 311.644 181.653 311.19 180.363 311.075C178.505 310.917 178.102 309.75 178.937 308.057C179.261 307.394 180.039 306.804 179.6 305.889H179.607Z" fill="#D8DBE0"/>
<path d="M192.394 308.863C190.925 306.724 189.527 304.527 187.856 302.531C187.676 301.897 187.964 301.537 188.548 301.343C191.033 302.092 193.597 302.639 195.729 304.26C195.535 305.903 194.699 307.3 194.058 308.777C193.518 310.023 192.999 309.864 192.394 308.856V308.863Z" fill="#010101"/>
<path d="M189.08 296.921C191.436 296.071 193.856 295.516 196.341 295.235C196.975 296.77 196.802 298.369 196.745 299.961C194.425 300.285 192.099 300.062 189.772 300.054C188.137 299.377 187.856 298.066 189.088 296.921H189.08Z" fill="#B0B2B6"/>
<path d="M189.47 299.614C191.89 299.737 194.34 299.312 196.738 299.96C196.717 301.473 196.472 302.928 195.723 304.268C193.31 303.36 190.896 302.445 188.483 301.538C188.202 300.587 188.505 299.931 189.47 299.621V299.614Z" fill="#E0E3E8"/>
<path d="M286.802 231.707C285.7 231.664 284.591 231.628 283.489 231.585C281.349 230.994 279.159 231.376 276.998 231.326C273.469 231.246 273.577 231.282 272.907 227.861C272.41 225.318 272.129 225.426 275.298 225.102C277.733 224.85 280.226 224.958 282.682 225.059C284.771 225.145 286.809 224.691 288.884 224.72C289.547 224.727 290.202 224.698 290.793 225.059C289.993 226.391 289.698 227.882 289.525 229.388C289.338 231.081 288.61 231.988 286.802 231.722V231.707Z" fill="#D4B96F"/>
<path d="M261.367 225.96C260.842 226.111 260.316 226.27 259.79 226.421C254.503 227.235 249.511 229.036 244.562 230.974C243.654 231.334 242.682 231.6 241.904 232.249C241.695 232.126 241.486 232.004 241.277 231.881C241.241 231.182 240.571 230.866 240.312 230.304C240.204 226.27 241.306 224.8 245.52 223.388C246.766 222.776 248.099 223.035 249.381 223.093C251.65 223.194 253.912 223.626 256.174 223.612C258.342 223.604 259.819 224.779 261.367 225.96Z" fill="#A9A79E"/>
<path d="M189.469 299.614C188.749 300.054 188.864 300.918 188.482 301.53C188.273 301.862 188.064 302.193 187.855 302.525C186.797 303.144 185.73 303.742 184.427 303.619C182.655 303.022 181.646 301.581 181.552 299.521C181.459 297.345 181.776 295.335 183.973 294.241C185.413 293.527 186.789 294.125 187.863 295.652C188.187 296.113 188.079 297.079 189.08 296.906C188.893 297.849 188.136 298.88 189.469 299.6V299.614Z" fill="#FEFEFE"/>
</g>
<defs>
<linearGradient id="paint0_linear_394_4392" x1="42.5693" y1="109.25" x2="140.572" y2="109.25" gradientUnits="userSpaceOnUse">
<stop stop-color="#448C78"/>
<stop offset="1" stop-color="#3E776B"/>
</linearGradient>
<linearGradient id="paint1_linear_394_4392" x1="45.9746" y1="109.307" x2="143.977" y2="109.307" gradientUnits="userSpaceOnUse">
<stop stop-color="#80BBF9"/>
<stop offset="1" stop-color="#42D7BE"/>
</linearGradient>
<linearGradient id="paint2_linear_394_4392" x1="45.9746" y1="109.307" x2="143.977" y2="109.307" gradientUnits="userSpaceOnUse">
<stop stop-color="#80BBF9"/>
<stop offset="1" stop-color="#42D7BE"/>
</linearGradient>
<clipPath id="clip0_394_4392">
<rect width="390" height="346" fill="white"/>
</clipPath>
</defs>
</svg>
