<svg width="122" height="140" viewBox="0 0 122 140" fill="none" xmlns="http://www.w3.org/2000/svg">
<path d="M61.0256 139.845C77.2092 139.845 90.3286 137.467 90.3286 134.533C90.3286 131.599 77.2092 129.221 61.0256 129.221C44.842 129.221 31.7227 131.599 31.7227 134.533C31.7227 137.467 44.842 139.845 61.0256 139.845Z" fill="#E5E5E5"/>
<path d="M64.7752 114.687C96.1863 114.687 121.65 89.2235 121.65 57.8123C121.65 26.4012 96.1863 0.9375 64.7752 0.9375C33.3641 0.9375 7.90039 26.4012 7.90039 57.8123C7.90039 89.2235 33.3641 114.687 64.7752 114.687Z" fill="#188AD1"/>
<path d="M64.6288 114.687C96.0399 114.687 121.504 89.2235 121.504 57.8123C121.504 26.4012 96.0399 0.9375 64.6288 0.9375C33.2176 0.9375 7.75391 26.4012 7.75391 57.8123C7.75391 89.2235 33.2176 114.687 64.6288 114.687Z" fill="#188AD1"/>
<path d="M64.4823 114.687C95.8934 114.687 121.357 89.2235 121.357 57.8123C121.357 26.4012 95.8934 0.9375 64.4823 0.9375C33.0712 0.9375 7.60742 26.4012 7.60742 57.8123C7.60742 89.2235 33.0712 114.687 64.4823 114.687Z" fill="#188AD1"/>
<path d="M64.3338 114.687C95.7449 114.687 121.209 89.2235 121.209 57.8123C121.209 26.4012 95.7449 0.9375 64.3338 0.9375C32.9227 0.9375 7.45898 26.4012 7.45898 57.8123C7.45898 89.2235 32.9227 114.687 64.3338 114.687Z" fill="#188AD1"/>
<path d="M64.1873 114.687C95.5984 114.687 121.062 89.2235 121.062 57.8123C121.062 26.4012 95.5984 0.9375 64.1873 0.9375C32.7762 0.9375 7.3125 26.4012 7.3125 57.8123C7.3125 89.2235 32.7762 114.687 64.1873 114.687Z" fill="#188AD1"/>
<path d="M64.0409 114.687C95.452 114.687 120.916 89.2235 120.916 57.8123C120.916 26.4012 95.452 0.9375 64.0409 0.9375C32.6297 0.9375 7.16602 26.4012 7.16602 57.8123C7.16602 89.2235 32.6297 114.687 64.0409 114.687Z" fill="#188AD1"/>
<path d="M63.8924 114.687C95.3035 114.687 120.767 89.2235 120.767 57.8123C120.767 26.4012 95.3035 0.9375 63.8924 0.9375C32.4813 0.9375 7.01758 26.4012 7.01758 57.8123C7.01758 89.2235 32.4813 114.687 63.8924 114.687Z" fill="#188AD1"/>
<path d="M63.7459 114.687C95.1571 114.687 120.621 89.2235 120.621 57.8123C120.621 26.4012 95.1571 0.9375 63.7459 0.9375C32.3348 0.9375 6.87109 26.4012 6.87109 57.8123C6.87109 89.2235 32.3348 114.687 63.7459 114.687Z" fill="#188AD1"/>
<path d="M63.5995 114.687C95.0106 114.687 120.474 89.2235 120.474 57.8123C120.474 26.4012 95.0106 0.9375 63.5995 0.9375C32.1883 0.9375 6.72461 26.4012 6.72461 57.8123C6.72461 89.2235 32.1883 114.687 63.5995 114.687Z" fill="#188AD1"/>
<path d="M63.451 114.687C94.8621 114.687 120.326 89.2235 120.326 57.8123C120.326 26.4012 94.8621 0.9375 63.451 0.9375C32.0399 0.9375 6.57617 26.4012 6.57617 57.8123C6.57617 89.2235 32.0399 114.687 63.451 114.687Z" fill="#188AD1"/>
<path d="M63.3065 114.687C94.7176 114.687 120.181 89.2235 120.181 57.8123C120.181 26.4012 94.7176 0.9375 63.3065 0.9375C31.8954 0.9375 6.43164 26.4012 6.43164 57.8123C6.43164 89.2235 31.8954 114.687 63.3065 114.687Z" fill="#188AD1"/>
<path d="M63.158 114.687C94.5692 114.687 120.033 89.2235 120.033 57.8123C120.033 26.4012 94.5692 0.9375 63.158 0.9375C31.7469 0.9375 6.2832 26.4012 6.2832 57.8123C6.2832 89.2235 31.7469 114.687 63.158 114.687Z" fill="#188AD1"/>
<path d="M63.0116 114.687C94.4227 114.687 119.886 89.2235 119.886 57.8123C119.886 26.4012 94.4227 0.9375 63.0116 0.9375C31.6005 0.9375 6.13672 26.4012 6.13672 57.8123C6.13672 89.2235 31.6005 114.687 63.0116 114.687Z" fill="#188AD1"/>
<path d="M62.8651 114.687C94.2762 114.687 119.74 89.2235 119.74 57.8123C119.74 26.4012 94.2762 0.9375 62.8651 0.9375C31.454 0.9375 5.99023 26.4012 5.99023 57.8123C5.99023 89.2235 31.454 114.687 62.8651 114.687Z" fill="#188AD1"/>
<path d="M62.7166 114.687C94.1278 114.687 119.591 89.2235 119.591 57.8123C119.591 26.4012 94.1278 0.9375 62.7166 0.9375C31.3055 0.9375 5.8418 26.4012 5.8418 57.8123C5.8418 89.2235 31.3055 114.687 62.7166 114.687Z" fill="#188AD1"/>
<path d="M62.5702 114.687C93.9813 114.687 119.445 89.2235 119.445 57.8123C119.445 26.4012 93.9813 0.9375 62.5702 0.9375C31.159 0.9375 5.69531 26.4012 5.69531 57.8123C5.69531 89.2235 31.159 114.687 62.5702 114.687Z" fill="#188AD1"/>
<path d="M62.4237 114.687C93.8348 114.687 119.299 89.2235 119.299 57.8123C119.299 26.4012 93.8348 0.9375 62.4237 0.9375C31.0126 0.9375 5.54883 26.4012 5.54883 57.8123C5.54883 89.2235 31.0126 114.687 62.4237 114.687Z" fill="#188AD1"/>
<path d="M62.2772 114.687C93.6883 114.687 119.152 89.2235 119.152 57.8123C119.152 26.4012 93.6883 0.9375 62.2772 0.9375C30.8661 0.9375 5.40234 26.4012 5.40234 57.8123C5.40234 89.2235 30.8661 114.687 62.2772 114.687Z" fill="#188AD1"/>
<path d="M62.1287 114.687C93.5399 114.687 119.004 89.2235 119.004 57.8123C119.004 26.4012 93.5399 0.9375 62.1287 0.9375C30.7176 0.9375 5.25391 26.4012 5.25391 57.8123C5.25391 89.2235 30.7176 114.687 62.1287 114.687Z" fill="#188AD1"/>
<path d="M61.9823 114.687C93.3934 114.687 118.857 89.2235 118.857 57.8123C118.857 26.4012 93.3934 0.9375 61.9823 0.9375C30.5712 0.9375 5.10742 26.4012 5.10742 57.8123C5.10742 89.2235 30.5712 114.687 61.9823 114.687Z" fill="#188AD1"/>
<path d="M61.8338 114.687C93.2449 114.687 118.709 89.2235 118.709 57.8123C118.709 26.4012 93.2449 0.9375 61.8338 0.9375C30.4227 0.9375 4.95898 26.4012 4.95898 57.8123C4.95898 89.2235 30.4227 114.687 61.8338 114.687Z" fill="#188AD1"/>
<path d="M61.6873 114.687C93.0985 114.687 118.562 89.2235 118.562 57.8123C118.562 26.4012 93.0985 0.9375 61.6873 0.9375C30.2762 0.9375 4.8125 26.4012 4.8125 57.8123C4.8125 89.2235 30.2762 114.687 61.6873 114.687Z" fill="#188AD1"/>
<path d="M61.5409 114.687C92.952 114.687 118.416 89.2235 118.416 57.8123C118.416 26.4012 92.952 0.9375 61.5409 0.9375C30.1298 0.9375 4.66602 26.4012 4.66602 57.8123C4.66602 89.2235 30.1298 114.687 61.5409 114.687Z" fill="#188AD1"/>
<path d="M61.3924 114.687C92.8035 114.687 118.267 89.2235 118.267 57.8123C118.267 26.4012 92.8035 0.9375 61.3924 0.9375C29.9813 0.9375 4.51758 26.4012 4.51758 57.8123C4.51758 89.2235 29.9813 114.687 61.3924 114.687Z" fill="#188AD1"/>
<path d="M61.2459 114.687C92.657 114.687 118.121 89.2235 118.121 57.8123C118.121 26.4012 92.657 0.9375 61.2459 0.9375C29.8348 0.9375 4.37109 26.4012 4.37109 57.8123C4.37109 89.2235 29.8348 114.687 61.2459 114.687Z" fill="#188AD1"/>
<path d="M61.0994 114.687C92.5106 114.687 117.974 89.2235 117.974 57.8123C117.974 26.4012 92.5106 0.9375 61.0994 0.9375C29.6883 0.9375 4.22461 26.4012 4.22461 57.8123C4.22461 89.2235 29.6883 114.687 61.0994 114.687Z" fill="#188AD1"/>
<path d="M60.953 114.687C92.3641 114.687 117.828 89.2235 117.828 57.8123C117.828 26.4012 92.3641 0.9375 60.953 0.9375C29.5419 0.9375 4.07812 26.4012 4.07812 57.8123C4.07812 89.2235 29.5419 114.687 60.953 114.687Z" fill="#188AD1"/>
<path d="M60.8045 114.687C92.2156 114.687 117.679 89.2235 117.679 57.8123C117.679 26.4012 92.2156 0.9375 60.8045 0.9375C29.3934 0.9375 3.92969 26.4012 3.92969 57.8123C3.92969 89.2235 29.3934 114.687 60.8045 114.687Z" fill="#188AD1"/>
<path d="M60.658 114.687C92.0692 114.687 117.533 89.2235 117.533 57.8123C117.533 26.4012 92.0692 0.9375 60.658 0.9375C29.2469 0.9375 3.7832 26.4012 3.7832 57.8123C3.7832 89.2235 29.2469 114.687 60.658 114.687Z" fill="#188AD1"/>
<path d="M60.5116 114.687C91.9227 114.687 117.386 89.2235 117.386 57.8123C117.386 26.4012 91.9227 0.9375 60.5116 0.9375C29.1004 0.9375 3.63672 26.4012 3.63672 57.8123C3.63672 89.2235 29.1004 114.687 60.5116 114.687Z" fill="#188AD1"/>
<path d="M60.3631 114.687C91.7742 114.687 117.238 89.2235 117.238 57.8123C117.238 26.4012 91.7742 0.9375 60.3631 0.9375C28.952 0.9375 3.48828 26.4012 3.48828 57.8123C3.48828 89.2235 28.952 114.687 60.3631 114.687Z" fill="#188AD1"/>
<path d="M60.2166 114.687C91.6277 114.687 117.091 89.2235 117.091 57.8123C117.091 26.4012 91.6277 0.9375 60.2166 0.9375C28.8055 0.9375 3.3418 26.4012 3.3418 57.8123C3.3418 89.2235 28.8055 114.687 60.2166 114.687Z" fill="#188AD1"/>
<path d="M60.0702 114.687C91.4813 114.687 116.945 89.2235 116.945 57.8123C116.945 26.4012 91.4813 0.9375 60.0702 0.9375C28.659 0.9375 3.19531 26.4012 3.19531 57.8123C3.19531 89.2235 28.659 114.687 60.0702 114.687Z" fill="#188AD1"/>
<path d="M59.9217 114.687C91.3328 114.687 116.797 89.2235 116.797 57.8123C116.797 26.4012 91.3328 0.9375 59.9217 0.9375C28.5106 0.9375 3.04688 26.4012 3.04688 57.8123C3.04688 89.2235 28.5106 114.687 59.9217 114.687Z" fill="#188AD1"/>
<path d="M59.7752 114.687C91.1863 114.687 116.65 89.2235 116.65 57.8123C116.65 26.4012 91.1863 0.9375 59.7752 0.9375C28.3641 0.9375 2.90039 26.4012 2.90039 57.8123C2.90039 89.2235 28.3641 114.687 59.7752 114.687Z" fill="#188AD1"/>
<path d="M59.6288 114.687C91.0399 114.687 116.504 89.2235 116.504 57.8123C116.504 26.4012 91.0399 0.9375 59.6288 0.9375C28.2176 0.9375 2.75391 26.4012 2.75391 57.8123C2.75391 89.2235 28.2176 114.687 59.6288 114.687Z" fill="#188AD1"/>
<path d="M59.4823 114.687C90.8934 114.687 116.357 89.2235 116.357 57.8123C116.357 26.4012 90.8934 0.9375 59.4823 0.9375C28.0712 0.9375 2.60742 26.4012 2.60742 57.8123C2.60742 89.2235 28.0712 114.687 59.4823 114.687Z" fill="#188AD1"/>
<path d="M59.3358 114.687C90.7469 114.687 116.211 89.2235 116.211 57.8123C116.211 26.4012 90.7469 0.9375 59.3358 0.9375C27.9247 0.9375 2.46094 26.4012 2.46094 57.8123C2.46094 89.2235 27.9247 114.687 59.3358 114.687Z" fill="#188AD1"/>
<path d="M59.1873 114.687C90.5985 114.687 116.062 89.2235 116.062 57.8123C116.062 26.4012 90.5985 0.9375 59.1873 0.9375C27.7762 0.9375 2.3125 26.4012 2.3125 57.8123C2.3125 89.2235 27.7762 114.687 59.1873 114.687Z" fill="#188AD1"/>
<path d="M59.0409 114.687C90.452 114.687 115.916 89.2235 115.916 57.8123C115.916 26.4012 90.452 0.9375 59.0409 0.9375C27.6297 0.9375 2.16602 26.4012 2.16602 57.8123C2.16602 89.2235 27.6297 114.687 59.0409 114.687Z" fill="#188AD1"/>
<path d="M58.8944 114.687C90.3055 114.687 115.769 89.2235 115.769 57.8123C115.769 26.4012 90.3055 0.9375 58.8944 0.9375C27.4833 0.9375 2.01953 26.4012 2.01953 57.8123C2.01953 89.2235 27.4833 114.687 58.8944 114.687Z" fill="#188AD1"/>
<path d="M58.7459 114.687C90.157 114.687 115.621 89.2235 115.621 57.8123C115.621 26.4012 90.157 0.9375 58.7459 0.9375C27.3348 0.9375 1.87109 26.4012 1.87109 57.8123C1.87109 89.2235 27.3348 114.687 58.7459 114.687Z" fill="#188AD1"/>
<path d="M58.5995 114.687C90.0106 114.687 115.474 89.2235 115.474 57.8123C115.474 26.4012 90.0106 0.9375 58.5995 0.9375C27.1883 0.9375 1.72461 26.4012 1.72461 57.8123C1.72461 89.2235 27.1883 114.687 58.5995 114.687Z" fill="#188AD1"/>
<path d="M58.453 114.687C89.8641 114.687 115.328 89.2235 115.328 57.8123C115.328 26.4012 89.8641 0.9375 58.453 0.9375C27.0419 0.9375 1.57812 26.4012 1.57812 57.8123C1.57812 89.2235 27.0419 114.687 58.453 114.687Z" fill="#188AD1"/>
<path d="M58.3045 114.687C89.7156 114.687 115.179 89.2235 115.179 57.8123C115.179 26.4012 89.7156 0.9375 58.3045 0.9375C26.8934 0.9375 1.42969 26.4012 1.42969 57.8123C1.42969 89.2235 26.8934 114.687 58.3045 114.687Z" fill="#188AD1"/>
<path d="M58.158 114.687C89.5692 114.687 115.033 89.2235 115.033 57.8123C115.033 26.4012 89.5692 0.9375 58.158 0.9375C26.7469 0.9375 1.2832 26.4012 1.2832 57.8123C1.2832 89.2235 26.7469 114.687 58.158 114.687Z" fill="#188AD1"/>
<path d="M58.0116 114.687C89.4227 114.687 114.886 89.2235 114.886 57.8123C114.886 26.4012 89.4227 0.9375 58.0116 0.9375C26.6005 0.9375 1.13672 26.4012 1.13672 57.8123C1.13672 89.2235 26.6005 114.687 58.0116 114.687Z" fill="#188AD1"/>
<path d="M57.8651 114.687C89.2762 114.687 114.74 89.2235 114.74 57.8123C114.74 26.4012 89.2762 0.9375 57.8651 0.9375C26.454 0.9375 0.990234 26.4012 0.990234 57.8123C0.990234 89.2235 26.454 114.687 57.8651 114.687Z" fill="#188AD1"/>
<path d="M57.7166 114.687C89.1277 114.687 114.591 89.2235 114.591 57.8123C114.591 26.4012 89.1277 0.9375 57.7166 0.9375C26.3055 0.9375 0.841797 26.4012 0.841797 57.8123C0.841797 89.2235 26.3055 114.687 57.7166 114.687Z" fill="#188AD1"/>
<path d="M57.5702 114.687C88.9813 114.687 114.445 89.2235 114.445 57.8123C114.445 26.4012 88.9813 0.9375 57.5702 0.9375C26.159 0.9375 0.695312 26.4012 0.695312 57.8123C0.695312 89.2235 26.159 114.687 57.5702 114.687Z" fill="#188AD1"/>
<path d="M57.4237 114.687C88.8348 114.687 114.299 89.2235 114.299 57.8123C114.299 26.4012 88.8348 0.9375 57.4237 0.9375C26.0126 0.9375 0.548828 26.4012 0.548828 57.8123C0.548828 89.2235 26.0126 114.687 57.4237 114.687Z" fill="#188AD1"/>
<path d="M57.2752 114.687C88.6863 114.687 114.15 89.2235 114.15 57.8123C114.15 26.4012 88.6863 0.9375 57.2752 0.9375C25.8641 0.9375 0.400391 26.4012 0.400391 57.8123C0.400391 89.2235 25.8641 114.687 57.2752 114.687Z" fill="#188AD1"/>
<path d="M114.152 57.8129C114.152 89.2238 88.6848 114.686 57.2738 114.686C49.3566 114.686 41.8191 113.069 34.9707 110.144C33.1754 109.38 31.4223 108.522 29.7254 107.575C25.7832 105.391 22.127 102.752 18.8316 99.7191C16.141 97.2582 13.6848 94.5301 11.5145 91.5863C10.8629 90.7098 10.2395 89.8145 9.64883 88.9004C8.60352 87.3113 7.64258 85.6707 6.76133 83.9785C2.69727 76.1457 0.400391 67.2488 0.400391 57.8129C0.400391 26.402 25.8629 0.939453 57.2738 0.939453C66.7098 0.939453 75.6066 3.23633 83.4395 7.30039C85.1316 8.18164 86.7769 9.14258 88.3613 10.1879C89.2754 10.7785 90.1707 11.402 91.0473 12.0535C93.991 14.2238 96.7145 16.6754 99.1848 19.366C102.213 22.6613 104.857 26.3176 107.041 30.2598C107.988 31.9566 108.846 33.7098 109.605 35.5098C112.535 42.3582 114.152 49.8957 114.152 57.8129Z" fill="#5EC4FF"/>
<path d="M57.2752 102.187C82.4731 102.187 102.9 81.7602 102.9 56.5623C102.9 31.3644 82.4731 10.9375 57.2752 10.9375C32.0773 10.9375 11.6504 31.3644 11.6504 56.5623C11.6504 81.7602 32.0773 102.187 57.2752 102.187Z" fill="#1589CF"/>
<mask id="mask0_649_5403" style="mask-type:luminance" maskUnits="userSpaceOnUse" x="11" y="10" width="92" height="93">
<path d="M57.2752 102.187C82.4731 102.187 102.9 81.7602 102.9 56.5623C102.9 31.3644 82.4731 10.9375 57.2752 10.9375C32.0773 10.9375 11.6504 31.3644 11.6504 56.5623C11.6504 81.7602 32.0773 102.187 57.2752 102.187Z" fill="white"/>
</mask>
<g mask="url(#mask0_649_5403)">
<path d="M61.9627 102.187C87.1606 102.187 107.588 81.7602 107.588 56.5623C107.588 31.3644 87.1606 10.9375 61.9627 10.9375C36.7648 10.9375 16.3379 31.3644 16.3379 56.5623C16.3379 81.7602 36.7648 102.187 61.9627 102.187Z" fill="#2BA8ED"/>
</g>
<path d="M25.9742 40.3379C25.9742 40.3379 18.3148 42.3676 18.3148 50.4957C18.3148 42.3676 10.6602 40.3379 10.6602 40.3379C18.1086 39.0113 18.3148 31.1363 18.3148 30.2598C18.3148 31.1363 18.5211 39.0113 25.9742 40.3379Z" fill="white"/>
<path d="M93.6895 89.5661C93.6895 89.5661 87.0665 91.3211 87.0665 98.3495C87.0665 91.3211 80.4473 89.5661 80.4473 89.5661C86.8879 88.4191 87.0665 81.6095 87.0665 80.8516C87.0665 81.6095 87.2446 88.4191 93.6895 89.5661Z" fill="white"/>
<path d="M30.0906 24.7991C30.0906 24.7991 25.9726 25.8904 25.9726 30.2601C25.9726 25.8904 21.8574 24.7991 21.8574 24.7991C25.862 24.0862 25.9726 19.8524 25.9726 19.3809C25.9726 19.852 26.0837 24.0857 30.0906 24.7991Z" fill="white"/>
<path d="M65.6125 38.938C67.698 38.9431 69.7628 39.163 71.8028 39.6575C75.3175 40.5097 77.4372 42.7855 78.2594 46.1877C79.4055 50.9309 78.4052 55.3119 75.483 59.2128C74.0537 61.1206 72.0062 62.0431 69.708 62.4561C67.5123 62.8503 65.2923 62.8831 63.0705 62.8663C62.6889 62.8634 62.5773 62.712 62.6552 62.33C62.9078 61.0902 63.4764 59.9952 64.1373 58.9353C64.5672 58.2458 65.2806 58.2964 65.9387 58.2388C67.6858 58.0859 69.3288 57.6631 70.72 56.5269C71.5206 55.873 72.1511 55.0789 72.6461 54.1747C72.79 53.9122 72.9325 53.6488 73.0778 53.3872C73.3169 52.9564 73.6825 52.7342 74.1766 52.7328C74.9725 52.7305 75.7689 52.708 76.5634 52.7394C77.2319 52.7656 77.7264 52.4942 77.973 51.9078C78.2017 51.3636 78.3236 50.7725 78.4694 50.1964C78.535 49.9363 78.4262 49.7548 78.1234 49.7539C76.8939 49.7506 75.6634 49.7211 74.4348 49.7558C73.9483 49.7694 73.6511 50.1552 73.4233 50.5625C73.1242 51.0969 72.827 51.6327 72.5294 52.168C72.4811 52.182 72.4328 52.1956 72.3845 52.2097C72.0709 51.5689 71.7109 50.9464 71.4545 50.2841C70.9694 49.0302 70.5311 47.7575 70.098 46.4839C69.6737 45.2375 69.3634 44.9895 68.0491 44.9886C63.0344 44.9853 58.0197 44.9914 53.0045 44.982C52.0441 44.9802 51.3189 45.4475 50.6659 46.0686C49.2189 47.4444 47.7808 48.8286 46.3469 50.218C45.8331 50.7158 45.302 51.1114 44.5309 51.1494C43.9398 51.1784 43.3562 51.3589 42.7206 51.4817C42.2528 50.4106 41.9003 49.2336 40.6094 48.7625C41.208 45.4733 41.8019 42.2136 42.3981 38.9375H65.6134L65.6125 38.938Z" fill="#1C7CD3"/>
<path d="M53.8452 48.7692C53.6343 48.7729 53.3793 48.8873 53.2241 49.0307C52.641 49.5712 52.0968 50.1538 51.5226 50.7046C51.4059 50.8167 51.2235 50.9212 51.0693 50.9245C50.1388 50.9446 49.2079 50.9343 48.2202 50.9343C48.2774 50.8467 48.3037 50.7871 48.3463 50.7435C49.5665 49.5004 50.7998 48.2704 52.0016 47.0099C52.3106 46.686 52.6462 46.5435 53.0676 46.5393C53.6081 46.5342 54.1485 46.5313 54.6895 46.5313C58.7742 46.5299 62.8588 46.5356 66.9435 46.5215C67.5102 46.5196 67.867 46.7188 68.1042 47.242C68.827 48.8362 69.577 50.4187 70.3204 52.004C71.0118 53.4792 70.0148 54.7682 68.872 55.0274C68.6268 55.0832 68.3666 55.0902 68.1135 55.0902C60.2896 55.0926 52.4657 55.0907 44.6413 55.0902C44.4763 55.0902 44.3109 55.0893 44.1459 55.0973C42.9782 55.1554 42.5132 55.5595 42.3271 56.7262C41.9334 59.1951 41.5617 61.6678 41.166 64.1367C40.8604 66.0421 40.5374 67.9448 40.2098 69.847C40.0406 70.8304 40.2656 71.1177 41.2532 71.1177C42.3646 71.1177 43.4756 71.1177 44.587 71.1173C45.4607 71.1168 45.7012 70.9157 45.8376 70.0513C46.0307 68.8246 46.2154 67.5965 46.4067 66.3698C46.4249 66.2517 46.4643 66.1373 46.4985 66.0018H53.7613C53.332 68.4426 52.9035 70.8688 52.4779 73.2956C52.3073 74.2682 52.1315 75.2399 51.9815 76.2154C51.929 76.5581 51.801 76.687 51.434 76.6865C46.4784 76.6757 41.5227 76.6785 36.5671 76.6874C36.2132 76.6879 36.1124 76.6288 36.1842 76.2304C36.9627 71.901 37.724 67.5688 38.4726 63.2343C38.8166 61.2431 39.1256 59.2462 39.4434 57.2502C39.5184 56.7782 39.5788 56.3029 39.6191 55.8267C39.7176 54.6609 40.1985 53.7327 41.2663 53.151C40.8871 52.7498 40.4488 52.5468 39.9281 52.5585C39.1781 52.5749 38.4276 52.6003 37.679 52.6429C37.0823 52.6767 36.6412 52.4324 36.4162 51.899C36.1907 51.3646 36.0107 50.8059 35.8682 50.2434C35.752 49.784 35.8968 49.6246 36.3674 49.6213C37.6288 49.612 38.8902 49.6167 40.1516 49.6204C40.8243 49.6223 41.2832 49.9349 41.5331 50.5687C41.8063 51.2615 42.0993 51.9463 42.3327 52.5112C43.6054 52.4085 44.8232 52.2543 46.0415 52.252C53.0695 52.2374 60.0974 52.2388 67.1259 52.252C67.3171 52.252 67.5084 52.252 67.8065 52.252C67.5979 51.7828 67.4306 51.3927 67.252 51.0079C66.9445 50.3442 66.6079 49.6921 66.3295 49.0167C66.2146 48.7387 66.0332 48.7706 65.8284 48.7706H53.8448L53.8452 48.7692Z" fill="#1C7CD3"/>
<path d="M51.6873 62.8872C51.0226 62.8872 50.8304 62.6707 51.0897 62.0697C51.3658 61.429 51.7295 60.8238 52.0792 60.2172C52.1354 60.1193 52.3173 60.0335 52.4415 60.033C55.0665 60.0232 57.692 60.0363 60.317 60.033C60.639 60.033 60.8772 60.1563 60.9756 60.4643C61.1425 60.9883 61.3403 61.511 61.4279 62.0501C61.539 62.7349 61.3801 62.8793 60.6883 62.8872H51.6873Z" fill="#1C7CD3"/>
<path d="M48.5886 62.836C47.8696 62.8013 47.1486 62.7887 46.4319 62.7258C45.4944 62.6438 44.7955 62.1769 44.3928 61.314C43.9738 60.4149 43.8411 59.4563 43.836 58.4734C43.8336 58.0894 43.9574 57.8954 44.3957 57.9535C45.6725 58.1237 46.9541 58.2554 48.2305 58.4293C48.3964 58.4518 48.59 58.6023 48.6866 58.749C49.3714 59.7915 49.8027 60.9315 49.8908 62.1835C49.9353 62.8191 49.8144 62.918 49.1736 62.859C48.9796 62.8412 48.7841 62.8341 48.5896 62.8219C48.5896 62.8266 48.5891 62.8313 48.5886 62.8365V62.836Z" fill="#1C7CD3"/>
<path opacity="0.2" d="M99.1859 19.3652L18.8328 99.7184C16.1422 97.2574 13.6859 94.5293 11.5156 91.5855L91.0484 12.0527C93.9922 14.223 96.7156 16.6746 99.1859 19.3652Z" fill="white"/>
<path opacity="0.2" d="M88.3617 10.1883L9.64922 88.9008C8.60391 87.3117 7.64297 85.6711 6.76172 83.9789L83.4398 7.30078C85.132 8.18203 86.7773 9.14296 88.3617 10.1883Z" fill="white"/>
<path opacity="0.2" d="M109.606 35.5098L34.9719 110.144C33.1766 109.38 31.4234 108.522 29.7266 107.575L107.042 30.2598C107.989 31.9566 108.847 33.7098 109.606 35.5098Z" fill="white"/>
</svg>
