<svg width="238" height="270" viewBox="0 0 238 270" fill="none" xmlns="http://www.w3.org/2000/svg">
<g opacity="0.1">
<path d="M212.742 4.96484C227.08 4.96484 241.356 6.51657 255.384 9.93036C279.591 15.8269 294.177 31.4683 299.887 54.9304C307.77 87.5786 300.88 117.806 280.77 144.682C270.901 157.841 256.811 164.172 240.984 167.027C225.839 169.758 210.57 169.944 195.239 169.882C192.632 169.882 191.825 168.827 192.384 166.22C194.122 157.654 198.032 150.144 202.563 142.82C205.542 138.041 210.446 138.413 214.977 138.041C227.018 136.986 238.315 134.068 247.935 126.248C253.46 121.717 257.804 116.254 261.218 110.048C262.211 108.248 263.204 106.448 264.198 104.648C265.873 101.668 268.356 100.179 271.77 100.117C277.232 100.117 282.756 99.9304 288.218 100.117C292.811 100.303 296.225 98.4407 297.901 94.4062C299.453 90.6821 300.322 86.5855 301.315 82.6131C301.749 80.8131 301.004 79.5717 298.956 79.5717C290.515 79.5717 282.011 79.3235 273.57 79.5717C270.218 79.6959 268.17 82.3028 266.618 85.1579C264.57 88.82 262.522 92.5442 260.473 96.2062H259.294C257.184 91.8614 254.763 87.7028 253.025 83.2338C249.673 74.6062 246.694 65.8545 243.653 57.0407C240.735 48.4752 238.563 46.7373 229.563 46.7373C194.991 46.7373 160.48 46.7373 125.908 46.7373C119.266 46.7373 114.301 49.9648 109.77 54.2476C99.7768 63.7442 89.9079 73.2407 80.0389 82.7993C76.501 86.2131 72.8389 88.9441 67.501 89.1924C63.4044 89.3786 59.432 90.62 55.0251 91.489C51.7975 84.1028 49.3768 76.0338 40.501 72.7441C44.2872 52.0131 48.0113 31.4683 51.7975 10.8614C52.4182 7.50967 55.3355 5.08898 58.6872 5.08898H212.742V4.96484Z" fill="#2E80EC"/>
<path d="M131.68 72.6822C130.253 72.6822 128.453 73.4891 127.397 74.4822C123.363 78.2063 119.639 82.2408 115.666 86.027C114.859 86.7718 113.618 87.5166 112.563 87.5166C106.17 87.6408 99.7146 87.5787 92.9491 87.5787C93.3215 86.958 93.5077 86.5856 93.818 86.2753C102.197 77.7098 110.701 69.2684 119.018 60.5787C121.128 58.3442 123.487 57.3511 126.342 57.3511C130.066 57.3511 133.79 57.3511 137.515 57.3511C165.632 57.3511 193.811 57.3511 221.928 57.2891C226.77 57.2891 228.508 59.7097 230.99 65.296C235.459 75.3511 238.687 82.9856 243.218 91.6753C250.79 106.386 243.963 113.896 235.273 115.882C233.597 116.255 231.797 116.317 230.059 116.317C176.184 116.317 122.246 116.317 68.3698 116.317C67.2525 116.317 66.0732 116.317 64.956 116.317C56.887 116.689 53.7215 119.482 52.418 127.551C49.687 144.558 47.1422 161.565 44.4111 178.572C42.3008 191.668 40.0663 204.827 37.8318 217.924C36.5284 225.31 38.5146 226.986 47.0801 226.613C55.6456 226.241 59.0594 226.303 65.018 226.613C73.5215 226.986 75.5077 226.179 76.6249 219.351C77.9284 210.91 79.2318 202.468 80.5353 193.965C80.7836 192.475 82.0249 191.42 83.5146 191.42H125.784C128.639 191.42 130.749 193.965 130.253 196.758C127.584 211.779 124.977 226.675 122.37 241.634C121.19 248.337 120.011 255.041 118.956 261.744C118.584 264.103 117.715 264.972 115.17 264.972C81.0318 264.91 46.8939 264.972 12.756 264.972C10.3353 264.972 9.65252 264.599 10.1491 261.806C15.487 232.013 20.7629 202.158 25.9146 172.303C28.3353 158.337 30.5077 144.372 32.6801 130.406C33.1767 127.241 33.487 124.075 33.7973 120.91C34.5422 113.089 37.8939 106.82 45.0939 102.848C42.487 100.055 39.4456 98.6891 35.8456 98.7511C30.6939 98.8753 25.4801 99.0615 20.3284 99.3098C16.2318 99.558 13.1904 97.8822 11.6387 94.158C10.087 90.496 8.84562 86.6477 7.85252 82.7373C7.04562 79.5718 8.03872 78.4546 11.2663 78.4546C19.956 78.3925 28.6456 78.4546 37.3353 78.4546C41.9905 78.4546 45.156 80.627 46.8318 84.9718C48.6939 89.7511 50.7422 94.4684 52.356 98.3787C61.1077 97.696 69.487 96.6408 77.9284 96.5787C126.342 96.4546 174.756 96.5167 223.17 96.5787C225.342 96.5787 226.832 94.3442 225.963 92.358C225.094 90.3718 224.659 89.4408 224.039 88.0132C221.928 83.4201 219.632 78.9511 217.708 74.296C216.901 72.3718 215.659 72.6201 214.232 72.6201H131.68V72.6822Z" fill="#2E80EC"/>
<path d="M116.846 169.945C112.253 169.945 110.949 168.455 112.749 164.296C114.673 159.889 117.156 155.731 119.577 151.51C119.949 150.827 121.191 150.269 122.06 150.269C140.122 150.207 158.246 150.269 176.308 150.269C178.542 150.269 180.156 151.138 180.839 153.248C182.018 156.848 183.322 160.448 183.942 164.172C184.687 168.889 183.632 169.883 178.853 169.945H116.846Z" fill="#2E80EC"/>
<path d="M95.432 169.573C90.4665 169.325 85.501 169.263 80.5975 168.828C74.1424 168.27 69.301 165.042 66.57 159.083C63.6527 152.876 62.7837 146.297 62.7217 139.532C62.7217 136.863 63.5286 135.559 66.57 135.932C75.3838 137.111 84.1975 137.98 93.0113 139.221C94.1286 139.408 95.4941 140.401 96.1769 141.394C100.894 148.594 103.873 156.414 104.494 165.042C104.804 169.449 103.998 170.132 99.5286 169.697C98.1631 169.573 96.8596 169.511 95.4941 169.449C95.4941 169.449 95.4941 169.511 95.4941 169.573H95.432Z" fill="#2E80EC"/>
</g>
</svg>
