<svg width="20" height="20" viewBox="0 0 20 20" fill="none" xmlns="http://www.w3.org/2000/svg">
<path d="M6.10938 8.18571C6.10938 7.63555 6.32792 7.10792 6.71695 6.7189C7.10597 6.32988 7.63359 6.11133 8.18375 6.11133H14.9241C15.1965 6.11133 15.4663 6.16498 15.718 6.26923C15.9696 6.37348 16.1983 6.52628 16.3909 6.7189C16.5836 6.91152 16.7364 7.1402 16.8406 7.39188C16.9448 7.64355 16.9985 7.9133 16.9985 8.18571V14.9261C16.9985 15.1985 16.9448 15.4682 16.8406 15.7199C16.7364 15.9716 16.5836 16.2003 16.3909 16.3929C16.1983 16.5855 15.9696 16.7383 15.718 16.8426C15.4663 16.9468 15.1965 17.0005 14.9241 17.0005H8.18375C7.91134 17.0005 7.6416 16.9468 7.38992 16.8426C7.13825 16.7383 6.90957 16.5855 6.71695 16.3929C6.52432 16.2003 6.37153 15.9716 6.26728 15.7199C6.16303 15.4682 6.10938 15.1985 6.10938 14.9261V8.18571Z" stroke="#2E80EC" stroke-width="1.5" stroke-linecap="round" stroke-linejoin="round"/>
<path d="M3.78713 13.6846C3.54835 13.5489 3.34973 13.3524 3.21148 13.1151C3.07323 12.8778 3.00026 12.6082 3 12.3335V4.55559C3 3.70002 3.70002 3 4.55559 3H12.3335C12.9169 3 13.2342 3.29945 13.5002 3.77779" stroke="#2E80EC" stroke-width="1.5" stroke-linecap="round" stroke-linejoin="round"/>
</svg>
