<svg width="32" height="32" viewBox="0 0 32 32" fill="none" xmlns="http://www.w3.org/2000/svg">
<path d="M16.5067 29.9978C25.8411 29.9978 30.5056 23.7303 30.5056 15.9989C30.5056 8.26751 25.8411 2 16.5067 2C7.17225 2 2.50781 8.26751 2.50781 15.9989C2.50781 23.7303 7.17225 29.9978 16.5067 29.9978Z" fill="url(#paint0_radial_223_14278)"/>
<path d="M16.5067 29.9978C25.8411 29.9978 30.5056 23.7303 30.5056 15.9989C30.5056 8.26751 25.8411 2 16.5067 2C7.17225 2 2.50781 8.26751 2.50781 15.9989C2.50781 23.7303 7.17225 29.9978 16.5067 29.9978Z" fill="url(#paint1_radial_223_14278)"/>
<path d="M16.5067 29.9978C25.8411 29.9978 30.5056 23.7303 30.5056 15.9989C30.5056 8.26751 25.8411 2 16.5067 2C7.17225 2 2.50781 8.26751 2.50781 15.9989C2.50781 23.7303 7.17225 29.9978 16.5067 29.9978Z" fill="url(#paint2_radial_223_14278)"/>
<path d="M16.5067 29.9978C25.8411 29.9978 30.5056 23.7303 30.5056 15.9989C30.5056 8.26751 25.8411 2 16.5067 2C7.17225 2 2.50781 8.26751 2.50781 15.9989C2.50781 23.7303 7.17225 29.9978 16.5067 29.9978Z" fill="url(#paint3_radial_223_14278)" fill-opacity="0.7"/>
<path d="M16.5067 29.9978C25.8411 29.9978 30.5056 23.7303 30.5056 15.9989C30.5056 8.26751 25.8411 2 16.5067 2C7.17225 2 2.50781 8.26751 2.50781 15.9989C2.50781 23.7303 7.17225 29.9978 16.5067 29.9978Z" fill="url(#paint4_radial_223_14278)"/>
<path d="M16.5067 29.9978C25.8411 29.9978 30.5056 23.7303 30.5056 15.9989C30.5056 8.26751 25.8411 2 16.5067 2C7.17225 2 2.50781 8.26751 2.50781 15.9989C2.50781 23.7303 7.17225 29.9978 16.5067 29.9978Z" fill="url(#paint5_radial_223_14278)"/>
<path d="M16.5067 29.9978C25.8411 29.9978 30.5056 23.7303 30.5056 15.9989C30.5056 8.26751 25.8411 2 16.5067 2C7.17225 2 2.50781 8.26751 2.50781 15.9989C2.50781 23.7303 7.17225 29.9978 16.5067 29.9978Z" fill="url(#paint6_radial_223_14278)"/>
<path d="M16.5067 29.9978C25.8411 29.9978 30.5056 23.7303 30.5056 15.9989C30.5056 8.26751 25.8411 2 16.5067 2C7.17225 2 2.50781 8.26751 2.50781 15.9989C2.50781 23.7303 7.17225 29.9978 16.5067 29.9978Z" fill="url(#paint7_radial_223_14278)"/>
<path d="M16.5067 29.9978C25.8411 29.9978 30.5056 23.7303 30.5056 15.9989C30.5056 8.26751 25.8411 2 16.5067 2C7.17225 2 2.50781 8.26751 2.50781 15.9989C2.50781 23.7303 7.17225 29.9978 16.5067 29.9978Z" fill="url(#paint8_radial_223_14278)"/>
<path fill-rule="evenodd" clip-rule="evenodd" d="M12.9837 21.2819C13.355 20.9711 13.8958 20.9711 14.2672 21.2819L16.501 23.1512L18.7348 21.2819C19.1062 20.9711 19.6469 20.9711 20.0183 21.2819L22.2521 23.1512L24.0066 21.683C24.4302 21.3285 25.0609 21.3846 25.4153 21.8081C25.7697 22.2317 25.7137 22.8624 25.2901 23.2168L22.8938 25.222C22.5224 25.5328 21.9817 25.5328 21.6103 25.222L19.3765 23.3528L17.1427 25.222C16.7713 25.5328 16.2306 25.5328 15.8592 25.222L13.6254 23.3528L11.3916 25.222C11.0202 25.5328 10.4795 25.5328 10.1081 25.222L7.71179 23.2168C7.28823 22.8624 7.2322 22.2317 7.58663 21.8081C7.94105 21.3846 8.57173 21.3285 8.99529 21.683L10.7498 23.1512L12.9837 21.2819Z" fill="#4A2942"/>
<path fill-rule="evenodd" clip-rule="evenodd" d="M12.9837 21.2819C13.355 20.9711 13.8958 20.9711 14.2672 21.2819L16.501 23.1512L18.7348 21.2819C19.1062 20.9711 19.6469 20.9711 20.0183 21.2819L22.2521 23.1512L24.0066 21.683C24.4302 21.3285 25.0609 21.3846 25.4153 21.8081C25.7697 22.2317 25.7137 22.8624 25.2901 23.2168L22.8938 25.222C22.5224 25.5328 21.9817 25.5328 21.6103 25.222L19.3765 23.3528L17.1427 25.222C16.7713 25.5328 16.2306 25.5328 15.8592 25.222L13.6254 23.3528L11.3916 25.222C11.0202 25.5328 10.4795 25.5328 10.1081 25.222L7.71179 23.2168C7.28823 22.8624 7.2322 22.2317 7.58663 21.8081C7.94105 21.3846 8.57173 21.3285 8.99529 21.683L10.7498 23.1512L12.9837 21.2819Z" fill="url(#paint9_linear_223_14278)"/>
<path fill-rule="evenodd" clip-rule="evenodd" d="M12.9837 21.2819C13.355 20.9711 13.8958 20.9711 14.2672 21.2819L16.501 23.1512L18.7348 21.2819C19.1062 20.9711 19.6469 20.9711 20.0183 21.2819L22.2521 23.1512L24.0066 21.683C24.4302 21.3285 25.0609 21.3846 25.4153 21.8081C25.7697 22.2317 25.7137 22.8624 25.2901 23.2168L22.8938 25.222C22.5224 25.5328 21.9817 25.5328 21.6103 25.222L19.3765 23.3528L17.1427 25.222C16.7713 25.5328 16.2306 25.5328 15.8592 25.222L13.6254 23.3528L11.3916 25.222C11.0202 25.5328 10.4795 25.5328 10.1081 25.222L7.71179 23.2168C7.28823 22.8624 7.2322 22.2317 7.58663 21.8081C7.94105 21.3846 8.57173 21.3285 8.99529 21.683L10.7498 23.1512L12.9837 21.2819Z" fill="url(#paint10_linear_223_14278)"/>
<path fill-rule="evenodd" clip-rule="evenodd" d="M12.9837 21.2819C13.355 20.9711 13.8958 20.9711 14.2672 21.2819L16.501 23.1512L18.7348 21.2819C19.1062 20.9711 19.6469 20.9711 20.0183 21.2819L22.2521 23.1512L24.0066 21.683C24.4302 21.3285 25.0609 21.3846 25.4153 21.8081C25.7697 22.2317 25.7137 22.8624 25.2901 23.2168L22.8938 25.222C22.5224 25.5328 21.9817 25.5328 21.6103 25.222L19.3765 23.3528L17.1427 25.222C16.7713 25.5328 16.2306 25.5328 15.8592 25.222L13.6254 23.3528L11.3916 25.222C11.0202 25.5328 10.4795 25.5328 10.1081 25.222L7.71179 23.2168C7.28823 22.8624 7.2322 22.2317 7.58663 21.8081C7.94105 21.3846 8.57173 21.3285 8.99529 21.683L10.7498 23.1512L12.9837 21.2819Z" fill="url(#paint11_linear_223_14278)"/>
<path fill-rule="evenodd" clip-rule="evenodd" d="M12.9837 21.2819C13.355 20.9711 13.8958 20.9711 14.2672 21.2819L16.501 23.1512L18.7348 21.2819C19.1062 20.9711 19.6469 20.9711 20.0183 21.2819L22.2521 23.1512L24.0066 21.683C24.4302 21.3285 25.0609 21.3846 25.4153 21.8081C25.7697 22.2317 25.7137 22.8624 25.2901 23.2168L22.8938 25.222C22.5224 25.5328 21.9817 25.5328 21.6103 25.222L19.3765 23.3528L17.1427 25.222C16.7713 25.5328 16.2306 25.5328 15.8592 25.222L13.6254 23.3528L11.3916 25.222C11.0202 25.5328 10.4795 25.5328 10.1081 25.222L7.71179 23.2168C7.28823 22.8624 7.2322 22.2317 7.58663 21.8081C7.94105 21.3846 8.57173 21.3285 8.99529 21.683L10.7498 23.1512L12.9837 21.2819Z" fill="url(#paint12_linear_223_14278)"/>
<path fill-rule="evenodd" clip-rule="evenodd" d="M12.9837 21.2819C13.355 20.9711 13.8958 20.9711 14.2672 21.2819L16.501 23.1512L18.7348 21.2819C19.1062 20.9711 19.6469 20.9711 20.0183 21.2819L22.2521 23.1512L24.0066 21.683C24.4302 21.3285 25.0609 21.3846 25.4153 21.8081C25.7697 22.2317 25.7137 22.8624 25.2901 23.2168L22.8938 25.222C22.5224 25.5328 21.9817 25.5328 21.6103 25.222L19.3765 23.3528L17.1427 25.222C16.7713 25.5328 16.2306 25.5328 15.8592 25.222L13.6254 23.3528L11.3916 25.222C11.0202 25.5328 10.4795 25.5328 10.1081 25.222L7.71179 23.2168C7.28823 22.8624 7.2322 22.2317 7.58663 21.8081C7.94105 21.3846 8.57173 21.3285 8.99529 21.683L10.7498 23.1512L12.9837 21.2819Z" fill="url(#paint13_linear_223_14278)"/>
<path fill-rule="evenodd" clip-rule="evenodd" d="M12.9837 21.2819C13.355 20.9711 13.8958 20.9711 14.2672 21.2819L16.501 23.1512L18.7348 21.2819C19.1062 20.9711 19.6469 20.9711 20.0183 21.2819L22.2521 23.1512L24.0066 21.683C24.4302 21.3285 25.0609 21.3846 25.4153 21.8081C25.7697 22.2317 25.7137 22.8624 25.2901 23.2168L22.8938 25.222C22.5224 25.5328 21.9817 25.5328 21.6103 25.222L19.3765 23.3528L17.1427 25.222C16.7713 25.5328 16.2306 25.5328 15.8592 25.222L13.6254 23.3528L11.3916 25.222C11.0202 25.5328 10.4795 25.5328 10.1081 25.222L7.71179 23.2168C7.28823 22.8624 7.2322 22.2317 7.58663 21.8081C7.94105 21.3846 8.57173 21.3285 8.99529 21.683L10.7498 23.1512L12.9837 21.2819Z" fill="url(#paint14_linear_223_14278)"/>
<path fill-rule="evenodd" clip-rule="evenodd" d="M12.9837 21.2819C13.355 20.9711 13.8958 20.9711 14.2672 21.2819L16.501 23.1512L18.7348 21.2819C19.1062 20.9711 19.6469 20.9711 20.0183 21.2819L22.2521 23.1512L24.0066 21.683C24.4302 21.3285 25.0609 21.3846 25.4153 21.8081C25.7697 22.2317 25.7137 22.8624 25.2901 23.2168L22.8938 25.222C22.5224 25.5328 21.9817 25.5328 21.6103 25.222L19.3765 23.3528L17.1427 25.222C16.7713 25.5328 16.2306 25.5328 15.8592 25.222L13.6254 23.3528L11.3916 25.222C11.0202 25.5328 10.4795 25.5328 10.1081 25.222L7.71179 23.2168C7.28823 22.8624 7.2322 22.2317 7.58663 21.8081C7.94105 21.3846 8.57173 21.3285 8.99529 21.683L10.7498 23.1512L12.9837 21.2819Z" fill="url(#paint15_radial_223_14278)"/>
<path fill-rule="evenodd" clip-rule="evenodd" d="M12.9837 21.2819C13.355 20.9711 13.8958 20.9711 14.2672 21.2819L16.501 23.1512L18.7348 21.2819C19.1062 20.9711 19.6469 20.9711 20.0183 21.2819L22.2521 23.1512L24.0066 21.683C24.4302 21.3285 25.0609 21.3846 25.4153 21.8081C25.7697 22.2317 25.7137 22.8624 25.2901 23.2168L22.8938 25.222C22.5224 25.5328 21.9817 25.5328 21.6103 25.222L19.3765 23.3528L17.1427 25.222C16.7713 25.5328 16.2306 25.5328 15.8592 25.222L13.6254 23.3528L11.3916 25.222C11.0202 25.5328 10.4795 25.5328 10.1081 25.222L7.71179 23.2168C7.28823 22.8624 7.2322 22.2317 7.58663 21.8081C7.94105 21.3846 8.57173 21.3285 8.99529 21.683L10.7498 23.1512L12.9837 21.2819Z" fill="url(#paint16_radial_223_14278)"/>
<path fill-rule="evenodd" clip-rule="evenodd" d="M12.9837 21.2819C13.355 20.9711 13.8958 20.9711 14.2672 21.2819L16.501 23.1512L18.7348 21.2819C19.1062 20.9711 19.6469 20.9711 20.0183 21.2819L22.2521 23.1512L24.0066 21.683C24.4302 21.3285 25.0609 21.3846 25.4153 21.8081C25.7697 22.2317 25.7137 22.8624 25.2901 23.2168L22.8938 25.222C22.5224 25.5328 21.9817 25.5328 21.6103 25.222L19.3765 23.3528L17.1427 25.222C16.7713 25.5328 16.2306 25.5328 15.8592 25.222L13.6254 23.3528L11.3916 25.222C11.0202 25.5328 10.4795 25.5328 10.1081 25.222L7.71179 23.2168C7.28823 22.8624 7.2322 22.2317 7.58663 21.8081C7.94105 21.3846 8.57173 21.3285 8.99529 21.683L10.7498 23.1512L12.9837 21.2819Z" fill="url(#paint17_radial_223_14278)"/>
<path fill-rule="evenodd" clip-rule="evenodd" d="M12.9837 21.2819C13.355 20.9711 13.8958 20.9711 14.2672 21.2819L16.501 23.1512L18.7348 21.2819C19.1062 20.9711 19.6469 20.9711 20.0183 21.2819L22.2521 23.1512L24.0066 21.683C24.4302 21.3285 25.0609 21.3846 25.4153 21.8081C25.7697 22.2317 25.7137 22.8624 25.2901 23.2168L22.8938 25.222C22.5224 25.5328 21.9817 25.5328 21.6103 25.222L19.3765 23.3528L17.1427 25.222C16.7713 25.5328 16.2306 25.5328 15.8592 25.222L13.6254 23.3528L11.3916 25.222C11.0202 25.5328 10.4795 25.5328 10.1081 25.222L7.71179 23.2168C7.28823 22.8624 7.2322 22.2317 7.58663 21.8081C7.94105 21.3846 8.57173 21.3285 8.99529 21.683L10.7498 23.1512L12.9837 21.2819Z" fill="url(#paint18_radial_223_14278)"/>
<path fill-rule="evenodd" clip-rule="evenodd" d="M12.9837 21.2819C13.355 20.9711 13.8958 20.9711 14.2672 21.2819L16.501 23.1512L18.7348 21.2819C19.1062 20.9711 19.6469 20.9711 20.0183 21.2819L22.2521 23.1512L24.0066 21.683C24.4302 21.3285 25.0609 21.3846 25.4153 21.8081C25.7697 22.2317 25.7137 22.8624 25.2901 23.2168L22.8938 25.222C22.5224 25.5328 21.9817 25.5328 21.6103 25.222L19.3765 23.3528L17.1427 25.222C16.7713 25.5328 16.2306 25.5328 15.8592 25.222L13.6254 23.3528L11.3916 25.222C11.0202 25.5328 10.4795 25.5328 10.1081 25.222L7.71179 23.2168C7.28823 22.8624 7.2322 22.2317 7.58663 21.8081C7.94105 21.3846 8.57173 21.3285 8.99529 21.683L10.7498 23.1512L12.9837 21.2819Z" fill="url(#paint19_radial_223_14278)"/>
<path fill-rule="evenodd" clip-rule="evenodd" d="M12.9837 21.2819C13.355 20.9711 13.8958 20.9711 14.2672 21.2819L16.501 23.1512L18.7348 21.2819C19.1062 20.9711 19.6469 20.9711 20.0183 21.2819L22.2521 23.1512L24.0066 21.683C24.4302 21.3285 25.0609 21.3846 25.4153 21.8081C25.7697 22.2317 25.7137 22.8624 25.2901 23.2168L22.8938 25.222C22.5224 25.5328 21.9817 25.5328 21.6103 25.222L19.3765 23.3528L17.1427 25.222C16.7713 25.5328 16.2306 25.5328 15.8592 25.222L13.6254 23.3528L11.3916 25.222C11.0202 25.5328 10.4795 25.5328 10.1081 25.222L7.71179 23.2168C7.28823 22.8624 7.2322 22.2317 7.58663 21.8081C7.94105 21.3846 8.57173 21.3285 8.99529 21.683L10.7498 23.1512L12.9837 21.2819Z" fill="url(#paint20_radial_223_14278)"/>
<path fill-rule="evenodd" clip-rule="evenodd" d="M12.9837 21.2819C13.355 20.9711 13.8958 20.9711 14.2672 21.2819L16.501 23.1512L18.7348 21.2819C19.1062 20.9711 19.6469 20.9711 20.0183 21.2819L22.2521 23.1512L24.0066 21.683C24.4302 21.3285 25.0609 21.3846 25.4153 21.8081C25.7697 22.2317 25.7137 22.8624 25.2901 23.2168L22.8938 25.222C22.5224 25.5328 21.9817 25.5328 21.6103 25.222L19.3765 23.3528L17.1427 25.222C16.7713 25.5328 16.2306 25.5328 15.8592 25.222L13.6254 23.3528L11.3916 25.222C11.0202 25.5328 10.4795 25.5328 10.1081 25.222L7.71179 23.2168C7.28823 22.8624 7.2322 22.2317 7.58663 21.8081C7.94105 21.3846 8.57173 21.3285 8.99529 21.683L10.7498 23.1512L12.9837 21.2819Z" fill="url(#paint21_radial_223_14278)"/>
<path fill-rule="evenodd" clip-rule="evenodd" d="M12.9328 9.5679C10.1804 7.91744 6.87578 8.89899 5.53041 11.1255C5.24479 11.5982 5.39644 12.2129 5.86913 12.4985C6.34182 12.7842 6.95655 12.6325 7.24218 12.1598C7.99808 10.9089 10.0643 10.1795 11.9047 11.2834L11.9058 11.284C13.3896 12.1715 13.6538 13.6652 13.0265 14.5627C12.7102 15.0154 12.8207 15.6389 13.2734 15.9552C13.7261 16.2716 14.3495 16.1611 14.6659 15.7084C16.1372 13.6032 15.1217 10.8773 12.9328 9.5679Z" fill="url(#paint22_radial_223_14278)"/>
<path fill-rule="evenodd" clip-rule="evenodd" d="M7.09059 17.53C9.012 19.9324 12.2911 19.5266 14.0878 17.904C14.7026 17.3488 14.7509 16.4003 14.1957 15.7854C13.6404 15.1706 12.6919 15.1223 12.0771 15.6776C11.2208 16.4509 10.0081 16.3751 9.43319 15.6559L9.4318 15.6541C8.95383 15.0581 9.04549 14.1711 9.65588 13.6794C10.3011 13.1598 10.4028 12.2155 9.88317 11.5703C9.36353 10.9252 8.41925 10.8234 7.77407 11.343C5.88497 12.8646 5.57103 15.6339 7.09059 17.53Z" fill="url(#paint23_radial_223_14278)"/>
<path fill-rule="evenodd" clip-rule="evenodd" d="M20.6239 9.18513C19.3921 9.77448 18.3906 10.8042 17.824 11.8833C17.5673 12.3723 17.7556 12.9768 18.2445 13.2336C18.7335 13.4903 19.3381 13.302 19.5948 12.813C19.9726 12.0934 20.6661 11.382 21.4871 10.9893C22.2823 10.6088 23.1518 10.5417 24.0125 10.99L24.0137 10.9906C24.4671 11.226 25.0468 11.6565 25.5348 12.1475C26.0568 12.6727 26.3086 13.1018 26.351 13.3059C26.4634 13.8467 26.9929 14.1939 27.5336 14.0815C28.0743 13.9691 28.4216 13.4396 28.3092 12.8989C28.1418 12.0937 27.5264 11.3142 26.9533 10.7376C26.3464 10.1269 25.6034 9.56258 24.9359 9.21586C23.4217 8.42747 21.8812 8.58356 20.6239 9.18513Z" fill="url(#paint24_radial_223_14278)"/>
<path fill-rule="evenodd" clip-rule="evenodd" d="M20.9396 19.0872C22.1973 19.37 23.7055 19.2438 24.8452 18.2253C25.463 17.6733 25.5163 16.7251 24.9643 16.1073C24.4123 15.4896 23.464 15.4363 22.8463 15.9883C22.6521 16.1619 22.246 16.306 21.5978 16.1603C20.9617 16.0173 20.3119 15.6294 19.8819 15.0991L19.8805 15.0974C19.5599 14.7032 19.2875 14.1503 19.1782 13.629C19.0632 13.0807 19.1737 12.8329 19.2226 12.7683C19.7227 12.1079 19.5928 11.167 18.9324 10.6669C18.272 10.1667 17.3312 10.2966 16.831 10.9571C16.0463 11.9932 16.0363 13.2637 16.242 14.2447C16.4534 15.2526 16.9428 16.2399 17.5531 16.9903C18.4235 18.0628 19.6705 18.8018 20.9396 19.0872Z" fill="url(#paint25_radial_223_14278)"/>
<path fill-rule="evenodd" clip-rule="evenodd" d="M22.4459 12.9254C22.9797 12.8065 23.3198 12.2799 23.2068 11.7434C23.093 11.203 22.5627 10.8571 22.0223 10.9709C21.0183 11.1822 20.4908 12.083 20.3519 12.7923C20.2773 13.1733 20.2833 13.6206 20.4587 14.0413C20.6457 14.4901 21.0161 14.8732 21.56 15.037C22.0888 15.1962 22.6466 14.8966 22.8058 14.3677C22.9465 13.9005 22.729 13.4107 22.3117 13.1931C22.3125 13.1878 22.3135 13.1823 22.3146 13.1765C22.3316 13.0901 22.3706 13.0104 22.412 12.9596C22.4282 12.9397 22.4399 12.9298 22.4459 12.9254ZM22.4487 12.9235C22.4499 12.9228 22.4506 12.9225 22.4506 12.9226C22.4506 12.9226 22.45 12.923 22.4487 12.9235Z" fill="url(#paint26_radial_223_14278)"/>
<path fill-rule="evenodd" clip-rule="evenodd" d="M24.3294 11.3685C24.9955 11.808 25.4365 12.503 25.6153 13.3143C25.7341 13.8536 25.3932 14.3872 24.8539 14.5061C24.3146 14.6249 23.781 14.284 23.6621 13.7447C23.5809 13.3759 23.4069 13.156 23.228 13.0379C23.0516 12.9215 22.7923 12.8523 22.436 12.9278C21.8957 13.0422 21.3649 12.697 21.2504 12.1567C21.136 11.6164 21.4812 11.0857 22.0215 10.9712C22.8452 10.7967 23.6608 10.9274 24.3294 11.3685Z" fill="url(#paint27_radial_223_14278)"/>
<path fill-rule="evenodd" clip-rule="evenodd" d="M24.4279 12.5521C24.9677 12.4354 25.5 12.7784 25.6167 13.3182C26.0533 15.3375 24.7709 17.3301 22.7506 17.7669C22.2108 17.8836 21.6786 17.5406 21.5619 17.0008C21.4451 16.461 21.7881 15.9288 22.3279 15.8121C23.2676 15.6089 23.8652 14.6815 23.6619 13.7408C23.5451 13.201 23.8881 12.6688 24.4279 12.5521Z" fill="url(#paint28_radial_223_14278)"/>
<path fill-rule="evenodd" clip-rule="evenodd" d="M18.2576 13.1927C18.7974 13.076 19.3297 13.419 19.4464 13.9588C19.7294 15.2677 21.0162 16.0963 22.3276 15.8127C22.8674 15.696 23.3997 16.039 23.5164 16.5788C23.6331 17.1186 23.2901 17.6508 22.7503 17.7675C20.3618 18.284 18.0085 16.7726 17.4915 14.3815C17.3748 13.8417 17.7178 13.3094 18.2576 13.1927Z" fill="url(#paint29_radial_223_14278)"/>
<path fill-rule="evenodd" clip-rule="evenodd" d="M21.5367 8.10252C25.1229 7.32121 27.9902 10.1419 28.4667 13.164C28.5528 13.7095 28.1802 14.2215 27.6347 14.3075C27.0892 14.3936 26.5772 14.021 26.4911 13.4755C26.1477 11.2978 24.1554 9.57863 21.9619 10.0568L21.9605 10.0571C20.1898 10.4404 19.0632 12.1885 19.4463 13.9582C19.5631 14.498 19.2203 15.0303 18.6805 15.1471C18.1407 15.2639 17.6084 14.9211 17.4916 14.3813C16.8747 11.5312 18.6878 8.71957 21.5367 8.10252Z" fill="url(#paint30_radial_223_14278)"/>
<path fill-rule="evenodd" clip-rule="evenodd" d="M10.5111 12.9254C9.97735 12.8065 9.63727 12.2799 9.75022 11.7434C9.864 11.203 10.3943 10.8571 10.9348 10.9709C11.9387 11.1822 12.4663 12.083 12.6051 12.7923C12.6797 13.1733 12.6737 13.6206 12.4984 14.0413C12.3113 14.4901 11.9409 14.8732 11.3971 15.037C10.8682 15.1962 10.3104 14.8966 10.1512 14.3677C10.0106 13.9005 10.2281 13.4107 10.6454 13.1931C10.6445 13.1878 10.6435 13.1823 10.6424 13.1765C10.6255 13.0901 10.5865 13.0104 10.5451 12.9596C10.5288 12.9397 10.5171 12.9298 10.5111 12.9254ZM10.5083 12.9235C10.5071 12.9228 10.5065 12.9225 10.5065 12.9226C10.5065 12.9226 10.5071 12.923 10.5083 12.9235Z" fill="url(#paint31_radial_223_14278)"/>
<path fill-rule="evenodd" clip-rule="evenodd" d="M8.62761 11.3685C7.96149 11.808 7.52049 12.503 7.34174 13.3143C7.2229 13.8536 7.56379 14.3872 8.10313 14.5061C8.64248 14.6249 9.17605 14.284 9.29489 13.7447C9.37613 13.3759 9.55013 13.156 9.72902 13.0379C9.90543 12.9215 10.1648 12.8523 10.521 12.9278C11.0613 13.0422 11.5921 12.697 11.7066 12.1567C11.8211 11.6164 11.4759 11.0857 10.9356 10.9712C10.1119 10.7967 9.29619 10.9274 8.62761 11.3685Z" fill="url(#paint32_radial_223_14278)"/>
<path fill-rule="evenodd" clip-rule="evenodd" d="M8.52909 12.5521C7.98928 12.4354 7.45706 12.7784 7.34035 13.3182C6.90374 15.3375 8.18612 17.3301 10.2064 17.7669C10.7462 17.8836 11.2785 17.5406 11.3952 17.0008C11.5119 16.461 11.1689 15.9288 10.6291 15.8121C9.6894 15.6089 9.09179 14.6815 9.29518 13.7408C9.41189 13.201 9.06891 12.6688 8.52909 12.5521Z" fill="url(#paint33_radial_223_14278)"/>
<path fill-rule="evenodd" clip-rule="evenodd" d="M14.6994 13.1927C14.1596 13.076 13.6274 13.419 13.5107 13.9588C13.2277 15.2677 11.9409 16.0963 10.6294 15.8127C10.0896 15.696 9.55737 16.039 9.44066 16.5788C9.32394 17.1186 9.66693 17.6508 10.2067 17.7675C12.5953 18.284 14.9485 16.7726 15.4655 14.3815C15.5822 13.8417 15.2392 13.3094 14.6994 13.1927Z" fill="url(#paint34_radial_223_14278)"/>
<path fill-rule="evenodd" clip-rule="evenodd" d="M11.4204 8.10252C7.83414 7.32121 4.96686 10.1419 4.4903 13.164C4.40427 13.7095 4.77679 14.2215 5.32233 14.3075C5.86787 14.3936 6.37986 14.021 6.46589 13.4755C6.8093 11.2978 8.80167 9.57863 10.9951 10.0568L10.9965 10.0571C12.7673 10.4404 13.8938 12.1885 13.5107 13.9582C13.3939 14.498 13.7368 15.0303 14.2765 15.1471C14.8163 15.2639 15.3486 14.9211 15.4655 14.3813C16.0824 11.5312 14.2692 8.71957 11.4204 8.10252Z" fill="url(#paint35_radial_223_14278)"/>
<defs>
<radialGradient id="paint0_radial_223_14278" cx="0" cy="0" r="1" gradientUnits="userSpaceOnUse" gradientTransform="translate(26.0078 9) rotate(132.839) scale(37.5033)">
<stop stop-color="#FFF478"/>
<stop offset="0.474827" stop-color="#FFB02E"/>
<stop offset="1" stop-color="#F70A8D"/>
</radialGradient>
<radialGradient id="paint1_radial_223_14278" cx="0" cy="0" r="1" gradientUnits="userSpaceOnUse" gradientTransform="translate(10.7806 12.8906) rotate(87.4266) scale(1.39203)">
<stop stop-color="#BB6A1B"/>
<stop offset="1" stop-color="#BB6A1B" stop-opacity="0"/>
</radialGradient>
<radialGradient id="paint2_radial_223_14278" cx="0" cy="0" r="1" gradientUnits="userSpaceOnUse" gradientTransform="translate(10.8587 14.4375) rotate(100.751) scale(1.25643)">
<stop stop-color="#BB6A1B"/>
<stop offset="1" stop-color="#BB6A1B" stop-opacity="0"/>
</radialGradient>
<radialGradient id="paint3_radial_223_14278" cx="0" cy="0" r="1" gradientUnits="userSpaceOnUse" gradientTransform="translate(23.1556 12.6875) rotate(95.4774) scale(2.29171)">
<stop stop-color="#BB6A1B"/>
<stop offset="1" stop-color="#BB6A1B" stop-opacity="0"/>
</radialGradient>
<radialGradient id="paint4_radial_223_14278" cx="0" cy="0" r="1" gradientUnits="userSpaceOnUse" gradientTransform="translate(21.5619 14) rotate(89.0123) scale(1.81277)">
<stop offset="0.192273" stop-color="#BB6A1B"/>
<stop offset="1" stop-color="#BB6A1B" stop-opacity="0"/>
</radialGradient>
<radialGradient id="paint5_radial_223_14278" cx="0" cy="0" r="1" gradientUnits="userSpaceOnUse" gradientTransform="translate(16.5078 12.5) rotate(90) scale(17.8854)">
<stop offset="0.823911" stop-color="#F59639" stop-opacity="0"/>
<stop offset="1" stop-color="#FF63C4"/>
</radialGradient>
<radialGradient id="paint6_radial_223_14278" cx="0" cy="0" r="1" gradientUnits="userSpaceOnUse" gradientTransform="translate(16.5078 12.5) rotate(135.781) scale(18.4466 23.0312)">
<stop offset="0.823911" stop-color="#F59639" stop-opacity="0"/>
<stop offset="1" stop-color="#F17066"/>
</radialGradient>
<radialGradient id="paint7_radial_223_14278" cx="0" cy="0" r="1" gradientUnits="userSpaceOnUse" gradientTransform="translate(14.3886 23.9377) rotate(41.4964) scale(2.26567 1.18502)">
<stop stop-color="#CD6256"/>
<stop offset="1" stop-color="#CD6256" stop-opacity="0"/>
</radialGradient>
<radialGradient id="paint8_radial_223_14278" cx="0" cy="0" r="1" gradientUnits="userSpaceOnUse" gradientTransform="translate(20.0452 23.7854) rotate(38.8201) scale(2.42939 1.27066)">
<stop stop-color="#CD6256"/>
<stop offset="1" stop-color="#CD6256" stop-opacity="0"/>
</radialGradient>
<linearGradient id="paint9_linear_223_14278" x1="9.78506" y1="22.3279" x2="8.49991" y2="23.8982" gradientUnits="userSpaceOnUse">
<stop stop-color="#57434E" stop-opacity="0"/>
<stop offset="0.302083" stop-color="#57434E"/>
<stop offset="1" stop-color="#57434E" stop-opacity="0"/>
</linearGradient>
<linearGradient id="paint10_linear_223_14278" x1="15.5077" y1="22.2966" x2="14.203" y2="23.8513" gradientUnits="userSpaceOnUse">
<stop stop-color="#57434E" stop-opacity="0"/>
<stop offset="0.302083" stop-color="#57434E"/>
<stop offset="1" stop-color="#57434E" stop-opacity="0"/>
</linearGradient>
<linearGradient id="paint11_linear_223_14278" x1="21.1796" y1="22.2419" x2="19.8515" y2="23.7732" gradientUnits="userSpaceOnUse">
<stop stop-color="#57434E" stop-opacity="0"/>
<stop offset="0.302083" stop-color="#57434E"/>
<stop offset="1" stop-color="#57434E" stop-opacity="0"/>
</linearGradient>
<linearGradient id="paint12_linear_223_14278" x1="23.203" y1="22.3591" x2="24.5468" y2="23.8904" gradientUnits="userSpaceOnUse">
<stop stop-color="#57434E" stop-opacity="0"/>
<stop offset="0.302083" stop-color="#57434E"/>
<stop offset="1" stop-color="#57434E" stop-opacity="0"/>
</linearGradient>
<linearGradient id="paint13_linear_223_14278" x1="17.4999" y1="22.1873" x2="18.8398" y2="23.9294" gradientUnits="userSpaceOnUse">
<stop stop-color="#57434E" stop-opacity="0"/>
<stop offset="0.302083" stop-color="#57434E"/>
<stop offset="1" stop-color="#57434E" stop-opacity="0"/>
</linearGradient>
<linearGradient id="paint14_linear_223_14278" x1="11.7655" y1="22.2341" x2="13.0937" y2="23.8123" gradientUnits="userSpaceOnUse">
<stop stop-color="#57434E" stop-opacity="0"/>
<stop offset="0.302083" stop-color="#57434E"/>
<stop offset="1" stop-color="#57434E" stop-opacity="0"/>
</linearGradient>
<radialGradient id="paint15_radial_223_14278" cx="0" cy="0" r="1" gradientUnits="userSpaceOnUse" gradientTransform="translate(21.3437 25.1873) rotate(133.716) scale(1.23222)">
<stop stop-color="#4A2942"/>
<stop offset="1" stop-color="#4A2942" stop-opacity="0"/>
</radialGradient>
<radialGradient id="paint16_radial_223_14278" cx="0" cy="0" r="1" gradientUnits="userSpaceOnUse" gradientTransform="translate(23.2187 25.1873) rotate(40.4622) scale(1.04737)">
<stop stop-color="#4A2942"/>
<stop offset="1" stop-color="#4A2942" stop-opacity="0"/>
</radialGradient>
<radialGradient id="paint17_radial_223_14278" cx="0" cy="0" r="1" gradientUnits="userSpaceOnUse" gradientTransform="translate(17.4999 25.1404) rotate(48.2981) scale(1.63236)">
<stop stop-color="#4A2942"/>
<stop offset="1" stop-color="#4A2942" stop-opacity="0"/>
</radialGradient>
<radialGradient id="paint18_radial_223_14278" cx="0" cy="0" r="1" gradientUnits="userSpaceOnUse" gradientTransform="translate(15.3653 25.0168) rotate(135.405) scale(1.72904)">
<stop stop-color="#4A2942"/>
<stop stop-color="#4A2942" stop-opacity="0.937649"/>
<stop offset="1" stop-color="#4A2942" stop-opacity="0"/>
</radialGradient>
<radialGradient id="paint19_radial_223_14278" cx="0" cy="0" r="1" gradientUnits="userSpaceOnUse" gradientTransform="translate(11.7343 25.0935) rotate(35.5679) scale(1.71919)">
<stop stop-color="#4A2942"/>
<stop stop-color="#4A2942" stop-opacity="0.937649"/>
<stop offset="1" stop-color="#4A2942" stop-opacity="0"/>
</radialGradient>
<radialGradient id="paint20_radial_223_14278" cx="0" cy="0" r="1" gradientUnits="userSpaceOnUse" gradientTransform="translate(9.47647 24.9607) rotate(136.005) scale(1.57466)">
<stop stop-color="#4A2942"/>
<stop stop-color="#4A2942" stop-opacity="0.937649"/>
<stop offset="1" stop-color="#4A2942" stop-opacity="0"/>
</radialGradient>
<radialGradient id="paint21_radial_223_14278" cx="0" cy="0" r="1" gradientUnits="userSpaceOnUse" gradientTransform="translate(16.501 23.8435) rotate(90) scale(3.15625 10.6815)">
<stop offset="0.745174" stop-color="#4A2942" stop-opacity="0"/>
<stop offset="1" stop-color="#4A2942"/>
</radialGradient>
<radialGradient id="paint22_radial_223_14278" cx="0" cy="0" r="1" gradientUnits="userSpaceOnUse" gradientTransform="translate(10.2708 13.3047) rotate(-69.4556) scale(4.26885 5.29781)">
<stop offset="0.62766" stop-color="#BB6A1B" stop-opacity="0"/>
<stop offset="0.857447" stop-color="#BB6A1B"/>
<stop offset="1" stop-color="#BB6A1B" stop-opacity="0"/>
</radialGradient>
<radialGradient id="paint23_radial_223_14278" cx="0" cy="0" r="1" gradientUnits="userSpaceOnUse" gradientTransform="translate(10.7582 14.6889) rotate(129.268) scale(4.11223 4.27838)">
<stop offset="0.457879" stop-color="#BB6A1B" stop-opacity="0"/>
<stop offset="0.705179" stop-color="#BB6A1B"/>
<stop offset="1" stop-color="#BB6A1B" stop-opacity="0"/>
</radialGradient>
<radialGradient id="paint24_radial_223_14278" cx="0" cy="0" r="1" gradientUnits="userSpaceOnUse" gradientTransform="translate(22.5401 13.271) rotate(-72.8976) scale(4.26885 6.45257)">
<stop offset="0.62766" stop-color="#BB6A1B" stop-opacity="0"/>
<stop offset="0.857447" stop-color="#BB6A1B"/>
<stop offset="1" stop-color="#BB6A1B" stop-opacity="0"/>
</radialGradient>
<radialGradient id="paint25_radial_223_14278" cx="0" cy="0" r="1" gradientUnits="userSpaceOnUse" gradientTransform="translate(20.8644 14.0715) rotate(116.019) scale(4.21691 4.19668)">
<stop offset="0.457879" stop-color="#BB6A1B" stop-opacity="0"/>
<stop offset="0.705179" stop-color="#BB6A1B"/>
<stop offset="1" stop-color="#BB6A1B" stop-opacity="0"/>
</radialGradient>
<radialGradient id="paint26_radial_223_14278" cx="0" cy="0" r="1" gradientUnits="userSpaceOnUse" gradientTransform="translate(22.8942 13.0144) rotate(-85.832) scale(1.78977 2.23624)">
<stop offset="0.490314" stop-color="#482641"/>
<stop offset="0.810468" stop-color="#573B4A"/>
<stop offset="1" stop-color="#483637"/>
</radialGradient>
<radialGradient id="paint27_radial_223_14278" cx="0" cy="0" r="1" gradientUnits="userSpaceOnUse" gradientTransform="translate(22.7291 13.5294) rotate(-64.7698) scale(2.60783 2.35053)">
<stop offset="0.46929" stop-color="#482641"/>
<stop offset="0.814184" stop-color="#573B4A"/>
<stop offset="1" stop-color="#483637"/>
</radialGradient>
<radialGradient id="paint28_radial_223_14278" cx="0" cy="0" r="1" gradientUnits="userSpaceOnUse" gradientTransform="translate(21.7837 14.0204) rotate(-1.70699) scale(3.57291 3.75371)">
<stop offset="0.62766" stop-color="#482641"/>
<stop offset="0.857447" stop-color="#573B4A"/>
<stop offset="1" stop-color="#483637"/>
</radialGradient>
<radialGradient id="paint29_radial_223_14278" cx="0" cy="0" r="1" gradientUnits="userSpaceOnUse" gradientTransform="translate(21.736 13.4769) rotate(90) scale(4.17443 4.09165)">
<stop offset="0.62766" stop-color="#482641"/>
<stop offset="0.857447" stop-color="#573B4A"/>
<stop offset="1" stop-color="#483637"/>
</radialGradient>
<radialGradient id="paint30_radial_223_14278" cx="0" cy="0" r="1" gradientUnits="userSpaceOnUse" gradientTransform="translate(22.8476 13.5712) rotate(-90) scale(5.55802 5.2742)">
<stop offset="0.62766" stop-color="#482641"/>
<stop offset="0.857447" stop-color="#573B4A"/>
<stop offset="1" stop-color="#483637"/>
</radialGradient>
<radialGradient id="paint31_radial_223_14278" cx="0" cy="0" r="1" gradientUnits="userSpaceOnUse" gradientTransform="translate(10.0628 13.0144) rotate(-94.168) scale(1.78977 2.23624)">
<stop offset="0.490314" stop-color="#482641"/>
<stop offset="0.810468" stop-color="#573B4A"/>
<stop offset="1" stop-color="#483637"/>
</radialGradient>
<radialGradient id="paint32_radial_223_14278" cx="0" cy="0" r="1" gradientUnits="userSpaceOnUse" gradientTransform="translate(10.2279 13.5294) rotate(-115.23) scale(2.60783 2.35053)">
<stop offset="0.46929" stop-color="#482641"/>
<stop offset="0.814184" stop-color="#573B4A"/>
<stop offset="1" stop-color="#483637"/>
</radialGradient>
<radialGradient id="paint33_radial_223_14278" cx="0" cy="0" r="1" gradientUnits="userSpaceOnUse" gradientTransform="translate(11.1734 14.0204) rotate(-178.293) scale(3.57291 3.75371)">
<stop offset="0.62766" stop-color="#482641"/>
<stop offset="0.857447" stop-color="#573B4A"/>
<stop offset="1" stop-color="#483637"/>
</radialGradient>
<radialGradient id="paint34_radial_223_14278" cx="0" cy="0" r="1" gradientUnits="userSpaceOnUse" gradientTransform="translate(11.221 13.4769) rotate(90) scale(4.17443 4.09165)">
<stop offset="0.62766" stop-color="#482641"/>
<stop offset="0.857447" stop-color="#573B4A"/>
<stop offset="1" stop-color="#483637"/>
</radialGradient>
<radialGradient id="paint35_radial_223_14278" cx="0" cy="0" r="1" gradientUnits="userSpaceOnUse" gradientTransform="translate(10.1094 13.5712) rotate(-90) scale(5.55802 5.2742)">
<stop offset="0.62766" stop-color="#482641"/>
<stop offset="0.857447" stop-color="#573B4A"/>
<stop offset="1" stop-color="#483637"/>
</radialGradient>
</defs>
</svg>
