<svg width="20" height="20" viewBox="0 0 20 20" fill="none" xmlns="http://www.w3.org/2000/svg">
<path d="M13.4338 9.1397C13.3142 9.08825 13.2195 8.9922 13.1696 8.87197C13.1197 8.75174 13.1187 8.6168 13.1667 8.49584C13.2148 8.37487 13.3081 8.2774 13.4269 8.22416C13.5457 8.17091 13.6805 8.16608 13.8028 8.2107C14.2095 8.37198 14.5759 8.62025 14.8765 8.9381C15.177 9.25594 15.4045 9.63568 15.5428 10.0507L16.8768 14.0507C17.0272 14.5018 17.0683 14.9823 16.9965 15.4524C16.9248 15.9225 16.7423 16.3688 16.4641 16.7545C16.1859 17.1402 15.82 17.4543 15.3966 17.6708C14.9732 17.8873 14.5044 18 14.0288 17.9997H5.96881C5.49342 17.9997 5.02483 17.8867 4.60167 17.6701C4.17851 17.4535 3.81289 17.1394 3.53494 16.7537C3.257 16.368 3.07468 15.9218 3.00303 15.4519C2.93137 14.9819 2.97242 14.5017 3.12281 14.0507L4.45581 10.0507C4.59656 9.62824 4.82959 9.24242 5.13799 8.92122C5.44639 8.60002 5.82242 8.3515 6.23881 8.1937C6.3002 8.17039 6.36558 8.1594 6.43122 8.16136C6.49686 8.16331 6.56147 8.17818 6.62137 8.20511C6.68126 8.23204 6.73526 8.2705 6.78029 8.3183C6.82532 8.3661 6.8605 8.4223 6.88381 8.4837C6.90712 8.54509 6.91811 8.61047 6.91615 8.67611C6.91419 8.74175 6.89932 8.80636 6.87239 8.86626C6.84546 8.92615 6.807 8.98015 6.7592 9.02518C6.7114 9.07021 6.6552 9.10539 6.59381 9.12869C6.31586 9.23384 6.06485 9.3996 5.859 9.61392C5.65315 9.82824 5.49765 10.0857 5.40381 10.3677L4.07081 14.3677C3.97066 14.6684 3.9434 14.9885 3.99127 15.3018C4.03914 15.6151 4.16076 15.9125 4.34612 16.1695C4.53148 16.4265 4.77527 16.6359 5.05739 16.7802C5.33952 16.9245 5.6519 16.9998 5.96881 16.9997H14.0308C14.3477 16.9997 14.6601 16.9243 14.9422 16.7799C15.2243 16.6354 15.4681 16.426 15.6533 16.1688C15.8386 15.9117 15.9601 15.6142 16.0078 15.3008C16.0555 14.9875 16.0281 14.6673 15.9278 14.3667L14.5958 10.3667C14.5035 10.0901 14.3518 9.83712 14.1515 9.62534C13.9511 9.41356 13.7068 9.24815 13.4358 9.1407" fill="#CFDCEB"/>
<path fill-rule="evenodd" clip-rule="evenodd" d="M9.99805 8.5C10.5285 8.5 11.0372 8.28929 11.4123 7.91421C11.7873 7.53914 11.998 7.03043 11.998 6.5C11.998 5.96957 11.7873 5.46086 11.4123 5.08579C11.0372 4.71071 10.5285 4.5 9.99805 4.5C9.46761 4.5 8.95891 4.71071 8.58383 5.08579C8.20876 5.46086 7.99805 5.96957 7.99805 6.5C7.99805 7.03043 8.20876 7.53914 8.58383 7.91421C8.95891 8.28929 9.46761 8.5 9.99805 8.5ZM9.99805 5.5C10.2633 5.5 10.5176 5.60536 10.7052 5.79289C10.8927 5.98043 10.998 6.23478 10.998 6.5C10.998 6.76522 10.8927 7.01957 10.7052 7.20711C10.5176 7.39464 10.2633 7.5 9.99805 7.5C9.73283 7.5 9.47848 7.39464 9.29094 7.20711C9.1034 7.01957 8.99805 6.76522 8.99805 6.5C8.99805 6.23478 9.1034 5.98043 9.29094 5.79289C9.47848 5.60536 9.73283 5.5 9.99805 5.5Z" fill="#2E80EC"/>
<path fill-rule="evenodd" clip-rule="evenodd" d="M5.49805 6.286C5.49805 8.959 8.15105 13.5 9.99805 13.5C11.846 13.5 14.498 8.959 14.498 6.286C14.498 3.65 12.491 1.5 9.99805 1.5C7.50505 1.5 5.49805 3.65 5.49805 6.286ZM13.498 6.286C13.498 8.479 11.15 12.5 9.99805 12.5C8.84705 12.5 6.49805 8.48 6.49805 6.286C6.49805 4.187 8.07305 2.5 9.99805 2.5C11.923 2.5 13.498 4.187 13.498 6.286Z" fill="#2E80EC"/>
</svg>
