<svg width="14" height="18" viewBox="0 0 14 18" fill="none" xmlns="http://www.w3.org/2000/svg">
<path d="M9.30469 1.25098C9.34284 1.25376 9.3882 1.26497 9.43262 1.28809C9.48925 1.30867 9.53793 1.34843 9.56738 1.40234C9.62561 1.50936 9.6043 1.61459 9.58594 1.6709C9.56702 1.72871 9.53679 1.78089 9.51367 1.81738C9.48988 1.85493 9.4604 1.89623 9.43945 1.92676C9.41604 1.96087 9.39794 1.98791 9.38477 2.01172C9.30582 2.15446 9.23553 2.28201 9.18164 2.41504C9.06526 2.70248 8.97671 2.98348 8.92871 3.27637L8.92773 3.28027C8.82271 3.85538 8.86497 4.455 9.09277 4.98242L9.09766 4.99316L9.14746 5.1123C9.27475 5.38758 9.47173 5.63893 9.69531 5.83496C9.95134 6.05943 10.2212 6.19192 10.4355 6.2207C10.6878 6.24309 10.9889 6.05341 11.1582 5.78418L11.1592 5.7832C11.1727 5.76183 11.1969 5.72117 11.2178 5.69238C11.2376 5.66507 11.285 5.60197 11.3672 5.56738C11.4676 5.52516 11.5618 5.54611 11.626 5.57617C11.6773 5.6002 11.7217 5.63664 11.7588 5.66895H11.7598C12.6265 6.36044 12.7564 7.54298 12.5576 8.50781C12.5268 8.82307 12.385 9.13345 12.2178 9.41699C12.0441 9.71141 11.8237 10.0102 11.6357 10.2793C11.4413 10.5577 11.2812 10.804 11.1953 11.0215C11.1316 11.1829 11.12 11.3002 11.1436 11.3916L11.1787 11.4756L11.1816 11.4805C11.1976 11.5087 11.2668 11.5642 11.4277 11.5615C11.5792 11.559 11.7282 11.5023 11.8115 11.4229L11.8301 11.4072C11.9204 11.3365 12.0179 11.2308 12.0957 11.1279L12.1172 11.1035C12.1234 11.0972 12.1326 11.0846 12.1562 11.0537C12.1739 11.0306 12.2053 10.9886 12.2412 10.9541C12.2667 10.9296 12.3566 10.8458 12.4902 10.8545C12.6079 10.8623 12.6806 10.9328 12.7217 10.9922L12.7529 11.0449L12.7705 11.0938C12.9389 11.7503 12.8914 12.4818 12.7168 13.0801C12.3844 14.2432 11.5498 15.1677 10.5615 15.7891L10.5605 15.7881C8.62064 17.0348 6.18854 17.0159 4.2832 16.0391C2.36984 15.0581 0.975319 13.1039 1.1377 10.4893C1.18208 9.75019 1.30737 9.04177 1.61719 8.34668C1.87856 7.74247 2.23845 7.18476 2.66992 6.7002L2.6709 6.69824C2.87634 6.47114 3.09499 6.25825 3.33398 6.07129C3.37806 6.03677 3.4193 5.99612 3.47559 5.94238C3.52831 5.89204 3.59353 5.83119 3.66895 5.77637C3.72022 5.73912 3.81787 5.66413 3.93945 5.63184L4 5.61816C4.02232 5.61463 4.04678 5.61264 4.07227 5.61328C4.12393 5.61461 4.20971 5.62941 4.28027 5.70117C4.35159 5.7737 4.36469 5.86135 4.36426 5.91602C4.36378 5.9677 4.35072 6.01488 4.33887 6.05176L4.33984 6.05273C4.275 6.26 4.21451 6.42964 4.18359 6.60254L4.18164 6.61035C4.14701 6.77238 4.15297 6.94979 4.18359 7.12109H4.18262C4.25968 7.53307 4.60139 7.81962 4.97363 7.94141L5.13477 7.9834L5.1416 7.98438C5.32845 8.02639 5.4634 8.01133 5.55957 7.97363C5.65445 7.93629 5.73211 7.86942 5.79297 7.77148C5.9206 7.56606 5.9665 7.23587 5.91113 6.87793C5.8929 6.75925 5.86656 6.6743 5.83301 6.57812C5.79891 6.4804 5.75499 6.36333 5.7168 6.20312L5.71484 6.19824C5.61351 5.72981 5.59527 5.24054 5.67871 4.75C5.69773 4.62559 5.71802 4.54874 5.75098 4.40918L5.75391 4.39746C6.03774 3.40656 6.84127 2.66985 7.59863 2.15039L7.85059 1.98438C8.10684 1.82181 8.37519 1.67073 8.64844 1.53516L8.65332 1.53223C8.6927 1.51374 8.73211 1.49039 8.78613 1.45605C8.83 1.42817 8.88655 1.39386 8.94922 1.3623V1.36133C8.97611 1.34492 9.05005 1.30205 9.13184 1.27539C9.17089 1.26268 9.23447 1.24594 9.30469 1.25098Z" fill="url(#paint0_linear_999_2471)" stroke="#4388F7" stroke-width="0.5" stroke-miterlimit="10" stroke-linejoin="round"/>
<path d="M3.20158 8.07912C3.15836 8.01759 3.06329 8.01759 3.02872 8.07912C2.80399 8.43951 2.24219 9.48553 2.24219 10.637C2.24219 11.7885 3.3053 15.3837 7.212 15.3837C11.1187 15.3837 10.9891 14.3816 11.6632 13.4586C11.7064 13.3971 11.6632 13.3004 11.5941 13.2916C11.2224 13.2389 10.4013 12.984 10.4013 11.7973C10.4013 10.6107 11.9485 10.0129 11.1533 7.93848C11.1274 7.86816 11.0323 7.84179 10.9804 7.90332C10.6606 8.21976 9.76174 9.02845 9.5543 8.16702C9.46787 7.78905 9.79631 7.46382 8.75049 6.14531C7.83431 5.0026 7.49723 4.62463 7.45401 3.97416C7.4108 3.3237 7.31572 3.83352 7.25522 3.92142C7.06507 4.22907 6.80578 4.78285 6.85763 5.50363C6.94407 6.61997 7.09964 8.02638 5.96739 8.65048C4.87835 9.25699 3.8671 9.01087 3.21887 8.07912H3.20158Z" fill="url(#paint1_linear_999_2471)"/>
<path d="M7.97484 8.46697C8.00077 8.37907 8.12178 8.38786 8.13906 8.47576C8.19092 8.77462 8.24278 9.22291 8.24278 9.7679C8.24278 10.7875 7.43897 12.2467 8.05263 12.8708C8.60579 13.4334 9.31453 13.3806 9.83312 13.2224C10.3517 13.0642 9.96277 13.2663 9.93684 13.3367C9.75533 13.8025 9.10709 15.0859 7.30067 15.0859C5.49425 15.0859 4.51758 13.4421 4.51758 12.4313C4.51758 11.4204 4.94109 10.9985 5.1831 10.6557C5.42511 10.3129 5.33868 10.6205 5.33868 10.7084C5.33868 11.0776 5.38189 11.7457 5.6844 12.1412C5.98692 12.5368 5.81405 12.1852 5.83134 12.1148C5.96098 11.6841 6.37586 10.3832 6.90309 9.86459C7.40439 9.37234 7.81062 8.95042 7.97484 8.47576V8.46697Z" fill="url(#paint2_linear_999_2471)"/>
<defs>
<linearGradient id="paint0_linear_999_2471" x1="6.98812" y1="16.5" x2="6.98812" y2="1.49535" gradientUnits="userSpaceOnUse">
<stop stop-color="#67FFAE"/>
<stop offset="1" stop-color="#01D4EA"/>
</linearGradient>
<linearGradient id="paint1_linear_999_2471" x1="6.95271" y1="15.3837" x2="6.95271" y2="3.86868" gradientUnits="userSpaceOnUse">
<stop stop-color="#1DD5B0"/>
<stop offset="1" stop-color="#048FE2"/>
</linearGradient>
<linearGradient id="paint2_linear_999_2471" x1="7.23153" y1="15.0859" x2="7.23153" y2="8.41423" gradientUnits="userSpaceOnUse">
<stop stop-color="#6EFDC4"/>
<stop offset="1" stop-color="#1AE5D7"/>
</linearGradient>
</defs>
</svg>
