<svg width="38" height="16" viewBox="0 0 38 16" fill="none" xmlns="http://www.w3.org/2000/svg">
<g clip-path="url(#clip0_486_5034)">
<path fill-rule="evenodd" clip-rule="evenodd" d="M30.0887 16.0039H7.92694C3.55369 16.0039 0.0078125 12.4218 0.0078125 8.00391C0.0078125 3.586 3.55369 0.00390625 7.92694 0.00390625H30.1084C34.4816 0.00390625 38.0275 3.586 38.0275 8.00391C38.0275 12.4218 34.4619 16.0039 30.0887 16.0039Z" fill="#FFEB00"/>
<path fill-rule="evenodd" clip-rule="evenodd" d="M8.88837 3.84375C6.50475 3.84375 4.57422 5.37609 4.57422 7.28654C4.57422 8.50047 5.38189 9.57509 6.58355 10.192L6.16986 11.7442C6.15016 11.784 6.16986 11.8438 6.20926 11.8836C6.22896 11.9035 6.26836 11.9234 6.28806 11.9234C6.30776 11.9234 6.34716 11.9035 6.36686 11.9035L8.1201 10.7094C8.37619 10.7492 8.63228 10.7691 8.90807 10.7691C11.2917 10.7691 13.2222 9.21688 13.2222 7.32634C13.2222 5.37609 11.2917 3.84375 8.88837 3.84375Z" fill="black"/>
<path d="M16.865 10.1496V12.3785H15.2891V4.15957H16.3922L16.5892 4.67699C16.9241 4.33868 17.4363 3.98047 18.244 3.98047C19.7805 3.98047 20.5094 5.1347 20.5094 7.02524C20.5094 8.99539 19.3865 10.2491 17.7712 10.2491C17.456 10.269 17.2196 10.2491 16.865 10.1496ZM16.865 5.49291V9.0352C16.9438 9.0551 17.1605 9.075 17.3772 9.075C18.5001 9.075 18.9334 8.27898 18.9334 7.02524C18.9334 5.93072 18.6379 5.274 17.7515 5.274C17.4363 5.274 17.1211 5.3536 16.865 5.49291Z" fill="black"/>
<path d="M23.9193 6.48719H24.8057V6.28819C24.8057 5.63147 24.4315 5.33296 23.8011 5.33296C23.3086 5.33296 22.6979 5.47227 22.1857 5.73097L21.7524 4.67625C22.3039 4.27824 23.1707 4.01953 23.939 4.01953C25.4361 4.01953 26.2635 4.81555 26.2635 6.34789V10.1091H25.1603L25.0027 9.61157C24.3724 10.0693 23.7814 10.2683 23.2692 10.2683C22.1266 10.2683 21.4766 9.57177 21.4766 8.39764C21.4766 7.14391 22.3236 6.48719 23.9193 6.48719ZM24.8254 8.57674V7.48222H24.0966C23.2889 7.48222 22.8752 7.78073 22.8752 8.35784C22.8752 8.79565 23.0919 9.01456 23.5647 9.01456C23.9981 9.03446 24.5497 8.81555 24.8254 8.57674Z" fill="black"/>
<path d="M31.0295 9.49365C30.478 10.9663 29.8279 12.0409 28.8626 12.6379L27.8973 11.7424C28.4489 11.2449 28.8626 10.7673 29.1975 10.1305L27.1094 4.37922L28.6656 3.96131L30.0052 8.61802L31.325 3.94141L32.8616 4.37922L31.0295 9.49365Z" fill="black"/>
</g>
<defs>
<clipPath id="clip0_486_5034">
<rect width="38" height="16" fill="white"/>
</clipPath>
</defs>
</svg>
