<svg width="192" height="372" viewBox="0 0 192 372" fill="none" xmlns="http://www.w3.org/2000/svg">
<path d="M150.9 0.100098H49.1996C43.3996 0.100098 38.5996 4.9001 38.5996 10.7001V139C40.0996 136.7 41.2996 134.3 40.7996 131.3C40.5996 130.3 40.7996 129.2 40.7996 128.1C40.8996 128.1 41.0996 128 41.1996 127.9V10.7001C41.1996 6.3001 44.7996 2.7001 49.1996 2.7001H150.9C155.3 2.7001 158.9 6.3001 158.9 10.7001V111.4C159.4 108.1 160 104.8 159.9 101.6C159.9 99.3001 160.3 97.9001 161.5 97.1001V10.8001C161.5 5.0001 156.7 0.200096 150.9 0.200096V0.100098ZM38.5996 226.1C39.4996 225.1 40.2996 224 41.1996 223V218.5C40.2996 219.6 39.4996 220.7 38.5996 221.8V226.1ZM40.9996 168.4C40.9996 168.4 41.1996 168.6 41.1996 168.7V168C41.1996 168 41.0996 168.2 40.9996 168.4ZM158.9 171.1V174.7C159.3 174.4 159.7 174 160.1 173.7C160.6 173.3 161 172.9 161.5 172.5V168.9C160.6 169.7 159.8 170.4 158.9 171.2V171.1ZM158.9 213.3V217.2C159.8 216.4 160.6 215.5 161.5 214.7V210.8C160.6 211.7 159.8 212.5 158.9 213.4V213.3Z" fill="#5C5C5C"/>
<path d="M146.7 181.7C143.5 184.7 140.3 187.6 137.2 190.6C135.3 192.4 134 195.1 130.9 195.5C130.2 195.6 129.6 197 128.6 198.2C132.6 198.9 135.2 197.2 136.9 195C141 189.9 145.9 185.6 150.8 181.5V180.2L146.6 181.7H146.7ZM150.9 177.8V180.2L153.5 179.3V175.6C152.6 176.3 151.8 177.1 150.9 177.8ZM47.0996 211.1C46.8996 211.3 46.7996 211.5 46.5996 211.7V216.7C47.3996 215.7 48.2996 214.7 49.1996 213.7V208.8C48.4996 209.6 47.6996 210.3 47.0996 211.1ZM143.8 9.5001H56.2996C50.9996 9.5001 46.5996 13.9001 46.5996 19.2001V174.8C48.0996 177.1 48.5996 179.7 49.1996 182.4V19.2001C49.1996 15.3001 52.3996 12.1001 56.2996 12.1001H143.8C147.7 12.1001 150.9 15.3001 150.9 19.2001V124.8C151.7 123.6 152.6 122.4 153.5 121.2V19.2001C153.5 13.9001 149.2 9.5001 143.8 9.5001Z" fill="#5C5C5C"/>
<path d="M190.899 173.4C191.699 168.7 192.699 163.4 189.499 158.8C187.199 155.6 185.699 151.8 181.299 150.6C179.999 150.2 177.599 150 178.299 147.5C179.399 143.3 180.799 139.1 181.999 134.8C182.999 131 183.999 127.3 184.599 123.4C185.599 117.6 180.999 113.2 179.499 108.1C178.499 104.8 176.799 101.9 174.699 99.3001C173.699 98.1001 173.199 96.3001 172.099 95.1001C169.999 92.7001 167.299 92.8001 164.399 93.2001C162.699 93.4001 162.499 93.2001 161.699 93.5001C161.299 93.6001 160.899 93.9001 160.099 94.3001C159.699 94.6001 159.299 94.9001 158.999 95.3001C157.199 97.5001 157.499 101 157.099 103.7C156.699 106.9 157.099 105.7 157.099 106.7C156.999 110.4 156.399 114.2 153.599 116.9C153.399 117.1 153.299 117.2 153.099 117.3L150.999 119.7L150.499 120.2C149.999 120.6 149.399 121.8 148.899 122.5C148.499 123.2 147.799 124.5 145.999 126.4C144.699 127.8 143.899 129.5 142.999 131.2C140.799 135.4 136.599 137.1 132.999 139.6C126.999 143.7 121.599 148.7 115.999 153.3C109.399 158.7 102.999 164.1 96.3992 169.4C91.1992 173.6 85.7992 177.6 80.2992 181.5C72.2992 187.1 64.6992 193.2 57.9992 200.2C57.4992 200.8 56.5992 201.1 55.8992 201.5C55.6992 200.7 55.1992 199.9 55.1992 199.1C55.1992 196.4 55.1992 193.6 55.1992 190.9C53.7992 187.5 52.1992 183.9 52.2992 179.9C51.7992 178.4 51.2992 176.9 50.4992 175.6C49.9992 174.8 49.5992 174 49.3992 173.2C48.1992 169.2 49.7992 164.9 48.7992 161C48.1992 158.5 47.3992 155.9 46.7992 153.4C46.5992 152.6 46.3992 151.7 46.1992 150.9C45.8992 149.6 45.7992 148.2 45.7992 146.9C45.7992 140.7 46.2992 131 45.7992 129.3C45.2992 127.6 43.7992 125.9 42.7992 124.7C42.4992 124.3 41.9992 124 41.4992 123.7C41.1992 123.5 40.7992 123.4 40.3992 123.4H40.2992C39.7992 123.4 39.3992 123.3 38.8992 123.3C34.3992 123 30.5992 124.4 27.7992 128.8C25.7992 132.1 25.0992 135.4 24.8992 139C24.5992 143.1 24.8992 147 21.7992 150.7C19.1992 153.9 17.0992 157.6 14.0992 160.7C10.8992 164.1 9.79918 168.3 9.79918 173C9.79918 177.1 9.09917 181.2 8.89917 185.3C8.69917 188.9 8.29918 192.7 9.09918 196.2C9.99918 200.4 9.89918 204.3 9.09918 208.4C7.99918 213.5 7.39917 218.6 6.69917 223.7C6.49917 225.5 6.89917 227.5 6.69917 229.3C6.09917 236.2 5.39917 243 4.69917 249.8C3.99917 256.1 2.99918 262.3 2.29918 268.6C1.89918 272.3 1.59918 276.1 1.49918 279.9C1.19918 286.3 0.399178 292.8 0.799178 299.2C1.19918 305.3 2.59917 311.4 3.69917 317.5C4.19917 320.1 4.69918 322.7 5.79918 325.1C7.79918 329.5 9.59918 333.8 9.79918 338.7C9.99918 342.9 10.1992 347.2 10.4992 351.4C10.6992 353.9 11.2992 356.5 11.1992 359C11.1992 362.3 10.4992 365.7 10.3992 369C10.3992 369.9 11.1992 370.8 11.6992 371.7C12.1992 370.9 13.0992 370 13.0992 369.2C13.0992 359.6 13.2992 350 12.8992 340.4C12.6992 336.3 11.3992 332.2 10.0992 328.2C8.49918 323.4 5.89918 318.9 6.49918 313.6C6.49918 313 6.29917 312.4 6.19917 311.8C5.29917 306.9 4.19918 302 3.59918 297.1C2.79918 290.7 3.59918 284.4 4.59918 278C5.89918 269.5 6.19917 260.7 6.89917 252.1C6.89917 251.6 7.09917 251.1 7.19917 250.7C8.09917 243.7 9.69918 236.7 9.59918 229.7C9.39918 221.9 11.0992 214.5 12.4992 207C12.9992 204.1 12.8992 201.1 12.6992 198.2C12.5992 195.6 11.5992 193 11.6992 190.4C11.9992 183.1 12.6992 175.7 13.2992 168.4C13.2992 167.5 13.8992 166.5 14.3992 165.8C17.9992 161 21.5992 156.2 25.1992 151.5C25.7992 150.8 26.4992 150 27.3992 149.6C31.8992 147.4 35.2992 144 38.1992 140.1C38.4992 139.7 38.6992 139.4 38.9992 139C40.4992 136.7 41.6992 134.3 41.1992 131.3C40.9992 130.3 41.1992 129.2 41.1992 128.1C41.2992 128.1 41.4992 128 41.5992 127.9C41.7992 127.9 41.8992 127.8 42.0992 127.7C42.6992 128.8 43.7992 129.9 43.7992 130.9C43.7992 135 43.4992 139.2 43.0992 143.3C42.5992 148.4 44.1992 153.1 45.5992 157.9C46.5992 161.3 46.0992 165.2 46.2992 168.8C44.3992 168.3 43.1992 168 41.8992 167.6C41.7992 167.8 41.6992 167.9 41.5992 168C41.5992 168 41.4992 168.2 41.3992 168.4C41.3992 168.4 41.5992 168.6 41.5992 168.7C43.0992 170.3 44.5992 172 45.9992 173.6C46.3992 174 46.6992 174.4 46.9992 174.9C48.4992 177.2 48.9992 179.8 49.5992 182.5C49.6992 183 49.7992 183.6 49.8992 184.1C50.9992 189 51.5992 193.7 49.6992 198.5C49.6992 198.7 49.5992 199 49.5992 199.2C49.5992 200.1 49.9992 201.1 50.2992 201.9C51.2992 204.2 51.7992 206.4 49.7992 208.5C49.7992 208.5 49.6992 208.6 49.5992 208.7C48.8992 209.5 48.0992 210.2 47.4992 211C47.2992 211.2 47.1992 211.4 46.9992 211.6C45.1992 213.9 43.3992 216.2 41.5992 218.5C40.6992 219.6 39.8992 220.7 38.9992 221.8C37.0992 224.2 35.2992 226.6 33.3992 229C33.9992 229.5 34.6992 230.1 35.1992 230.5C36.4992 229 37.7992 227.5 38.9992 226C39.8992 225 40.6992 223.9 41.5992 222.9C43.3992 220.8 45.1992 218.6 46.9992 216.5C47.7992 215.5 48.6992 214.5 49.5992 213.5C51.4992 211.3 53.4992 209.1 55.4992 207C62.5992 199.7 69.6992 192.3 78.2992 186.6C85.5992 181.7 92.6992 176.5 99.4992 171C107.499 164.7 114.999 157.8 122.899 151.3C126.999 147.9 131.299 144.7 135.599 141.4C137.999 139.6 141.199 138.3 142.999 136.1C145.999 132.5 148.499 128.5 151.199 124.6C151.999 123.4 152.899 122.2 153.799 121C155.099 119.3 156.499 117.7 157.999 116.1C158.299 115.8 158.499 115.3 158.599 114.9C158.799 113.6 158.999 112.3 159.199 111.1C159.699 107.8 160.299 104.5 160.199 101.3C160.199 99.0001 160.599 97.6001 161.799 96.8001C162.499 96.3001 163.399 95.9001 164.599 95.6001C167.599 95.0001 171.299 96.6001 171.699 99.5001C172.499 105.4 176.899 109.4 179.299 114.4C181.299 118.4 182.199 122.2 181.299 126.5C180.499 129.8 179.499 133 178.599 136.3C177.199 141.4 176.199 146.6 174.499 151.7C173.799 153.8 172.899 155.8 171.699 157.6C168.899 161.9 165.499 165.4 161.699 168.8C160.799 169.6 159.999 170.3 159.099 171.1C157.299 172.6 155.499 174.1 153.699 175.6C152.799 176.3 151.999 177.1 151.099 177.8C150.099 178.6 149.199 179.5 148.199 180.4C147.799 180.8 147.299 181.2 146.899 181.6C143.699 184.6 140.499 187.5 137.399 190.5C135.499 192.3 134.199 195 131.099 195.4C130.399 195.5 129.799 196.9 128.799 198.1C132.799 198.8 135.399 197.1 137.099 194.9C141.199 189.8 146.099 185.5 150.999 181.4C151.899 180.7 152.699 180 153.599 179.2C155.399 177.7 157.199 176.2 158.999 174.6C159.399 174.3 159.799 173.9 160.199 173.6C160.699 173.2 161.099 172.8 161.599 172.4C167.999 166.8 174.199 161.1 177.299 152.1C179.299 153.1 181.599 153.6 183.099 155C186.999 158.7 189.999 163.1 188.499 169C187.199 174 186.599 179.5 183.999 183.9C180.299 190.2 175.299 195.9 170.499 201.4C167.699 204.6 164.599 207.7 161.599 210.7C160.699 211.6 159.899 212.4 158.999 213.3C157.899 214.3 156.899 215.4 155.799 216.4C155.099 217.1 154.199 217.7 153.799 218.5C153.499 219.2 153.799 220.1 153.799 221C154.399 220.7 155.199 220.6 155.699 220.2C156.799 219.2 157.9 218.2 158.9 217.2C159.8 216.4 160.6 215.5 161.5 214.7C162.4 213.9 162.699 213.4 163.299 212.8C169.699 205.9 175.999 199 182.599 191.9C182.599 191.9 182.999 192 183.199 192.3C186.999 197.9 188.399 204 187.699 210.7C187.699 210.9 187.599 211.3 187.399 211.5C184.599 216.3 181.999 221.3 178.899 226C175.199 231.5 170.999 236.7 167.099 242C167.299 242.3 167.399 242.6 167.599 242.8C168.399 242.5 169.399 242.4 169.899 241.8C172.699 238.6 175.399 235.3 178.199 232.1C178.699 231.6 179.799 231.1 180.399 231.3C180.999 231.5 181.599 232.5 181.699 233.2C181.899 236.4 181.799 239.5 181.999 242.7C182.499 248.9 179.599 254.1 177.099 259.3C175.299 263 172.399 266.2 170.199 269.8C165.599 277.6 161.299 285.5 156.799 293.2C154.099 297.8 151.699 302.7 148.299 306.7C140.199 316.2 131.399 325.1 123.099 334.5C119.599 338.4 116.799 342.9 113.899 347.3C111.799 350.5 110.199 354 108.499 357.5C108.199 358.1 108.199 358.8 108.299 359.5C108.599 362.8 108.999 366.2 109.399 369.5C109.499 370.3 109.899 371 110.099 371.8C110.399 371.8 110.699 371.7 110.899 371.6C110.899 368.3 111.099 365 110.899 361.7C110.699 359 111.399 356.8 112.799 354.5C114.799 351.3 115.699 347.3 118.099 344.5C125.199 335.9 132.599 327.7 140.199 319.5C147.399 311.7 154.099 303.8 158.999 294.1C163.399 285.4 168.199 276.9 173.799 268.8C180.199 259.4 185.299 249.9 184.599 238.3C184.599 237.8 184.599 237.3 184.599 236.8C184.199 234.8 183.699 232.9 183.199 231C182.799 229.2 181.699 227.2 182.199 225.7C182.699 223.7 184.499 222 185.599 220.1C186.899 217.9 188.999 215.7 189.299 213.2C190.299 205.8 190.099 198.4 185.599 191.9C184.499 190.2 184.599 188.9 185.599 186.9C187.799 182.8 190.099 178.3 190.799 173.8L190.899 173.4ZM36.0992 137.2C34.0992 140.3 31.3992 143 28.6992 146.1C26.4992 141 28.0992 131.1 31.2992 128.6C32.3992 127.8 34.4992 128 36.0992 128.2C36.6992 128.2 37.6992 129.8 37.5992 130.6C37.3992 132.9 37.2992 135.4 36.1992 137.2H36.0992Z" fill="#5C5C5C"/>
</svg>
