<svg width="218" height="412" viewBox="0 0 218 412" fill="none" xmlns="http://www.w3.org/2000/svg">
<path d="M163.898 20.0996H62.1976C56.3976 20.0996 51.5977 24.8996 51.5977 30.6996V159C53.0977 156.7 54.2977 154.3 53.7977 151.3C53.5977 150.3 53.7977 149.2 53.7977 148.1C53.8977 148.1 54.0976 148 54.1976 147.9V30.6996C54.1976 26.2996 57.7976 22.6996 62.1976 22.6996H163.898C168.298 22.6996 171.898 26.2996 171.898 30.6996V131.4C172.398 128.1 172.998 124.8 172.898 121.6C172.898 119.3 173.298 117.9 174.498 117.1V30.7996C174.498 24.9996 169.698 20.1996 163.898 20.1996V20.0996ZM51.5977 241.9V246.1C52.4977 245.1 53.2976 244 54.1976 243V238.5C53.2976 239.6 52.4977 240.7 51.5977 241.8V241.9ZM53.9977 188.4C53.9977 188.4 54.1976 188.6 54.1976 188.7V188C54.1976 188 54.0977 188.2 53.9977 188.4ZM171.898 191.1V194.7C172.298 194.4 172.698 194 173.098 193.7C173.598 193.3 173.998 192.9 174.498 192.5V188.9C173.598 189.7 172.798 190.4 171.898 191.2V191.1ZM171.898 233.3V237.2C172.798 236.4 173.598 235.5 174.498 234.7V230.8C173.598 231.7 172.798 232.5 171.898 233.4V233.3Z" fill="#5C5C5C"/>
<path d="M159.698 201.7C156.498 204.7 153.298 207.6 150.198 210.6C148.298 212.4 146.998 215.1 143.898 215.5C143.198 215.6 142.598 217 141.598 218.2C145.598 218.9 148.198 217.2 149.898 215C153.998 209.9 158.898 205.6 163.798 201.5V200.2L159.598 201.7H159.698ZM163.898 197.8V200.2L166.498 199.3V195.6C165.598 196.3 164.798 197.1 163.898 197.8ZM60.0977 231.1C59.8977 231.3 59.7977 231.5 59.5977 231.7V236.7C60.3977 235.7 61.2976 234.7 62.1976 233.7V228.8C61.4976 229.6 60.6977 230.3 60.0977 231.1ZM156.798 29.5H69.2977C63.9977 29.5 59.5977 33.9 59.5977 39.2V194.8C61.0977 197.1 61.5976 199.7 62.1976 202.4V39.2C62.1976 35.3 65.3977 32.1 69.2977 32.1H156.798C160.698 32.1 163.898 35.3 163.898 39.2V144.8C164.698 143.6 165.598 142.4 166.498 141.2V39.2C166.498 33.9 162.198 29.5 156.798 29.5Z" fill="#5C5C5C"/>
<path d="M203.897 193.399C204.697 188.699 205.697 183.399 202.497 178.799C200.197 175.599 198.697 171.799 194.297 170.599C192.997 170.199 190.597 169.999 191.297 167.499C192.397 163.299 193.797 159.099 194.997 154.799C195.997 150.999 196.997 147.299 197.597 143.399C198.597 137.599 193.997 133.199 192.497 128.099C191.497 124.799 189.797 121.899 187.697 119.299C186.697 118.099 186.197 116.299 185.097 115.099C182.997 112.699 180.297 112.799 177.397 113.199C175.697 113.399 175.497 113.199 174.697 113.499C174.297 113.599 173.897 113.899 173.097 114.299C172.697 114.599 172.297 114.899 171.997 115.299C170.197 117.499 170.497 120.999 170.097 123.699C169.697 126.899 170.097 125.699 170.097 126.699C169.997 130.399 169.397 134.199 166.597 136.899C166.397 137.099 166.297 137.199 166.097 137.299L163.997 139.699L163.497 140.199C162.997 140.599 162.397 141.799 161.897 142.499C161.497 143.199 160.797 144.499 158.997 146.399C157.697 147.799 156.897 149.499 155.997 151.199C153.797 155.399 149.597 157.099 145.997 159.599C139.997 163.699 134.597 168.699 128.997 173.299C122.397 178.699 115.997 184.099 109.397 189.399C104.197 193.599 98.7972 197.599 93.2972 201.499C85.2972 207.099 77.6972 213.199 70.9972 220.199C70.4972 220.799 69.5972 221.099 68.8972 221.499C68.6972 220.699 68.1972 219.899 68.1972 219.099C68.1972 216.399 68.1972 213.599 68.1972 210.899C66.7972 207.499 65.1972 203.899 65.2972 199.899C64.7972 198.399 64.2972 196.899 63.4972 195.599C62.9972 194.799 62.5972 193.999 62.3972 193.199C61.1972 189.199 62.7972 184.899 61.7972 180.999C61.1972 178.499 60.3972 175.899 59.7972 173.399C59.5972 172.599 59.3972 171.699 59.1972 170.899C58.8972 169.599 58.7972 168.199 58.7972 166.899C58.7972 160.699 59.2972 150.999 58.7972 149.299C58.2972 147.599 56.7972 145.899 55.7972 144.699C55.4972 144.299 54.9972 143.999 54.4972 143.699C54.1972 143.499 53.7972 143.399 53.3972 143.399H53.2972C52.7972 143.399 52.3972 143.299 51.8972 143.299C47.3972 142.999 43.5972 144.399 40.7972 148.799C38.7972 152.099 38.0972 155.399 37.8972 158.999C37.5972 163.099 37.8972 166.999 34.7972 170.699C32.1972 173.899 30.0972 177.599 27.0972 180.699C23.8972 184.099 22.7972 188.299 22.7972 192.999C22.7972 197.099 22.0972 201.199 21.8972 205.299C21.6972 208.899 21.2972 212.699 22.0972 216.199C22.9972 220.399 22.8972 224.299 22.0972 228.399C20.9972 233.499 20.3972 238.599 19.6972 243.699C19.4972 245.499 19.8972 247.499 19.6972 249.299C19.0972 256.199 18.3972 262.999 17.6972 269.799C16.9972 276.099 15.9972 282.299 15.2972 288.599C14.8972 292.299 14.5972 296.099 14.4972 299.899C14.1972 306.299 13.3972 312.799 13.7972 319.199C14.1972 325.299 15.5972 331.399 16.6972 337.499C17.1972 340.099 17.6972 342.699 18.7972 345.099C20.7972 349.499 22.5972 353.799 22.7972 358.699C22.9972 362.899 23.1972 367.199 23.4972 371.399C23.6972 373.899 24.2972 376.499 24.1972 378.999C24.1972 382.299 23.4972 385.699 23.3972 388.999C23.3972 389.899 24.1972 390.799 24.6972 391.699C25.1972 390.9 26.0972 389.999 26.0972 389.199C26.0972 379.599 26.2972 369.999 25.8972 360.399C25.6972 356.299 24.3972 352.199 23.0972 348.199C21.4972 343.399 18.8972 338.899 19.4972 333.599C19.4972 332.999 19.2972 332.399 19.1972 331.799C18.2972 326.899 17.1972 321.999 16.5972 317.099C15.7972 310.699 16.5972 304.399 17.5972 297.999C18.8972 289.499 19.1972 280.699 19.8972 272.099C19.8972 271.599 20.0972 271.099 20.1972 270.699C21.0972 263.699 22.6972 256.699 22.5972 249.699C22.3972 241.899 24.0972 234.499 25.4972 226.999C25.9972 224.099 25.8972 221.099 25.6972 218.199C25.5972 215.599 24.5972 212.999 24.6972 210.399C24.9972 203.099 25.6972 195.699 26.2972 188.399C26.2972 187.499 26.8972 186.499 27.3972 185.799C30.9972 180.999 34.5972 176.199 38.1972 171.499C38.7972 170.799 39.4972 169.999 40.3972 169.599C44.8972 167.399 48.2972 163.999 51.1972 160.099C51.4972 159.699 51.6972 159.399 51.9972 158.999C53.4972 156.699 54.6972 154.299 54.1972 151.299C53.9972 150.299 54.1972 149.199 54.1972 148.099C54.2972 148.099 54.4972 147.999 54.5972 147.899C54.7972 147.899 54.8972 147.799 55.0972 147.699C55.6972 148.799 56.7972 149.899 56.7972 150.899C56.7972 154.999 56.4972 159.199 56.0972 163.299C55.5972 168.399 57.1972 173.099 58.5972 177.899C59.5972 181.299 59.0972 185.199 59.2972 188.799C57.3972 188.299 56.1972 187.999 54.8972 187.599C54.7972 187.799 54.6972 187.899 54.5972 187.999C54.5972 187.999 54.4972 188.199 54.3972 188.399C54.3972 188.399 54.5972 188.599 54.5972 188.699C56.0972 190.299 57.5972 191.999 58.9972 193.599C59.3972 193.999 59.6972 194.399 59.9972 194.899C61.4972 197.199 61.9972 199.799 62.5972 202.499C62.6972 202.999 62.7972 203.599 62.8972 204.099C63.9972 208.999 64.5972 213.699 62.6972 218.499C62.6972 218.699 62.5972 218.999 62.5972 219.199C62.5972 220.099 62.9972 221.099 63.2972 221.899C64.2972 224.199 64.7972 226.399 62.7972 228.499C62.7972 228.499 62.6972 228.599 62.5972 228.699C61.8972 229.499 61.0972 230.199 60.4972 230.999C60.2972 231.199 60.1972 231.399 59.9972 231.599C58.1972 233.899 56.3972 236.199 54.5972 238.499C53.6972 239.599 52.8972 240.699 51.9972 241.799C50.0972 244.199 48.2972 246.599 46.3972 248.999C46.9972 249.499 47.6972 250.099 48.1972 250.499C49.4972 248.999 50.7972 247.499 51.9972 245.999C52.8972 244.999 53.6972 243.899 54.5972 242.899C56.3972 240.799 58.1972 238.599 59.9972 236.499C60.7972 235.499 61.6972 234.499 62.5972 233.499C64.4972 231.299 66.4972 229.099 68.4972 226.999C75.5972 219.699 82.6972 212.299 91.2972 206.599C98.5972 201.699 105.697 196.499 112.497 190.999C120.497 184.699 127.997 177.799 135.897 171.299C139.997 167.899 144.297 164.699 148.597 161.399C150.997 159.599 154.197 158.299 155.997 156.099C158.997 152.499 161.497 148.499 164.197 144.599C164.997 143.399 165.897 142.199 166.797 140.999C168.097 139.299 169.497 137.699 170.997 136.099C171.297 135.799 171.497 135.299 171.597 134.899C171.797 133.599 171.997 132.299 172.197 131.099C172.697 127.799 173.297 124.499 173.197 121.299C173.197 118.999 173.597 117.599 174.797 116.799C175.497 116.299 176.397 115.899 177.597 115.599C180.597 114.999 184.297 116.599 184.697 119.499C185.497 125.399 189.897 129.399 192.297 134.399C194.297 138.399 195.197 142.199 194.297 146.499C193.497 149.799 192.497 152.999 191.597 156.299C190.197 161.399 189.197 166.599 187.497 171.699C186.797 173.799 185.897 175.799 184.697 177.599C181.897 181.899 178.497 185.399 174.697 188.799C173.797 189.599 172.997 190.299 172.097 191.099C170.297 192.599 168.497 194.099 166.697 195.599C165.797 196.299 164.997 197.099 164.097 197.799C163.097 198.599 162.197 199.499 161.197 200.399C160.797 200.799 160.297 201.199 159.897 201.599C156.697 204.599 153.497 207.499 150.397 210.499C148.497 212.299 147.197 214.999 144.097 215.399C143.397 215.499 142.797 216.899 141.797 218.099C145.797 218.799 148.397 217.099 150.097 214.899C154.197 209.799 159.097 205.499 163.997 201.399C164.897 200.699 165.697 199.999 166.597 199.199C168.397 197.699 170.197 196.199 171.997 194.599C172.397 194.299 172.797 193.899 173.197 193.599C173.697 193.199 174.097 192.799 174.597 192.399C180.997 186.799 187.197 181.099 190.297 172.099C192.297 173.099 194.597 173.599 196.097 174.999C199.997 178.699 202.997 183.099 201.497 188.999C200.197 193.999 199.597 199.499 196.997 203.899C193.297 210.199 188.297 215.899 183.497 221.399C180.697 224.599 177.597 227.699 174.597 230.699C173.697 231.599 172.897 232.399 171.997 233.299C170.897 234.299 169.897 235.399 168.797 236.399C168.097 237.099 167.197 237.699 166.797 238.499C166.497 239.199 166.797 240.099 166.797 240.999C167.397 240.699 168.197 240.599 168.697 240.199C169.797 239.199 170.897 238.199 171.897 237.199C172.797 236.399 173.597 235.499 174.497 234.699C175.397 233.899 175.697 233.399 176.297 232.799C182.697 225.899 188.997 218.999 195.597 211.899C195.597 211.899 195.997 211.999 196.197 212.299C199.997 217.899 201.397 223.999 200.697 230.699C200.697 230.899 200.597 231.299 200.397 231.499C197.597 236.299 194.997 241.299 191.897 245.999C188.197 251.499 183.997 256.699 180.097 261.999C180.297 262.299 180.397 262.599 180.597 262.799C181.397 262.499 182.397 262.399 182.897 261.799C185.697 258.599 188.397 255.299 191.197 252.099C191.697 251.599 192.797 251.099 193.397 251.299C193.997 251.499 194.597 252.499 194.697 253.199C194.897 256.399 194.797 259.499 194.997 262.699C195.497 268.899 192.597 274.099 190.097 279.299C188.297 282.999 185.397 286.199 183.197 289.799C178.597 297.599 174.297 305.499 169.797 313.199C167.097 317.799 164.697 322.699 161.297 326.699C153.197 336.199 144.397 345.099 136.097 354.499C132.597 358.399 129.797 362.899 126.897 367.299C124.797 370.499 123.197 373.999 121.497 377.499C121.197 378.099 121.197 378.799 121.297 379.499C121.597 382.799 121.997 386.199 122.397 389.499C122.497 390.299 122.897 390.999 123.097 391.799C123.397 391.799 123.697 391.699 123.897 391.599C123.897 388.299 124.097 384.999 123.897 381.699C123.697 378.999 124.397 376.799 125.797 374.499C127.797 371.299 128.697 367.299 131.097 364.499C138.197 355.899 145.597 347.699 153.197 339.499C160.397 331.699 167.097 323.799 171.997 314.099C176.397 305.399 181.197 296.899 186.797 288.799C193.197 279.399 198.297 269.899 197.597 258.299C197.597 257.799 197.597 257.299 197.597 256.799C197.197 254.799 196.697 252.899 196.197 250.999C195.797 249.199 194.697 247.199 195.197 245.699C195.697 243.699 197.497 241.999 198.597 240.099C199.897 237.899 201.997 235.699 202.297 233.199C203.297 225.799 203.097 218.399 198.597 211.899C197.497 210.199 197.597 208.899 198.597 206.899C200.797 202.799 203.097 198.299 203.797 193.799L203.897 193.399ZM49.0972 157.199C47.0972 160.299 44.3972 162.999 41.6972 166.099C39.4972 160.999 41.0972 151.099 44.2972 148.599C45.3972 147.799 47.4972 147.999 49.0972 148.199C49.6972 148.199 50.6972 149.799 50.5972 150.599C50.3972 152.899 50.2972 155.399 49.1972 157.199H49.0972Z" fill="#5C5C5C"/>
</svg>
