<svg width="40" height="40" viewBox="0 0 40 40" fill="none" xmlns="http://www.w3.org/2000/svg">
<g clip-path="url(#clip0_258_1952)">
<g filter="url(#filter0_d_258_1952)">
<path d="M32.5564 20.3411C33.1479 18.1413 33.1479 15.8183 32.5564 13.6185C31.9845 11.49 30.8666 9.47192 29.1898 7.80423C27.5131 6.13004 25.4983 5.01392 23.3666 4.44288C21.1634 3.85237 18.8366 3.85237 16.6334 4.44288C14.5017 5.01392 12.4804 6.13004 10.8101 7.80423C9.13986 9.47841 8.0155 11.49 7.44357 13.6185C6.85214 15.8183 6.85214 18.1413 7.44357 20.3411C8.0155 22.4696 9.13336 24.4877 10.8101 26.1554L19.4346 34.7664C19.7465 35.0779 20.2535 35.0779 20.5589 34.7664L29.1834 26.1554C30.8601 24.4812 31.978 22.4696 32.5499 20.3411H32.5564ZM15.4051 12.392C17.9658 9.83531 22.1252 9.85478 24.6599 12.4569C27.1036 14.9617 27.1036 18.9979 24.6599 21.5027C22.1252 24.1048 17.9593 24.1243 15.4051 21.5676C12.8509 19.0109 12.8704 14.9228 15.4051 12.392Z" fill="#FF7C7C" shape-rendering="crispEdges"/>
<path d="M16.4395 3.71875C18.7698 3.09419 21.2302 3.09419 23.5605 3.71875C25.8146 4.32257 27.9461 5.50293 29.7188 7.27246L30.0449 7.60742C31.639 9.30438 32.7133 11.3139 33.2803 13.4238C33.906 15.7512 33.906 18.2088 33.2803 20.5361L33.1318 21.0908H33.1113C32.4686 23.1363 31.3393 25.0626 29.7129 26.6865L21.0938 35.291C20.4912 35.9054 19.5059 35.8976 18.9043 35.2969L10.2803 26.6865V26.6855C8.50675 24.9212 7.3244 22.7861 6.71973 20.5361C6.09401 18.2088 6.09401 15.7512 6.71973 13.4238C7.32506 11.1712 8.51465 9.04318 10.2793 7.27441C12.0467 5.50288 14.1858 4.32244 16.4395 3.71875ZM24.123 12.9805C21.8806 10.6783 18.2002 10.6607 15.9346 12.9229C13.6926 15.1616 13.6754 18.7744 15.9355 21.0371C18.1942 23.298 21.8802 23.282 24.123 20.9795V20.9785C26.2148 18.8343 26.2803 15.4163 24.3193 13.1924L24.123 12.9805Z" stroke="white" stroke-opacity="0.5" stroke-width="1.5" shape-rendering="crispEdges"/>
</g>
</g>
<defs>
<filter id="filter0_d_258_1952" x="1.5" y="2.5" width="37" height="42" filterUnits="userSpaceOnUse" color-interpolation-filters="sRGB">
<feFlood flood-opacity="0" result="BackgroundImageFix"/>
<feColorMatrix in="SourceAlpha" type="matrix" values="0 0 0 0 0 0 0 0 0 0 0 0 0 0 0 0 0 0 127 0" result="hardAlpha"/>
<feOffset dy="4"/>
<feGaussianBlur stdDeviation="2"/>
<feComposite in2="hardAlpha" operator="out"/>
<feColorMatrix type="matrix" values="0 0 0 0 0 0 0 0 0 0 0 0 0 0 0 0 0 0 0.08 0"/>
<feBlend mode="normal" in2="BackgroundImageFix" result="effect1_dropShadow_258_1952"/>
<feBlend mode="normal" in="SourceGraphic" in2="effect1_dropShadow_258_1952" result="shape"/>
</filter>
<clipPath id="clip0_258_1952">
<rect width="40" height="40" fill="white"/>
</clipPath>
</defs>
</svg>
