<svg width="99" height="80" viewBox="0 0 99 80" fill="none" xmlns="http://www.w3.org/2000/svg">
<g clip-path="url(#clip0_542_7682)">
<rect width="99" height="80" fill="white"/>
<path d="M25.377 26.2584V73.6338C25.377 74.4413 24.6656 75.0758 23.8773 75.0758H23.0313C22.8582 75.0758 22.6659 75.0374 22.5314 74.9989C21.9738 74.8066 21.5508 74.2683 21.5508 73.6338V26.2584C21.5508 25.8162 21.7623 25.4124 22.0699 25.1433C22.3199 24.9318 22.6659 24.778 23.0313 24.778H23.8773C24.6848 24.778 25.377 25.4509 25.377 26.2584Z" fill="#AACCB1"/>
<g style="mix-blend-mode:multiply" opacity="0.4">
<path d="M23.4543 50.0232C21.9353 53.3495 21.9353 73.0764 22.5314 74.9991C21.9738 74.8069 21.5508 74.2685 21.5508 73.634V26.2587C21.5508 25.8164 21.7623 25.4319 22.0699 25.1627C22.166 25.3934 22.2622 25.6626 22.3775 25.9318C22.3775 25.9318 25.2039 29.6234 23.685 34.8724C22.1853 40.1213 25.3193 45.9087 23.4543 50.004V50.0232Z" fill="#D8E8DD"/>
</g>
<path d="M34.0599 5.81488L13.8021 4.557L12.6759 4.48387C11.6374 4.42536 10.7891 5.15669 10.7891 6.10741V33.8247C10.7891 34.79 11.6374 35.536 12.6905 35.5067L34.0745 34.6876C34.9667 34.6584 35.6249 33.9124 35.6249 33.0202V7.52619C35.6249 6.63397 34.9521 5.87339 34.0452 5.81488H34.0599Z" fill="url(#paint0_linear_542_7682)"/>
<path d="M36.4882 7.57021V33.0057C36.4882 33.8979 35.7715 34.6439 34.8793 34.6731L13.583 35.4922C12.5446 35.5361 11.6523 34.7902 11.6523 33.8248V6.16606C11.6523 5.20071 12.5153 4.46938 13.5538 4.54252L34.8646 5.8589C35.7569 5.91741 36.4882 6.67799 36.4882 7.55558V7.57021Z" fill="url(#paint1_linear_542_7682)"/>
<path d="M33.4749 7.81882L15.2356 6.82422C15.104 6.82422 14.9431 6.82422 14.8114 6.83885C14.0509 6.97048 13.4512 7.57017 13.4512 8.34538V31.8648C13.4512 32.757 14.2556 33.4591 15.2064 33.4299L33.4603 32.8448C34.3086 32.8155 35.0253 32.1135 35.0253 31.2944V9.41311C35.0253 8.5794 34.3086 7.8627 33.4749 7.81882ZM34.762 31.2944C34.762 31.9818 34.1623 32.5669 33.4603 32.5815L15.1917 33.152C14.4019 33.1812 13.6998 32.5961 13.6998 31.8502V8.36C13.6998 7.73106 14.1971 7.23376 14.8261 7.11675C14.9431 7.10212 15.0747 7.0875 15.2064 7.0875L33.4603 8.06747C34.1623 8.11135 34.762 8.69641 34.762 9.38386V31.2798V31.2944Z" fill="white"/>
<path d="M29.6139 12.9969C28.473 12.0754 26.7617 11.5635 24.3484 11.4611C21.935 11.3587 20.2237 11.4318 18.9512 11.5927V28.2816H22.8857V22.2701C23.3538 22.3286 23.7487 22.3578 24.2606 22.3578C25.6355 22.3725 26.908 22.2116 27.9757 21.8166C28.6924 21.5534 29.336 21.1877 29.8626 20.7197C30.8572 19.8128 31.413 18.4672 31.413 16.8583C31.413 15.2493 30.6963 13.8744 29.6139 12.9969ZM24.2313 19.4618C23.6609 19.4618 23.3391 19.4179 22.8857 19.3301V14.401C23.2367 14.3425 23.7487 14.284 24.5385 14.3132C26.4838 14.3864 27.5954 15.3225 27.5954 16.8436C27.5954 18.3648 27.1274 18.6134 26.3229 19.0376C25.7818 19.3301 25.0651 19.4764 24.2313 19.4618Z" fill="white"/>
<path style="mix-blend-mode:multiply" opacity="0.3" d="M36.4882 30.9288V33.0057C36.4882 33.8979 35.7715 34.6439 34.8793 34.6731L13.583 35.4922C12.5446 35.5361 11.6523 34.7902 11.6523 33.8248V6.16606C11.6523 5.20071 12.5153 4.46938 13.5538 4.54252L14.6947 4.61565C14.68 5.31772 14.6947 6.0783 14.8117 6.85351C14.8117 6.94127 14.8409 7.02903 14.8556 7.13141C15.2358 9.41315 16.3475 11.7534 19.068 12.9528C19.3605 13.0844 19.6531 13.2014 19.9163 13.3331C21.0426 13.8304 22.0225 14.2838 22.8563 14.7372C23.8947 15.3076 24.7285 15.9073 25.3866 16.6972C25.8693 17.2676 26.2642 17.9258 26.6006 18.7449C27.215 20.2807 27.5953 22.3722 27.8439 25.4146C27.8878 25.9411 27.9755 26.4092 28.1218 26.8187C28.312 27.4184 28.6045 27.9157 28.9555 28.3399C29.014 28.413 29.0872 28.4861 29.1457 28.5593C29.2773 28.6909 29.4089 28.8225 29.5698 28.9396C30.8862 30.0219 32.7877 30.4168 34.7037 30.6947C34.7915 30.6947 34.8793 30.724 34.967 30.724C35.4789 30.7971 35.9909 30.8556 36.5028 30.9288H36.4882Z" fill="url(#paint2_linear_542_7682)"/>
<path d="M72.9495 75.7252C93.8308 75.7252 110.758 75.5312 110.758 75.2919C110.758 75.0525 93.8308 74.8585 72.9495 74.8585C52.0682 74.8585 35.1406 75.0525 35.1406 75.2919C35.1406 75.5312 52.0682 75.7252 72.9495 75.7252Z" fill="#191919"/>
<mask id="mask0_542_7682" style="mask-type:luminance" maskUnits="userSpaceOnUse" x="35" y="74" width="76" height="2">
<path d="M72.9495 75.7252C93.8308 75.7252 110.758 75.5312 110.758 75.2919C110.758 75.0525 93.8308 74.8585 72.9495 74.8585C52.0682 74.8585 35.1406 75.0525 35.1406 75.2919C35.1406 75.5312 52.0682 75.7252 72.9495 75.7252Z" fill="white"/>
</mask>
<g mask="url(#mask0_542_7682)">
<path d="M72.9495 75.5519C93.8308 75.5519 110.758 75.3579 110.758 75.1185C110.758 74.8792 93.8308 74.6852 72.9495 74.6852C52.0682 74.6852 35.1406 74.8792 35.1406 75.1185C35.1406 75.3579 52.0682 75.5519 72.9495 75.5519Z" fill="#525355"/>
<path d="M74.3226 74.9383C95.2038 74.9383 112.131 74.8871 112.131 74.8239C112.131 74.7607 95.2038 74.7095 74.3226 74.7095C53.4413 74.7095 36.5137 74.7607 36.5137 74.8239C36.5137 74.8871 53.4413 74.9383 74.3226 74.9383Z" fill="#141414"/>
</g>
<path d="M109.021 70.5007C108.255 70.5354 107.49 70.57 106.724 70.6047C106.613 70.206 106.802 69.8316 106.821 69.4416C106.932 67.2072 106.513 65.1324 104.885 63.4804C103.545 62.1197 101.548 62.1232 100.127 63.392C98.8113 64.5673 98.2081 66.0719 98.0053 67.7845C97.8146 69.3931 98.0434 70.9254 98.7957 72.3624C99.3695 73.4579 100.184 74.3194 101.358 74.7961C101.663 74.9191 102.396 74.9451 102.235 75.1323C101.384 75.1844 99.7959 75.1618 98.9448 75.1323C98.5513 75.1185 98.1769 74.9746 97.8337 74.7666C96.499 74.0524 95.7432 72.8737 95.2301 71.5061C94.9008 70.6255 95.1383 70.7122 94.0809 70.6948C93.5297 70.6862 92.975 70.7607 92.4255 70.6428C92.0719 70.4695 91.72 70.4972 91.3699 70.6602C91.1948 70.7104 91.0197 70.7035 90.8429 70.6723C90.4546 70.5891 90.0646 70.6012 89.6746 70.6619C89.0835 70.7347 88.489 70.6966 87.8961 70.6914C87.5893 70.6879 87.4628 70.8023 87.3796 71.0953C87.0294 72.3381 86.4574 73.4509 85.3879 74.2466C85.1539 74.4217 84.9078 74.5707 84.6443 74.6973C83.4465 75.3889 82.1499 75.1497 80.8741 75.0942C80.706 74.9139 80.8273 74.8099 80.9799 74.7337C81.1723 74.6383 81.3855 74.6175 81.5987 74.6158C81.9956 74.6123 82.3943 74.5881 82.7878 74.6193C83.6164 74.6869 84.3011 74.3662 84.9251 73.8739C85.1036 73.7335 85.3151 73.6503 85.4815 73.496C85.8594 73.1476 86.1991 72.7992 86.3621 72.2636C86.4748 71.8874 86.6654 71.513 86.8266 71.1403C87 70.7399 86.922 70.6411 86.506 70.5978C86.0483 70.551 85.6444 70.5856 85.3064 70.9445C85.1574 71.1039 84.9771 71.0363 84.8679 70.8734C84.724 70.6567 84.5264 70.5978 84.2872 70.6186C83.9787 70.6463 83.6857 70.5319 83.3858 70.5146C82.8554 70.4816 82.2869 70.5822 81.8466 70.7746C81.4063 70.967 81.2035 70.9393 80.7701 70.7676C80.2258 70.551 79.5568 70.5215 78.9379 70.6307C78.6606 70.6792 78.3867 70.7208 78.1128 70.6844C77.5789 70.6116 77.0641 70.4158 76.5077 70.5111C76.61 70.6706 76.6498 70.889 76.6481 71.1143C76.6446 72.085 77.1647 72.7767 77.8615 73.3695C77.9412 73.4371 78.047 73.4804 78.1128 73.5619C78.593 74.1564 79.2933 74.3679 79.9606 74.6383C80.1496 74.7146 80.3402 74.7891 80.2796 75.0561C79.8965 75.252 79.5498 75.0543 79.1962 74.9521C78.983 74.8914 78.801 74.7614 78.6121 74.6487C77.1768 73.9311 76.4002 72.6935 75.9166 71.2287C75.745 70.7087 75.7519 70.7052 75.199 70.7035C73.5332 70.7035 71.8691 70.7035 70.2033 70.7018C70.0075 70.7018 69.8047 70.7347 69.6261 70.6116C69.5758 70.1159 69.6694 69.6427 69.8307 69.1764C70.0664 69.0308 70.1635 69.2024 70.2467 69.3723C70.3004 69.4815 70.2744 69.6028 70.2536 69.7207C70.1791 70.1454 70.2207 70.1818 70.654 70.1679C70.8828 70.1592 70.9868 70.0882 70.9678 69.8385C70.9262 69.3133 70.7355 68.8141 70.7008 68.2872C70.6922 68.1485 70.576 68.1 70.4581 68.0635C70.2692 68.0046 70.0733 67.9803 69.8827 67.9335C69.7041 67.833 69.7059 67.6527 69.6868 67.4829C69.5741 66.5382 69.3002 65.6437 68.8166 64.8256C68.0869 63.5931 67.1266 62.6657 65.6185 62.4837C64.471 62.3451 63.5176 62.7489 62.6943 63.5116C61.5329 64.5863 60.9817 65.9627 60.7736 67.4985C60.7528 67.6475 60.7979 67.8261 60.6159 67.9162C60.4668 67.9162 60.3091 67.8278 60.316 67.7082C60.3455 67.2783 60.1722 66.812 60.472 66.4255C60.6055 66.2556 60.6211 66.0979 60.55 65.8812C60.4582 65.8881 60.4183 66.0008 60.3403 66.0147C60.0976 66.0597 59.9659 66.1083 60.134 66.4099C60.2692 66.6526 60.0664 66.8727 59.8705 67.0114C59.3471 67.3858 59.1443 67.8989 59.1755 68.5177C59.1945 68.9129 58.9258 69.1781 58.7681 69.4901C58.652 69.7207 58.5757 69.92 58.7525 70.1488C58.808 70.2216 58.8617 70.3326 58.8253 70.4088C58.6554 70.785 58.8288 71.1559 58.8166 71.5269C58.8097 71.7557 58.8444 71.832 59.0957 71.799C59.8168 71.7037 59.9485 71.799 60.1288 72.482C60.1704 72.6397 60.2519 72.7039 60.4044 72.7091C60.4703 72.7108 60.5379 72.7229 60.602 72.7091C60.7823 72.6744 61.0735 72.82 61.1134 72.5721C61.1481 72.3589 60.9869 72.118 60.7788 71.9776C60.2467 71.6135 60.1358 71.3761 60.2848 70.7607C60.3542 70.4747 60.4148 70.1991 60.3559 69.9009C60.3178 69.7051 60.3767 69.5317 60.5916 69.4537C60.7823 69.5092 60.7459 69.6756 60.7632 69.8125C60.9453 71.3258 61.5017 72.6692 62.592 73.7578C63.2524 74.4165 64.0186 74.8827 64.9841 74.9399C65.2267 74.9538 65.2285 74.9711 65.2059 75.1774C64.6946 75.2745 64.178 75.2519 63.6702 75.2034C63.2611 75.1635 62.8555 75.1375 62.4498 75.1601C61.7825 75.1947 61.1689 75.0405 60.5847 74.7337C59.2136 73.9519 58.392 72.7541 57.9482 71.2651C57.7801 70.7018 57.7697 70.7035 57.1803 70.7035C55.2146 70.7035 53.249 70.7104 51.2816 70.6966C50.9245 70.6948 50.7026 70.785 50.6367 71.1646C50.609 71.3275 50.557 71.5043 50.3594 71.565C50.0699 71.3293 49.9763 70.9757 50.1704 70.7052C50.3975 70.3898 50.6697 70.1471 51.1169 70.1558C52.1084 70.1748 53.0999 70.1627 54.0914 70.161C54.1971 70.161 54.3046 70.1714 54.4086 70.1575C54.5386 70.1419 54.757 70.2147 54.7553 70.0084C54.7536 69.7987 54.5403 69.8108 54.3843 69.8195C53.9649 69.842 53.5644 69.7207 53.1848 69.5924C52.7099 69.4312 52.4464 68.9944 52.254 68.5593C51.9888 67.9561 51.5606 67.6146 50.9123 67.5297C50.7425 67.5071 50.5743 67.4621 50.4166 67.391C50.2588 67.3199 50.0942 67.2419 50.16 67.0131C50.8014 66.7635 51.3509 66.9836 51.8414 67.3823C52.3164 67.7689 52.6873 68.2542 53.0046 68.7777C53.2178 69.1279 53.5159 69.2717 53.9215 69.296C54.8974 69.3549 55.8595 69.5577 56.8423 69.5369C56.9359 69.5352 57.026 69.5595 57.1006 69.6236C57.1751 69.9166 56.9619 69.9443 56.7643 69.9772C56.5216 70.0171 56.2737 69.946 56.0363 69.9876C56.0051 70.1384 56.1073 70.1419 56.1732 70.1471C56.591 70.18 57.0104 70.1644 57.4282 70.1592C57.7783 70.154 57.6431 69.8281 57.7541 69.6617C58.262 69.4849 58.4318 69.0637 58.5636 68.5905C58.8305 67.6267 59.1807 66.6872 59.5204 65.746C59.5603 65.6559 59.6019 65.5675 59.6296 65.4721C59.9503 64.569 60.238 63.6503 60.7823 62.846C60.8707 62.716 60.9539 62.5825 61.0649 62.4681C61.233 62.3069 61.3994 62.1457 61.5207 61.9412C62.7671 60.5025 64.3756 60.083 66.2009 60.2771C66.3448 60.2927 66.4887 60.3205 66.6325 60.3361C68.6519 60.5423 69.7683 61.8476 70.5483 63.5584C70.5986 63.6676 70.6072 63.7873 70.6142 63.9069C70.8135 64.5343 71.0475 65.1618 71.1255 65.8084C71.2052 66.4602 71.3352 67.1119 71.337 67.7741C71.337 68.3426 71.3214 68.9077 71.3994 69.4763C71.4462 69.8195 71.5935 69.9391 71.9107 69.9113C71.9367 69.9096 71.9645 69.9113 71.9905 69.9113C75.8802 69.9044 79.7682 70.0483 83.6562 69.9894C84.1867 69.9807 84.7084 70.1003 85.2406 70.0708C86.759 69.9876 88.2775 70.0674 89.7942 70.0726C90.8654 70.076 91.935 70.0448 93.0062 69.9911C93.8798 69.9478 94.75 70.0379 95.6219 70.0674C96.239 70.0882 96.239 70.0778 96.291 69.4589C96.4609 68.7413 96.5666 68.0115 96.7087 67.2887C96.9999 65.9575 97.3328 64.6401 97.9706 63.4215C98.6553 62.1163 99.5602 61.0086 101.023 60.5926C102.479 60.1783 103.98 60.0587 105.39 60.8041C106.551 61.4194 107.246 62.4612 107.754 63.6416C108.17 64.6089 108.413 65.6195 108.487 66.6699C108.499 66.8294 108.536 66.9836 108.563 67.1396C108.6 68.0601 108.635 68.9788 108.368 69.8767C108.283 70.1627 108.321 70.336 108.674 70.3256C108.803 70.3222 108.978 70.2962 109.019 70.499L109.021 70.5007Z" fill="black"/>
<path d="M50.182 67.022C50.1993 67.2439 50.3744 67.2889 50.5408 67.3305C50.7956 67.3947 51.0539 67.4415 51.3105 67.4987C51.8842 67.6287 52.1251 68.0863 52.3834 68.5509C52.6608 69.0466 52.9104 69.5684 53.6367 69.5874C53.947 69.5961 54.2486 69.7486 54.5952 69.6828C54.7981 69.6446 54.9385 69.8492 54.9419 70.0745C54.9454 70.3328 54.7426 70.2721 54.597 70.2721C53.4616 70.2756 52.3245 70.2739 51.1891 70.2739C50.2999 70.2739 49.9705 70.7904 50.3571 71.5774C50.4559 71.7247 50.3675 71.8564 50.3137 71.9864C49.8024 73.2622 48.9496 74.2191 47.6859 74.7911C47.1832 75.0528 46.6528 75.1655 46.0843 75.1534C45.2938 75.136 44.5017 75.1759 43.7112 75.1499C43.2224 75.1343 42.7371 75.0615 42.3904 74.6507C40.8685 73.7927 39.9602 72.4614 39.5823 70.7973C39.4384 70.1646 39.142 69.967 38.5665 69.8665C37.7466 69.7244 36.944 69.4938 36.1328 69.2997C36.3842 69.1575 36.4362 68.9634 36.346 68.6861C36.2854 68.5006 36.3148 68.2926 36.3287 68.095C36.3755 67.412 36.8036 66.9752 37.4883 66.9076C37.5941 66.8972 37.6998 66.8972 37.8055 66.8972C41.3885 66.8972 44.9697 66.8937 48.5526 66.8972C48.719 66.9145 48.8854 66.9093 49.0536 66.9041C49.1489 66.8937 49.2442 66.9059 49.3396 66.9041C49.6239 66.9215 49.9237 66.8192 50.182 67.0203V67.022Z" fill="black"/>
<path d="M84.1664 46.618C85.3711 46.9578 86.451 47.5645 87.5188 48.1902C89.6699 49.4504 91.7882 50.7661 93.8145 52.2204C93.6169 52.4613 93.3638 52.6468 93.2165 52.9432C93.0917 53.1946 92.9218 52.9917 92.8022 52.8912C92.2544 52.4319 91.7015 51.9829 91.1312 51.5513C89.6699 50.4471 88.0683 49.5717 86.4961 48.6478C84.3952 47.4119 82.1071 46.8642 79.6977 46.7064C78.5641 46.6319 77.4322 46.5712 76.295 46.5522C75.5427 46.5383 74.7905 46.4499 74.0382 46.4863C72.2042 46.5747 70.3668 46.5418 68.5364 46.7047C68.0233 46.7498 67.5119 46.7983 66.9988 46.8555C65.1562 47.0566 63.7764 48.0429 62.6359 49.4209C62.121 50.0432 61.705 50.7418 61.4398 51.5114C61.1729 52.2845 61.4208 52.6728 62.2372 52.7647C63.1559 52.8687 64.0781 52.9293 64.9985 53.0143C65.1857 53.0316 65.3712 53.0403 65.4925 53.2136C65.7889 53.8376 66.0264 54.4859 66.2309 55.1446C66.2673 55.2625 66.3332 55.4029 66.1443 55.4688C65.0453 55.4861 63.9532 55.37 62.8577 55.3353C61.8801 55.3041 60.9042 55.259 59.9266 55.2313C59.5955 55.2226 59.2644 55.2486 58.9351 55.2088C58.8449 55.1984 58.7617 55.1654 58.6872 55.1117C58.0666 54.323 57.2623 53.7163 56.5568 53.0091C56.2223 52.6745 55.9969 52.2863 55.8496 51.8442C55.9328 51.5548 56.1495 51.3502 56.3246 51.1231C57.2277 49.9687 58.0632 48.764 58.9212 47.5783C59.0841 47.353 59.1829 47.1207 59.0651 46.8416C59.0287 46.755 59.0165 46.6614 59.098 46.5851C60.3512 45.5589 61.8697 45.4307 63.3934 45.2989C64.4629 45.2053 65.5358 45.181 66.6036 45.2313C68.5173 45.3215 70.4344 45.3457 72.3481 45.4376C73.5095 45.4931 74.6709 45.552 75.8322 45.6248C76.7943 45.6855 77.7598 45.7288 78.7183 45.8328C79.1673 45.8813 79.6162 45.8449 80.0652 45.8917C81.3756 46.0287 82.6792 46.1934 83.9393 46.6024C84.0139 46.6267 84.0849 46.6718 84.1647 46.6198L84.1664 46.618Z" fill="#3A91F0"/>
<path d="M61.1513 62.5046C60.5359 63.2794 60.1684 64.1756 59.8685 65.1047C59.8235 65.2416 59.7645 65.3751 59.7125 65.5086C59.4872 65.7599 58.5754 65.8899 58.3189 65.7044C58.1975 65.6178 58.1802 65.4843 58.1698 65.3525C58.1473 65.0735 58.1646 64.7979 58.2132 64.5222C58.2721 64.1981 58.1438 63.9866 57.8439 63.8653C57.154 63.5845 56.4382 63.4025 55.7101 63.2655C55.4692 63.2205 55.2334 63.2707 55.0133 63.373C53.8433 63.9208 52.5848 63.9676 51.3298 64.0369C49.2827 64.1496 47.2303 64.0525 45.1867 64.1374C43.0442 64.2258 40.9034 64.1981 38.7627 64.1842C37.421 64.1756 36.0638 64.1669 34.7603 63.7388C34.112 63.5255 34.053 63.4111 34.2957 62.7663C34.3096 62.7282 34.3113 62.69 34.3131 62.6502C34.4361 62.463 34.5592 62.2758 34.6823 62.0903C34.8123 61.7315 35.0896 61.6171 35.4467 61.6084C35.6304 61.6032 35.8176 61.5512 35.9996 61.5755C36.8178 61.6847 37.636 61.5755 38.4524 61.5755C44.1033 61.5651 49.7542 61.5703 55.4033 61.5703C55.5489 61.5703 55.6945 61.5772 55.8384 61.6015C56.9859 61.7921 58.1386 61.891 59.3017 61.7679C59.4352 61.754 59.5652 61.7609 59.69 61.8112C60.0818 61.9672 60.4908 62.0712 60.8913 62.203C61.0317 62.2498 61.2293 62.2619 61.1495 62.5028L61.1513 62.5046Z" fill="#0C72ED"/>
<path d="M55.8894 51.844C56.3939 53.0002 57.479 53.6381 58.2902 54.5186C58.4323 54.6729 58.5987 54.8064 58.6698 55.0144C58.6126 55.0802 58.5363 55.0993 58.4566 55.0958C57.0335 55.0265 55.6086 55.1166 54.189 55.049C53.6065 55.0213 53.0415 55.0508 52.4712 55.1357C47.8274 55.1825 43.1854 55.1444 38.5416 55.1565C38.2105 55.1565 37.8812 55.153 37.5501 55.1756C36.8688 54.9312 36.1772 55.0352 35.4873 55.1132C35.3677 55.127 35.2481 55.1253 35.1562 55.0282C35.2377 54.5117 35.5445 54.1147 35.8652 53.7317C36.3055 53.2064 36.7198 52.6587 37.245 52.2097C37.3247 52.182 37.4079 52.1907 37.4738 52.234C37.9332 52.5356 38.448 52.5235 38.9663 52.5235C43.9255 52.52 48.8865 52.5148 53.8458 52.5287C54.4819 52.5287 55.0522 52.4299 55.5341 51.9913C55.6294 51.9047 55.7421 51.8232 55.8894 51.8457V51.844Z" fill="#0D73ED"/>
<path d="M106.808 67.1623C106.55 65.6819 105.979 64.3628 104.879 63.3089C103.816 62.2914 102.225 62.0539 100.923 62.7282C99.5815 63.4233 98.8032 64.5882 98.304 65.9662C97.7649 67.4535 97.6869 68.9823 98.0093 70.5181C98.3456 72.1181 99.1152 73.4684 100.459 74.4581C100.8 74.7095 101.093 74.895 101.561 75.044C101.561 75.0492 101.563 75.051 101.563 75.0562C101.74 75.0943 101.972 75.1342 102.235 75.1342C102.549 75.1342 102.875 75.1428 103.097 75.096C103.312 75.0388 103.372 75.0076 103.541 74.9418C103.69 74.8828 103.814 74.8031 103.953 74.7112C105.518 73.7006 106.34 72.3001 106.725 70.6048C107.032 69.4642 107.009 68.3167 106.808 67.1623Z" fill="#363738"/>
<path d="M55.9009 61.6987C50.0697 61.6987 44.2386 61.6987 38.4057 61.7021C37.9793 61.7021 37.5529 61.7593 37.1265 61.7715C36.8907 61.7784 36.655 61.794 36.4175 61.7316C35.9443 61.6068 35.4763 61.7749 35.0048 61.7836C34.8141 61.7871 34.873 62.0731 34.6841 62.0921C34.7864 61.8529 34.7794 61.6137 34.7378 61.3589C34.6096 60.5771 34.509 59.7919 34.516 58.9963C34.8886 58.8074 35.2648 58.8334 35.6427 58.9772C35.6583 59.2095 35.4641 59.1575 35.3411 59.1887C35.1955 59.2268 35.0308 59.1748 34.8852 59.2702C34.9684 59.4106 35.0845 59.3603 35.1781 59.3586C40.5291 59.3326 45.8801 59.3256 51.2294 59.369C52.708 59.3811 54.1831 59.2736 55.66 59.3499C55.9408 59.3638 56.18 59.2944 56.3689 59.0795C56.6255 59.135 56.5683 59.3308 56.4972 59.4643C56.1297 60.1663 56.0361 60.936 55.9026 61.6987H55.9009Z" fill="#0961CB"/>
<path d="M112.352 63.1338C112.393 64.394 112.18 65.6265 111.943 66.8554C110.835 66.9629 109.379 66.3528 109.105 65.0336C108.968 64.3732 108.72 63.7457 108.46 63.1217C107.871 61.7072 106.893 60.6585 105.569 59.9184C103.699 58.8697 101.83 58.9407 99.9752 59.9617C98.3007 60.8839 97.2104 62.3018 96.5257 64.0595C96.4529 64.2449 96.4009 64.4391 96.29 64.6038C96.1912 64.7511 96.0664 64.8499 95.926 64.6332C95.8809 64.1288 96.0005 63.6383 96.0577 63.1425C96.212 61.7922 96.3108 60.4384 96.2882 59.0777C96.2778 58.4069 96.2882 57.736 96.2553 57.0652C96.4182 56.8381 96.6574 56.9005 96.8724 56.9196C98.2955 57.0444 99.7013 57.2836 101.104 57.5471C102.69 57.8452 104.264 58.1902 105.76 58.8142C106.723 59.2164 107.645 59.7086 108.545 60.2373C108.97 60.6516 109.285 61.1578 109.696 61.5876C110.313 62.2325 111.027 62.6901 111.885 62.9345C112.047 62.9796 112.227 62.9969 112.352 63.1338Z" fill="#095ABB"/>
<path d="M65.443 53.2812C65.3944 53.1443 65.287 53.1287 65.1587 53.1183C64.1845 53.0437 63.2121 52.9623 62.2379 52.8825C61.3625 52.8097 60.9916 52.3192 61.3279 51.5149C62.3835 48.9928 64.0857 47.1987 66.9285 46.7636C68.7226 46.4897 70.5357 46.5036 72.3419 46.4291C74.604 46.3372 76.8626 46.4291 79.1195 46.5504C81.4786 46.6769 83.7962 47.0462 85.904 48.2093C88.5474 49.6671 90.6691 50.8614 93.0976 53.0125C93.2467 52.6641 93.3732 52.2914 93.8118 52.2238C94.389 52.3122 94.9766 52.34 95.54 52.5168C95.7636 52.6208 95.8988 52.8166 96.034 53.0073C96.1016 53.1027 96.2125 53.2257 96.0062 53.3055C95.507 52.9588 94.9471 52.782 94.3474 52.7109C93.869 52.6554 93.6956 52.7473 93.5656 53.2205C93.4634 53.5897 93.3923 53.9659 93.4062 54.3542C93.4218 54.7858 93.4616 54.8187 93.888 54.8465C94.6126 54.8915 95.3372 54.947 96.0652 54.9262C96.1848 54.9227 96.3044 54.9314 96.4049 55.0129C96.4483 55.0787 96.4465 55.1446 96.4049 55.2105C96.346 55.259 96.2784 55.2833 96.2039 55.2919C95.7376 55.3093 95.273 55.2954 94.8067 55.3023C93.8898 55.3162 92.978 55.2399 92.068 55.1463C91.9258 55.1307 91.7802 55.1411 91.6364 55.1515C90.6032 55.1637 89.5788 55.0285 88.5509 54.9643C87.575 54.9037 86.6008 54.8361 85.6249 54.7581C84.1897 54.6436 82.7527 54.5604 81.3157 54.4668C80.6431 54.4218 79.9706 54.368 79.298 54.3455C79.175 54.3455 79.0588 54.297 78.9375 54.29C77.107 54.2068 75.2817 54.0231 73.453 53.9018C71.0176 53.7405 68.5978 53.4008 66.1571 53.3176C66.0375 53.3141 65.9214 53.2933 65.8052 53.2725C65.6839 53.2396 65.5678 53.3835 65.443 53.2847V53.2812Z" fill="#020102"/>
<path d="M55.8903 51.844C55.2784 52.5062 54.5209 52.6622 53.6352 52.657C48.6759 52.6258 43.7167 52.6362 38.7574 52.6501C38.1958 52.6501 37.6827 52.5842 37.2441 52.2098C37.6671 51.6378 38.1906 51.1559 38.6759 50.6411C39.9708 49.263 41.354 47.9716 42.7078 46.6525C42.9124 46.4532 43.1498 46.4497 43.3977 46.4254C44.1951 46.3024 44.9976 46.2608 45.8054 46.2382C49.5339 46.1377 53.2642 46.1724 56.9945 46.1637C57.4469 46.1637 57.8941 46.2122 58.3361 46.2868C58.6187 46.3353 58.9186 46.3838 59.0746 46.682C59.3502 46.994 59.2358 47.2817 59.033 47.5747C58.0259 49.0273 56.9772 50.4504 55.8903 51.8423V51.844Z" fill="#010001"/>
<path d="M96.2576 55.1965C96.2992 55.1878 96.3426 55.1791 96.3842 55.1705C96.4414 55.1358 96.4986 55.0925 96.5644 55.0942C96.944 55.1081 97.2058 55.0058 97.1885 54.5516C97.1815 54.354 97.3705 54.3627 97.5057 54.3263C100.73 54.829 103.921 55.4617 106.939 56.7565C107.741 57.1015 108.514 57.5019 109.204 58.0462C109.315 58.1346 109.437 58.216 109.49 58.3564C109.584 58.4639 109.816 58.4847 109.717 58.7153C109.471 58.8245 109.229 58.6945 108.983 58.6997C108.62 58.7066 108.374 58.8297 108.31 59.2093C108.23 59.4502 108.384 59.6357 108.462 59.8368C108.528 60.0032 108.655 60.154 108.57 60.3499C107.637 59.861 106.727 59.3289 105.753 58.925C104.424 58.3738 103.033 58.0358 101.626 57.7619C99.9376 57.4325 98.2441 57.1275 96.5246 57.0079C96.4587 57.0027 96.3928 57.0079 96.327 57.0079C96.1293 56.9472 96.1068 56.7548 96.0444 56.604C95.9196 56.2989 95.8069 55.9886 95.6891 55.6801C95.5469 55.3022 95.592 55.2398 95.9837 55.2277C96.0756 55.2259 96.1692 55.2433 96.2559 55.1982L96.2576 55.1965Z" fill="#3A90F0"/>
<path d="M95.9978 64.7132C96.1954 64.7219 96.218 64.5676 96.2682 64.429C96.6115 63.512 97.0136 62.6228 97.629 61.8514C98.7557 60.4404 100.144 59.4489 101.971 59.149C103.729 58.8613 105.22 59.4194 106.594 60.482C107.816 61.4267 108.475 62.706 108.958 64.1204C109.118 64.5902 109.192 65.0842 109.411 65.5418C109.664 66.074 110.108 66.3392 110.607 66.5506C111.033 66.7309 111.5 66.7465 111.943 66.8557C111.919 66.984 111.897 67.1123 111.872 67.2405C111.694 67.426 111.456 67.3931 111.243 67.3757C110.512 67.3168 109.78 67.296 109.049 67.2925C108.837 67.2925 108.631 67.2527 108.468 67.0949C108.362 66.7847 108.366 66.457 108.317 66.1381C108.022 64.1499 107.362 62.3454 105.674 61.0939C105.053 60.6346 104.323 60.4491 103.55 60.4317C102.729 60.4144 101.907 60.4144 101.117 60.6606C99.6865 61.106 98.7834 62.1409 98.0987 63.4149C97.4469 64.6248 97.1436 65.9492 96.8056 67.2631C96.263 67.2475 95.6754 66.8835 95.5801 66.5038C95.6095 65.9457 95.7985 65.4118 95.847 64.8554C95.854 64.7791 95.9008 64.708 95.9996 64.7132H95.9978Z" fill="#0D72EB"/>
<path d="M59.0751 46.6837C58.4944 46.3318 57.8392 46.3092 57.1961 46.3075C54.1678 46.2971 51.1396 46.3006 48.1113 46.3214C46.5391 46.3318 44.9669 46.389 43.3965 46.4254C44.5371 45.9643 45.7348 45.7147 46.9361 45.4998C49.7477 44.9971 52.5974 45.0976 55.4332 44.9971C59.6922 44.8445 63.9477 45.0109 68.2049 45.0456C70.1862 45.0612 72.1709 45.1115 74.1487 45.2553C76.9915 45.4633 79.8377 45.6384 82.6424 46.2018C83.1589 46.3058 83.6651 46.4427 84.1626 46.6178C84.1071 46.701 84.0325 46.6871 83.9528 46.6611C82.32 46.1428 80.642 45.9955 78.9381 45.9556C77.6138 45.9262 76.2912 45.7632 74.9669 45.6662C74.5075 45.6332 74.0447 45.6072 73.5888 45.5968C72.4413 45.5708 71.2955 45.5154 70.148 45.4807C68.2378 45.4235 66.3259 45.2779 64.4174 45.3576C63.0966 45.4113 61.7653 45.4772 60.4895 45.9054C60.0943 46.0388 59.7615 46.2711 59.4478 46.5277C59.3282 46.6265 59.2085 46.6594 59.0733 46.6819L59.0751 46.6837Z" fill="#0D74EE"/>
<path d="M34.3126 62.652C34.3992 62.9241 34.004 63.2708 34.3074 63.4389C34.7112 63.6625 35.1862 63.7718 35.6577 63.8411C38.0446 64.1964 40.4488 64.0803 42.8461 64.0664C45.051 64.0543 47.2558 64.03 49.459 63.9798C50.7573 63.9503 52.066 63.9607 53.3557 63.7527C53.9398 63.6591 54.5136 63.4979 55.0457 63.2292C55.2867 63.1061 55.5398 63.0853 55.779 63.1408C56.4949 63.3072 57.216 63.4632 57.8972 63.7527C58.3461 63.9434 58.4553 64.108 58.3392 64.5708C58.2699 64.8482 58.3011 65.1221 58.2855 65.3959C58.2768 65.5416 58.3028 65.6768 58.49 65.6594C58.8991 65.6196 59.3376 65.7981 59.7155 65.5086C59.6895 65.5918 59.6635 65.675 59.6392 65.76C59.2094 65.9645 58.7483 65.9004 58.3097 65.8605C57.1328 65.7513 55.9558 65.8224 54.7788 65.7964C54.0248 65.7808 53.2707 65.8241 52.5167 65.7721C52.222 65.7357 52.0036 65.5572 51.813 65.3578C51.3155 64.8343 50.7278 64.6593 49.9998 64.6645C45.8067 64.6939 41.6119 64.6905 37.4188 64.6662C36.7913 64.6627 36.3389 64.8205 36.0598 65.3959C35.9905 65.5364 35.8986 65.6716 35.7426 65.7392C35.3145 65.7946 34.8846 65.8848 34.472 65.6716C34.2848 64.869 34.1479 64.0595 34.1236 63.2327C34.1167 63.0143 34.1722 62.8201 34.3178 62.652H34.3126Z" fill="#0A5DC3"/>
<path d="M34.4666 65.6715C34.8895 65.6784 35.3142 65.6836 35.7372 65.6906C39.6581 65.7131 43.5773 65.694 47.4983 65.701C47.7357 65.701 47.9732 65.6906 48.209 65.7235C48.5608 65.8691 48.9526 65.8535 49.3062 65.9957C49.4691 66.0615 49.6407 66.1361 49.4622 66.3579C49.3998 66.4359 49.3946 66.5278 49.4431 66.6162C49.5419 66.8 49.4293 66.9092 49.3079 67.0184C49.2282 67.0184 49.1467 67.0184 49.067 67.0184C48.9093 66.9109 48.7515 66.9126 48.5938 67.0184C45.0247 67.0184 41.4556 67.0392 37.8866 67.0114C36.4409 67.001 36.3473 67.8781 36.4756 68.8055C36.4981 68.9736 36.5033 69.1799 36.7165 69.2787C36.5068 69.4018 36.3144 69.1314 36.1324 69.2995C35.6488 69.1262 35.4563 68.698 35.2674 68.282C34.8895 67.4482 34.5844 66.5867 34.4648 65.6715H34.4666Z" fill="#161616"/>
<path d="M34.7077 56.6163C34.8031 56.1587 34.8949 55.701 35.0977 55.2764C35.1757 55.1966 35.2763 55.1741 35.3803 55.1498C35.8067 55.0458 36.2453 55.051 36.6769 55.0129C37.1553 54.9695 37.5141 55.2209 37.7134 55.6646C37.9943 56.2956 37.9336 56.956 37.8642 57.6147C37.8556 57.6927 37.8018 57.7586 37.7394 57.8106C37.4465 57.5956 37.1276 57.6719 36.8138 57.7343C36.2851 57.8418 35.746 57.8609 35.2104 57.9111C34.6748 57.9614 34.5847 57.8366 34.6453 57.3114C34.6713 57.0808 34.7563 56.8537 34.7077 56.6163Z" fill="#2780EC"/>
<path d="M34.7073 56.6162C34.9049 56.897 34.6778 57.1709 34.6882 57.45C34.6986 57.7169 34.7645 57.8383 35.0453 57.8088C35.8946 57.7204 36.7527 57.6979 37.5795 57.45C37.6852 57.547 37.5812 57.7152 37.7008 57.8088C37.7979 58.2352 37.472 58.7587 36.9555 58.8211C36.1356 58.9199 35.3053 58.9407 34.4802 58.8055C34.4438 58.0636 34.5426 57.3373 34.7038 56.6162H34.7073Z" fill="#1779DB"/>
<path d="M34.4837 58.8057C35.1909 58.7901 35.8999 58.7745 36.6071 58.7589C37.2311 58.745 37.5743 58.4486 37.7026 57.8072C37.8586 57.1589 37.8673 56.5037 37.6766 55.8675C37.4963 55.2678 37.089 55.0528 36.4632 55.1308C36.0091 55.1881 35.5532 55.2279 35.0973 55.2747C35.0938 55.1881 35.0869 55.0979 35.1562 55.0286C35.6017 54.9904 36.0489 54.9627 36.4927 54.909C36.848 54.8656 37.1722 54.9194 37.4738 55.1118C37.8673 55.2678 37.9591 55.6301 38.051 55.9819C38.1533 56.3754 38.1533 56.781 38.1411 57.1849C38.1186 57.4068 38.0822 57.6287 38.0458 57.8488C37.9106 58.6392 37.3715 59.1038 36.5724 59.1055C36.2639 59.1055 35.9415 59.1922 35.6485 59.0119C35.2706 59.0067 34.8928 59.0015 34.5149 58.9963C34.4594 58.9391 34.4698 58.8733 34.4837 58.8057Z" fill="#000F26"/>
<path d="M97.5069 54.3267C97.3908 54.3995 97.2781 54.4428 97.2712 54.6353C97.2521 55.1951 97.2365 55.1951 96.6593 55.1865C96.5674 55.1865 96.4773 55.1761 96.3854 55.1709C96.3854 55.1258 96.3854 55.0807 96.3854 55.0339C96.349 54.9785 96.3126 54.923 96.3022 54.8554C96.2606 54.559 96.3247 54.2574 96.245 53.9644C96.2086 53.7235 95.985 53.5345 96.0526 53.2659C95.9572 52.9625 95.7059 52.7667 95.543 52.5118C96.3906 52.6765 96.9349 53.1792 97.1949 53.9956C97.2486 54.162 97.2816 54.3302 97.5069 54.3267Z" fill="#0B69DA"/>
<path d="M67.0556 74.6294C66.4836 74.8912 65.9289 75.2136 65.2598 75.1113C64.9963 74.9571 64.6965 75.0749 64.4157 74.9831C62.7499 74.444 61.7722 73.2306 61.1239 71.6827C60.8275 70.9754 60.7166 70.2231 60.5883 69.4761C60.3872 68.9491 60.3872 68.4221 60.5883 67.8952C60.7304 67.285 60.7703 66.6541 60.9818 66.0561C61.5295 64.5064 62.3841 63.2046 63.9823 62.5858C65.3448 62.0588 66.6049 62.3604 67.697 63.2948C69.0074 64.4163 69.6072 65.9053 69.8013 67.5866C69.8135 67.6889 69.8481 67.7895 69.8741 67.8917C70.0717 68.3129 70.0596 68.7376 69.8863 69.1623C69.8031 69.6425 69.7875 70.133 69.6418 70.601C69.7511 70.7726 69.6592 70.939 69.6089 71.0933C69.2154 72.3223 68.6035 73.4178 67.6294 74.288C67.4578 74.4405 67.2723 74.5584 67.0556 74.6277V74.6294Z" fill="#363738"/>
<path d="M55.8998 61.6989C55.8755 61.6382 55.8253 61.5758 55.8305 61.5186C55.8963 60.8634 56.0281 60.2151 56.3019 59.6171C56.3851 59.4333 56.4683 59.2773 56.4545 59.0762C56.3765 59.0052 56.3418 58.9168 56.3487 58.811C56.7509 58.5007 57.231 58.3066 57.6107 57.9565C58.1705 57.4399 58.6212 56.8506 58.9176 56.1451C59.0667 55.788 58.9142 55.4552 58.8466 55.1154C60.8313 55.0929 62.8108 55.2004 64.7904 55.3408C65.2584 55.3737 65.7368 55.2593 66.1962 55.4274C66.3054 55.4812 66.3314 55.5869 66.3435 55.6909C66.4441 56.5645 66.6763 57.4208 66.6781 58.3066C66.5273 58.5354 66.3054 58.4557 66.106 58.421C64.9932 58.2251 63.9098 58.2633 62.842 58.6914C61.8973 59.071 61.1399 59.6812 60.4794 60.4335C60.2541 60.69 60.0218 60.9448 59.8537 61.2482C59.6665 61.5845 59.6786 61.6365 60.0339 61.7526C60.5297 61.9155 61.022 62.0889 61.5576 62.0282C61.4709 62.2293 61.308 62.3662 61.1485 62.5066C60.9197 62.1877 60.5245 62.2484 60.2159 62.1132C59.8034 61.9329 59.3718 61.8722 58.8916 61.919C57.94 62.0109 56.9814 61.8965 56.0315 61.7717C55.9847 61.7647 55.9414 61.7249 55.8981 61.7006L55.8998 61.6989Z" fill="#0A5ABF"/>
<path d="M80.8351 75.0265C80.6479 75.0265 80.4624 75.0265 80.2752 75.0265C80.2145 74.8878 80.1209 74.7907 79.9718 74.7353C79.327 74.4909 78.6614 74.3158 78.1552 73.7715C77.786 73.3746 77.3076 73.0799 77.0094 72.6067C76.7408 72.182 76.5224 71.74 76.5449 71.2182C76.5588 70.9131 76.5345 70.6167 76.252 70.3463C76.791 70.4469 77.2851 70.3515 77.7687 70.511C78.1726 70.6445 78.5816 70.6289 79.0081 70.4971C79.2663 70.4174 79.5766 70.4885 79.8609 70.5197C80.1746 70.5561 80.4849 70.615 80.8039 70.5977C80.9183 70.5907 80.9945 70.6427 81.0604 70.745C81.2719 71.0761 81.3637 71.0795 81.5544 70.7623C81.6168 70.6601 81.6879 70.5769 81.7988 70.6011C82.2824 70.7069 82.7123 70.4243 83.1855 70.4226C83.6934 70.4209 84.184 70.5838 84.6953 70.5301C84.8375 70.5145 84.8548 70.6739 84.9085 70.7797C85.0177 70.9963 85.153 71.0379 85.3246 70.823C85.5742 70.5075 85.9 70.4 86.297 70.4971C86.3854 70.5197 86.4825 70.5214 86.5726 70.5127C86.9973 70.4694 87.155 70.6202 87.0164 71.0258C86.8118 71.6186 86.5033 72.1698 86.3074 72.7713C86.2069 73.0816 85.8966 73.2654 85.6678 73.4924C85.3211 73.8339 84.8999 74.1373 84.4943 74.3331C84.0921 74.5273 83.664 74.8029 83.1162 74.7526C82.4541 74.6902 81.7728 74.6521 81.1037 74.8012C80.9599 74.8324 80.8489 74.8705 80.8368 75.0352L80.8351 75.0265Z" fill="black"/>
<path d="M49.3108 67.0168C49.3351 66.8625 49.4859 66.7343 49.2727 66.5505C49.1288 66.4257 49.3923 66.3113 49.472 66.1969C49.16 65.8918 48.685 66.0894 48.3574 65.8312C48.4909 65.6908 48.6694 65.7081 48.8376 65.7081C50.0163 65.7168 51.1967 65.6752 52.3754 65.7306C52.417 65.7324 52.4517 65.7133 52.4881 65.6977C54.7259 65.6665 56.9637 65.6578 59.2016 65.7549C59.3454 65.7618 59.491 65.7584 59.6366 65.7601C59.2258 66.8469 58.8601 67.9511 58.5273 69.064C58.4181 69.428 58.2205 69.6654 57.8079 69.6429C57.5704 69.7989 57.3312 69.7989 57.0938 69.6429C55.9445 69.707 54.8213 69.4453 53.6807 69.3933C53.3427 69.3777 53.1191 69.1628 52.9353 68.8767C52.6961 68.5058 52.4396 68.147 52.1466 67.809C51.6162 67.1954 50.9749 66.9457 50.1862 67.0203C49.8949 67.0185 49.6037 67.0168 49.3143 67.0151L49.3108 67.0168Z" fill="#1E1E1E"/>
<path d="M96.3973 69.3983C96.399 70.1956 96.3973 70.2268 95.6034 70.187C94.6673 70.1402 93.7296 70.0691 92.797 70.1263C91.7154 70.1922 90.6337 70.2286 89.5538 70.1852C88.571 70.1454 87.5847 70.3031 86.6053 70.1194C86.2881 70.0587 85.983 70.2112 85.6641 70.1974C82.6532 70.0622 79.637 70.187 76.6279 70.0951C74.9898 70.0448 73.3535 70.0674 71.7172 70.0466C71.3809 70.0414 71.3185 69.9356 71.2959 69.6184C71.211 68.3981 71.2561 67.1674 71.0533 65.9609C70.9441 65.3144 70.7881 64.6644 70.5176 64.0577C70.4795 63.971 70.4882 63.9103 70.5176 63.8375C70.7361 63.8653 70.7551 64.0559 70.8158 64.2085C71.1018 64.9365 71.2318 65.6992 71.3375 66.4688C71.4103 67.1275 71.4606 67.7862 71.4363 68.4484C71.4259 68.7465 71.549 68.8956 71.8558 68.8765C71.9078 68.873 71.9616 68.88 72.0153 68.8765C74.3554 68.821 76.6955 68.9233 79.0338 68.9805C81.0428 69.0291 83.0536 68.9562 85.0609 69.0516C86.6209 69.1244 88.1827 69.0412 89.7376 69.1296C91.5628 69.2336 93.3864 69.1573 95.2099 69.1972C95.6155 69.2059 96.0281 69.1937 96.4025 69.4L96.3973 69.3983Z" fill="#080809"/>
<path d="M71.2204 66.3858C71.0818 65.6283 70.9708 64.8622 70.6744 64.1428C70.6294 64.0353 70.612 63.914 70.515 63.8343C69.9949 62.3071 68.7174 60.5928 66.5628 60.4229C65.729 60.3571 64.9039 60.3016 64.0823 60.4749C63.0613 60.6916 62.2657 61.2896 61.5585 62.0263C61.3245 62.2118 61.0835 62.1771 60.8149 62.0887C60.4422 61.9657 60.0504 61.9033 59.6951 61.7265C59.6015 61.6797 59.4524 61.6641 59.5668 61.4786C60.2879 60.3155 61.2066 59.3344 62.4356 58.7329C63.597 58.1661 64.8537 58.0482 66.1329 58.3169C66.2855 58.3498 66.4467 58.3498 66.6027 58.3654C66.7431 58.4295 66.7777 58.5595 66.7881 58.6913C66.8505 59.4678 67.3238 59.9133 67.9842 60.2305C68.5649 60.5096 69.149 60.7818 69.6188 61.2498C70.6016 62.2309 71.0939 63.4495 71.3764 64.772C71.4909 65.3111 71.6659 65.8415 71.6659 66.4014C71.5082 66.5886 71.366 66.4153 71.217 66.3824L71.2204 66.3858Z" fill="#0D73ED"/>
<path d="M71.2205 66.3857C71.373 66.2904 71.4857 66.3996 71.6088 66.4585C71.8549 66.618 71.8462 66.8901 71.8844 67.1276C72.0265 68.003 72.4755 68.3965 73.3491 68.4155C78.5406 68.5351 83.7322 68.4797 88.9237 68.4918C90.5219 68.4953 92.1166 68.6097 93.7148 68.5698C94.6439 68.5455 95.0218 68.289 95.3165 67.4084C95.3875 67.1952 95.4361 66.9768 95.495 66.7601C95.5227 66.6579 95.5401 66.5487 95.6718 66.5261C95.7255 66.9716 96.1953 66.8607 96.4224 67.0843C96.516 67.1761 96.6754 67.2039 96.8037 67.2611C96.7084 67.9804 96.613 68.6998 96.3981 69.3966C94.5347 69.2701 92.6678 69.3585 90.8027 69.3065C87.166 69.2042 83.5276 69.1921 79.8909 69.1366C77.1539 69.095 74.4169 68.9962 71.6781 69.0101C71.3921 69.0101 71.2742 68.9494 71.2933 68.6391C71.3418 67.8851 71.2586 67.1345 71.2188 66.3823L71.2205 66.3857Z" fill="#095BBC"/>
<path d="M60.5876 67.8957C60.5876 68.4227 60.5876 68.9496 60.5876 69.4766C60.4628 69.6395 60.3917 69.799 60.4801 70.0208C60.5529 70.2046 60.5182 70.4126 60.435 70.5998C60.3293 70.8373 60.3397 71.0904 60.3501 71.34C60.357 71.5341 60.416 71.7525 60.6153 71.782C61.0296 71.8444 61.0781 72.1997 61.2376 72.4649C61.3624 72.6729 61.3173 72.8238 61.0331 72.8134C60.9273 72.8099 60.8216 72.8081 60.7158 72.8134C60.3224 72.8376 59.9635 72.8862 60.0034 72.2691C60.026 71.9241 59.5909 71.7698 59.1142 71.886C58.6583 71.9969 58.6791 71.9813 58.7155 71.522C58.745 71.1406 58.511 70.7471 58.7484 70.3658C58.7571 70.3519 58.7432 70.3103 58.7259 70.293C58.2336 69.7868 58.7155 69.428 58.9252 69.0397C59.0154 68.8716 59.0882 68.7139 59.0778 68.5197C59.0448 67.868 59.2321 67.3306 59.8041 66.9389C60.0173 66.7933 60.3276 66.554 59.8959 66.268C59.8093 66.2108 59.837 66.1328 59.8751 66.0583C59.9202 65.9699 59.9809 65.8954 60.0918 65.9404C60.2912 66.0202 60.39 65.9404 60.4368 65.748C60.4524 65.6804 60.4992 65.6197 60.5702 65.6249C60.6552 65.6301 60.6586 65.7081 60.6604 65.774C60.6656 66.0514 60.8892 66.379 60.461 66.5523C60.3761 66.587 60.331 66.6893 60.3934 66.7898C60.513 66.9822 60.4558 67.1919 60.3934 67.3618C60.2946 67.6236 60.4073 67.7588 60.5858 67.8922L60.5876 67.8957Z" fill="black"/>
<path d="M67.6525 62.4682C67.6525 62.3469 67.6421 62.2914 67.6542 62.2411C67.7097 62.0279 67.4913 61.6882 67.8865 61.631C68.3337 61.5668 68.6093 61.787 68.6908 62.2117C68.7896 62.7299 68.9109 62.8634 69.4951 62.9605C69.9475 63.035 69.8608 63.3626 69.8764 63.6538C69.8955 64.0196 69.6216 63.9 69.4344 63.9191C69.3425 63.9277 69.2489 63.9139 69.1588 63.9225C68.8763 63.9468 68.6336 63.9295 68.4828 63.6157C68.4082 63.4614 68.247 63.2985 68.0893 63.2413C67.6577 63.087 67.545 62.8097 67.6542 62.4665L67.6525 62.4682Z" fill="black"/>
<path d="M69.8852 69.1625C69.8817 68.7396 69.8765 68.3149 69.873 67.8919C70.1573 67.7879 70.4052 67.9873 70.6791 67.9942C70.7761 67.9977 70.8282 68.1017 70.8247 68.2022C70.8056 68.8106 71.0674 69.3757 71.1003 69.9807C71.1124 70.2078 71.0535 70.2667 70.8628 70.2736C70.7709 70.2771 70.6791 70.2736 70.5872 70.2736C70.2035 70.2736 70.062 70.0835 70.1625 69.7033C70.2336 69.4381 70.1972 69.2318 69.8869 69.1625H69.8852Z" fill="black"/>
<path d="M62.1814 63.2188C62.2924 62.7733 62.3842 62.4093 62.4709 62.0418C62.5212 61.8321 62.594 61.6692 62.8592 61.6934C63.0915 61.7142 63.3775 61.6709 63.4936 61.8945C63.608 62.1147 63.504 62.3469 63.296 62.522C63.1331 62.6589 62.88 62.7248 62.8748 63.0056C62.8748 63.0767 62.8072 63.0784 62.7552 63.0594C62.5593 62.9918 62.4033 63.1079 62.1797 63.2154L62.1814 63.2188Z" fill="black"/>
<path d="M57.0907 69.6427C57.3282 69.6427 57.5674 69.6427 57.8049 69.6427C57.8049 69.7224 57.7962 69.8022 57.8049 69.8784C57.8482 70.187 57.7286 70.2997 57.4114 70.2789C56.9919 70.2529 56.5707 70.2702 56.1495 70.2737C55.9536 70.2737 55.7924 70.2251 55.8323 69.9876C55.8721 69.7588 56.0385 69.8507 56.198 69.8455C56.5014 69.8351 56.881 70.0847 57.089 69.6427H57.0907Z" fill="black"/>
<path d="M67.3923 61.2218C66.6798 61.2218 66.0211 61.2218 65.3624 61.2218C65.2082 61.2218 65.1111 61.1819 65.1094 61.0034C65.1094 60.8491 65.151 60.7728 65.3174 60.733C65.567 60.6723 65.7767 60.7555 66.0003 60.83C66.3297 60.9392 66.6365 61.1542 67.0196 61.0068C67.1392 60.96 67.2692 61.0415 67.3923 61.2235V61.2218Z" fill="black"/>
<path d="M62.0456 63.2484C61.9086 63.4911 61.7959 63.7441 61.6278 63.9539C61.5706 64.025 61.4198 63.8898 61.4302 63.7875C61.4562 63.5136 61.6434 63.3177 61.8427 63.1513C61.9104 63.0941 62.0196 63.1375 62.0456 63.2484Z" fill="black"/>
<path d="M92.4279 70.5788C92.0846 70.5788 91.7397 70.5788 91.3965 70.5788C91.679 70.3691 92.2008 70.3691 92.4279 70.5788Z" fill="black"/>
<path d="M90.8375 70.5786C90.4406 70.5786 90.0454 70.5786 89.6484 70.5786C90.0454 70.4694 90.4406 70.4694 90.8375 70.5786Z" fill="black"/>
<path d="M48.5957 67.0165C48.7534 66.7929 48.9112 66.7929 49.0689 67.0165C48.9112 67.0165 48.7534 67.0165 48.5957 67.0165Z" fill="#1E1E1E"/>
<path d="M95.6701 66.5276C95.5817 66.857 95.5124 67.1915 95.4032 67.5122C95.1051 68.3858 94.7116 68.6666 93.7859 68.6701C92.5691 68.6736 91.354 68.6424 90.1371 68.6337C85.639 68.599 81.1391 68.6112 76.6409 68.5956C75.4917 68.5921 74.3407 68.5574 73.1914 68.5297C72.4339 68.5106 71.8879 68.0045 71.7839 67.2296C71.7492 66.9662 71.692 66.7114 71.6071 66.46C71.4234 65.4113 71.2327 64.3609 70.8496 63.3624C70.3365 62.0242 69.4906 60.9825 68.1368 60.4208C67.2753 60.0638 66.6964 59.5056 66.6531 58.5193C66.6513 58.469 66.6201 58.4188 66.6028 58.3702C66.4658 57.3891 66.3289 56.4098 66.1937 55.4287C66.0377 54.6798 65.6841 54.0003 65.4414 53.2844C65.5575 53.2948 65.5766 53.1579 65.6702 53.1354C66.0724 53.8721 66.3168 54.6694 66.5594 55.4668C66.7155 56.545 66.8715 57.6231 66.9997 58.7048C67.0691 59.3167 67.4313 59.6946 67.9635 59.9632C68.539 60.2527 69.1387 60.4919 69.6293 60.9443C70.6208 61.8596 71.1582 63.0123 71.484 64.2898C71.6678 65.0074 71.8082 65.7337 71.9521 66.4583C72.011 66.7027 72.037 66.954 72.0959 67.1984C72.2675 67.9195 72.6419 68.2315 73.3821 68.2471C74.0703 68.2627 74.7584 68.2506 75.4466 68.2506C76.6236 68.2506 77.8023 68.2541 78.9792 68.2506C79.4386 68.2489 79.4923 68.2038 79.5877 67.7497C79.6535 67.4394 79.7385 67.1326 79.7749 66.8154C79.7801 66.7686 79.7887 66.7235 79.7991 66.6784C79.898 66.2433 79.8321 65.8031 79.8425 65.3645C79.8355 65.2934 79.8459 65.2224 79.8425 65.1496C79.9777 63.9812 79.9326 62.806 79.9742 61.6342C80.0401 59.8003 79.8425 57.975 79.5357 56.1636C79.5079 55.6505 79.2809 55.1981 79.1075 54.7266C79.0416 54.5498 78.8943 54.38 78.9966 54.1667C79.0781 54.191 79.1595 54.2153 79.2393 54.2395C79.5859 54.6746 79.7038 55.2085 79.8737 55.7181C79.9188 55.8551 79.9378 56.0007 79.976 56.1428C80.4353 58.2974 80.5462 60.4798 80.4613 62.6708C80.4284 63.4976 80.3608 64.3262 80.2984 65.153C80.2949 65.2016 80.2862 65.2501 80.2758 65.2986C80.2082 65.491 80.2204 65.6904 80.2273 65.888C80.2464 66.5241 80.1978 67.1516 80.0401 67.7739C79.9378 68.1813 79.9916 68.2333 80.4128 68.2454C84.9023 68.3633 89.3918 68.3217 93.8813 68.3234C94.6544 68.3234 94.9144 68.0738 95.1935 67.117C95.5141 65.7545 95.736 64.3747 95.8729 62.9811C96.0324 61.3673 96.1555 59.75 96.1174 58.1258C96.1087 57.7809 96.048 57.4446 95.9926 57.1066C95.9024 56.5848 95.6823 56.1064 95.4968 55.6159C95.3703 55.2796 95.0375 55.4339 94.8242 55.3056C94.7878 55.2761 94.7774 55.2397 94.7913 55.1964C95.2784 55.1964 95.7637 55.1981 96.2508 55.1999C96.0844 55.342 95.866 55.212 95.658 55.3229C95.8782 55.8828 96.1 56.4462 96.3202 57.0095C96.4242 57.9005 96.3878 58.7949 96.3912 59.6894C96.3982 61.2581 96.2179 62.8112 96.0064 64.3609C95.9908 64.477 95.9943 64.5966 95.9891 64.7162C95.8799 65.3212 95.7724 65.9261 95.6632 66.5311L95.6701 66.5276Z" fill="#001431"/>
<path d="M58.8451 55.1152C59.1918 55.4723 59.1537 55.8831 58.9682 56.2818C58.4239 57.4536 57.5763 58.3272 56.3716 58.8351C56.2017 59.0171 55.9712 59.0275 55.7493 59.031C54.7474 59.0449 53.7438 59.0501 52.7418 59.031C52.0537 59.0171 51.6862 58.7138 51.4487 58.017C51.4193 57.4155 51.3551 56.807 51.5094 56.2159C51.6498 55.6769 51.9046 55.214 52.4905 55.0355C53.0175 54.8899 53.5531 54.9072 54.0939 54.9228C55.0941 54.9506 56.096 54.9384 57.0961 54.9436C57.6214 54.9471 58.1483 54.9263 58.6683 55.0182C58.7273 55.0511 58.7862 55.084 58.8434 55.117L58.8451 55.1152Z" fill="#000F26"/>
<path d="M52.4923 55.0356C51.7955 55.4811 51.5164 56.1363 51.5268 56.9406C51.532 57.2821 51.5286 57.6236 51.5303 57.9668C51.2772 57.8974 51.3448 57.6773 51.3327 57.5092C51.2928 56.9961 51.2928 56.9839 50.7711 56.9839C46.7773 56.9822 42.7836 56.9839 38.7898 56.977C38.5142 56.977 38.2802 57.0671 38.041 57.1711C38.0133 56.7933 38.0393 56.4154 37.9595 56.0392C37.885 55.6787 37.696 55.3909 37.4707 55.1153C37.5868 55.0425 37.7151 55.0304 37.8503 55.0304C42.7298 55.0339 47.6094 55.0356 52.4889 55.0373L52.4923 55.0356Z" fill="#0857B7"/>
<path d="M38.0418 57.1692C38.1129 56.9283 38.2498 56.8451 38.5202 56.8468C42.6942 56.859 46.8683 56.859 51.0423 56.8468C51.3838 56.8468 51.4722 56.956 51.4566 57.2767C51.4444 57.5038 51.3734 57.7517 51.5294 57.9666C51.857 58.7449 52.1205 58.92 52.9733 58.9217C53.7135 58.9217 54.4536 58.9165 55.1921 58.9252C55.589 58.9304 55.9825 58.9061 56.3725 58.8368C56.4661 58.894 56.454 58.9876 56.454 59.0777C56.35 59.4261 56.1125 59.5007 55.7675 59.4868C55.0551 59.4591 54.341 59.4781 53.6268 59.4781C47.6587 59.4781 41.6923 59.4781 35.7243 59.4781C35.4764 59.4781 35.225 59.4452 34.9772 59.5249C34.7882 59.5856 34.6669 59.4643 34.6322 59.2927C34.5871 59.0656 34.7622 59.0881 34.9096 59.0742C35.154 59.0517 35.4105 59.1453 35.6462 59.0118C35.9877 59.0084 36.3309 59.0066 36.6724 58.998C37.3294 58.9824 37.8945 58.4797 37.9465 57.8245C37.9638 57.6009 38.0158 57.3876 38.0401 57.1675L38.0418 57.1692Z" fill="#0D71EC"/>
<path d="M78.6197 51.2114C78.2973 49.9703 77.9732 48.7292 77.6508 47.4898C77.5814 47.235 77.7842 47.2211 77.9264 47.2177C78.904 47.1986 79.8851 47.1431 80.8593 47.2489C81.2805 47.2957 81.7 47.2662 82.1177 47.3113C83.3138 47.4742 84.4474 47.8504 85.5186 48.3964C87.6334 49.4745 89.6719 50.6775 91.5422 52.1474C91.8039 52.352 91.986 52.5825 92.0553 52.9136C92.1402 53.3262 92.2581 53.73 92.35 54.1409C92.4661 54.6626 92.3933 54.7406 91.8456 54.7181C91.7797 54.7146 91.7138 54.7059 91.6479 54.7007C91.6289 54.5898 91.7155 54.5707 91.7884 54.5499C91.9496 54.5049 92.1489 54.5101 92.1402 54.2639C92.1333 54.0368 92.0362 53.8531 91.8265 53.7543C91.537 53.6191 91.2285 53.5636 90.9095 53.5446C90.5646 53.5255 90.23 53.6226 89.8885 53.6278C89.7811 53.6278 89.6753 53.6226 89.5748 53.5827C89.4205 53.3816 89.2177 53.2551 88.9906 53.1389C87.1498 52.1942 85.1754 51.65 83.1716 51.2131C81.8802 50.9323 80.5594 50.8422 79.2385 50.7607C78.9387 50.7417 78.7203 50.7555 78.7376 51.1351C78.7393 51.1889 78.6804 51.2166 78.6215 51.2114H78.6197Z" fill="#E8D49F"/>
<path d="M78.6211 51.2117C78.6436 51.1666 78.6956 51.1111 78.6835 51.0782C78.4946 50.5859 78.7459 50.624 79.122 50.6448C81.1033 50.754 83.0638 50.9829 84.9775 51.5323C86.4561 51.957 87.9104 52.4389 89.2815 53.1479C89.4288 53.2241 89.6264 53.2865 89.5831 53.5257C89.59 53.6211 89.5276 53.6748 89.4566 53.7026C89.0145 53.8776 88.6419 54.1584 88.2813 54.4583C87.6573 54.5329 87.0402 54.4167 86.4231 54.3803C84.1264 54.2399 81.8331 54.0648 79.5381 53.9158C79.3266 53.9019 79.2416 53.8291 79.1966 53.6298C79.0128 52.822 78.8152 52.0177 78.6211 51.2117Z" fill="#D3B76D"/>
<path d="M79 54.1688C79.2011 54.805 79.5841 55.3822 79.624 56.0703C79.5391 56.1501 79.4351 56.157 79.3276 56.1501C77.7467 56.0651 76.1676 55.9577 74.5867 55.8918C73.3872 55.8415 72.1912 55.7358 70.9899 55.7046C69.605 55.6699 68.2252 55.5399 66.8385 55.5434C66.7067 55.5434 66.5732 55.5278 66.471 55.4255C66.2422 54.6472 65.8521 53.9261 65.6719 53.1305C67.0135 53.2328 68.3569 53.309 69.6934 53.4442C71.2933 53.6054 72.8967 53.732 74.5001 53.8499C75.9995 53.9608 77.4989 54.0613 78.9982 54.1653L79 54.1688Z" fill="#3A90F0"/>
<path d="M79.8783 56.0771C79.7379 55.441 79.4294 54.862 79.2422 54.2415C80.3516 54.212 81.4505 54.368 82.5564 54.42C83.8461 54.4807 85.134 54.6107 86.4219 54.7008C88.1588 54.8204 89.8957 54.9314 91.6325 55.0458C92.1387 54.9868 92.4906 55.226 92.7974 55.6057C93.0435 55.9107 93.3746 56.143 93.6017 56.4672C93.7143 56.6284 93.8027 56.8069 93.4994 56.8762C93.0088 56.93 92.5235 56.8346 92.0364 56.8034C90.1921 56.6856 88.3477 56.5746 86.4999 56.4949C84.7995 56.4203 83.099 56.3337 81.3985 56.247C80.8941 56.221 80.3672 56.2817 79.8766 56.0789L79.8783 56.0771Z" fill="#3C90F0"/>
<path d="M76.5482 47.3271C76.8533 48.5023 77.148 49.6793 77.3612 50.8754C77.2277 51.1475 76.9798 50.9759 76.7874 51.0244C76.7441 51.0106 76.7059 50.9898 76.6695 50.9638C76.2414 50.5044 75.7127 50.3467 75.0921 50.3727C74.4456 50.4004 73.7956 50.3779 73.149 50.3796C72.9895 50.3796 72.8197 50.3536 72.6775 50.4212C72.2563 50.624 71.9252 50.4628 71.5803 50.2219C70.7344 49.6308 69.8608 49.083 69.001 48.5127C68.7791 48.3654 68.474 48.2267 68.5486 47.8818C68.6196 47.549 68.9126 47.4138 69.2038 47.3063C69.4049 47.2318 69.6163 47.2144 69.8278 47.2144C71.9044 47.2144 73.981 47.2144 76.0577 47.2144C76.2293 47.2144 76.4043 47.2006 76.5465 47.3288L76.5482 47.3271Z" fill="#E8D49F"/>
<path d="M76.5458 47.3269C74.2958 47.3269 72.0476 47.3304 69.7977 47.3304C69.4025 47.3304 69.0367 47.4101 68.7403 47.6944C68.5635 47.8643 68.5288 48.0428 68.749 48.1902C69.8566 48.9355 70.9695 49.6722 72.0806 50.4124C72.1638 50.4678 72.247 50.4869 72.3354 50.421C72.5659 50.2512 72.8346 50.2668 73.0981 50.2668C73.866 50.2668 74.6321 50.2685 75.4 50.2668C75.9842 50.265 76.4505 50.4852 76.7781 50.9775C76.5839 51.1491 76.3326 51.1439 76.1055 51.1543C75.0811 51.1993 74.0601 51.2895 73.0357 51.3415C72.4723 51.3692 71.909 51.4143 71.3473 51.4507C70.751 51.5339 70.1496 51.5668 69.555 51.6587C69.5134 51.6674 69.4718 51.6691 69.4319 51.6639C68.5323 51.0815 67.5911 50.5649 66.707 49.9565C66.8561 49.1002 67.0138 48.2439 67.1456 47.3859C67.1802 47.1536 67.2669 47.0999 67.4905 47.0704C68.5791 46.9248 69.6746 46.9022 70.7701 46.8485C72.2626 46.774 73.755 46.7462 75.2492 46.7826C75.5266 46.7896 75.8022 46.8364 76.0778 46.8381C76.421 46.8381 76.551 47.0149 76.5475 47.3321L76.5458 47.3269Z" fill="#80827B"/>
<path d="M71.2949 51.3676C71.7144 51.2341 72.153 51.2809 72.5794 51.2445C73.9782 51.1266 75.3805 51.0625 76.7811 50.9776L76.795 50.9758C77.0446 51.1561 77.055 51.4542 77.1503 51.7091C77.3896 52.347 77.3913 53.049 77.6582 53.6817C77.4156 53.8446 77.1434 53.7649 76.8938 53.7441C75.1379 53.5985 73.3837 53.4338 71.6277 53.2761C71.4492 53.0732 71.5307 52.8254 71.5099 52.5948C71.4735 52.1805 71.5289 51.7507 71.2949 51.371V51.3676Z" fill="#3D4142"/>
<path d="M65.9106 49.3914C65.746 50.5319 65.427 51.6344 65.1046 52.749C64.8255 52.645 65.0803 52.2324 64.7198 52.2497C64.6557 52.2775 64.6279 52.2532 64.621 52.1873C64.5499 51.5737 64.0784 51.123 63.4458 51.0901C63.0661 51.071 62.6831 51.0554 62.3069 51.1421C62.1821 51.1698 62.0504 51.2114 61.9238 51.1317C62.0712 50.6308 62.3745 50.2147 62.6848 49.8091C63.0609 49.3186 63.4544 48.8384 63.9796 48.4935C64.179 48.4536 64.3333 48.5715 64.491 48.6547C64.9625 48.9043 65.4634 49.0967 65.9106 49.3914Z" fill="#E8D6A4"/>
<path d="M61.9253 51.1318C63.0104 50.8614 63.9915 50.8562 64.4907 51.5149C64.6519 51.7281 64.8721 51.9344 64.7213 52.2499C63.9603 52.4457 63.1924 52.5983 62.402 52.5671C62.2477 52.5601 62.0917 52.5116 61.9461 52.4561C61.5717 52.3123 61.4729 52.0904 61.6254 51.7142C61.7069 51.5132 61.7415 51.2826 61.9253 51.1318Z" fill="#908E8A"/>
<path d="M69.4018 51.6067C69.4261 51.6067 69.4503 51.6067 69.4746 51.6084C70.1506 51.7713 70.3656 52.411 69.9582 53.0437C69.6289 53.2309 69.2943 53.0679 68.9632 53.0523C68.4397 53.0263 67.9163 52.9847 67.3945 52.9483C67.1397 52.931 66.9438 52.8651 66.9196 52.5444C66.9022 52.3122 66.6994 52.1683 66.5469 52.0071C66.6179 51.8164 66.7844 51.7609 66.956 51.7505C67.5609 51.7124 68.1537 51.5963 68.7518 51.5113C68.9754 51.4801 69.199 51.4836 69.4018 51.6049V51.6067Z" fill="#D3B870"/>
<path d="M96.0531 53.2674C96.145 53.4772 96.3062 53.6575 96.3149 53.9001C96.3548 53.9556 96.3374 54.0128 96.275 54.0007C95.8989 53.9331 95.5817 54.1081 95.2558 54.2382C95.0668 54.3144 94.8762 54.3647 94.6803 54.2971C94.4289 54.2104 94.1689 54.174 93.9072 54.1584C93.7997 54.1515 93.6299 53.9799 93.5848 54.1896C93.5414 54.3855 93.5328 54.6247 93.8084 54.7096C93.9107 54.7408 94.0147 54.7599 94.1204 54.753C94.819 54.7114 95.5089 54.8778 96.2074 54.831C96.2733 54.8258 96.3392 54.8379 96.3964 54.8743C96.3946 54.9263 96.3929 54.98 96.3912 55.032C95.4933 55.0632 94.5988 54.9731 93.7027 54.9488C93.4721 54.9419 93.3178 54.857 93.3074 54.6074C93.2832 54.0509 93.3525 53.5067 93.5224 52.9728C93.6195 52.666 93.8136 52.5065 94.1412 52.5602C94.8242 52.6712 95.5349 52.718 96.0583 53.264L96.0531 53.2674Z" fill="#E4CF97"/>
<path d="M93.6264 56.7965C93.6732 56.5799 93.4947 56.4776 93.382 56.3545C93.025 55.968 92.6401 55.6074 92.29 55.2157C92.0958 54.999 91.822 55.2105 91.6348 55.0441C92.6904 55.0943 93.746 55.1446 94.8 55.1949C94.8052 55.2157 94.8121 55.2365 94.819 55.2555C94.8589 55.3422 94.5971 55.2347 94.7323 55.4306C94.9941 55.8085 95.1778 56.2366 95.3997 56.6423C95.45 56.7341 95.495 56.8329 95.4569 56.9439C95.4257 56.9751 95.391 56.9959 95.3494 57.0097C94.8589 57.0791 94.3787 56.9161 93.8899 56.9595C93.7807 56.9387 93.6524 56.9508 93.6264 56.7965Z" fill="#2461AA"/>
<path d="M69.4024 51.6069C68.5461 51.5705 67.7227 51.8687 66.8699 51.8704C66.7624 51.8704 66.6549 51.9605 66.5475 52.0091C66.2996 52.0593 66.3377 51.912 66.3672 51.7577C66.4833 51.1562 66.596 50.5547 66.7104 49.9532C67.6672 50.4074 68.5703 50.9517 69.4041 51.6069H69.4024Z" fill="#E6D5A6"/>
<path d="M69.9582 53.0439C69.9842 52.7769 70.0258 52.51 70.031 52.2413C70.038 51.8721 69.6757 51.808 69.4746 51.6086C70.0622 51.3833 70.6845 51.4301 71.2929 51.3659C71.4958 51.3486 71.5374 51.4093 71.5616 51.6381C71.6171 52.1841 71.6102 52.7284 71.6275 53.2727C71.0711 53.1912 70.4921 53.2865 69.9582 53.0439Z" fill="#282726"/>
<path d="M65.9115 49.3915C65.6012 49.4123 65.3828 49.1991 65.128 49.0795C64.7397 48.8957 64.3618 48.6895 63.9805 48.4936C64.5698 47.8904 65.3117 47.5732 66.1021 47.3443C66.2703 47.2958 66.3344 47.3669 66.2998 47.5177C66.1611 48.14 66.1299 48.7865 65.9115 49.3915Z" fill="#817E7A"/>
<path d="M88.281 54.46C88.5584 53.9296 89.1252 53.8048 89.5828 53.5275C89.6799 53.5275 89.7752 53.5292 89.8723 53.5309C90.4304 53.68 90.8794 54.0146 91.3093 54.3768C91.4046 54.4583 91.5138 54.5484 91.4826 54.7044C90.5015 54.6524 89.5187 54.6039 88.5376 54.5467C88.4509 54.5415 88.366 54.4895 88.2793 54.4583L88.281 54.46Z" fill="#323637"/>
<path d="M91.4814 54.7047C91.055 54.1621 90.431 53.8917 89.8711 53.5311C90.509 53.4427 91.1469 53.3647 91.7726 53.6022C91.9754 53.6785 92.1332 53.7773 92.2094 54.0096C92.3585 54.4741 92.2961 54.592 91.8212 54.6371C91.7605 54.6423 91.7033 54.6804 91.6461 54.7029C91.5906 54.7029 91.5369 54.7047 91.4814 54.7064V54.7047Z" fill="#A5A196"/>
<path d="M77.6582 53.678C77.4519 53.4458 77.3409 53.1805 77.308 52.8668C77.2387 52.2098 77.0203 51.591 76.7949 50.9739C76.9839 50.941 77.1711 50.9081 77.36 50.8751C77.6616 51.806 77.8003 52.7819 78.14 53.7162C77.965 53.8306 77.8142 53.7075 77.6582 53.6798V53.678Z" fill="#CFB571"/>
<path d="M82.1173 47.3112C81.4101 47.481 80.6976 47.3268 79.9887 47.3389C79.3023 47.3493 78.6158 47.3285 77.9294 47.325C77.8081 47.325 77.6486 47.2748 77.6503 47.4897C77.4354 46.7201 77.3678 46.8397 78.0542 46.8657C79.4184 46.9177 80.7774 47.0373 82.1173 47.3129V47.3112Z" fill="#807E76"/>
<path d="M45.4159 51.9291C43.8299 51.9291 42.2438 51.9291 40.6578 51.9291C40.604 51.7679 40.7254 51.6812 40.8155 51.5946C41.8625 50.5857 42.8211 49.4885 43.9616 48.5732C44.6775 47.9995 45.4974 47.7707 46.3659 47.6285C46.4959 47.6077 46.6276 47.5939 46.7559 47.5592C47.9952 47.5107 49.2329 47.5367 50.4723 47.5384C50.8311 47.5384 50.9316 47.6632 50.7791 47.9336C50.2712 48.8402 49.7876 49.7624 49.148 50.5909C49.1116 50.6187 49.0717 50.6395 49.0284 50.6551C48.4477 50.7764 47.8566 50.7643 47.2672 50.7799C46.8911 50.7903 46.5063 50.7937 46.1613 50.9844C46.0972 51.0295 46.0278 51.0659 45.962 51.1092C45.7765 51.2479 45.6066 51.3987 45.5546 51.6396C45.52 51.7419 45.5061 51.8528 45.4177 51.9291H45.4159Z" fill="#E2CB8D"/>
<path d="M57.5653 47.7256C57.21 48.4744 56.6432 49.0725 56.1526 49.726C55.981 49.9548 55.7799 50.161 55.591 50.3777C55.5251 50.2321 55.461 50.1298 55.2512 50.1506C53.7969 50.2841 52.3547 50.5233 50.8969 50.6152C50.6733 50.6291 50.6248 50.7036 50.7236 50.9116C50.7981 51.0693 50.9437 51.2721 50.6473 51.3831C50.6231 51.3813 50.6005 51.3744 50.5797 51.364C50.4619 51.0572 50.0666 50.8336 50.2937 50.4193C50.76 49.5613 51.28 48.7344 51.7758 47.8938C51.9248 47.6389 52.1225 47.5245 52.4189 47.5245C53.8836 47.5297 55.3466 47.5211 56.8113 47.5315C57.073 47.5332 57.3417 47.5471 57.5636 47.7239L57.5653 47.7256Z" fill="#E2CC8F"/>
<path d="M46.71 47.6563C46.5315 47.7638 46.3235 47.7378 46.1328 47.7586C44.9246 47.8955 44.0215 48.5802 43.1739 49.3706C42.2968 50.1871 41.4959 51.0763 40.6587 51.9291C40.1699 51.9291 39.6811 51.9343 39.1905 51.9326C39.0865 51.9326 38.9791 51.9239 38.8768 51.9014C38.2701 51.7679 38.2112 51.5981 38.6254 51.1456C39.7487 49.9149 40.9153 48.7258 42.139 47.5956C42.2604 47.483 42.3678 47.3304 42.5672 47.3391C42.7093 47.3894 42.8549 47.3634 42.9988 47.3651C45.1361 47.3668 47.2716 47.3651 49.4072 47.3668C49.5112 47.606 49.3118 47.554 49.2078 47.5575C48.8161 47.5696 48.4243 47.5575 48.0326 47.5644C47.5906 47.5696 47.1434 47.528 46.71 47.6563Z" fill="#6E7072"/>
<path d="M50.6502 51.3831C50.853 51.1613 50.6814 50.9914 50.5532 50.8371C50.34 50.5823 50.4769 50.5095 50.7144 50.5043C52.1288 50.4783 53.5155 50.149 54.9283 50.0952C55.1727 50.0866 55.4136 49.9808 55.6684 50.045C55.6892 50.1663 55.5471 50.2512 55.5956 50.376C55.1172 50.981 54.6734 51.6241 53.9142 51.9205C53.0787 51.8477 52.2432 51.9014 51.4077 51.891C51.2032 51.8893 51.0229 51.8702 50.8981 51.6882C50.8166 51.5859 50.7334 51.4837 50.652 51.3814L50.6502 51.3831Z" fill="#D5BA71"/>
<path d="M46.7107 47.6563C46.6518 47.6459 46.5929 47.6372 46.4473 47.6129C47.3729 47.4448 48.2171 47.4899 49.0578 47.4812C49.1964 47.4812 49.349 47.5315 49.4686 47.4084C49.7511 47.2957 50.0545 47.4344 50.337 47.3287C52.4708 47.3252 54.6046 47.3235 56.7385 47.3165C56.9257 47.3165 57.1059 47.3425 57.2827 47.3945C57.4474 47.4431 57.5636 47.5367 57.5653 47.7256C55.8111 47.5505 54.0517 47.6684 52.294 47.6216C52.0756 47.6164 52.0028 47.7395 51.9127 47.8938C51.3909 48.7656 50.8622 49.6323 50.3353 50.5025C49.9279 50.7556 49.5067 50.7851 49.0699 50.584C49.6506 49.6289 50.2313 48.6755 50.8553 47.6493C49.4252 47.6441 48.068 47.5991 46.709 47.658L46.7107 47.6563Z" fill="#65645C"/>
<path d="M49.0718 50.5821C49.4947 50.5786 49.9177 50.5665 50.3371 50.5006C50.3181 50.6635 50.2973 50.8144 50.4602 50.9409C50.5867 51.0397 50.6058 51.2044 50.5815 51.3638C50.7306 51.7417 50.5827 51.9312 50.1378 51.9324C48.5639 51.9324 46.9899 51.9307 45.416 51.9289C45.4438 51.8197 45.3917 51.6932 45.4906 51.6013C45.4992 51.61 45.5079 51.6221 45.5183 51.6291C45.527 51.636 45.5391 51.6395 45.5495 51.6429C45.5183 51.3621 45.8043 51.265 45.891 51.0536C45.936 51.0206 45.9811 50.986 46.0279 50.953C46.7178 50.726 47.4372 50.7884 48.1461 50.7416C48.4633 50.7208 48.7805 50.7242 49.0752 50.5821H49.0718Z" fill="#292827"/>
<path d="M50.3372 47.3285C50.0599 47.481 49.7565 47.3579 49.4688 47.4082C47.3073 47.4082 45.1457 47.4082 42.9842 47.403C42.8437 47.403 42.6929 47.4515 42.5664 47.3406C42.6704 47.3267 42.7761 47.3007 42.8802 47.3025C45.3658 47.3094 47.8515 47.3198 50.3372 47.3302V47.3285Z" fill="#8E9093"/>
<path d="M50.8965 51.6915C51.1738 51.8718 51.4841 51.8562 51.7979 51.8545C52.3785 51.8475 52.9592 51.851 53.5399 51.8562C53.6665 51.8562 53.8069 51.8094 53.9143 51.9238C52.987 51.9307 52.0596 51.9359 51.1322 51.9481C50.9416 51.9498 50.945 51.8042 50.8982 51.6915H50.8965Z" fill="#F3DEA3"/>
<path d="M52.4881 65.6974C52.5037 65.9574 52.3026 65.817 52.2212 65.8187C50.9333 65.8309 49.6453 65.8291 48.3574 65.8309C44.2978 65.8309 40.2382 65.8309 36.1786 65.8222C36.0312 65.8222 35.8215 65.9401 35.7383 65.6905C36.579 64.3401 36.3848 64.5464 37.8773 64.5447C41.9629 64.5377 46.0468 64.5551 50.1307 64.5256C50.8102 64.5204 51.3337 64.7198 51.7878 65.1895C51.9906 65.3992 52.2056 65.5951 52.4864 65.6991L52.4881 65.6974Z" fill="#010000"/>
<path d="M36.1235 57.3426C35.626 57.3547 35.3626 57.1398 35.3556 56.7151C35.347 56.2298 35.7179 55.9143 36.3142 55.9004C36.8897 55.8883 37.2104 56.1518 37.2173 56.6493C37.2242 57.0982 36.8689 57.3235 36.1235 57.3409V57.3426Z" fill="#8EC3F4"/>
<path d="M96.3912 54.8775C96.0879 55.0162 95.7585 54.9781 95.4569 54.9365C94.9698 54.8706 94.4862 54.881 94.0009 54.8602C93.4999 54.8394 93.3179 54.5569 93.4618 54.0784C93.4947 53.9675 93.5502 53.9588 93.6299 53.99C93.9523 54.1131 94.3129 54.0126 94.6301 54.1755C94.8 54.2622 94.9768 54.25 95.1588 54.1616C95.4188 54.0386 95.71 53.9762 95.9527 53.8288C96.1329 53.7179 96.1693 54.0351 96.3149 53.8982C96.464 54.2136 96.4051 54.5464 96.393 54.8758L96.3912 54.8775Z" fill="#C9AD5E"/>
<path d="M61.9297 68.693C61.98 67.2456 62.3492 65.9629 63.3996 64.9714C64.7083 63.7354 66.2511 63.9435 67.3015 65.3198C68.7402 67.204 68.709 70.0866 67.3136 71.9847C66.095 73.6401 63.7948 73.4425 62.7201 71.5947C62.1897 70.6829 61.98 69.6897 61.9297 68.6947V68.693Z" fill="#020202"/>
<path d="M93.6248 56.7967C93.6889 56.8695 93.7738 56.8505 93.8553 56.8539C94.1864 56.9978 94.3233 57.3428 94.5816 57.5629C94.7879 57.738 94.982 58.0482 95.268 57.9252C95.5506 57.8021 95.405 57.4606 95.4084 57.2093C95.4084 57.1191 95.3703 57.0273 95.4362 56.9441L95.4466 56.925C95.6736 56.7915 95.8868 56.769 96.0654 57.0047C96.2075 57.2266 96.2127 57.4936 96.2197 57.7328C96.2578 59.0276 96.2231 60.319 96.1157 61.6121C96.0151 62.8359 95.8972 64.0527 95.684 65.2609C95.5748 65.8815 95.5124 66.5107 95.2992 67.1105C95.2784 67.0983 95.2576 67.0862 95.2368 67.0741C94.8017 66.5714 94.1829 66.4206 93.5866 66.2784C91.8602 65.8624 90.1008 65.7099 88.3275 65.618C86.6132 65.5296 84.8988 65.5053 83.1845 65.4135C82.3819 65.3701 81.5759 65.332 80.7716 65.3129C80.5757 65.3077 80.3712 65.3441 80.2048 65.1968C80.2551 63.5917 80.418 61.9917 80.3573 60.3831C80.3071 59.0675 80.1701 57.7622 79.9188 56.4691C79.8945 56.3409 79.891 56.2091 79.8789 56.0791C80.8565 56.0323 81.829 56.145 82.8031 56.2004C83.396 56.2351 83.9888 56.2299 84.5834 56.2802C85.5159 56.3582 86.4572 56.3339 87.3932 56.3859C88.9064 56.4709 90.418 56.5835 91.9295 56.6841C92.4946 56.7222 93.0614 56.7586 93.6265 56.7967H93.6248Z" fill="#095ABB"/>
<path d="M66.4727 55.4271C68.3603 55.4115 70.2411 55.5519 72.1253 55.6524C73.3768 55.7183 74.6283 55.7564 75.8798 55.8258C77.1296 55.8951 78.3776 55.9887 79.6257 56.0719C79.8268 57.0374 79.9481 58.0168 80.0313 58.9979C80.1856 60.8145 80.059 62.6328 80.0278 64.4512C80.0244 64.7008 79.9793 64.9487 79.955 65.1965C79.799 65.3335 79.6066 65.304 79.4246 65.304C78.1818 65.3075 76.9389 65.3109 75.6961 65.304C74.663 65.2971 73.668 65.4496 72.7476 65.9506C72.4858 66.0927 72.3541 66.0026 72.2969 65.7339C72.2033 65.2919 72.1911 64.8412 72.1582 64.3957C72.0854 63.4215 71.8583 62.4942 71.444 61.6101C71.0298 60.7296 70.3659 60.0899 69.5494 59.5873C68.9254 59.2024 68.2459 58.9459 67.5595 58.7067C67.3446 58.6322 67.1227 58.575 66.9337 58.7743C66.8297 58.0896 66.7205 57.4049 66.6252 56.7202C66.5645 56.2921 66.5247 55.8604 66.4761 55.4306L66.4727 55.4271Z" fill="#0959BB"/>
<path d="M95.2985 67.1101C95.1564 68.0219 94.7282 68.4691 93.7852 68.4587C90.23 68.4206 86.6766 68.4552 83.1214 68.4223C82.1195 68.4136 81.1158 68.3946 80.1122 68.3859C79.8712 68.3842 79.7828 68.3426 79.8539 68.0704C80.0741 67.2384 80.1625 66.3873 80.1209 65.5241C80.1157 65.4305 80.1209 65.3386 80.1885 65.2623C80.4103 65.5258 80.3081 65.843 80.3219 66.1377C80.3427 66.6196 80.3601 66.6612 80.8471 66.6525C82.7764 66.6161 84.7022 66.7149 86.6298 66.7583C88.306 66.7964 89.9856 66.7478 91.6584 66.8293C92.7521 66.8813 93.8494 66.8623 94.9397 66.9784C95.0593 66.9905 95.1772 66.9975 95.2708 67.0859L95.2985 67.1119V67.1101Z" fill="#0958BB"/>
<path d="M66.9293 58.7707C66.9085 58.5575 66.9778 58.4725 67.2135 58.5159C67.9745 58.658 68.6627 58.9873 69.3422 59.3323C70.0286 59.6807 70.6041 60.1747 71.0738 60.7883C71.6198 61.5025 71.892 62.3311 72.1017 63.1908C72.3045 64.0246 72.2612 64.8861 72.4033 65.7268C72.4415 65.9487 72.4588 65.9972 72.6807 65.8655C73.452 65.4027 74.3118 65.2137 75.1976 65.1998C76.7819 65.1756 78.368 65.1946 79.9523 65.1946C79.9523 65.2466 79.9523 65.3004 79.9523 65.3524C79.8587 65.8013 79.9766 66.259 79.8882 66.7079C79.8916 66.7339 79.8864 66.7564 79.8726 66.779C79.6264 66.9714 79.3421 66.9142 79.0717 66.8847C78.179 66.7859 77.2811 66.7807 76.3884 66.7651C75.0832 66.7408 73.7849 66.6056 72.4796 66.5762C72.256 66.571 72.0324 66.5328 71.8383 66.3994C71.6146 65.2935 71.4274 64.1789 71.0028 63.1267C70.481 61.8319 69.649 60.823 68.3368 60.2475C67.8722 60.043 67.3782 59.8558 67.1061 59.367C67.0021 59.1798 66.9171 58.9908 66.9275 58.7724L66.9293 58.7707Z" fill="#0E73EC"/>
<path d="M95.2738 67.0843C94.18 67.0635 93.088 67.0409 91.9977 66.9525C91.7342 66.9317 91.469 66.9369 91.2038 66.9421C88.758 66.9959 86.3139 66.8728 83.8681 66.8364C82.7604 66.8208 81.651 66.8 80.5417 66.7878C80.2487 66.7844 80.1846 66.6734 80.195 66.4117C80.2088 66.0286 80.195 65.6455 80.1898 65.2607C80.188 65.2365 80.1932 65.2139 80.2054 65.1931C82.0098 65.1879 83.8091 65.3509 85.6136 65.3699C86.768 65.3821 87.9277 65.4462 89.0804 65.5225C90.5052 65.6161 91.9266 65.7617 93.3255 66.0806C93.9027 66.2124 94.4539 66.4065 94.9826 66.6682C95.1542 66.7532 95.3154 66.8468 95.2703 67.0825L95.2738 67.0843Z" fill="#0D71EC"/>
<path d="M71.8418 66.3976C72.8489 66.4652 73.856 66.5345 74.8631 66.6021C74.9411 66.6073 75.0209 66.6212 75.0989 66.6177C76.2724 66.5657 77.4424 66.7131 78.6159 66.7131C79.0319 66.7131 79.4532 66.7876 79.8744 66.7772C79.8744 67.2573 79.6958 67.7046 79.6161 68.1709C79.5745 68.4101 79.3821 68.3754 79.2122 68.3754C77.4303 68.3719 75.6466 68.3685 73.8647 68.365C73.7069 68.365 73.5475 68.365 73.3897 68.365C72.5698 68.3563 72.1105 67.9802 71.9579 67.1793C71.9077 66.9211 71.8799 66.6593 71.8435 66.3993L71.8418 66.3976Z" fill="#085ABB"/>
<path d="M96.0654 57.0045C95.8712 56.8814 95.6528 56.9542 95.4465 56.9248C95.1553 56.3839 94.8624 55.8431 94.5625 55.2884C94.6474 55.278 94.7324 55.2676 94.8173 55.2555C95.502 55.278 95.5107 55.2746 95.7412 55.9177C95.8677 56.273 96.0428 56.6162 96.0654 57.0028V57.0045Z" fill="#3C90EC"/>
<path d="M79.8894 66.7062C79.905 66.2538 79.801 65.7962 79.9535 65.3507C79.9535 65.8031 80.0177 66.259 79.8894 66.7062Z" fill="#0959BB"/>
<path d="M51.7911 57.9581C51.6229 57.2127 51.6628 56.4864 52.0182 55.8C52.3371 55.1829 52.9265 55.1344 53.521 55.1413C54.6841 55.1534 55.8472 55.1812 57.0121 55.2037C57.1698 55.4221 57.1837 55.6856 57.2461 55.9352C57.2565 56.0964 57.3362 56.2368 57.3744 56.3911C57.5581 57.1139 57.279 57.5715 56.551 57.7327C56.3828 57.7691 56.2112 57.7709 56.0396 57.7674C54.9736 57.7449 53.9076 57.8246 52.8415 57.6981C52.4688 57.653 52.084 57.6426 51.7928 57.9615L51.7911 57.9581Z" fill="#2A84EE"/>
<path d="M51.7891 57.9575C51.8272 57.616 52.0196 57.5328 52.3472 57.5623C53.6074 57.6784 54.8728 57.6455 56.1364 57.6472C57.1869 57.6472 57.5526 57.1168 57.1747 56.1513C57.1435 56.0716 57.0534 55.997 57.1505 55.9034C57.6688 56.2155 58.2078 56.127 58.7504 55.9884C58.7504 56.0282 58.766 56.0733 58.7504 56.1045C58.22 57.1827 57.5093 58.0858 56.3618 58.5642C56.1382 58.6578 55.9059 58.6786 55.6649 58.6786C54.7029 58.6751 53.7409 58.6786 52.7806 58.6769C52.2467 58.6769 51.9849 58.481 51.7891 57.9558V57.9575Z" fill="#1675D4"/>
<path d="M58.752 55.9906C58.2095 56.3546 57.5144 56.3165 57.1521 55.9056C57.0585 55.6803 57.0169 55.4463 57.0117 55.2036C57.4659 55.1811 57.9218 55.1377 58.369 55.2522C58.8283 55.37 58.9011 55.5208 58.752 55.9906Z" fill="#8DC3F2"/>
<path d="M105.297 68.5594C105.245 69.7746 104.97 70.8631 104.24 71.8061C103.247 73.0906 101.589 73.1824 100.47 72.0124C98.9529 70.4298 98.9096 66.9977 100.385 65.3752C101.704 63.9243 103.503 64.1029 104.538 65.7877C105.068 66.6527 105.256 67.6095 105.297 68.5577V68.5594Z" fill="#F0F4F9"/>
<path d="M95.4365 56.9441C95.5197 57.1417 95.5302 57.3479 95.5267 57.5594C95.5232 57.7605 95.5302 57.998 95.3308 58.076C95.1523 58.1453 94.9477 58.0292 94.7969 57.9026C94.4364 57.5975 94.1452 57.2283 93.8574 56.8556C94.3878 56.814 94.9096 56.9319 95.4383 56.9458L95.4365 56.9441Z" fill="#003B8D"/>
<path d="M49.0729 50.5841C48.9863 50.7349 48.8424 50.799 48.6812 50.8094C47.7971 50.8615 46.9114 50.9065 46.0273 50.9551C46.3498 50.6586 46.764 50.7158 47.1471 50.6846C47.7885 50.6326 48.4316 50.617 49.0729 50.5858V50.5841Z" fill="#5B584D"/>
<path d="M45.8906 51.0541C45.8768 51.3453 45.4972 51.4615 45.5301 51.7839C45.5162 51.7232 45.5041 51.6608 45.4902 51.6001C45.5162 51.3384 45.6653 51.1685 45.8906 51.0524V51.0541Z" fill="#010001"/>
<path d="M62.0857 68.3673C62.0944 67.3585 62.4168 66.2456 63.2488 65.32C64.4033 64.0373 66.0881 64.1136 67.0952 65.5055C67.9047 66.6235 68.1335 67.8941 68.0001 69.2479C67.9169 70.0955 67.6707 70.8807 67.1871 71.5932C66.0483 73.2676 63.9821 73.2486 62.8917 71.5394C62.3163 70.6381 62.0857 69.6414 62.084 68.3656L62.0857 68.3673Z" fill="#F1F5FA"/>
<path d="M80.894 57.0097C80.9269 56.7514 81.102 56.6474 81.3343 56.6457C82.0328 56.6388 82.7331 56.6318 83.4317 56.6509C83.8477 56.6613 83.9465 56.9109 83.7628 57.3963C83.7246 57.4327 83.6848 57.4725 83.6345 57.4864C82.8129 57.7031 81.9826 57.6632 81.1609 57.5124C80.9495 57.4743 80.8333 57.2593 80.8957 57.0115L80.894 57.0097Z" fill="#EFF0FD"/>
<path d="M80.8947 57.0099C80.9172 57.3358 81.1235 57.4762 81.4181 57.4727C82.1999 57.4588 82.9851 57.5628 83.7617 57.3964C83.6698 57.6322 83.5 57.7292 83.2434 57.7344C82.765 57.7449 82.2866 57.7865 81.8082 57.8038C81.4615 57.8159 81.1252 57.7899 80.912 57.4467C80.8201 57.2976 80.7889 57.1607 80.8947 57.0099Z" fill="#04336E"/>
<path d="M67.3936 56.2993C67.3659 55.9248 67.5323 55.7948 67.9101 55.8122C68.5411 55.8416 69.1738 55.8174 69.8047 55.8312C70.3421 55.8434 70.5466 56.0514 70.4461 56.4501C70.3421 56.7361 70.0821 56.7829 69.8411 56.7967C69.2223 56.8314 68.6018 56.8349 67.9829 56.795C67.6883 56.7759 67.4057 56.6823 67.3919 56.2993H67.3936Z" fill="#F1F5FC"/>
<path d="M67.3933 56.299C67.4366 56.5486 67.61 56.6526 67.8388 56.6543C68.5581 56.6612 69.2775 56.6578 69.9969 56.6543C70.1737 56.6543 70.3175 56.5624 70.4476 56.4498C70.425 56.7063 70.217 56.9178 69.9241 56.9247C69.2532 56.9403 68.5807 56.9455 67.9116 56.9247C67.473 56.9108 67.3448 56.7271 67.395 56.299H67.3933Z" fill="#07346E"/>
<path d="M54.4056 55.7564C54.4853 55.7564 54.565 55.7477 54.6431 55.7564C54.9551 55.7997 55.3468 55.7269 55.4196 56.1845C55.4976 56.6768 55.1769 57.2333 54.7471 57.2974C54.279 57.3667 53.7989 57.3823 53.3361 57.235C53.213 57.1951 53.083 57.1362 52.9894 57.0512C52.7658 56.8484 52.6167 56.6006 52.7138 56.2799C52.8056 55.9748 53.0466 55.8483 53.3413 55.8188C53.6949 55.7841 54.052 55.7685 54.4056 55.7443C54.4056 55.7477 54.4056 55.7512 54.4056 55.7529V55.7564Z" fill="#8FC1F4"/>
<path d="M64.7265 65.8864C64.7195 65.6888 64.7473 65.4825 64.697 65.2988C64.5895 64.914 64.827 64.8811 65.0818 64.9019C65.2985 64.9192 65.5273 64.9227 65.7249 65.0457C65.7648 65.4219 65.607 65.7651 65.5325 66.1204C65.4701 66.4168 65.399 66.7133 65.3106 67.0027C65.2378 67.2437 65.3522 67.3771 65.5325 67.4916C65.7214 67.6112 65.8272 67.469 65.9364 67.3598C66.2276 67.0721 66.5153 66.7809 66.8048 66.4931C66.8811 66.4168 66.9296 66.2782 67.0839 66.3198C67.3266 66.7618 67.4964 67.2263 67.5675 67.7273C67.3976 67.9526 67.1255 67.9422 66.8898 68.0081C66.524 68.1086 66.1704 68.2698 65.7786 68.2577C65.614 68.1988 65.562 68.0376 65.4684 67.9128C65.1373 67.4673 64.6294 67.4968 64.3469 67.9752C63.9204 68.698 64.2342 69.4486 65.0974 69.7675C65.1182 69.79 65.1252 69.8126 65.1165 69.8334C65.1078 69.8542 65.0992 69.8646 65.0922 69.8646C64.9414 70.2858 65.1824 70.6671 65.2188 71.0693C65.2482 71.3934 65.3418 71.7124 65.4129 72.0331C65.4614 72.2497 65.4077 72.3659 65.1616 72.3364C65.0315 72.3208 64.8963 72.3312 64.7681 72.3069C64.6103 72.2757 64.4994 72.2307 64.5341 71.9984C64.6277 71.3726 64.6658 70.7382 64.7455 70.1107C64.7663 69.9426 64.7577 69.8542 64.567 69.868C64.2099 69.6444 63.9707 69.7432 63.8268 70.1315C63.7922 70.2251 63.7176 70.3083 63.6171 70.3534C63.4455 70.6255 63.2721 70.8959 63.0971 71.1733C63.0676 71.1369 63.0485 71.1178 63.0347 71.0953C62.6776 70.4713 62.7995 69.9772 63.4004 69.6132C63.4455 69.5855 63.4888 69.5543 63.5339 69.5283C63.754 69.407 63.9794 69.2891 63.7696 68.9805C63.7506 68.9511 63.7471 68.9008 63.754 68.8644C63.8996 68.1693 63.4334 67.9734 62.9081 67.8573C62.5251 67.7724 62.4367 67.5956 62.5927 67.2402C62.7279 66.9317 62.8232 66.6058 63.0104 66.292C63.1109 66.4012 63.2063 66.507 63.3016 66.611C63.6136 66.7653 63.7488 67.0859 63.9724 67.3217C64.0556 67.4101 64.1128 67.6008 64.2706 67.4881C64.4318 67.3719 64.7525 67.3459 64.7161 67.0981C64.6537 66.6873 64.8045 66.2868 64.7247 65.883L64.7265 65.8864Z" fill="#010101"/>
<path d="M64.7279 65.8865C64.8579 66.3199 64.7781 66.7723 64.8509 67.2126C64.8856 67.4206 64.636 67.3547 64.5545 67.4449C64.1836 67.8574 63.9981 67.5749 63.797 67.2698C63.6462 67.0427 63.4711 66.8312 63.3065 66.6146C63.3567 66.5764 63.3706 66.5123 63.3273 66.4794C62.9581 66.2003 63.1851 65.9853 63.3931 65.7565C63.7086 65.4081 64.0622 65.1256 64.525 65.006C64.6741 65.4099 64.629 65.8224 64.6828 66.228L64.7296 65.8883L64.7279 65.8865Z" fill="#C0C3C7"/>
<path d="M67.0873 66.3213C66.6731 66.746 66.2605 67.1724 65.8428 67.5902C65.7786 67.6543 65.6781 67.8224 65.6001 67.6994C65.4788 67.5087 65.0991 67.5139 65.1737 67.2175C65.3557 66.4929 65.458 65.7476 65.7284 65.0455C65.9728 65.0455 66.134 65.2102 66.309 65.3454C66.4304 65.543 66.5847 65.7077 66.7909 65.8204C66.9209 65.9694 67.0561 66.115 67.0891 66.3213H67.0873Z" fill="#B3B6BA"/>
<path d="M65.0918 69.8663C65.0987 69.8455 65.1039 69.8247 65.1074 69.8039C65.1438 69.5231 65.3986 69.5335 65.5806 69.4503C65.7453 69.4711 65.8233 69.6063 65.8996 69.7225C66.2376 70.2251 66.6155 70.7018 66.9309 71.2201C66.5912 71.5096 66.1769 71.6795 65.799 71.9083C65.6153 72.0209 65.5303 71.9741 65.4887 71.7245C65.3847 71.1005 65.227 70.4869 65.0918 69.8681V69.8663Z" fill="#D3D6DB"/>
<path d="M62.4071 68.6928C62.4071 67.7672 62.4019 67.7828 63.2114 68.0757C63.4991 68.1797 63.6603 68.3011 63.6118 68.6304C63.5944 68.7535 63.6482 68.887 63.669 69.0152C63.6933 69.1643 63.6967 69.3012 63.539 69.3931C63.2772 69.5439 63.0224 69.7051 62.7624 69.8559C62.6133 69.9426 62.5163 69.9114 62.4955 69.7207C62.4573 69.3567 62.3655 68.9962 62.4071 68.6911V68.6928Z" fill="#CBCDC4"/>
<path d="M63.618 70.357C63.774 70.0727 63.93 69.7885 64.0912 69.4938C64.2576 69.6255 64.4118 69.7486 64.5679 69.8717C64.6892 70.2114 64.5679 70.5546 64.5349 70.884C64.502 71.2289 64.5263 71.5964 64.3477 71.9639C64.3373 71.6293 64.1588 71.4872 63.8762 71.4005C63.3111 71.2272 63.3146 71.2046 63.559 70.6725C63.6024 70.5771 63.7341 70.487 63.618 70.357Z" fill="#DFE1D7"/>
<path d="M66.9331 71.2185C66.7996 71.2636 66.7892 71.1388 66.7407 71.0729C66.3559 70.5408 65.9745 70.0069 65.5915 69.473C65.5568 69.2286 65.6885 69.1679 65.8965 69.2113C66.0907 69.2511 66.264 69.3534 66.453 69.4106C66.6904 69.5458 66.9851 69.5683 67.1793 69.7867C67.4289 69.8526 67.4791 69.9757 67.3803 70.2322C67.2486 70.5702 67.0891 70.8927 66.9331 71.2185Z" fill="#020202"/>
<path d="M65.7453 68.2093C66.3537 68.0498 66.9604 67.8886 67.5688 67.7291C67.7404 68.0914 67.6312 68.4728 67.652 68.8454C67.5688 68.9182 67.4683 68.9633 67.3625 68.9529C66.8529 68.8992 66.3364 68.9269 65.8319 68.816C65.6187 68.6392 65.5841 68.4381 65.7453 68.2075V68.2093Z" fill="#B1B4B8"/>
<path d="M65.8272 68.7638C66.4391 68.717 67.0423 68.8539 67.6525 68.8453C67.675 69.003 67.5918 69.1469 67.5814 69.296C67.5641 69.5646 67.4999 69.7744 67.1775 69.7848C66.914 69.7258 66.6627 69.6357 66.4321 69.4953C66.3212 69.3341 66.1288 69.3237 65.9711 69.27C65.6521 69.159 65.614 69.0065 65.8255 68.7621L65.8272 68.7638Z" fill="#E7E5DE"/>
<path d="M66.7885 65.8208C66.5268 65.7636 66.369 65.6041 66.3066 65.3458C66.4678 65.5036 66.6273 65.663 66.7885 65.8208Z" fill="#76777A"/>
<path d="M65.8269 68.7639C65.6553 69.3516 66.2308 69.2077 66.4561 69.407C66.4648 69.414 66.4769 69.4296 66.4735 69.4348C66.4631 69.4573 66.4475 69.4764 66.4336 69.4972C66.2637 69.492 66.1181 69.4105 65.9795 69.329C65.7801 69.2112 65.6605 69.2597 65.5929 69.4729C65.4716 69.641 65.2237 69.6254 65.111 69.804C64.5425 69.7901 64.2391 69.537 64.1005 68.9615C63.9652 68.3982 64.2027 67.7655 64.6309 67.5488C64.9845 67.372 65.3676 67.5072 65.5912 67.8955C65.6484 67.996 65.6952 68.1035 65.7472 68.2075C65.7524 68.3947 65.7264 68.5871 65.8269 68.7622V68.7639Z" fill="#FEFEFE"/>
</g>
<defs>
<linearGradient id="paint0_linear_542_7682" x1="10.7891" y1="20.0026" x2="35.6249" y2="20.0026" gradientUnits="userSpaceOnUse">
<stop stop-color="#448C78"/>
<stop offset="1" stop-color="#3E776B"/>
</linearGradient>
<linearGradient id="paint1_linear_542_7682" x1="11.6523" y1="20.0174" x2="36.4882" y2="20.0174" gradientUnits="userSpaceOnUse">
<stop stop-color="#80BBF9"/>
<stop offset="1" stop-color="#42D7BE"/>
</linearGradient>
<linearGradient id="paint2_linear_542_7682" x1="11.6523" y1="20.0174" x2="36.4882" y2="20.0174" gradientUnits="userSpaceOnUse">
<stop stop-color="#80BBF9"/>
<stop offset="1" stop-color="#42D7BE"/>
</linearGradient>
<clipPath id="clip0_542_7682">
<rect width="99" height="80" fill="white"/>
</clipPath>
</defs>
</svg>
