<svg width="49" height="35" viewBox="0 0 49 35" fill="none" xmlns="http://www.w3.org/2000/svg">
<path d="M47.5418 17.7724C46.4218 17.4924 45.1674 17.7724 45.2122 18.59C45.257 19.4076 44.9322 19.0492 44.585 18.9036C44.2378 18.758 43.4538 16.4732 43.1178 15.6668C42.7818 14.8604 42.4234 14.4012 42.0986 14.2556C41.7738 14.11 40.2842 13.886 38.873 13.6732C37.4618 13.4604 34.6058 13.4268 34.6058 13.4268C34.6058 13.4268 31.7498 13.4604 30.3386 13.6732C29.017 13.8748 27.6282 14.0876 27.1914 14.222H28.1658C28.681 14.222 29.4314 14.3676 30.1146 14.782C31.1114 14.6812 32.6906 14.5804 33.6874 14.5356C34.3034 14.502 34.9082 14.502 35.5242 14.5356C36.8346 14.6028 39.1418 14.7484 39.8138 14.8828C40.777 15.0844 41.1914 14.9276 41.5498 15.7452C41.9082 16.5628 42.961 18.5228 42.961 18.5228C42.961 18.5228 43.409 19.2956 42.849 19.2956C42.289 19.2956 34.6058 19.3068 34.6058 19.3068H34.4266C34.953 19.4524 35.3674 19.71 35.6698 20.0908C35.9722 20.4716 36.2634 21.1324 36.017 22.1292C35.9834 22.2636 35.9386 22.398 35.8826 22.5212H41.1018C41.2586 22.5212 41.393 22.6556 41.393 22.8124C41.393 22.9692 41.2586 23.1036 41.1018 23.1036H35.5466C35.3674 23.3388 35.1434 23.518 34.8746 23.6524H40.553C40.7098 23.6524 40.833 23.7868 40.833 23.9324V23.9548C40.833 24.1116 40.6986 24.2348 40.553 24.2348H34.4378C34.4826 24.4252 34.5162 24.6044 34.5386 24.7836H39.9706C40.1162 24.7836 40.2394 24.9068 40.2394 25.0524V25.1084C40.2394 25.254 40.1162 25.3772 39.9706 25.3772H34.561V26.598H37.0474C37.4954 26.598 37.8538 26.9564 37.8538 27.4044V28.4796C37.8538 28.9276 37.4954 29.2972 37.0474 29.2972H34.9306C34.9642 29.4652 34.9754 29.6444 34.9754 29.8348H37.2938C37.7978 29.8348 38.2122 29.4204 38.2122 28.9164H41.2698C41.8074 28.9164 41.7738 28.9724 41.7738 30.5516C41.7738 32.1308 42.3338 31.9404 42.3562 31.9404H45.6714C46.2426 31.9404 46.4554 30.4284 46.4554 30.1932C46.4554 29.958 46.3434 29.2972 46.8698 28.8268C47.2618 28.4796 47.4858 27.774 47.5754 27.4268C47.609 27.3036 47.6202 27.1692 47.6202 27.046V22.7676C47.6202 21.5916 45.8842 19.6988 45.7386 19.5532C45.7946 19.598 46.0634 19.7772 47.0154 19.7884C48.1018 19.7996 48.673 18.0412 47.553 17.7612L47.5418 17.7724ZM44.2154 27.494C43.8458 27.998 43.2074 27.8188 42.905 27.494C42.6026 27.1692 42.401 26.6316 42.9498 26.1948C43.1962 26.0044 43.4426 26.0044 43.6554 26.0604C43.969 26.15 44.193 26.4076 44.2938 26.7212C44.3722 26.9564 44.3946 27.2476 44.2154 27.5052V27.494ZM45.7722 24.246C45.1002 25.086 43.857 25.0636 43.521 24.7276C43.2522 24.4588 42.7706 24.0108 42.9386 23.2044C43.0394 22.734 43.3306 22.3196 43.7338 22.0508C44.0586 21.838 44.5178 21.6588 45.0666 21.782C46.1642 22.0396 46.4442 23.406 45.7722 24.246Z" fill="#5C5C5C"/>
<path d="M33.2058 20.4606C32.7018 20.4718 32.6682 21.6478 32.3434 21.9054C32.0186 22.163 31.761 21.6254 31.761 21.6254C31.761 21.6254 30.977 18.915 30.473 17.2014C29.969 15.5102 28.233 15.499 28.177 15.499H16.6522C16.5962 15.499 14.8602 15.5102 14.3562 17.2014C13.841 18.915 13.0682 21.6254 13.0682 21.6254C13.0682 21.6254 12.7994 22.1518 12.4858 21.9054C12.161 21.6478 12.1274 20.483 11.6234 20.4606C11.1194 20.4382 9.67464 20.427 10.033 21.8494C10.2794 22.7902 10.9402 22.7006 11.5786 22.7006C12.217 22.7006 12.8778 22.499 12.4634 22.9134C12.049 23.3278 11.5338 24.4366 11.5338 25.0526V28.5246C11.5338 28.5246 11.657 28.9502 11.433 29.1854C11.209 29.4094 11.1306 29.275 11.1306 29.9694V31.4142C11.1306 31.4142 11.1978 31.571 11.5114 31.8846C11.8138 32.187 11.8362 31.963 11.8362 32.4222C11.8362 32.8814 11.6458 34.8974 12.273 34.8974H15.2298C15.2298 34.8974 15.8458 34.6286 15.8458 33.8558C15.8458 33.083 15.8458 32.0414 15.8458 32.0414H18.433C18.433 32.0414 18.7802 31.9854 18.9146 32.2318C19.049 32.4782 19.1162 32.6014 19.5082 32.6014H25.3434C25.7354 32.6014 25.8026 32.4782 25.937 32.2318C26.0714 31.9854 26.4186 32.0414 26.4186 32.0414H29.0058C29.0058 32.0414 29.0058 33.083 29.0058 33.8558C29.0058 34.6286 29.6218 34.8974 29.6218 34.8974H32.5786C33.217 34.8974 33.0154 32.8702 33.0154 32.4222C33.0154 31.9742 33.0378 32.1982 33.3402 31.8846C33.6426 31.5822 33.721 31.4142 33.721 31.4142V29.9694C33.721 29.9246 33.721 29.891 33.721 29.8462C33.721 29.2862 33.6314 29.387 33.4186 29.1742C33.1946 28.9502 33.3178 28.5134 33.3178 28.5134V25.0414C33.3178 24.4254 32.8026 23.3166 32.3882 22.9022C31.9738 22.4878 32.6346 22.6894 33.273 22.6894C33.9114 22.6894 34.5722 22.7678 34.8186 21.8382C35.177 20.4158 33.7322 20.4382 33.2282 20.4494L33.2058 20.4606ZM14.4346 21.099C14.4346 21.099 15.0954 18.5342 15.4202 17.4478C15.745 16.3726 16.8538 16.4958 16.8538 16.4958H27.9418C27.9418 16.4958 29.0506 16.3726 29.3754 17.4478C29.7002 18.5342 30.361 21.099 30.361 21.099C30.361 21.099 30.6186 21.9166 30.0362 21.9166H14.7594C14.177 21.9166 14.4346 21.099 14.4346 21.099ZM16.5178 27.1694C16.5178 27.5054 16.249 27.7854 15.913 27.7854H13.0794C12.7434 27.7854 12.4746 27.5054 12.4746 27.1694V25.6686C12.4746 25.3326 12.7434 25.0638 13.0794 25.0638H15.913C16.249 25.0638 16.5178 25.3326 16.5178 25.6686V27.1694ZM25.3882 31.6046C25.3882 31.7726 25.2874 31.907 25.1306 31.963C25.0858 31.9854 25.041 31.9854 24.9962 31.9854H19.7882C19.5754 31.9854 19.4074 31.8062 19.4074 31.6046V30.6302C19.4074 30.4174 19.5754 30.2494 19.7882 30.2494H24.9962C25.209 30.2494 25.377 30.4286 25.377 30.6302V31.6046H25.3882ZM27.4378 28.0654C27.4378 28.211 27.3146 28.3342 27.169 28.3342H17.6266C17.481 28.3342 17.3578 28.211 17.3578 28.0654V28.0318C17.3578 27.8862 17.481 27.763 17.6266 27.763H27.169C27.3146 27.763 27.4378 27.8862 27.4378 28.0318V28.0654ZM27.4378 27.0014C27.4378 27.147 27.3146 27.2702 27.169 27.2702H17.6266C17.481 27.2702 17.3578 27.147 17.3578 27.0014V26.9678C17.3578 26.8222 17.481 26.699 17.6266 26.699H27.169C27.3146 26.699 27.4378 26.8222 27.4378 26.9678V27.0014ZM27.4378 25.9262C27.4378 26.0718 27.3146 26.195 27.169 26.195H17.6266C17.481 26.195 17.3578 26.0718 17.3578 25.9262V25.8926C17.3578 25.747 17.481 25.6238 17.6266 25.6238H27.169C27.3146 25.6238 27.4378 25.747 27.4378 25.8926V25.9262ZM32.3434 25.6686V27.1694C32.3434 27.5054 32.0634 27.7854 31.7274 27.7854H28.8938C28.5578 27.7854 28.2778 27.5054 28.2778 27.1694V25.6686C28.2778 25.3326 28.5578 25.0638 28.8938 25.0638H31.7274C32.0634 25.0638 32.3434 25.3326 32.3434 25.6686Z" fill="#5C5C5C"/>
<path d="M7.58015 5.28464C7.58015 5.72144 7.30015 6.00144 6.88575 6.00144H5.81055V4.55664H6.88575C7.30015 4.55664 7.58015 4.84784 7.58015 5.27344V5.28464Z" fill="#5C5C5C"/>
<path d="M9.46228 2.07031H3.40308C2.76468 2.07031 2.23828 2.58551 2.23828 3.23511V9.29431C2.23828 9.93271 2.76468 10.4591 3.40308 10.4591H9.46228C10.1007 10.4591 10.6271 9.94391 10.6271 9.29431V3.23511C10.6271 2.59671 10.1119 2.07031 9.46228 2.07031ZM7.21108 7.12151H5.82228V9.08151H4.45588V3.43671H7.21108C8.35348 3.43671 8.94708 4.31031 8.94708 5.27351C8.94708 6.23671 8.35348 7.11031 7.21108 7.11031V7.12151Z" fill="#5C5C5C"/>
<path d="M7.58015 5.28464C7.58015 5.72144 7.30015 6.00144 6.88575 6.00144H5.81055V4.55664H6.88575C7.30015 4.55664 7.58015 4.84784 7.58015 5.27344V5.28464Z" fill="white"/>
<path d="M9.46228 2.07031H3.40308C2.76468 2.07031 2.23828 2.58551 2.23828 3.23511V9.29431C2.23828 9.93271 2.76468 10.4591 3.40308 10.4591H9.46228C10.1007 10.4591 10.6271 9.94391 10.6271 9.29431V3.23511C10.6271 2.59671 10.1119 2.07031 9.46228 2.07031ZM7.21108 7.12151H5.82228V9.08151H4.45588V3.43671H7.21108C8.35348 3.43671 8.94708 4.31031 8.94708 5.27351C8.94708 6.23671 8.35348 7.11031 7.21108 7.11031V7.12151Z" fill="white"/>
<path d="M7.58015 5.28464C7.58015 5.72144 7.30015 6.00144 6.88575 6.00144H5.81055V4.55664H6.88575C7.30015 4.55664 7.58015 4.84784 7.58015 5.27344V5.28464Z" fill="#2E80EC"/>
<path d="M9.46228 2.07031H3.40308C2.76468 2.07031 2.23828 2.58551 2.23828 3.23511V9.29431C2.23828 9.93271 2.76468 10.4591 3.40308 10.4591H9.46228C10.1007 10.4591 10.6271 9.94391 10.6271 9.29431V3.23511C10.6271 2.59671 10.1119 2.07031 9.46228 2.07031ZM7.21108 7.12151H5.82228V9.08151H4.45588V3.43671H7.21108C8.35348 3.43671 8.94708 4.31031 8.94708 5.27351C8.94708 6.23671 8.35348 7.11031 7.21108 7.11031V7.12151Z" fill="#2E80EC"/>
<path d="M10.6829 0.378906H2.18208C1.28608 0.378906 0.546875 1.10691 0.546875 2.01411V10.5149C0.546875 11.4109 1.27488 12.1501 2.18208 12.1501H5.45248V29.3645C4.90368 29.3981 4.46688 29.8573 4.46688 30.4061V34.9869H8.39808V30.4061C8.39808 29.8461 7.96128 29.3981 7.41248 29.3645V12.1501H10.6829C11.5789 12.1501 12.3181 11.4221 12.3181 10.5149V2.01411C12.3181 1.11811 11.5901 0.378906 10.6829 0.378906ZM11.4109 9.86531C11.4109 10.6269 10.7949 11.2429 10.0333 11.2429H2.84288C2.08127 11.2429 1.46528 10.6269 1.46528 9.86531V2.67491C1.46528 1.91331 2.08127 1.29731 2.84288 1.29731H10.0333C10.7949 1.29731 11.4109 1.91331 11.4109 2.67491V9.86531Z" fill="#5C5C5C"/>
</svg>
