<svg width="390" height="423" viewBox="0 0 390 423" fill="none" xmlns="http://www.w3.org/2000/svg">
<g clip-path="url(#clip0_394_3700)" filter="url(#filter0_d_394_3700)">
<rect width="390" height="415" fill="white"/>
<path d="M120.099 160.644V384.868C120.099 388.69 116.732 391.693 113.001 391.693H108.997C108.178 391.693 107.268 391.511 106.631 391.329C103.992 390.419 101.99 387.871 101.99 384.868V160.644C101.99 158.551 102.991 156.64 104.447 155.366C105.63 154.365 107.268 153.637 108.997 153.637H113.001C116.823 153.637 120.099 156.822 120.099 160.644Z" fill="#AACCB1"/>
<g style="mix-blend-mode:multiply" opacity="0.4">
<path d="M110.999 273.12C103.81 288.863 103.81 382.229 106.631 391.329C103.992 390.419 101.99 387.871 101.99 384.868V160.644C101.99 158.551 102.991 156.731 104.447 155.457C104.902 156.549 105.357 157.823 105.903 159.097C105.903 159.097 119.28 176.569 112.091 201.412C104.993 226.255 119.826 253.646 110.999 273.029V273.12Z" fill="#D8E8DD"/>
</g>
<path d="M176.701 19.6852L50.6659 11.8592L43.6589 11.4042C37.1979 11.0402 31.9199 15.5902 31.9199 21.5052V193.95C31.9199 199.956 37.1979 204.597 43.7499 204.415L176.792 199.319C182.343 199.137 186.438 194.496 186.438 188.945V30.3322C186.438 24.7812 182.252 20.0492 176.61 19.6852H176.701Z" fill="url(#paint0_linear_394_3700)"/>
<path d="M191.807 30.6047V188.854C191.807 194.405 187.348 199.046 181.797 199.228L49.3011 204.324C42.8401 204.597 37.2891 199.956 37.2891 193.95V21.8687C37.2891 15.8627 42.6581 11.3127 49.1191 11.7677L181.706 19.9577C187.257 20.3217 191.807 25.0537 191.807 30.5137V30.6047Z" fill="url(#paint1_linear_394_3700)"/>
<path d="M173.061 32.1528L59.5844 25.9648C58.7654 25.9648 57.7644 25.9648 56.9454 26.0558C52.2134 26.8748 48.4824 30.6058 48.4824 35.4288V181.757C48.4824 187.308 53.4874 191.676 59.4024 191.494L172.97 187.854C178.248 187.672 182.707 183.304 182.707 178.208V42.0718C182.707 36.8848 178.248 32.4258 173.061 32.1528ZM181.069 178.208C181.069 182.485 177.338 186.125 172.97 186.216L59.3114 189.765C54.3974 189.947 50.0294 186.307 50.0294 181.666V35.5198C50.0294 31.6068 53.1234 28.5128 57.0364 27.7848C57.7644 27.6938 58.5834 27.6028 59.4024 27.6028L172.97 33.6998C177.338 33.9728 181.069 37.6128 181.069 41.8898V178.117V178.208Z" fill="white"/>
<path d="M149.037 64.3666C141.939 58.6336 131.292 55.4486 116.277 54.8116C101.262 54.1746 90.6152 54.6296 82.6982 55.6306V159.462H107.177V122.061C110.089 122.425 112.546 122.607 115.731 122.607C124.285 122.698 132.202 121.697 138.845 119.24C143.304 117.602 147.308 115.327 150.584 112.415C156.772 106.773 160.23 98.4006 160.23 88.3906C160.23 78.3806 155.771 69.8266 149.037 64.3666ZM115.549 104.589C112 104.589 109.998 104.316 107.177 103.77V73.1026C109.361 72.7386 112.546 72.3746 117.46 72.5566C129.563 73.0116 136.479 78.8356 136.479 88.2996C136.479 97.7635 133.567 99.3106 128.562 101.95C125.195 103.77 120.736 104.68 115.549 104.589Z" fill="white"/>
<path style="mix-blend-mode:multiply" opacity="0.3" d="M191.807 175.932V188.854C191.807 194.405 187.348 199.046 181.797 199.228L49.3011 204.324C42.8401 204.597 37.2891 199.956 37.2891 193.95V21.8687C37.2891 15.8627 42.6581 11.3127 49.1191 11.7677L56.2171 12.2227C56.1261 16.5907 56.2171 21.3227 56.9451 26.1457C56.9451 26.6917 57.1271 27.2377 57.2181 27.8747C59.5841 42.0707 66.5001 56.6307 83.4261 64.0927C85.2461 64.9117 87.0661 65.6397 88.7041 66.4587C95.7111 69.5527 101.808 72.3737 106.995 75.1947C113.456 78.7437 118.643 82.4747 122.738 87.3887C125.741 90.9377 128.198 95.0327 130.291 100.129C134.113 109.684 136.479 122.697 138.026 141.625C138.299 144.901 138.845 147.813 139.755 150.361C140.938 154.092 142.758 157.186 144.942 159.825C145.306 160.28 145.761 160.735 146.125 161.19C146.944 162.009 147.763 162.828 148.764 163.556C156.954 170.29 168.784 172.747 180.705 174.476C181.251 174.476 181.797 174.658 182.343 174.658C185.528 175.113 188.713 175.477 191.898 175.932H191.807Z" fill="url(#paint2_linear_394_3700)"/>
<path d="M388.056 393.829C492.137 393.829 576.512 392.862 576.512 391.669C576.512 390.476 492.137 389.509 388.056 389.509C283.975 389.509 199.601 390.476 199.601 391.669C199.601 392.862 283.975 393.829 388.056 393.829Z" fill="#191919"/>
<mask id="mask0_394_3700" style="mask-type:luminance" maskUnits="userSpaceOnUse" x="199" y="389" width="378" height="5">
<path d="M388.056 393.829C492.137 393.829 576.512 392.862 576.512 391.669C576.512 390.476 492.137 389.509 388.056 389.509C283.975 389.509 199.601 390.476 199.601 391.669C199.601 392.862 283.975 393.829 388.056 393.829Z" fill="white"/>
</mask>
<g mask="url(#mask0_394_3700)">
<path d="M388.056 392.965C492.137 392.965 576.512 391.997 576.512 390.805C576.512 389.612 492.137 388.645 388.056 388.645C283.975 388.645 199.601 389.612 199.601 390.805C199.601 391.997 283.975 392.965 388.056 392.965Z" fill="#525355"/>
<path d="M394.898 389.906C498.979 389.906 583.354 389.651 583.354 389.336C583.354 389.021 498.979 388.766 394.898 388.766C290.817 388.766 206.442 389.021 206.442 389.336C206.442 389.651 290.817 389.906 394.898 389.906Z" fill="#141414"/>
</g>
<path d="M564.995 361.283C562.187 363.806 558.834 364.834 555.128 364.912C553.944 364.635 554.402 363.745 554.445 363.037C554.981 354.008 553.538 345.394 548.605 337.67C544.812 331.734 539.654 327.656 532.223 327.44C527.964 327.319 524.335 329.125 521.25 331.786C514.148 337.929 510.718 345.938 510.131 355.218C509.725 361.611 510.442 367.867 513.025 373.785C516.179 381.008 520.533 387.108 528.473 389.7C528.836 389.821 529.225 389.968 529.398 390.503C528.275 391.575 526.815 390.953 525.527 391.186C523.03 391.212 520.533 391.125 518.045 391.22C515.349 391.324 512.826 390.858 510.45 389.588C503.124 386.106 498.821 380.084 496.333 372.601C494.898 368.281 495.814 368.61 491.028 368.61C481.074 368.61 471.113 368.644 461.159 368.575C459.345 368.558 458.438 369.102 457.919 370.908C456.364 376.308 453.772 381.155 449.642 385.086C447.854 386.788 445.815 388.093 443.629 389.199C440.562 390.832 437.321 391.722 433.805 391.583C431.049 391.471 428.284 391.454 425.537 391.583C421.597 391.765 418.002 390.754 414.616 388.853C407.911 385.112 403.548 379.479 401.241 372.204C399.91 368.022 400.394 368.696 396.446 368.566C394.562 368.506 392.627 368.998 390.804 368.16C390.19 367.123 390.769 366.104 390.881 365.084C391.961 355.339 390.907 346.007 385.464 337.557C383.702 334.819 381.438 332.538 378.82 330.585C372.133 325.608 362.041 326.386 355.76 332.486C349.746 338.318 346.964 345.619 345.884 353.757C345.124 359.538 345.608 365.197 347.301 370.752C349.444 377.794 353.375 383.574 359.553 387.713C360.883 388.603 362.335 389.216 363.838 389.717C364.201 389.838 364.702 389.968 364.685 390.426C364.668 391.013 364.08 391.004 363.657 391.134C359.51 391.298 355.371 391.246 351.224 391.177C348.718 391.134 346.55 389.959 344.398 388.784C337.642 384.671 333.434 378.675 331.361 371.098C330.704 368.679 330.643 368.636 328.103 368.636C310.236 368.636 292.368 368.653 274.501 368.592C272.678 368.592 271.762 369.145 271.261 370.934C269.714 376.394 267.329 381.405 263.018 385.328C261.04 387.125 258.94 388.663 256.469 389.674C254.395 390.961 252.037 391.462 249.704 391.488C244.537 391.557 239.345 392.007 234.204 391.134C232.562 390.858 230.756 390.78 229.745 389.06C221.434 385.328 217.14 378.407 214.798 370.018C214.375 368.506 213.891 367.867 212.241 368.031C210.02 368.247 207.783 368.083 205.649 367.288C204.543 366.873 203.445 366.45 202.823 365.335C203.592 364.938 203.618 364.894 204.309 365.3C205.649 366.069 207.048 366.571 208.975 366.64C207.618 363.702 207.757 360.704 207.8 357.715C207.878 352.487 211.619 348.712 216.863 348.478C236.424 347.606 255.994 348.314 275.555 348.107C280.194 348.055 283.702 350.345 286.7 353.628C287.236 354.207 287.711 354.846 288.23 355.442C290.174 357.68 291.781 360.168 293.526 362.562C295.038 364.627 296.956 365.586 299.583 365.56C310.434 365.473 321.278 365.534 332.129 365.525C335.369 365.525 336.069 364.955 336.959 361.801C337.46 360.021 337.581 358.172 338.065 356.393C338.705 351.623 339.75 346.932 341.236 342.361C343.301 336.02 345.651 329.773 350.066 324.623C357.134 316.389 366.206 313.625 376.703 315.508C380.98 316.268 384.384 318.817 387.201 322.126C392.359 328.183 394.787 335.441 396.515 343.018C397.405 347.295 397.56 351.641 397.742 355.987C397.707 358.432 398.044 360.851 398.182 363.279C398.251 364.506 398.796 365.076 400.014 365.076C400.671 365.076 401.336 365.093 401.993 365.093C433.364 365.093 464.736 365.093 496.108 365.093C496.834 365.093 497.56 365.084 498.285 365.067C499.936 365.033 500.99 364.229 501.517 362.657C502.234 360.531 502.821 358.371 503.443 356.22C504.549 352.98 505.232 349.602 506.398 346.37C508.29 340.106 510.468 333.963 514.166 328.477C518.529 322.014 524.439 317.824 532.344 317.798C543.481 317.772 553.098 322.057 558.359 335.32C559.361 337.843 560.044 340.452 560.398 343.148C561.712 349.628 561.193 356.073 559.819 362.743C561.202 362.605 562.195 361.896 563.249 361.317C563.777 361.032 564.381 360.246 564.96 361.292L564.995 361.283Z" fill="black"/>
<path d="M287.945 355.805C286.45 354.449 285.172 352.893 283.625 351.554C281.387 349.619 278.839 348.729 276.074 348.72C257.636 348.643 239.19 348.582 220.752 348.781C217.892 348.815 214.712 348.366 212.077 350.543C209.814 352.418 208.327 354.526 208.397 357.559C208.474 360.808 207.956 364.151 210.073 367.201C207.697 367.486 205.632 366.968 203.766 365.629C203.498 365.439 203.316 364.869 202.832 365.344C201.303 362.639 201.018 359.572 200.31 356.626C203.567 354.077 203.774 350.068 205.122 346.604C207.057 341.627 209.606 337.1 214.341 334.197C215.87 333.324 217.529 333.021 219.274 333.021C237.764 333.021 256.254 333.03 274.743 333.021C278.182 333.021 281.119 334.413 283.997 336.054C289.898 340.245 295.445 344.832 300.136 350.405C302.141 352.79 304.482 354.794 307.592 355.676C308.007 355.797 308.742 355.788 308.526 356.626C306.875 357.542 305.147 357.991 303.247 357.697C301.752 357.464 300.223 357.49 298.728 357.594C294.987 357.861 291.418 357.196 287.954 355.814L287.945 355.805Z" fill="#181818"/>
<path d="M284.333 336.848C280.022 334.084 275.304 333.427 270.224 333.479C253.903 333.652 237.591 333.565 221.27 333.505C218.73 333.505 216.293 333.695 214.021 334.887C209.805 335.889 205.657 335.656 201.64 334.023C199.558 333.176 197.717 332.027 198.201 329.271C198.417 328.571 198.391 327.794 198.91 327.198C199.359 326.567 199.964 326.645 200.664 326.662C203.757 326.714 206.85 326.904 209.934 326.541C211.455 326.359 212.889 325.945 214.176 325.089C214.608 324.718 215.127 324.562 215.671 324.476C216.907 324.191 217.321 323.327 217.356 322.152C217.468 318.151 217.045 314.289 214.842 310.79C213.865 309.235 214.202 308.691 216 308.604C217.296 308.544 218.471 308.898 219.533 309.641C221.356 311.516 221.875 314.022 222.739 316.346C223.871 319.387 224.052 319.612 227.257 319.612C242.006 319.612 256.763 319.586 271.512 319.638C273.896 319.638 275.823 318.938 277.585 317.322C280.298 314.825 283.089 312.415 286.407 310.712C288.671 309.408 291.263 310.013 293.656 309.46C294.459 309.27 294.891 309.719 294.684 310.6C294.287 311.594 293.379 312.034 292.559 312.579C290.312 314.082 288.135 315.62 286.433 317.789C285.215 319.344 284.644 321.132 283.927 322.903C283.893 323.171 283.901 322.834 283.867 323.094C283.417 326.964 283.582 327.163 287.409 327.163C295.764 327.163 304.128 327.111 312.482 327.189C317.416 327.232 322.176 326.593 326.687 324.528C327.602 324.303 328.639 322.99 329.304 323.828C330.013 324.727 328.752 325.668 328.112 326.446C325.477 329.651 321.77 331.129 317.969 332.217C310.435 334.369 302.78 335.907 294.909 336.244C292.092 336.365 289.31 337.082 286.467 337.013C285.75 336.995 285.024 337.134 284.325 336.866L284.333 336.848Z" fill="#0D71EC"/>
<path d="M342.282 245.697C351.864 242.993 361.619 241.334 371.546 240.547C397.397 238.5 423.282 237.705 449.202 238.284C465.938 238.655 482.682 239.139 499.392 240.228C512.136 241.057 524.578 243.209 536.337 248.453C536.82 248.669 537.399 248.781 537.659 249.248C540.743 254.76 545.452 258.985 549.253 263.927C554.23 270.399 559.354 276.758 564.468 283.134C566.508 285.683 569.307 287.627 570.491 290.849C569.67 291.679 568.65 291.437 567.691 291.29C566.577 291.126 565.462 291.109 564.348 291.031C562.533 290.893 561.159 291.593 560.028 292.932C557.721 293.45 555.405 293.217 553.09 293.035C552.753 293.009 552.485 292.819 552.295 292.543C552.243 291.748 552.943 291.636 553.409 291.333C557.185 288.862 558.36 284.888 556.416 280.827C554.42 276.663 551.128 273.449 548.234 269.958C543.776 264.575 538.756 259.694 534.246 254.354C533.192 253.11 532.492 251.849 533.39 250.241C534.038 249.084 533.114 248.885 532.397 248.609C529.053 247.33 525.554 246.604 522.072 245.896C513.994 244.245 505.846 243.183 497.604 242.69C491.357 242.319 485.101 242.172 478.855 241.861C473.446 241.593 468.029 241.394 462.655 241.653C457.22 241.921 451.742 241.731 446.342 243.036C439.448 244.703 433.944 248.764 428.354 252.713C424.699 255.305 421.096 257.992 417.588 260.782C411.247 265.837 404.983 270.986 399.246 276.74C397.284 278.702 395.202 280.533 392.999 282.201C392.239 282.771 391.159 283.583 391.003 281.622C392.368 279.142 394.58 277.414 396.611 275.565C401.138 271.435 405.518 267.15 410.115 263.098C415.8 258.087 421.658 253.283 427.239 248.142C428.596 246.889 430.142 245.861 431.983 245.369C431.093 245.602 430.186 245.55 429.287 245.55C421.511 245.55 413.726 245.602 405.95 245.541C393.232 245.438 380.514 245.913 367.796 246.077C360.228 246.172 352.642 246.198 345.073 246.328C344.123 246.345 343.068 246.587 342.291 245.705L342.282 245.697Z" fill="#0D74ED"/>
<path d="M208.777 304.725C213.572 300.189 219.214 297.027 225.219 294.392C235.077 290.063 245.54 288.145 256.072 286.503C262.639 285.475 269.248 284.715 275.866 284.067C277.223 283.937 278.078 283.531 278.648 281.959C280.135 277.915 283.625 276.403 287.625 275.919C289.319 275.712 290.995 275.271 292.732 275.418C293.233 276.386 292.377 276.697 291.85 277.112C289.734 278.788 287.522 280.334 285.422 282.036C284.938 282.434 284.204 282.624 284.161 283.41C284.938 283.773 285.733 283.592 286.511 283.592C307.834 283.583 329.149 283.488 350.473 283.54C351.639 283.54 352.857 283.324 353.937 284.006C354.171 285.199 353.16 285.06 352.598 285.078C350.231 285.155 347.898 285.726 345.513 285.553C342.878 285.458 340.26 285.847 337.651 286.011C329.313 286.555 320.967 286.944 312.638 287.557C301.346 288.387 290.079 289.441 278.83 290.78C268.963 291.946 259.07 292.923 249.272 294.608C240.52 296.111 231.776 297.752 223.482 301.148C220.182 302.504 216.959 303.982 213.831 305.684C213.14 306.064 212.475 306.505 211.697 306.695C211.386 306.755 211.066 306.755 210.755 306.695C209.883 306.254 208.569 306.246 208.777 304.716V304.725Z" fill="#3A91EF"/>
<path d="M354.066 284.153H282.778C282.761 283.393 283.21 283.237 283.59 283.021C288.29 282.503 293.008 282.883 297.716 282.779C299.159 282.745 300.594 282.805 302.019 282.52C302.373 282.468 302.728 282.408 303.09 282.425C305.717 282.321 308.352 282.719 310.962 282.149C312.439 281.872 313.925 282.036 315.411 282.028C322.323 282.028 329.235 282.028 336.147 282.028C341.85 281.959 347.561 282.209 353.254 281.889C354.81 281.432 356.71 282.14 357.937 280.533C359.432 282.166 361.402 281.57 363.234 281.656C364.08 281.639 364.927 281.639 365.765 281.639C372.738 281.855 379.693 280.948 386.674 281.259C387.944 281.311 388.955 280.784 389.836 279.894C391.184 278.537 392.566 277.215 393.88 275.841C397.837 271.703 402.122 267.893 406.235 263.918C407.712 262.804 409.198 261.689 410.546 260.41C414.123 257.335 417.717 254.276 421.692 250.846C416.188 250.414 411.194 250.077 406.2 249.645C401.154 249.489 396.152 248.591 391.089 248.712C385.438 248.85 379.814 248.064 374.154 248.349C370.958 247.874 367.735 248.116 364.521 247.969C356.65 247.597 348.779 247.58 340.908 247.563C340.087 247.563 338.99 247.856 338.627 246.604C339.776 246.051 340.986 245.757 342.256 245.705C350.23 245.869 358.205 245.8 366.18 245.55C372.772 245.342 379.373 245.55 385.965 245.29C400.93 244.712 415.912 245.213 430.876 244.884C431.818 244.867 432.768 244.789 433.65 244.746C424.621 249.835 417.666 257.49 409.881 264.1C403.349 269.638 397.18 275.591 391.244 281.777C390.363 283.479 388.808 283.972 387.054 284.101C385.386 283.782 383.762 284.447 382.095 284.343C374.595 284.3 367.096 284.395 359.596 284.412C358.542 284.412 357.497 284.533 356.451 284.654C355.604 284.749 354.732 284.87 354.041 284.162L354.066 284.153Z" fill="#050101"/>
<path d="M302.261 282.926C301.431 283.478 300.481 283.288 299.582 283.306C294.476 283.392 289.37 283.418 284.264 283.487C283.875 283.487 283.633 283.435 283.59 283.021C285.949 280.714 288.774 278.994 291.305 276.895C291.824 276.463 292.653 276.29 292.722 275.417C295.962 273.525 298.822 271.097 301.881 268.946C308.551 264.263 315.385 259.831 322.332 255.571C324.086 255.597 325.805 255.977 327.559 256.116C328.276 256.167 329.028 256.53 329.14 257.36C329.244 258.137 328.501 258.414 327.956 258.751C327.014 259.321 325.934 259.701 325.312 260.703C322.478 262.941 319.308 264.695 316.37 266.803C313.277 269.032 310.21 271.296 307.151 273.577C305.173 275.054 304.075 276.903 303.514 279.228C303.211 280.489 303.134 281.846 302.252 282.926H302.261Z" fill="#67696B"/>
<path d="M325.175 260.419C325.667 259.434 325.719 259.416 327.594 258.38C328.06 258.12 328.976 258.069 328.795 257.334C328.631 256.686 327.801 256.479 327.145 256.479C325.477 256.488 323.836 256.418 322.341 255.572C327.05 252.859 331.75 250.137 336.476 247.459C337.15 247.079 337.919 246.88 338.644 246.595C339.163 247.225 339.88 246.923 340.485 246.906C350.766 246.69 361.039 247.372 371.321 247.407C372.297 247.407 373.274 247.64 374.25 247.761C377.982 248.841 381.827 248.245 385.612 248.478C389.871 248.746 394.165 248.435 398.442 248.746C398.805 248.772 399.228 248.608 399.6 249.152C399.004 250.025 398.044 249.869 397.198 249.869C391.202 249.895 385.205 249.869 379.209 249.887C378.354 249.887 377.499 249.826 376.652 249.99C376.419 250.042 376.185 250.051 375.943 250.051C374.06 249.861 372.168 249.74 370.284 250.12C366.871 250.37 363.45 250.543 360.046 250.612C348.537 250.828 337.798 253.61 327.888 259.52C327.067 260.013 326.281 260.73 325.175 260.419Z" fill="#5D5E60"/>
<path d="M198.201 329.263C198.443 332.416 200.914 333.177 203.307 334.041C206.807 335.311 210.444 334.62 214.021 334.887C208.249 339.147 205.683 345.29 204.033 351.96C203.506 354.094 202.469 355.796 200.318 356.634C198.84 349.472 198.115 342.223 197.726 334.939C197.622 333.03 197.64 331.12 198.21 329.271L198.201 329.263Z" fill="#0959BA"/>
<path d="M210.409 325.365C206.962 326.359 203.472 325.78 199.998 325.599C199.54 325.573 198.987 325.331 199.1 324.57C200.093 317.494 202.659 311.144 207.645 305.899C208.344 305.441 208.932 305.96 209.563 306.124C210.107 306.616 211.109 306.513 211.299 307.463C211.014 308.517 210.107 308.725 209.234 309.036C206.496 310.012 204.845 312.025 204.068 314.747C203.368 317.192 204.215 318.471 206.686 318.937C207.005 318.998 207.325 319.067 207.593 319.265C206.651 322.168 208.707 323.689 210.418 325.365H210.409Z" fill="#DBDFE4"/>
<path d="M210.409 325.364C209.684 324.924 208.897 324.544 208.232 324.025C206.547 322.703 206.392 321.286 207.619 319.403C209.433 317.77 211.74 317.597 213.995 317.251C214.392 317.251 214.816 317.329 215.17 317.174C216.285 316.69 216.794 317.26 217.019 318.219C217.391 319.774 217.511 321.407 217.054 322.902C216.431 324.915 214.505 325.062 212.759 325.33C211.982 325.347 211.196 325.356 210.418 325.373L210.409 325.364Z" fill="#C6C9CD"/>
<path d="M212.75 325.323C213.026 325.167 213.286 324.968 213.579 324.865C215.682 324.087 216.724 322.667 216.707 320.605C216.695 318.733 215.762 317.783 213.908 317.754C214.219 315.862 215.653 316.112 216.975 316.121C217.813 318.177 217.752 320.354 217.657 322.506C217.606 323.638 216.906 324.441 215.808 324.83L214.754 325.288C214.089 325.443 213.536 326.212 212.741 325.651C212.741 325.547 212.741 325.443 212.75 325.331V325.323Z" fill="#DBDFE4"/>
<path d="M212.742 325.642C213.416 325.521 214.081 325.4 214.755 325.279C213.053 326.506 211.066 326.748 209.07 326.938C205.692 327.249 202.288 326.67 198.918 327.189C198.84 326.359 199.108 326.014 200.033 326.152C204.301 326.826 208.543 326.653 212.751 325.634L212.742 325.642Z" fill="#102C50"/>
<path d="M209.381 306.35C208.793 306.203 208.214 306.048 207.627 305.901C208.007 305.512 208.387 305.123 208.776 304.726C208.871 305.711 209.925 305.711 210.4 306.298C210.072 306.592 209.726 306.48 209.381 306.35Z" fill="#0D71EC"/>
<path d="M284.333 336.848C286.735 336.001 289.275 336.295 291.729 336.096C300.74 335.379 309.674 334.161 318.323 331.551C322.66 330.238 326.894 328.389 329.278 323.81C328.466 324.225 327.792 324.57 327.118 324.916C326.989 324.76 326.928 324.579 326.937 324.38C327.023 323.974 327.265 323.655 327.593 323.439C331.931 320.605 333.875 316.259 335.162 311.489C335.413 310.271 335.447 308.802 337.383 310.003C337.789 310.254 338.393 309.856 338.877 309.649C352.874 303.808 367.666 301.381 382.578 299.411C389.43 298.512 396.325 298.132 403.202 297.475C403.85 297.415 404.515 297.277 405.137 297.622C405.794 298.331 405.656 299.221 405.656 300.059C405.665 311.438 405.829 322.816 405.587 334.195C405.474 339.353 405.345 344.555 404.55 349.687C404.222 351.804 404.87 353.825 405.137 355.882C402.485 356.703 399.841 356.867 397.223 355.761C396.999 351.406 396.696 347.06 395.988 342.749C398.277 342.568 400.558 342.524 403.193 343.086C400.817 337.098 399.668 331.076 397.007 325.547C395.366 322.125 393.413 318.911 390.985 316.06C387.184 311.593 382.345 308.586 376.418 308.12C366.776 307.359 357.946 309.856 350.343 315.939C343.647 321.287 339.361 328.329 336.985 336.511C335.352 342.144 333.866 347.821 333.019 353.644C332.873 354.681 332.501 355.623 334.16 355.64C334.609 355.64 335.482 355.882 334.868 356.789C333.633 357.446 332.285 357.325 331.006 357.195C324.526 356.53 318.02 356.988 311.532 356.832C310.504 356.806 309.415 357.022 308.508 356.279C304.741 355.778 302.088 353.437 299.799 350.724C295.289 345.367 289.932 340.986 284.342 336.856L284.333 336.848Z" fill="#0A5CC0"/>
<path d="M377.429 388.645C373.809 390.632 369.913 391.289 365.835 391.021C365.195 390.978 364.504 391.185 363.951 390.676C364.012 390.658 364.081 390.641 364.141 390.615C364.314 390.546 364.53 390.356 364.253 390.295C360.201 389.431 357.177 386.96 354.404 384.083C349.531 379.046 346.913 372.964 345.686 366.121C344.39 358.898 344.969 351.847 347.362 344.979C349.851 337.816 353.756 331.604 360.996 328.407C367.675 325.452 374.094 326.23 379.909 330.766C386.674 336.036 389.897 343.303 391.253 351.519C392.169 357.057 392.066 362.604 390.882 368.108C391.4 368.808 391.029 369.525 390.839 370.182C388.877 376.921 385.396 382.692 380.03 387.289C379.253 387.954 378.337 388.256 377.438 388.637L377.429 388.645Z" fill="#373839"/>
<path d="M335.049 356.227C334.133 355.476 332.664 356.754 332.163 355.804C331.809 355.139 332.5 353.946 332.656 352.979C333.692 346.3 335.3 339.777 337.529 333.392C339.715 327.145 343.222 321.797 348.044 317.252C353.53 312.077 360.088 309.174 367.423 307.921C371.199 307.273 375.026 307.092 378.785 307.956C384.928 309.373 389.593 312.95 393.231 318.082C396.972 323.352 399.322 329.184 401.145 335.319C401.94 337.988 402.519 340.77 404.221 343.397C401.836 343.708 399.59 342.714 397.369 343.181C396.739 343.311 396.384 343.077 395.987 342.74C394.76 337.755 393.326 332.822 390.846 328.294C387.692 322.531 383.571 317.633 376.892 316C370.387 314.418 364.105 315.628 358.144 318.635C352.182 321.641 348.519 326.705 345.728 332.502C342.307 339.587 339.974 347.026 338.937 354.845C338.876 355.303 338.73 355.744 338.626 356.193C337.442 356.936 336.25 357.057 335.049 356.219V356.227Z" fill="#0D73ED"/>
<path d="M335.049 356.228C336.242 356.219 337.434 356.21 338.626 356.202C338.177 358.707 337.892 361.248 337.011 363.667C336.423 365.283 335.369 366.112 333.615 366.112C321.77 366.095 309.916 366.103 298.07 366.112C295.928 366.112 294.511 364.825 293.336 363.304C291.461 360.867 289.724 358.327 287.936 355.822C289.171 355.079 290.312 355.925 291.288 356.314C293.085 357.023 294.882 356.936 296.705 357.014C299.254 357.126 301.803 356.867 304.377 357.265C305.665 357.463 307.116 356.642 308.49 356.28C316.18 356.297 323.869 356.107 331.559 356.513C332.717 356.573 333.918 356.798 335.041 356.236L335.049 356.228Z" fill="#1F1E1E"/>
<path d="M286.752 311.057C283.452 312.889 280.626 315.36 277.853 317.865C276.047 319.498 274.112 320.276 271.641 320.267C256.642 320.198 241.634 320.233 226.626 320.233C223.689 320.233 223.075 319.671 222.22 316.811C221.494 314.375 220.82 311.886 219.144 309.856C218.773 309.286 217.84 308.949 218.202 308.068C218.583 307.134 219.498 307.048 220.362 306.996C221.019 306.953 221.684 306.97 222.341 306.97C242.705 306.97 263.07 306.988 283.434 306.944C285.681 306.944 287.875 307.48 290.122 307.42C290.623 307.402 291.271 307.437 291.435 308.059C291.625 308.776 291.029 309.156 290.519 309.407C289.284 310.003 287.867 310.202 286.744 311.074L286.752 311.057Z" fill="#201D1D"/>
<path d="M335.559 311.836C334.177 316.959 331.965 321.521 327.135 324.312C325.658 325.608 323.783 326.023 321.969 326.437C319.61 326.982 317.208 327.319 314.772 327.31C308.395 327.284 302.028 327.25 295.651 327.327C292.835 327.362 290.018 327.362 287.201 327.31C283.97 327.258 283.331 326.61 283.408 323.318C283.408 322.99 283.391 322.662 283.581 322.368C284.877 317.495 288.48 314.601 292.437 312C293.077 311.577 293.69 311.119 294.321 310.669C297.872 308.354 301.881 307.283 305.967 306.436C312.992 304.95 320.068 304.077 327.265 304.691C328.578 305.114 329.987 305.019 331.317 305.468C334.972 306.704 335.827 307.931 335.568 311.836H335.559Z" fill="#DDE0E5"/>
<path d="M305.735 306.988C301.778 307.757 298.106 309.39 294.313 310.669C294.399 310.314 294.538 309.58 294.132 309.77C291.773 310.911 289.017 309.58 286.744 311.058C287.945 309.684 289.863 309.442 291.462 308.016C289.215 307.869 287.246 307.627 285.267 307.619C263.667 307.593 242.067 307.602 220.467 307.61C218.186 307.61 218.108 307.774 219.136 309.839C217.875 309.298 216.3 309.079 214.41 309.183C216.311 311.654 217.192 314.358 217.676 317.252C217.987 319.153 217.927 321.045 217.823 322.92C217.771 323.931 217.184 324.951 215.801 324.821C217.097 323.853 217.659 322.583 217.495 320.959C217.331 319.369 217.313 317.754 216.7 316.233C216.302 315.93 216.207 315.473 216.104 315.032C215.361 311.913 213.33 309.658 211.11 307.524C210.531 307.135 209.952 306.738 209.382 306.349C209.719 306.331 210.056 306.314 210.401 306.297C210.652 306.306 210.911 306.323 211.162 306.331C214.358 305.899 217.547 306.487 220.735 306.487C240.97 306.487 261.205 306.487 281.439 306.487C287.824 306.487 294.192 307.135 300.586 306.781C301.519 306.729 302.4 306.496 303.307 306.366C304.171 306.236 305.165 305.856 305.726 306.988H305.735Z" fill="#0860C9"/>
<path d="M283.572 322.368C283.572 322.956 283.572 323.552 283.598 324.139C283.676 325.911 284.479 326.861 286.389 326.956C293.612 327.293 300.835 326.991 308.067 326.991C312.723 326.991 317.389 327.094 321.994 326.152C323.809 325.781 325.459 325.021 327.144 324.312C327.144 324.511 327.135 324.718 327.126 324.917C323.031 326.93 318.659 327.69 314.149 327.716C305.138 327.777 296.126 327.785 287.106 327.794C283.114 327.794 282.147 326.282 283.581 322.368H283.572Z" fill="#162234"/>
<path d="M335.56 311.835C335.603 308.042 333.763 306.185 329.339 305.571C328.7 305.485 328.017 305.615 327.438 305.208C328.881 304.725 329.313 303.152 330.644 302.409C334.696 300.163 339.154 299.325 343.561 298.262C354.689 295.584 365.869 293.121 376.937 290.218C379.935 289.432 382.76 288.162 385.37 286.451C386.372 285.794 387.296 285.077 387.34 283.729C388.748 283.28 390.122 282.753 391.254 281.759C391.409 282.943 391.962 282.382 392.42 282.001C394.079 280.61 395.833 279.306 397.371 277.785C406.209 269.007 415.834 261.205 425.9 253.878C429.676 251.131 433.469 248.444 437.452 246.007C442.031 243.208 447.146 241.799 452.39 241.497C459.414 241.091 466.465 240.763 473.515 241.022C480.678 241.281 487.849 241.428 494.994 241.86C504.282 242.422 513.544 243.424 522.642 245.42C526.711 246.31 530.807 247.2 534.721 248.85C534.868 249.36 534.401 249.619 534.116 249.947C533.088 251.148 533.14 252.34 534.159 253.498C536.241 255.865 538.28 258.276 540.458 260.557C545.763 266.13 550.8 271.927 555.483 278.036C558.947 282.546 558.619 287.505 554.843 290.996C554.083 291.704 553.063 291.816 552.303 292.447C544.7 292.715 537.097 292.991 529.493 293.259C527.446 290.486 525.796 287.479 524.24 284.421C523.973 283.902 523.782 283.323 524.284 282.788C527.135 282.252 530.021 282.174 532.906 282.053C534.885 281.967 536.855 282.036 538.816 281.639C542.419 280.913 543.525 278.545 541.555 275.418C539.792 272.618 537.615 270.139 535.481 267.616C530.867 262.173 525.994 256.989 520.05 252.954C516.058 250.241 511.41 249.403 506.762 248.772C498.925 247.718 491.071 246.828 483.157 246.681C482.371 246.664 481.559 246.707 480.937 246.059C479.978 245.67 478.975 245.921 478.008 245.921C468.262 245.938 458.516 245.834 448.77 245.973C447.405 246.888 445.746 246.759 444.243 247.217C439.301 248.729 435.343 251.848 431.594 255.105C421.753 263.641 412.162 272.454 402.926 281.647C401.941 282.623 401.017 283.66 400.282 284.827C399.159 286.607 399.669 287.851 401.673 288.352C402.295 288.507 403.013 288.43 403.427 289.086C404.049 291.082 404.654 293.087 405.034 295.143C405.19 295.981 405.397 296.819 404.81 297.588C403.427 298.288 401.898 298.253 400.438 298.34C387.132 299.083 373.948 300.776 360.918 303.532C353.022 305.2 345.246 307.334 337.85 310.66C336.934 311.075 336.174 311.334 336.148 309.753C335.69 310.479 336.199 311.308 335.56 311.809V311.835Z" fill="#3B91F0"/>
<path d="M387.347 283.729C388.194 284.187 388.315 284.593 387.52 285.353C384.418 288.308 380.582 289.863 376.564 290.857C363.924 293.993 351.258 296.974 338.592 299.99C335.576 300.707 332.725 301.804 330.021 303.325C329.079 303.86 328.984 305.545 327.437 305.208C320.102 304.612 312.905 305.64 305.734 306.988C305.284 306.599 304.705 306.634 304.222 306.746C299.789 307.783 295.271 307.619 290.795 307.463C266.888 306.651 242.981 307.342 219.074 307.118C216.664 307.092 214.279 306.245 211.851 306.945C211.696 306.988 211.393 306.547 211.16 306.331C213.856 304.983 216.508 303.549 219.256 302.305C226.945 298.832 235.007 296.663 243.301 295.134C249.288 294.028 255.293 293.043 261.324 292.205C266.508 291.479 271.735 291.056 276.936 290.477C281.818 289.933 286.717 289.475 291.581 288.783C295.417 288.239 299.28 288.092 303.133 287.747C310.183 287.116 317.259 286.675 324.318 286.166C326.409 286.01 328.509 286.045 330.617 285.837C335.516 285.362 340.44 285.25 345.357 284.991C344.346 286.632 342.704 287.263 340.959 287.574C334.583 288.688 328.396 290.563 322.201 292.386C314.356 294.693 306.528 297.078 299.599 301.631C299.323 301.813 299.003 301.908 298.683 301.985C298.433 302.072 298.813 302.314 298.666 302.098C298.649 302.072 298.692 302.029 298.813 301.985C304.705 300.093 310.632 298.279 316.499 296.335C323.964 293.864 331.567 291.998 339.196 290.2C347.335 288.291 355.586 286.857 363.743 285.034C369.255 283.798 374.733 284.092 380.245 283.945C381.014 283.928 381.817 284.17 382.56 283.755C384.159 283.755 385.757 283.038 387.364 283.72L387.347 283.729Z" fill="#0D71EC"/>
<path d="M382.544 283.764C382.026 284.369 381.317 284.135 380.687 284.144C378.708 284.17 376.73 284.239 374.76 284.144C371.312 283.962 368.038 284.688 364.694 285.474C358.853 286.857 352.883 287.712 347.008 288.948C342.394 289.915 337.841 291.151 333.244 292.196C327.136 293.587 321.244 295.67 315.247 297.415C309.796 298.996 304.508 301.096 298.961 302.348C298.27 302.504 297.829 303.29 296.473 302.945C298.952 301.45 301.026 300.076 303.212 298.91C309.882 295.35 317.114 293.294 324.345 291.246C328.864 289.967 333.34 288.542 337.953 287.652C340.571 287.151 343.129 286.572 345.34 284.999C348.261 284.852 351.19 284.792 354.058 284.153C363.545 283.591 373.04 283.729 382.536 283.772L382.544 283.764Z" fill="#095EC9"/>
<path d="M325.175 260.419C327.845 259.002 330.515 257.593 333.176 256.168C340.891 252.038 349.281 250.655 357.869 250.172C362.007 249.938 366.146 249.852 370.293 249.705C370.889 250.655 370.276 251.476 369.956 252.297C368.349 256.453 366.595 260.54 365.083 264.73C364.807 265.292 364.53 265.853 363.882 266.087C362.197 265.594 360.539 265.775 358.811 266.026C344.123 268.186 330.696 273.871 317.632 280.602C316.881 280.991 316.051 281.302 315.567 282.071C315.49 282.235 315.386 282.39 315.256 282.52C313.822 282.572 312.388 282.615 310.954 282.667C308.292 283.004 305.597 282.511 302.936 282.926C302.711 282.926 302.486 282.926 302.262 282.935C302.841 278.424 304.344 274.64 308.439 271.893C314.047 268.126 319.421 264.004 325.175 260.427V260.419Z" fill="#E9D49E"/>
<path d="M375.874 249.844C375.986 249.775 376.099 249.706 376.211 249.637C383.322 249.395 390.433 249.637 397.535 249.516C400.602 249.464 403.66 249.049 406.728 249.283C411.963 249.62 417.199 249.948 422.444 250.285C422.513 250.449 422.582 250.604 422.651 250.769C418.668 254.138 414.694 257.499 410.711 260.869C408.438 261.18 406.166 261.465 403.859 261.396C398.882 261.24 393.906 261.543 388.938 261.811C386.942 261.914 385.274 262.718 383.84 264.066C383.33 264.541 382.795 264.956 382.06 265.016C379.106 264.86 376.151 265.016 373.196 264.921C371.58 264.869 370.569 265.448 370.146 267.055C369.895 268.005 369.489 268.921 369.031 269.785C368.789 270.235 368.617 270.995 367.778 270.554C367.286 268.541 368.686 266.986 369.1 265.197C370.785 260.808 372.591 256.471 374.466 252.16C374.82 251.339 375.045 250.406 375.857 249.853L375.874 249.844Z" fill="#E8D49E"/>
<path d="M382.207 264.92C382.578 264.583 382.958 264.237 383.33 263.9C386.345 263.788 389.335 263.313 392.35 263.365C396.42 263.443 400.472 263.131 404.541 262.993C405.362 262.967 406.597 262.656 406.727 264.151C401.025 269.698 395.331 275.253 389.628 280.792C389.015 281.388 388.324 281.915 387.382 281.872C380.211 281.526 373.048 282.278 365.886 282.114C366.275 279.859 368.97 277.724 371.916 277.362C372.824 277.249 373.739 277.206 374.655 277.085C377.109 276.757 378.552 275.443 379.07 273.007C379.502 270.951 380.073 268.929 380.816 266.959C381.118 266.173 381.308 265.3 382.207 264.911V264.92Z" fill="#5F6163"/>
<path d="M382.207 264.92C381.162 267.322 380.393 269.819 379.762 272.359C378.699 276.636 377.533 277.595 373.109 277.794C369.904 277.941 367.485 279.323 365.886 282.114C364.97 282.14 364.054 282.157 363.139 282.183C362.724 281.63 362.923 281.051 363.139 280.507C364.357 277.422 365.558 274.321 366.845 271.262C367.035 270.804 367.208 270.243 367.882 270.26C369.109 269.335 369.351 267.867 369.714 266.562C370.18 264.868 371.036 264.246 372.79 264.341C375.338 264.48 377.904 264.359 380.462 264.367C381.084 264.367 381.81 264.143 382.198 264.92H382.207Z" fill="#D3B86F"/>
<path d="M367.882 270.268C366.188 274.199 364.469 278.122 363.138 282.191C362.171 282.191 361.194 282.14 360.235 282.217C359.008 282.312 358.023 282.209 358.11 280.619C357.548 279.677 358.265 278.917 358.473 278.087C359.985 274.45 361.652 270.882 362.966 267.158C363.147 266.657 363.372 266.182 363.89 265.94C364.158 265.534 364.417 265.127 364.685 264.713C366.888 263.78 368.469 263.935 369.653 265.197C369.065 266.89 368.469 268.583 367.882 270.268Z" fill="#1E1E1F"/>
<path d="M406.727 264.16C405.224 262.89 403.444 263.563 401.863 263.702C400.161 263.849 398.459 264.013 396.757 263.961C392.938 263.84 389.145 264.237 385.334 264.35C384.652 264.367 383.857 264.635 383.321 263.9C384.747 261.887 386.864 261.282 389.153 261.205C394.864 261.006 400.575 260.85 406.286 260.738C407.755 260.712 409.267 259.986 410.719 260.868C409.388 261.965 408.058 263.062 406.727 264.16Z" fill="#8A8B85"/>
<path d="M406.736 249.282C399.988 250.025 393.223 249.515 386.466 249.628C383.053 249.688 379.632 249.628 376.219 249.628C376.841 249.057 377.602 249.299 378.293 249.299C384.548 249.282 390.804 249.299 397.059 249.299C397.759 249.299 398.459 249.299 399.15 248.928C392.713 248.928 386.268 248.902 379.831 248.945C377.869 248.954 375.934 249.031 374.267 247.761C382.907 247.701 391.529 248.072 400.143 248.608C402.321 248.746 404.602 248.565 406.744 249.282H406.736Z" fill="#808285"/>
<path d="M358.853 278.321C358.603 279.081 358.361 279.85 358.11 280.611C357.48 283.194 355.492 282.226 353.877 282.218C349.505 282.563 345.124 282.269 340.744 282.373C339.249 282.408 337.737 282.226 336.251 282.503C329.253 282.503 322.254 282.503 315.256 282.511C315.256 282.408 315.256 282.295 315.256 282.192C316.025 280.93 317.304 281.172 318.453 281.172C329.84 281.146 341.228 281.164 352.607 281.155C353.263 281.155 353.92 281.129 354.577 281.155C355.838 281.207 356.719 280.732 357.169 279.496C357.393 278.883 357.687 278.269 358.309 277.932C358.672 277.733 358.94 277.803 358.845 278.312L358.853 278.321Z" fill="#DAC385"/>
<path d="M336.251 282.503C336.614 282.131 337.089 282.183 337.547 282.183C342.99 282.192 348.433 282.209 353.877 282.218C350.04 282.736 346.178 282.442 342.334 282.537C340.312 282.589 338.281 282.52 336.251 282.503Z" fill="#D4B96F"/>
<path d="M302.943 282.917C305.604 282.408 308.283 282.554 310.961 282.658C308.3 283.09 305.622 283.03 302.943 282.917Z" fill="#67696B"/>
<path d="M369.653 265.188C368.08 264.185 366.318 265.118 364.685 264.704C365.799 260.531 367.769 256.677 369.264 252.642C369.627 251.666 369.946 250.681 370.283 249.705C372.158 249.186 374.033 248.97 375.873 249.852C374.249 253.826 372.633 257.809 371.009 261.783C370.551 262.915 370.102 264.056 369.644 265.196L369.653 265.188Z" fill="#797874"/>
<path d="M211.118 307.533C214.505 309.459 216.207 312.466 216.708 316.242C215.844 316.872 214.401 316.432 213.909 317.754C211.714 317.927 209.709 318.825 207.619 319.404C203.532 319.352 201.994 316.484 204.18 312.855C205.485 310.704 207.074 308.734 209.779 308.388C210.496 308.293 210.47 307.481 211.109 307.533H211.118Z" fill="#FEFEFE"/>
<path d="M352.045 358.734C351.968 351.139 353.955 344.944 359.035 339.925C364.772 334.257 373.697 334.931 378.501 341.462C382.925 347.485 384.592 354.215 383.823 361.68C383.253 367.201 381.75 372.307 377.931 376.377C371.408 383.332 362.413 382.597 356.841 374.865C354.318 371.357 351.778 365.482 352.037 358.742L352.045 358.734Z" fill="#030303"/>
<path d="M308.551 317.814C311.462 317.434 314.366 317.011 317.286 316.691C320.854 316.302 324.319 317.097 327.766 317.84C329.157 318.142 329.304 319.11 328.457 320.207C326.842 322.281 324.561 323.387 322.141 323.983C315.523 325.625 308.741 325.331 301.993 325.322C300.999 325.322 300.343 324.7 300.014 323.923C299.634 323.015 300.23 322.298 300.982 321.789C301.786 321.244 302.606 320.726 303.419 320.199C304.853 318.791 306.771 318.445 308.559 317.814H308.551Z" fill="#C6C9CD"/>
<path d="M308.551 317.814C307.108 319.188 305.156 319.464 303.41 320.198C300.922 320.008 298.399 320.544 295.954 319.784C295.272 319.568 294.572 319.343 293.95 318.989C292.17 317.978 292.04 316.881 293.353 315.351C295.833 312.483 298.9 310.591 302.581 309.692C305.035 309.096 307.177 309.848 308.966 311.42C310.668 312.924 310.417 315.282 308.543 317.805L308.551 317.814Z" fill="#FEFEFE"/>
<path d="M358.852 278.32C357.824 278.458 357.781 279.4 357.634 280.065C357.306 281.508 356.502 281.819 355.111 281.811C342.721 281.759 330.332 281.785 317.951 281.793C317.035 281.793 316.093 281.664 315.264 282.199C315.134 282.173 314.935 282.182 314.892 282.104C314.564 281.543 315.125 281.508 315.402 281.335C318.573 279.314 321.994 277.767 325.39 276.203C332.526 272.903 339.784 269.887 347.413 267.892C352.156 266.647 356.96 265.723 361.833 265.179C362.645 265.084 363.406 265.161 363.898 265.948C362.464 270.181 360.693 274.268 358.861 278.337L358.852 278.32Z" fill="#D4B96F"/>
<path d="M382.484 353.836C383.572 360.86 382.536 367.487 378.518 373.448C372.98 381.656 363.303 381.846 357.333 373.949C350.931 365.491 350.861 351.321 357.177 342.984C363.052 335.225 371.787 335.061 377.905 342.655C380.237 345.55 381.698 348.859 382.19 352.574C382.397 353.058 382.467 353.576 381.715 353.283C381.317 353.127 381.248 352.54 381.309 352.306C381.827 353.749 381.767 355.486 381.931 357.196C382.086 358.89 381.931 360.583 381.784 361.534C381.948 360.177 382.104 358.086 381.827 355.961C381.741 355.261 381.266 354.216 382.492 353.836H382.484Z" fill="#F2F6FB"/>
<path d="M382.483 353.834C381.757 355.544 382.284 357.333 382.172 359.078C382.077 360.633 382.302 362.215 381.386 363.683C382.086 359.372 381.619 355.121 381.101 350.818C381.334 351.527 381.455 352.304 381.835 352.927C382.042 353.263 382.051 352.693 382.181 352.564C382.509 352.927 382.595 353.359 382.483 353.825V353.834Z" fill="#E0E3E8"/>
<path d="M365.963 343.475C365.963 343.406 365.971 343.345 365.971 343.276C365.885 340.425 367.288 339.334 370.179 340.002C370.49 340.071 370.784 340.235 371.086 340.356C371.579 340.995 371.19 341.617 371.026 342.231C370.317 344.901 369.738 347.596 368.978 350.249C368.684 351.277 368.797 351.985 369.79 352.564C370.793 353.152 371.415 352.651 372.011 351.994C373.385 350.473 375.069 349.316 376.538 347.899C376.996 347.458 377.419 346.879 378.206 347.087C379.363 349.298 380.089 351.657 380.495 354.12C378.612 355.303 376.365 355.243 374.344 355.943C373.601 356.193 372.814 356.331 372.045 356.478C370.914 356.642 370.456 355.813 369.911 355.061C368.002 352.426 365.436 352.625 363.898 355.502C362.299 358.5 363.379 362.189 366.326 363.77C366.758 364.081 367.561 364.021 367.458 364.876C367.423 367.857 368.538 370.648 368.909 373.56C368.952 373.879 369.142 374.225 369.073 374.519C368.874 375.365 370.222 376.428 369.021 376.981C367.89 377.499 366.559 377.171 365.349 376.765C364.615 376.523 365.056 376.005 365.09 375.616C365.358 372.402 365.66 369.196 365.928 365.991C365.989 365.248 363.224 362.958 362.541 363.157C362.438 363.192 362.412 363.503 362.351 363.693C362.023 364.945 361.539 366.112 360.433 366.907C359.569 368.35 358.697 369.793 357.772 371.348C356.632 369.801 356.122 368.065 355.448 366.397C355.154 365.663 355.5 365.498 356.001 365.213C357.081 364.6 358.126 363.926 359.189 363.278C361.954 361.481 360.114 358.923 360.2 356.703C360.226 356.02 359.241 355.943 358.662 355.675C357.383 355.087 355.794 355.165 354.834 353.895C354.558 351.234 356.001 349.057 356.839 346.715C357.824 346.214 358.282 346.983 358.774 347.553C359.941 348.901 360.96 350.353 362.066 351.744C362.498 352.288 362.956 353.1 363.811 352.616C364.727 352.089 366.352 351.882 366.092 350.508C365.643 348.141 366.36 345.808 365.971 343.484L365.963 343.475Z" fill="#010101"/>
<path d="M365.965 343.475C366.587 345.981 366.293 348.564 366.699 351.087C366.854 352.063 366.12 352.176 365.489 352.236C364.444 352.34 363.934 354.042 362.82 353.351C361.981 352.824 361.463 351.778 360.806 350.958C359.83 349.722 358.871 348.469 357.877 347.26C357.627 346.957 357.471 346.326 356.832 346.707C358.595 344.331 360.21 341.825 363.105 340.572C365.014 339.743 365.334 339.838 365.515 341.937C365.619 343.104 365.533 344.279 365.774 345.462C365.835 344.797 365.904 344.141 365.965 343.475Z" fill="#C7C3BE"/>
<path d="M378.207 347.077C375.935 349.134 373.662 351.198 371.381 353.255C371.036 353.566 370.595 354.283 370.154 353.505C369.645 352.607 367.83 352.831 368.193 351.345C369.1 347.665 370.12 344.01 371.096 340.347C374.544 341.453 376.669 343.95 378.207 347.069V347.077Z" fill="#B2BAB6"/>
<path d="M367.45 364.868C367.251 364.255 366.457 364.713 366.206 364.177C367.545 363.512 368.919 362.968 370.405 362.726C372.747 364.912 374.673 367.391 375.762 370.45C375.313 371.409 376.859 372.394 375.425 373.517C373.939 374.675 372.254 374.649 370.656 375.055C369.731 375.288 369.653 374.26 369.507 373.56C368.962 370.942 368.435 368.316 367.882 365.698C367.822 365.404 367.597 365.136 367.45 364.86V364.868Z" fill="#D1D4D9"/>
<path d="M354.818 353.886C355.311 354.041 355.847 354.119 356.296 354.361C357.782 355.173 360.296 354.741 360.771 356.452C361.195 357.972 361.203 359.726 361.523 361.394C361.756 362.604 360.063 362.724 359.173 363.269C357.791 362.871 356.927 363.951 355.898 364.478C355.259 364.807 354.957 364.824 354.793 364.09C354.015 360.685 353.332 357.281 354.818 353.886Z" fill="#C5C8CC"/>
<path d="M360.425 366.89C360.987 365.775 361.462 364.609 362.343 363.676C363.216 364.194 364.08 364.721 364.961 365.214C365.462 365.49 365.471 365.844 365.402 366.363C365.004 369.309 364.65 372.255 364.149 375.305C363.743 373.793 362.879 373.249 361.332 373.111C359.103 372.921 358.619 371.521 359.621 369.49C360.01 368.696 360.943 367.987 360.416 366.89H360.425Z" fill="#D8DBE0"/>
<path d="M375.762 370.458C373.999 367.892 372.323 365.256 370.319 362.863C370.103 362.103 370.448 361.671 371.148 361.438C374.129 362.336 377.205 362.993 379.762 364.937C379.529 366.907 378.527 368.583 377.758 370.354C377.11 371.849 376.488 371.659 375.762 370.449V370.458Z" fill="#010101"/>
<path d="M371.787 356.133C374.612 355.114 377.515 354.448 380.496 354.111C381.256 355.952 381.049 357.87 380.98 359.779C378.198 360.168 375.407 359.9 372.616 359.891C370.655 359.079 370.318 357.507 371.795 356.133H371.787Z" fill="#B0B2B6"/>
<path d="M372.254 359.364C375.157 359.511 378.095 359.002 380.972 359.779C380.946 361.594 380.652 363.339 379.754 364.946C376.859 363.857 373.965 362.76 371.071 361.671C370.734 360.531 371.096 359.745 372.254 359.373V359.364Z" fill="#E0E3E8"/>
<path d="M372.254 359.364C371.39 359.891 371.528 360.928 371.07 361.662C370.82 362.059 370.569 362.457 370.318 362.854C369.048 363.597 367.77 364.314 366.206 364.168C364.08 363.45 362.871 361.722 362.758 359.251C362.646 356.642 363.026 354.232 365.661 352.918C367.389 352.063 369.04 352.78 370.327 354.612C370.716 355.165 370.586 356.323 371.787 356.115C371.563 357.247 370.655 358.483 372.254 359.347V359.364Z" fill="#FEFEFE"/>
</g>
<defs>
<filter id="filter0_d_394_3700" x="-4" y="0" width="398" height="423" filterUnits="userSpaceOnUse" color-interpolation-filters="sRGB">
<feFlood flood-opacity="0" result="BackgroundImageFix"/>
<feColorMatrix in="SourceAlpha" type="matrix" values="0 0 0 0 0 0 0 0 0 0 0 0 0 0 0 0 0 0 127 0" result="hardAlpha"/>
<feOffset dy="4"/>
<feGaussianBlur stdDeviation="2"/>
<feComposite in2="hardAlpha" operator="out"/>
<feColorMatrix type="matrix" values="0 0 0 0 0 0 0 0 0 0 0 0 0 0 0 0 0 0 0.25 0"/>
<feBlend mode="normal" in2="BackgroundImageFix" result="effect1_dropShadow_394_3700"/>
<feBlend mode="normal" in="SourceGraphic" in2="effect1_dropShadow_394_3700" result="shape"/>
</filter>
<linearGradient id="paint0_linear_394_3700" x1="31.9199" y1="107.955" x2="186.438" y2="107.955" gradientUnits="userSpaceOnUse">
<stop stop-color="#448C78"/>
<stop offset="1" stop-color="#3E776B"/>
</linearGradient>
<linearGradient id="paint1_linear_394_3700" x1="37.2891" y1="108.046" x2="191.807" y2="108.046" gradientUnits="userSpaceOnUse">
<stop stop-color="#80BBF9"/>
<stop offset="1" stop-color="#42D7BE"/>
</linearGradient>
<linearGradient id="paint2_linear_394_3700" x1="37.2891" y1="108.046" x2="191.807" y2="108.046" gradientUnits="userSpaceOnUse">
<stop stop-color="#80BBF9"/>
<stop offset="1" stop-color="#42D7BE"/>
</linearGradient>
<clipPath id="clip0_394_3700">
<rect width="390" height="415" fill="white"/>
</clipPath>
</defs>
</svg>
