<svg width="189" height="40" viewBox="0 0 189 40" fill="none" xmlns="http://www.w3.org/2000/svg">
<path d="M27.539 31.2793L36.6382 8.07928C36.8587 7.51928 37.1594 7.25928 37.7205 7.25928H46.6394C47.2006 7.25928 47.401 7.51928 47.4211 8.07928L48.2228 31.6993C48.2228 32.2593 47.9823 32.5393 47.4411 32.5393H42.1499C41.5887 32.5393 41.3282 32.2393 41.3081 31.6993L41.0275 13.5393L36.5781 25.7193L39.5845 25.1993C40.1457 25.1193 40.4062 25.3393 40.4263 25.8993L40.5064 29.7593C40.5064 30.3393 40.2258 30.6593 39.6847 30.7393L29.0823 32.6593C27.7595 32.8993 27.078 32.4593 27.559 31.2993L27.539 31.2793Z" fill="#2E80EC"/>
<path d="M69.7281 31.8593C69.668 32.1993 69.2471 32.4193 68.8262 32.4193H63.1943C62.6331 32.4193 62.5129 32.1193 62.4327 31.5793L61.3103 24.2593H59.9474C59.3862 24.2593 59.1858 23.9593 59.286 23.4193L60.0076 19.2993C60.1078 18.7393 60.4084 18.4593 60.9696 18.4593H63.054C63.6152 18.4593 63.9158 18.1593 64.016 17.6193L64.6774 13.8993C64.7777 13.3393 64.5572 13.0593 64.016 13.0593H60.2881L57.0212 31.5593C56.921 32.1193 56.6204 32.3993 56.0592 32.3993H50.5275C49.9663 32.3993 49.7659 32.0993 49.8661 31.5593L54.0149 8.09928C54.1151 7.53928 54.4157 7.25928 54.9769 7.25928H67.0024C70.9908 7.25928 72.514 9.75928 71.8927 13.2593L71.0108 18.2393C70.6501 20.3193 69.6279 22.0593 68.0245 23.1193L69.7081 31.5593C69.7081 31.6793 69.7281 31.7593 69.7081 31.8593H69.7281Z" fill="#2E80EC"/>
<path d="M95.4626 8.41928L82.9361 24.9793C82.415 25.6793 81.9741 25.8193 81.3929 25.4993L79.3686 24.4193L78.1059 31.5593C78.0057 32.1193 77.7051 32.3993 77.1439 32.3993H71.8527C71.2915 32.3993 71.0911 32.0993 71.1913 31.5593L75.3401 8.09928C75.4403 7.53928 75.7409 7.25928 76.3021 7.25928H81.5933C82.1545 7.25928 82.3549 7.55928 82.2547 8.09928L80.7515 16.5793L81.5332 17.1393L87.9067 8.49928C88.528 7.65928 89.0491 7.25928 89.951 7.25928H94.9816C95.8835 7.25928 96.0038 7.69928 95.4426 8.43928L95.4626 8.41928ZM90.7326 32.3993H85.3212C84.74 32.3993 84.4393 32.1593 84.3191 31.6993L83.1366 27.0793C83.0564 26.4993 83.0965 26.0393 83.4973 25.4793L87.7664 19.7993C88.2474 19.1593 88.8687 19.1593 89.029 19.8793L91.6746 30.9393C91.8951 31.8393 91.6746 32.3993 90.7527 32.3993H90.7326Z" fill="#2E80EC"/>
<path d="M113.401 8.09926L109.252 31.5593C109.152 32.1193 108.851 32.3993 108.29 32.3993H102.798C102.237 32.3993 102.037 32.0993 102.137 31.5593L106.286 8.09926C106.386 7.53926 106.687 7.25926 107.248 7.25926H112.74C113.301 7.25926 113.501 7.55926 113.401 8.09926ZM126.248 8.09926L122.099 31.5593C121.999 32.1193 121.698 32.3993 121.137 32.3993H115.646C115.084 32.3993 114.884 32.0993 114.984 31.5593L116.568 22.6193H112.459C111.898 22.6193 111.697 22.3193 111.798 21.7793L112.679 16.7593C112.78 16.1993 113.08 15.9393 113.641 15.9393H117.75L119.133 8.07926C119.233 7.51926 119.534 7.23926 120.095 7.23926H125.587C126.148 7.23926 126.348 7.53926 126.248 8.07926V8.09926Z" fill="#2E80EC"/>
<path d="M124.544 31.5593L128.693 8.09928C128.793 7.53928 129.074 7.25928 129.655 7.25928H145.028C145.589 7.25928 145.789 7.55928 145.689 8.09928L144.927 12.4193C144.827 12.9793 144.527 13.2593 143.965 13.2593H134.926L132.601 26.3993H141.941C142.502 26.3993 142.703 26.6993 142.603 27.2393L141.841 31.5593C141.741 32.1193 141.44 32.3993 140.879 32.3993H125.206C124.645 32.3993 124.444 32.0993 124.544 31.5593ZM143.124 17.1793L142.342 21.6393C142.242 22.2193 141.941 22.4793 141.38 22.4793H134.926C134.365 22.4793 134.165 22.1793 134.265 21.6393L135.047 17.1793C135.147 16.6193 135.447 16.3393 136.009 16.3393H142.462C143.023 16.3393 143.224 16.6393 143.124 17.1793Z" fill="#2E80EC"/>
<path d="M163.628 31.8593C163.567 32.1993 163.147 32.4193 162.726 32.4193H157.094C156.533 32.4193 156.412 32.1193 156.332 31.5793L155.21 24.2593H153.847C153.286 24.2593 153.085 23.9593 153.185 23.4193L153.907 19.2993C154.007 18.7393 154.308 18.4593 154.869 18.4593H156.953C157.515 18.4593 157.815 18.1593 157.915 17.6193L158.577 13.8993C158.677 13.3393 158.457 13.0593 157.915 13.0593H154.188L150.921 31.5593C150.82 32.1193 150.52 32.3993 149.959 32.3993H144.427C143.866 32.3993 143.665 32.0993 143.766 31.5593L147.914 8.09928C148.014 7.53928 148.315 7.25928 148.876 7.25928H160.902C164.89 7.25928 166.413 9.75928 165.792 13.2593L164.91 18.2393C164.549 20.3193 163.527 22.0593 161.924 23.1193L163.607 31.5593C163.607 31.6793 163.628 31.7593 163.607 31.8593H163.628Z" fill="#2E80EC"/>
<path d="M165.09 31.5593L169.239 8.09928C169.339 7.53928 169.62 7.25928 170.201 7.25928H185.574C186.135 7.25928 186.335 7.55928 186.235 8.09928L185.473 12.4193C185.373 12.9793 185.072 13.2593 184.511 13.2593H175.472L173.147 26.3993H182.487C183.048 26.3993 183.249 26.6993 183.148 27.2393L182.387 31.5593C182.287 32.1193 181.986 32.3993 181.425 32.3993H165.752C165.19 32.3993 164.99 32.0993 165.09 31.5593ZM183.69 17.1793L182.908 21.6393C182.808 22.2193 182.507 22.4793 181.946 22.4793H175.492C174.931 22.4793 174.731 22.1793 174.831 21.6393L175.612 17.1793C175.713 16.6193 176.013 16.3393 176.575 16.3393H183.028C183.589 16.3393 183.79 16.6393 183.69 17.1793Z" fill="#2E80EC"/>
<path d="M22.2872 7.33982C23.6901 7.33982 25.0731 7.49982 26.436 7.81982C28.7809 8.37982 30.2039 9.89982 30.7451 12.1798C31.5067 15.3398 30.8453 18.2598 28.8811 20.8798C27.9191 22.1598 26.5562 22.7598 25.0129 23.0398C23.5498 23.2998 22.0667 23.3198 20.5635 23.3198C20.303 23.3198 20.2429 23.2198 20.2829 22.9598C20.4433 22.1398 20.8241 21.3998 21.265 20.6998C21.5456 20.2398 22.0266 20.2798 22.4676 20.2398C23.63 20.1398 24.7324 19.8598 25.6743 19.0998C26.2155 18.6598 26.6364 18.1398 26.9571 17.5198C27.0573 17.3398 27.1575 17.1598 27.2377 16.9998C27.398 16.7198 27.6385 16.5598 27.9792 16.5598C28.5204 16.5598 29.0415 16.5598 29.5826 16.5598C30.0236 16.5598 30.3643 16.3998 30.5246 15.9998C30.6849 15.6398 30.7651 15.2398 30.8653 14.8598C30.9054 14.6798 30.8453 14.5598 30.6248 14.5598C29.8031 14.5598 28.9813 14.5398 28.1596 14.5598C27.8389 14.5598 27.6385 14.8198 27.4782 15.0998C27.2777 15.4598 27.0773 15.8198 26.8769 16.1798H26.7566C26.5562 15.7598 26.3157 15.3598 26.1554 14.9198C25.8347 14.0798 25.534 13.2398 25.2535 12.3798C24.9729 11.5398 24.7524 11.3798 23.8906 11.3798C20.5435 11.3798 17.1764 11.3798 13.8293 11.3798C13.1879 11.3798 12.7069 11.6998 12.266 12.0998C11.3039 13.0198 10.3419 13.9398 9.37986 14.8598C9.03914 15.1998 8.67838 15.4598 8.15727 15.4798C7.75642 15.4798 7.37562 15.6198 6.95473 15.6998C6.63405 14.9798 6.41358 14.1998 5.55176 13.8798C5.91252 11.8798 6.27328 9.87982 6.65409 7.87982C6.7561 7.4999 6.99481 7.31982 7.31549 7.31982H22.2671L22.2872 7.33982Z" fill="#2E80EC"/>
<path d="M14.4311 13.8997C14.2908 13.8997 14.1104 13.9797 14.0102 14.0797C13.6294 14.4397 13.2486 14.8197 12.8678 15.1997C12.7876 15.2797 12.6673 15.3397 12.5671 15.3397C11.9458 15.3397 11.3245 15.3397 10.6631 15.3397C10.7032 15.2797 10.7232 15.2397 10.7433 15.2197C11.565 14.3997 12.3867 13.5597 13.1884 12.7197C13.3889 12.4997 13.6294 12.3997 13.91 12.3997C14.2707 12.3997 14.6315 12.3997 14.9923 12.3997C17.718 12.3997 20.4638 12.3997 23.1896 12.3997C23.6706 12.3997 23.831 12.6397 24.0715 13.1797C24.5124 14.1597 24.813 14.8997 25.254 15.7397C25.9955 17.1597 25.3341 17.8997 24.4723 18.0797C24.312 18.1197 24.1316 18.1197 23.9713 18.1197C18.7402 18.1197 13.5091 18.1197 8.27804 18.1197C8.15779 18.1197 8.05757 18.1197 7.93732 18.1197C7.15566 18.1597 6.85503 18.4197 6.71473 19.1997C6.45418 20.8397 6.19363 22.4997 5.93308 24.1397C5.73265 25.4197 5.51218 26.6797 5.29172 27.9597C5.17146 28.6797 5.35184 28.8397 6.19363 28.7997C6.77486 28.7797 7.35609 28.7797 7.93732 28.7997C8.75906 28.8397 8.95948 28.7597 9.05969 28.0997C9.17995 27.2797 9.32025 26.4597 9.4405 25.6397C9.46054 25.4997 9.5808 25.3997 9.72109 25.3997H13.8298C14.1104 25.3997 14.3108 25.6397 14.2707 25.9197C14.0102 27.3797 13.7496 28.8197 13.5091 30.2597C13.3889 30.8997 13.2686 31.5597 13.1684 32.1997C13.1283 32.4197 13.0481 32.5197 12.8076 32.5197C9.50063 32.5197 6.17359 32.5197 2.86659 32.5197C2.62608 32.5197 2.56595 32.4797 2.60603 32.2197C3.12714 29.3397 3.6282 26.4397 4.12926 23.5397C4.36977 22.1797 4.57019 20.8397 4.79066 19.4797C5.01112 18.1197 4.87083 18.8597 4.91091 18.5597C4.99108 17.7997 5.31176 17.1997 6.01325 16.8197C5.75269 16.5597 5.4721 16.4197 5.11134 16.4197C4.61028 16.4197 4.10922 16.4397 3.60816 16.4797C3.20731 16.4997 2.90667 16.3397 2.76637 15.9797C2.60604 15.6197 2.48578 15.2597 2.40561 14.8797C2.32544 14.5797 2.40561 14.4597 2.74633 14.4597C3.58811 14.4597 4.4299 14.4597 5.27168 14.4597C5.71261 14.4597 6.03329 14.6597 6.19363 15.0997C6.37401 15.5597 6.57443 16.0197 6.73477 16.3997C7.57656 16.3397 8.39829 16.2197 9.22003 16.2197C13.93 16.2197 18.6199 16.2197 23.3299 16.2197C23.5504 16.2197 23.6907 15.9997 23.5905 15.7997C23.4902 15.5997 23.4702 15.5197 23.4101 15.3797C23.2096 14.9397 22.9892 14.4997 22.7887 14.0597C22.7086 13.8797 22.5883 13.8997 22.448 13.8997H14.4311Z" fill="#2E80EC"/>
<path d="M12.9881 23.3192C12.5472 23.3192 12.4069 23.1792 12.5873 22.7792C12.7677 22.3592 13.0082 21.9392 13.2487 21.5392C13.2888 21.4792 13.409 21.4192 13.4892 21.4192C15.2529 21.4192 16.9966 21.4192 18.7604 21.4192C18.9808 21.4192 19.1412 21.4992 19.2013 21.6992C19.3215 22.0392 19.4418 22.3992 19.5019 22.7592C19.5821 23.2192 19.4618 23.3192 19.0009 23.3192H12.9881Z" fill="#2E80EC"/>
<path d="M10.9035 23.28C10.4225 23.26 9.9415 23.24 9.46049 23.2C8.83917 23.14 8.35815 22.84 8.0976 22.26C7.81701 21.66 7.73684 21.02 7.7168 20.36C7.7168 20.1 7.79697 19.98 8.0976 20.02C8.95943 20.14 9.80121 20.22 10.663 20.34C10.7833 20.34 10.9035 20.46 10.9637 20.56C11.4246 21.26 11.7052 22.02 11.7654 22.86C11.7854 23.28 11.7052 23.36 11.2843 23.32C11.1641 23.32 11.0238 23.32 10.9035 23.3V23.28Z" fill="#2E80EC"/>
</svg>
