<svg width="20" height="20" viewBox="0 0 20 20" fill="none" xmlns="http://www.w3.org/2000/svg">
<path d="M16.1316 14.5C16.7532 14.88 17.0807 15.3108 17.0807 15.75C17.0807 16.1892 16.7532 16.62 16.1316 17C15.5099 17.38 14.6157 17.6958 13.5391 17.915C12.4624 18.1342 11.2407 18.25 9.9974 18.25C8.75406 18.25 7.5324 18.1342 6.45573 17.915C5.37906 17.6958 4.4849 17.38 3.86323 17C3.24156 16.62 2.91406 16.1892 2.91406 15.75C2.91406 15.3108 3.24156 14.88 3.86323 14.5" stroke="#2E80EC" stroke-linecap="round"/>
<path d="M9.99707 2.5C11.4116 2.5 12.7684 3.06231 13.7686 4.0625C14.7686 5.0626 15.331 6.41871 15.3311 7.83301C15.3311 9.74168 14.3582 11.2966 13.1885 12.4766C12.0191 13.6561 10.694 14.4178 10.0986 14.7266H10.0977C10.0667 14.7427 10.032 14.751 9.99707 14.751C9.96233 14.7509 9.92827 14.7426 9.89746 14.7266H9.89648C9.30084 14.4173 7.976 13.656 6.80664 12.4766C5.6368 11.2966 4.66406 9.7418 4.66406 7.83301L4.6709 7.56934C4.73619 6.25097 5.28877 5.00029 6.22656 4.0625C7.22668 3.06238 8.5827 2.50009 9.99707 2.5Z" stroke="#2E80EC"/>
<path d="M10 10.333C11.3807 10.333 12.5 9.21372 12.5 7.83301C12.5 6.4523 11.3807 5.33301 10 5.33301C8.61929 5.33301 7.5 6.4523 7.5 7.83301C7.5 9.21372 8.61929 10.333 10 10.333Z" fill="#2E80EC"/>
</svg>
