<svg width="114" height="100" viewBox="0 0 114 100" fill="none" xmlns="http://www.w3.org/2000/svg">
<path d="M78.0509 1.83887C83.3613 1.83887 88.6486 2.41358 93.844 3.67795C102.81 5.86186 108.212 11.655 110.327 20.3446C113.246 32.4366 110.695 43.632 103.246 53.586C99.5911 58.4596 94.3727 60.8044 88.5107 61.8619C82.9015 62.8734 77.2463 62.9423 71.5682 62.9193C70.6026 62.9193 70.3038 62.5285 70.5107 61.563C71.1544 58.3906 72.6026 55.609 74.2808 52.8963C75.3842 51.1262 77.2003 51.2642 78.8785 51.1262C83.3383 50.7354 87.5222 49.655 91.0854 46.7584C93.1314 45.0802 94.7406 43.0573 96.0049 40.7584C96.3727 40.0917 96.7406 39.4251 97.1084 38.7584C97.7291 37.655 98.6486 37.1032 99.913 37.0802C101.936 37.0802 103.982 37.0113 106.005 37.0802C107.706 37.1492 108.97 36.4596 109.591 34.9653C110.166 33.586 110.488 32.0688 110.856 30.5975C111.016 29.9308 110.741 29.4711 109.982 29.4711C106.856 29.4711 103.706 29.3791 100.58 29.4711C99.3383 29.517 98.5797 30.4825 98.0049 31.54C97.2463 32.8963 96.4877 34.2757 95.7291 35.632H95.2923C94.5107 34.0228 93.6141 32.4825 92.9705 30.8274C91.7291 27.632 90.6256 24.3906 89.4992 21.1262C88.4187 17.9538 87.6141 17.3101 84.2808 17.3101C71.4762 17.3101 58.6946 17.3101 45.89 17.3101C43.4302 17.3101 41.5911 18.5055 39.913 20.0917C36.2118 23.609 32.5567 27.1262 28.9015 30.6665C27.5911 31.9308 26.2348 32.9423 24.2578 33.0343C22.7406 33.1032 21.2693 33.563 19.6371 33.8848C18.4417 31.1492 17.5452 28.1607 14.2578 26.9423C15.6601 19.2642 17.0394 11.655 18.4417 4.02278C18.6716 2.7814 19.7521 1.88484 20.9934 1.88484H78.0509V1.83887Z" fill="#2E80EC"/>
<path d="M48.0292 26.9189C47.5004 26.9189 46.8338 27.2178 46.443 27.5856C44.9487 28.9649 43.5694 30.4592 42.0981 31.8615C41.7993 32.1373 41.3395 32.4132 40.9487 32.4132C38.5809 32.4592 36.1901 32.4362 33.6843 32.4362C33.8223 32.2063 33.8912 32.0683 34.0062 31.9534C37.1096 28.781 40.259 25.6546 43.3395 22.4362C44.1211 21.6086 44.9947 21.2408 46.0522 21.2408C47.4315 21.2408 48.8108 21.2408 50.1901 21.2408C60.6039 21.2408 71.0407 21.2408 81.4545 21.2178C83.2476 21.2178 83.8912 22.1143 84.8108 24.1833C86.466 27.9074 87.6613 30.735 89.3395 33.9534C92.1441 39.4017 89.6154 42.1833 86.397 42.9189C85.7763 43.0569 85.1096 43.0798 84.466 43.0798C64.5119 43.0798 44.5349 43.0798 24.5809 43.0798C24.1671 43.0798 23.7303 43.0798 23.3165 43.0798C20.328 43.2178 19.1556 44.2523 18.6728 47.2408C17.6613 53.5396 16.7188 59.8385 15.7073 66.1373C14.9257 70.9879 14.0981 75.8615 13.2705 80.712C12.7878 83.4477 13.5234 84.0683 16.6958 83.9304C19.8682 83.7925 21.1326 83.8155 23.3395 83.9304C26.4889 84.0683 27.2246 83.7695 27.6384 81.2408C28.1211 78.1143 28.6039 74.9879 29.0866 71.8385C29.1786 71.2867 29.6384 70.8959 30.1901 70.8959H45.8453C46.9027 70.8959 47.6843 71.8385 47.5004 72.8729C46.5119 78.4362 45.5464 83.9534 44.5809 89.4936C44.1441 91.9764 43.7073 94.4592 43.3165 96.9419C43.1786 97.8155 42.8568 98.1373 41.9142 98.1373C29.2705 98.1143 16.6269 98.1373 3.98318 98.1373C3.08663 98.1373 2.83376 97.9994 3.01767 96.9649C4.99468 85.9304 6.9487 74.8729 8.85675 63.8155C9.7533 58.6431 10.5579 53.4706 11.3625 48.2982C11.5464 47.1258 11.6613 45.9534 11.7763 44.781C12.0522 41.8844 13.2935 39.5626 15.9602 38.0913C14.9947 37.0569 13.8682 36.5511 12.5349 36.5741C10.6269 36.6201 8.69583 36.689 6.78778 36.781C5.27054 36.8729 4.1441 36.2523 3.56939 34.8729C2.99468 33.5166 2.53491 32.0913 2.16709 30.6431C1.86824 29.4706 2.23606 29.0569 3.43146 29.0569C6.64985 29.0339 9.86824 29.0569 13.0866 29.0569C14.8108 29.0569 15.9832 29.8615 16.6039 31.4706C17.2935 33.2408 18.0522 34.9879 18.6499 36.4362C21.8912 36.1833 24.9947 35.7925 28.1211 35.7695C46.0522 35.7235 63.9832 35.7465 81.9142 35.7695C82.7188 35.7695 83.2705 34.9419 82.9487 34.2063C82.6269 33.4706 82.4659 33.1258 82.2361 32.5971C81.4545 30.8959 80.6039 29.2408 79.8912 27.5166C79.5924 26.804 79.1326 26.8959 78.6039 26.8959H48.0292V26.9189Z" fill="#2E80EC"/>
<path d="M42.5341 62.9421C40.8329 62.9421 40.3502 62.3904 41.0169 60.8502C41.7295 59.218 42.649 57.6777 43.5456 56.1145C43.6835 55.8616 44.1433 55.6547 44.4651 55.6547C51.1548 55.6318 57.8674 55.6547 64.5571 55.6547C65.3847 55.6547 65.9824 55.9766 66.2352 56.7582C66.672 58.0915 67.1548 59.4249 67.3847 60.8042C67.6605 62.5513 67.2697 62.9191 65.4996 62.9421H42.5341Z" fill="#2E80EC"/>
<path d="M34.6032 62.8052C32.7641 62.7132 30.9251 62.6902 29.109 62.5293C26.7182 62.3224 24.9251 61.127 23.9136 58.9201C22.8331 56.6213 22.5113 54.1845 22.4883 51.6787C22.4883 50.6902 22.7871 50.2075 23.9136 50.3454C27.1779 50.7822 30.4423 51.104 33.7067 51.5638C34.1205 51.6328 34.6262 52.0006 34.8791 52.3684C36.6262 55.0351 37.7297 57.9316 37.9595 61.127C38.0745 62.7592 37.7756 63.0121 36.1205 62.8512C35.6147 62.8052 35.132 62.7822 34.6262 62.7592C34.6262 62.7592 34.6262 62.7822 34.6262 62.8052H34.6032Z" fill="#2E80EC"/>
</svg>
