<svg width="24" height="24" viewBox="0 0 24 24" fill="none" xmlns="http://www.w3.org/2000/svg">
<path d="M11.224 2.18056V1.40278C11.224 1.1965 11.3059 0.998667 11.4518 0.852806C11.5976 0.706944 11.7955 0.625 12.0017 0.625C12.208 0.625 12.4058 0.706944 12.5517 0.852806C12.6976 0.998667 12.7795 1.1965 12.7795 1.40278V2.18056C12.7795 2.38684 12.6976 2.58467 12.5517 2.73053C12.4058 2.87639 12.208 2.95833 12.0017 2.95833C11.7955 2.95833 11.5976 2.87639 11.4518 2.73053C11.3059 2.58467 11.224 2.38684 11.224 2.18056ZM19.0017 5.29167C19.1039 5.29175 19.2051 5.2717 19.2995 5.23266C19.3939 5.19363 19.4797 5.13637 19.552 5.06417L20.3298 4.28639C20.4757 4.14045 20.5577 3.94251 20.5577 3.73611C20.5577 3.52972 20.4757 3.33178 20.3298 3.18583C20.1838 3.03989 19.9859 2.9579 19.7795 2.9579C19.5731 2.9579 19.3752 3.03989 19.2292 3.18583L18.4515 3.96361C18.3426 4.07239 18.2684 4.21103 18.2383 4.36198C18.2083 4.51294 18.2237 4.66942 18.2826 4.81161C18.3415 4.95381 18.4413 5.07533 18.5693 5.16078C18.6973 5.24624 18.8478 5.29179 19.0017 5.29167ZM4.45146 5.06417C4.5974 5.21011 4.79534 5.2921 5.00174 5.2921C5.20813 5.2921 5.40607 5.21011 5.55201 5.06417C5.69796 4.91822 5.77995 4.72028 5.77995 4.51389C5.77995 4.30749 5.69796 4.10955 5.55201 3.96361L4.77424 3.18583C4.62829 3.03989 4.43035 2.9579 4.22396 2.9579C4.01756 2.9579 3.81962 3.03989 3.67368 3.18583C3.52774 3.33178 3.44575 3.52972 3.44575 3.73611C3.44575 3.94251 3.52774 4.14045 3.67368 4.28639L4.45146 5.06417ZM12.9098 7.63569C12.8086 7.6178 12.7049 7.62013 12.6046 7.64255C12.5044 7.66497 12.4095 7.70704 12.3256 7.76632C12.2417 7.8256 12.1703 7.90092 12.1157 7.98793C12.061 8.07494 12.0242 8.17191 12.0072 8.27325C11.9903 8.37459 11.9936 8.47828 12.0169 8.57834C12.0403 8.6784 12.0832 8.77284 12.1433 8.8562C12.2033 8.93957 12.2793 9.01021 12.3668 9.06405C12.4543 9.11788 12.5516 9.15385 12.6531 9.16986C14.4974 9.48 15.8906 11.1561 15.8906 13.0694C15.8906 13.2757 15.9726 13.4736 16.1184 13.6194C16.2643 13.7653 16.4621 13.8472 16.6684 13.8472C16.8747 13.8472 17.0725 13.7653 17.2184 13.6194C17.3642 13.4736 17.4462 13.2757 17.4462 13.0694C17.4462 10.4056 15.4949 8.06931 12.9078 7.63569H12.9098ZM22.1128 17.7361V20.0694C22.1128 20.482 21.949 20.8777 21.6572 21.1694C21.3655 21.4611 20.9698 21.625 20.5573 21.625H3.44618C3.03362 21.625 2.63796 21.4611 2.34624 21.1694C2.05451 20.8777 1.89063 20.482 1.89062 20.0694V17.7361C1.89062 17.3236 2.05451 16.9279 2.34624 16.6362C2.63796 16.3444 3.03362 16.1806 3.44618 16.1806V13.0694C3.44615 11.9404 3.66958 10.8225 4.10361 9.78026C4.53763 8.73798 5.17366 7.79192 5.97503 6.99661C6.7764 6.20129 7.72726 5.57246 8.7728 5.14635C9.81834 4.72024 10.9379 4.50529 12.0669 4.51389C16.7481 4.54889 20.5573 8.43097 20.5573 13.1667V16.1806C20.9698 16.1806 21.3655 16.3444 21.6572 16.6362C21.949 16.9279 22.1128 17.3236 22.1128 17.7361ZM5.00174 16.1806H19.0017V13.1667C19.0017 9.27778 15.8858 6.09764 12.0552 6.06944H12.0017C10.1452 6.06944 8.36474 6.80694 7.05199 8.1197C5.73923 9.43245 5.00174 11.2129 5.00174 13.0694V16.1806ZM20.5573 20.0694V17.7361H3.44618V20.0694H20.5573Z" fill="#DE5E56"/>
</svg>
