<svg width="24" height="24" viewBox="0 0 24 24" fill="none" xmlns="http://www.w3.org/2000/svg">
<path d="M11.222 2.18056V1.40278C11.222 1.1965 11.3039 0.998667 11.4498 0.852806C11.5957 0.706944 11.7935 0.625 11.9998 0.625C12.2061 0.625 12.4039 0.706944 12.5498 0.852806C12.6956 0.998667 12.7776 1.1965 12.7776 1.40278V2.18056C12.7776 2.38684 12.6956 2.58467 12.5498 2.73053C12.4039 2.87639 12.2061 2.95833 11.9998 2.95833C11.7935 2.95833 11.5957 2.87639 11.4498 2.73053C11.3039 2.58467 11.222 2.38684 11.222 2.18056ZM18.9998 5.29167C19.102 5.29175 19.2031 5.2717 19.2976 5.23266C19.392 5.19363 19.4778 5.13637 19.5501 5.06417L20.3278 4.28639C20.4738 4.14045 20.5558 3.94251 20.5558 3.73611C20.5558 3.52972 20.4738 3.33178 20.3278 3.18583C20.1819 3.03989 19.984 2.9579 19.7776 2.9579C19.5712 2.9579 19.3732 3.03989 19.2273 3.18583L18.4495 3.96361C18.3406 4.07239 18.2664 4.21103 18.2364 4.36198C18.2063 4.51294 18.2217 4.66942 18.2806 4.81161C18.3396 4.95381 18.4393 5.07533 18.5674 5.16078C18.6954 5.24624 18.8459 5.29179 18.9998 5.29167ZM4.44951 5.06417C4.59545 5.21011 4.79339 5.2921 4.99978 5.2921C5.20618 5.2921 5.40412 5.21011 5.55006 5.06417C5.696 4.91822 5.77799 4.72028 5.77799 4.51389C5.77799 4.30749 5.696 4.10955 5.55006 3.96361L4.77228 3.18583C4.62634 3.03989 4.4284 2.9579 4.22201 2.9579C4.01561 2.9579 3.81767 3.03989 3.67173 3.18583C3.52578 3.33178 3.44379 3.52972 3.44379 3.73611C3.44379 3.94251 3.52578 4.14045 3.67173 4.28639L4.44951 5.06417ZM12.9078 7.63569C12.8067 7.6178 12.7029 7.62013 12.6027 7.64255C12.5024 7.66497 12.4076 7.70704 12.3236 7.76632C12.2397 7.8256 12.1684 7.90092 12.1137 7.98793C12.0591 8.07494 12.0222 8.17191 12.0053 8.27325C11.9883 8.37459 11.9916 8.47828 12.015 8.57834C12.0383 8.6784 12.0813 8.77284 12.1413 8.8562C12.2014 8.93957 12.2773 9.01021 12.3649 9.06405C12.4524 9.11788 12.5497 9.15385 12.6512 9.16986C14.4955 9.48 15.8887 11.1561 15.8887 13.0694C15.8887 13.2757 15.9706 13.4736 16.1165 13.6194C16.2623 13.7653 16.4602 13.8472 16.6664 13.8472C16.8727 13.8472 17.0706 13.7653 17.2164 13.6194C17.3623 13.4736 17.4442 13.2757 17.4442 13.0694C17.4442 10.4056 15.493 8.06931 12.9059 7.63569H12.9078ZM22.1109 17.7361V20.0694C22.1109 20.482 21.947 20.8777 21.6553 21.1694C21.3636 21.4611 20.9679 21.625 20.5553 21.625H3.44423C3.03167 21.625 2.63601 21.4611 2.34428 21.1694C2.05256 20.8777 1.88867 20.482 1.88867 20.0694V17.7361C1.88867 17.3236 2.05256 16.9279 2.34428 16.6362C2.63601 16.3444 3.03167 16.1806 3.44423 16.1806V13.0694C3.44419 11.9404 3.66763 10.8225 4.10165 9.78026C4.53568 8.73798 5.17171 7.79192 5.97308 6.99661C6.77445 6.20129 7.72531 5.57246 8.77084 5.14635C9.81638 4.72024 10.9359 4.50529 12.0649 4.51389C16.7462 4.54889 20.5553 8.43097 20.5553 13.1667V16.1806C20.9679 16.1806 21.3636 16.3444 21.6553 16.6362C21.947 16.9279 22.1109 17.3236 22.1109 17.7361ZM4.99978 16.1806H18.9998V13.1667C18.9998 9.27778 15.8838 6.09764 12.0533 6.06944H11.9998C10.1433 6.06944 8.36279 6.80694 7.05003 8.1197C5.73728 9.43245 4.99978 11.2129 4.99978 13.0694V16.1806ZM20.5553 20.0694V17.7361H3.44423V20.0694H20.5553Z" fill="#DE5E56"/>
</svg>
