<svg width="68" height="68" viewBox="0 0 68 68" fill="none" xmlns="http://www.w3.org/2000/svg">
<rect width="68" height="68" rx="8" fill="#2E80EC"/>
<rect x="4.5332" y="4.5332" width="58.9333" height="58.9333" rx="6" fill="white"/>
<rect x="9.99951" y="9.99902" width="48.0007" height="48.0007" rx="4" fill="#2E80EC"/>
<path d="M26.474 18.1338C24.4793 18.1338 22.6184 19.6774 22.6728 21.8625C22.7295 24.1677 23.2168 25.9221 23.9557 27.3183C24.6947 28.7101 25.6512 29.6757 26.5397 30.4463C26.848 30.7138 27.1653 30.9677 27.4532 31.2011L27.7864 31.4731C28.1695 31.7859 28.4823 32.0579 28.7384 32.3322C29.2235 32.8445 29.466 33.3205 29.466 34.0005C29.466 34.6805 29.2235 35.1565 28.7429 35.6687C28.4868 35.9407 28.174 36.215 27.7909 36.5301L27.4555 36.7998C27.1477 37.0457 26.8439 37.2965 26.5443 37.5523C25.6535 38.323 24.6969 39.2909 23.9603 40.6803C23.2168 42.0766 22.7295 43.831 22.6683 46.1339C22.6116 48.3213 24.4771 49.8671 26.474 49.8671H41.5201C43.5171 49.8671 45.3825 48.3213 45.3259 46.1339C45.2647 43.831 44.7773 42.0766 44.0384 40.6826C43.2995 39.2886 42.3429 38.3253 41.4544 37.5546C41.1461 37.2871 40.8311 37.0333 40.5432 36.7998L40.21 36.5278C39.8728 36.2643 39.5546 35.9772 39.258 35.6687C38.7752 35.1565 38.5327 34.6805 38.5327 34.0005C38.5327 33.3205 38.7775 32.8445 39.258 32.3322C39.5164 32.0579 39.8292 31.7859 40.21 31.4709L40.5455 31.2011C40.8333 30.9699 41.1507 30.7138 41.4589 30.4463C42.3497 29.6757 43.3063 28.7101 44.0429 27.3183C44.7841 25.9221 45.2715 24.1677 45.3281 21.8625C45.378 19.6774 43.5148 18.1338 41.5224 18.1338H26.474ZM24.9372 21.8058C24.9191 21.0805 25.5583 20.4005 26.4763 20.4005H41.5224C42.4381 20.4005 43.0773 21.0805 43.0592 21.8058C43.0093 23.8095 42.5923 25.2103 42.0392 26.2553C41.4861 27.3002 40.754 28.0573 39.9743 28.7327C39.6954 28.973 39.428 29.1906 39.1515 29.4127L38.7729 29.7187C38.3587 30.0462 37.9679 30.4021 37.6033 30.7841C36.844 31.591 36.266 32.5951 36.266 34.0005C36.266 35.4013 36.8417 36.4077 37.6011 37.2191C37.9637 37.6045 38.374 37.9558 38.7707 38.2822L39.1492 38.5882C39.4235 38.8103 39.6932 39.0279 39.9697 39.2682C40.7495 39.9437 41.4771 40.6962 42.0324 41.7457C42.5877 42.7883 43.0071 44.1891 43.0569 46.1929C43.0751 46.9182 42.4359 47.6005 41.5179 47.6005H26.474C25.556 47.6005 24.9168 46.9182 24.9349 46.1929C24.9871 44.1891 25.4064 42.7883 25.9595 41.7457C26.5171 40.6985 27.2447 39.9437 28.0267 39.2682C28.3055 39.0279 28.5729 38.8126 28.8472 38.5882L29.228 38.2822C29.6247 37.9558 30.0349 37.6067 30.3976 37.2169C31.1569 36.4077 31.7349 35.4035 31.7349 33.9982C31.7349 32.5974 31.1547 31.5933 30.3976 30.7818C30.0322 30.4006 29.6406 30.0453 29.2257 29.7187L28.8472 29.4127C28.5729 29.1906 28.3032 28.973 28.0244 28.7327C27.2447 28.0573 26.5148 27.3025 25.9617 26.2553C25.4064 25.2126 24.9893 23.8095 24.9417 21.8058M27.9632 25.1922L27.834 24.9338H40.1647C40.1239 25.0245 40.0815 25.1106 40.0377 25.1922C39.666 25.8949 39.1651 26.4389 38.4941 27.0169C38.2448 27.2322 38.0181 27.4135 37.762 27.6221L37.3381 27.9643C36.847 28.3549 36.3835 28.779 35.9509 29.2337C34.9105 30.3398 33.9993 31.8743 33.9993 34.0005C33.9993 31.8743 33.0859 30.3398 32.05 29.2337C31.616 28.7789 31.1509 28.3548 30.6583 27.9643L30.2367 27.6243C29.9783 27.4135 29.7539 27.2322 29.5045 27.0169C28.8336 26.4366 28.3327 25.8949 27.9587 25.1922M40.7336 45.3338H27.256C27.3784 44.1574 27.664 43.3686 27.9587 42.8087C28.3327 42.1061 28.8336 41.5621 29.5068 40.9841C29.7561 40.7687 29.9783 40.5874 30.2367 40.3789L30.6605 40.0343C31.0708 39.6989 31.5785 39.2705 32.05 38.765C33.0859 37.6611 33.9993 36.1289 33.9993 34.0005C33.9993 36.1243 34.9083 37.6589 35.9441 38.765C36.4156 39.2705 36.9211 39.6989 37.3313 40.0343L37.7552 40.3766C38.0136 40.5851 38.2357 40.7665 38.4851 40.9818C39.156 41.5621 39.6569 42.1038 40.0309 42.8087C40.3256 43.3663 40.6112 44.1574 40.7336 45.3338Z" fill="white"/>
</svg>
