<svg width="16" height="16" viewBox="0 0 16 16" fill="none" xmlns="http://www.w3.org/2000/svg">
<g clip-path="url(#clip0_619_5280)">
<path fill-rule="evenodd" clip-rule="evenodd" d="M8 0.5C8.36964 0.5 8.66964 0.8 8.66964 1.16964V2.54964C9.88527 2.69989 11.0159 3.25188 11.882 4.118C12.7481 4.98412 13.3001 6.11473 13.4504 7.33036H14.8304C15.008 7.33036 15.1783 7.40091 15.3039 7.52649C15.4294 7.65207 15.5 7.8224 15.5 8C15.5 8.1776 15.4294 8.34793 15.3039 8.47351C15.1783 8.59909 15.008 8.66964 14.8304 8.66964H13.4504C13.3001 9.88527 12.7481 11.0159 11.882 11.882C11.0159 12.7481 9.88527 13.3001 8.66964 13.4504V14.8304C8.66964 15.008 8.59909 15.1783 8.47351 15.3039C8.34793 15.4294 8.1776 15.5 8 15.5C7.8224 15.5 7.65207 15.4294 7.52649 15.3039C7.40091 15.1783 7.33036 15.008 7.33036 14.8304V13.4504C6.11473 13.3001 4.98412 12.7481 4.118 11.882C3.25188 11.0159 2.69989 9.88527 2.54964 8.66964H1.16964C0.992043 8.66964 0.821716 8.59909 0.696134 8.47351C0.570551 8.34793 0.5 8.1776 0.5 8C0.5 7.8224 0.570551 7.65207 0.696134 7.52649C0.821716 7.40091 0.992043 7.33036 1.16964 7.33036H2.54964C2.69989 6.11473 3.25188 4.98412 4.118 4.118C4.98412 3.25188 6.11473 2.69989 7.33036 2.54964V1.16964C7.33036 0.8 7.63036 0.5 8 0.5ZM3.84821 8C3.84821 8.54522 3.9556 9.0851 4.16425 9.58882C4.3729 10.0925 4.67872 10.5502 5.06424 10.9358C5.44977 11.3213 5.90746 11.6271 6.41118 11.8357C6.9149 12.0444 7.45478 12.1518 8 12.1518C8.54522 12.1518 9.0851 12.0444 9.58882 11.8357C10.0925 11.6271 10.5502 11.3213 10.9358 10.9358C11.3213 10.5502 11.6271 10.0925 11.8357 9.58882C12.0444 9.0851 12.1518 8.54522 12.1518 8C12.1518 6.89888 11.7144 5.84285 10.9358 5.06424C10.1571 4.28563 9.10112 3.84821 8 3.84821C6.89888 3.84821 5.84285 4.28563 5.06424 5.06424C4.28563 5.84285 3.84821 6.89888 3.84821 8ZM6.66071 8C6.66071 7.6448 6.80182 7.30415 7.05298 7.05298C7.30415 6.80182 7.6448 6.66071 8 6.66071C8.3552 6.66071 8.69585 6.80182 8.94702 7.05298C9.19818 7.30415 9.33929 7.6448 9.33929 8C9.33929 8.3552 9.19818 8.69585 8.94702 8.94702C8.69585 9.19818 8.3552 9.33929 8 9.33929C7.6448 9.33929 7.30415 9.19818 7.05298 8.94702C6.80182 8.69585 6.66071 8.3552 6.66071 8Z" fill="#2E80EC"/>
</g>
<defs>
<clipPath id="clip0_619_5280">
<rect width="15" height="15" fill="white" transform="translate(0.5 0.5)"/>
</clipPath>
</defs>
</svg>
